
<svg xmlns="http://www.w3.org/2000/svg" version="1.1" xmlns:xlink="http://www.w3.org/1999/xlink" preserveAspectRatio="none" x="0px" y="0px" width="250px" height="390px" viewBox="0 0 250 390">
<defs>
<linearGradient id="Gradient_1" gradientUnits="userSpaceOnUse" x1="18.299999999999983" y1="129.6" x2="269.1" y2="129.6" spreadMethod="pad">
<stop  offset="0%" stop-color="#FAC496"/>

<stop  offset="24.313725490196077%" stop-color="#F4D7B7"/>

<stop  offset="63.92156862745098%" stop-color="#ECF4E8"/>

<stop  offset="83.52941176470588%" stop-color="#E9FFFB"/>
</linearGradient>

<linearGradient id="Gradient_2" gradientUnits="userSpaceOnUse" x1="189.775" y1="188.97500000000002" x2="190.32500000000002" y2="299.625" spreadMethod="pad">
<stop  offset="0%" stop-color="#95D7D6"/>

<stop  offset="100%" stop-color="#DA9E8B"/>
</linearGradient>

<linearGradient id="Gradient_3" gradientUnits="userSpaceOnUse" x1="-819.2" y1="0" x2="819.2" y2="0" spreadMethod="pad">
<stop  offset="0%" stop-color="#95D7D6"/>

<stop  offset="100%" stop-color="#DA9E8B"/>
</linearGradient>

<g id="Layer1_0_MEMBER_1_FILL">
<path fill="url(#Gradient_1)" stroke="none" d="
M 269.1 129.6
Q 269.1 77.65 232.35 40.9 195.65 4.2 143.7 4.2 91.75 4.2 55 40.9 18.3 77.65 18.3 129.6 18.3 181.55 55 218.25 91.75 255 143.7 255 195.65 255 232.35 218.25 269.1 181.55 269.1 129.6 Z"/>
</g>

<g id="Layer1_0_MEMBER_3_FILL">
<path fill="url(#Gradient_1)" stroke="none" d="
M 269.1 129.6
Q 269.1 77.65 232.35 40.9 195.65 4.2 143.7 4.2 91.75 4.2 55 40.9 18.3 77.65 18.3 129.6 18.3 181.55 55 218.25 91.75 255 143.7 255 195.65 255 232.35 218.25 269.1 181.55 269.1 129.6 Z"/>
</g>

<g id="Layer1_1_FILL">
<path fill="#053336" stroke="none" d="
M 186.9 284.1
Q 186.348046875 284.2615234375 185.95 284.35 185.15 284.45 185 284.6 184.5 284.95 184.65 285.45 185.667578125 285.3046875 187.15 284.85 188.2314453125 284.50234375 189.55 284
L 192.3 282.9
Q 193.65 282.35 193.85 281.65
L 188.6 283.55
Q 187.623828125 283.884765625 186.9 284.1
M 176.05 285.55
L 175.5 285.95
Q 175.25 286.3 175.55 286.5
L 185.75 282.65 187.6 282
Q 188.95 281.45 189.3 281.1 189.25 280.75 188.85 280.65 188.4 280.65 188 280.85
L 184.75 282.1 176.05 285.55
M 181.3 219.95
L 180.75 219.95
Q 180.2 222.15 179.3 223.5 178.85 224.15 176.55 226.35 175.8384765625 227.0423828125 175.15 227.85 172.225 231.325 169.6 237.1 166.7 243.65 164.6 250.85 164.35 251.75 164.85 251.8 165.25 251.65 165.5 250.85 168.65 242.2 170.45 237.9 171.9494140625 234.6103515625 173.6 231.95 175.7021484375 228.6701171875 178.05 226.35 179.6 224.8 180 224.2 180.95 222.7 181.3 219.95
M 218.35 201.9
Q 218.35 201.35 218.1 201.2 217.9 201 217.6 201.1 217.35 201.25 217.25 201.55 217.1 201.85 217.25 202.6 217.4 204.2 217 206.25 216.85 206.95 216 209.8 214.6 214.4 212.8 223.4
L 213.4 223.45 213.7 223.5 217.3 210.65
Q 217.9109375 208.0701171875 218.15 206.6 218.3017578125 205.9333984375 218.35 205.5
L 218.35 201.9
M 228.6 197.2
Q 228.8 196.4 228.35 196.4
L 226.2 204.9 225.55 207.5 225.8 207.75
Q 226.2 207.1 226.35 206.1 227.1 202.15 228.6 197.2
M 195.4 195.45
L 195.15 194.65
Q 194.85 194.15 194.45 194.4 194.75 197.25 196.4 199.45 196.9 200.15 197.9 201.35 198.3544921875 202.0318359375 198.65 202.4 198.9767578125 202.8009765625 199.15 202.9 199.0541015625 202.5849609375 198.85 202.15 198.334375 201.037890625 197.1 199.15 195.65 196.9 195.4 195.45
M 194.4 203.4
Q 194.65 202.75 194.45 202.35 194.15 202.2 193.85 202.85 192.75 205.7 192.55 206.75 192.25 208.6 192.15 208.75 192 209.3 192.15 209.45 192.75 208.85 193.05 207.85
L 193.25 206.65
Q 193.35 206 193.75 205.05 194.35 203.65 194.4 203.4
M 187.55 187.05
Q 188.6 186.6 188.7 186.3
L 188.35 185.95
Q 188.1 186.15 187.8 186.15 186.55 186.5 185.55 187.25 185.1 187.55 185.05 187.9 185.55 187.95 186.5 187.4 186.85 187.3 187.55 187.05
M 166.8 131.6
Q 166.6 131.1 166.3 131.25 166.05 131.25 165.95 131.65 165.7 132.45 166.2 133.35 166.35 133.75 167.3 134.8 169 136.6 170.05 137.4 171.75 138.75 173.4 139.15 173.95 139.15 173.8 138.9 171.35 137.6 167.65 133.8 166.85 132.9 166.8 132.35
L 166.8 131.6
M 210.85 140.4
Q 210.8 140.4 210.75 140.45 209.65 139.6 207.8 138.9 204.4 137.6 197.4 135.75
L 187.95 133.5 179.6 131.55
Q 175.2 130.6 173.45 130.5 173 130.5 172.75 130.6 172.45 130.75 172.45 131 171.8 130.5 171.25 130.05 169.5 128.8 168.1 128.9 168.15 130 170 131.6 173.95 135.15 178 141.35 180.35 144.9 184.75 152.15 186.95 155.35 188.55 157.05 190 158.6 193.2 161.3 193.75 161.85 194.35 162.5 194.2 162.55 194.1 162.65
L 193.2 163.35
Q 192.55 164.15 192.1 165.15 191.85 165.6 191.9 165.85 192.65 165.55 193 165
L 193.4 164.3 194.85 163.05
Q 195.2 163.55 195.65 164.05
L 193.5 166.1
Q 193.05 166.4 193 166.85
L 193.55 166.95 193.8 166.8 196.05 164.6
Q 196.6 165.4 197.2 166.25 198.4 167.9 200.65 171.7
L 206.6 181.8
Q 209.45 186.6 211.1 189 213.8 192.9 216.55 195.45 216.8 194.45 216.15 193.2 215.8 192.6 214.7 191.15 213 188.95 211.1 185.2 208.05 179.05 208 178.9 206.9 177 203.9 172.5 201.25 168.45 199.95 166 199.15 164.4 198.7 163.6 197.95 162.25 197.2 161.4 196.55 160.6 193.25 157.9 191.75 156.7 190.05 154.6 190.1 154.65 190.25 154.75 193.8 156.65 197.1 158.9 198.05 159.65 198.7 159.25 197.15 157.25 193.65 155.15 189.1 152.4 188.05 151.55 187.6 151.25 187.35 151.2 185.05 148.05 182.4 143.8 177.1 135.15 172.7 131.25 174.65 131.6 178.3 132.5
L 187.3 134.75 195.15 136.75
Q 202.95 138.8 206.1 140.15 207.85 140.95 209.15 141.15 207.437890625 141.9169921875 205.8 142.8 201.5576171875 145.2375 198 148.65 198.6 148.9 199.6 148.2 202.563671875 145.891796875 205.75 143.9 208.1912109375 142.440234375 210.75 141.15 211.05 141.1 211.3 140.95 211.3 140.9 211.25 140.9 211.3 140.85 211.35 140.85
L 210.85 140.4
M 210 134.3
Q 209.35 134.1 206.75 133.7 201.75 132.8 194.4 129.7 183.9 125.15 182.3 124.6 174.15 121.75 161.8 120.35 157.45 119.75 155.1 120.7 153.45 121.4 152.55 122.9 152.05 123.7 151.95 124.5 151.5 124.8 151.45 125.55 151.45 126.1 151.5 127.2 151.5 127.4 151.4 128.15 151.3 128.7 151.4 129.1 151.7 129.7 152.25 130.05
L 153.45 130.55
Q 153.35 131 153.3 131.55
L 153.1 135.15
Q 153.1 136.8 153.35 137.4 153.75 138.35 155 139.2 159.2 142.35 163.85 144.4 165.65 145.2 166.9 145.25 174.15 152.95 177.65 163.1 178.35 165.15 179.8 169.25 180.1 169.9 181.3 172.1 181.2 172.3 181.05 172.55 180.2 174.2 180.1 178.35
L 180.1 188.4
Q 179.95 193.45 179.85 194.5 179.6 196.6 178.85 197.8 178.55 198.3 177.9 198.85
L 176.85 199.85
Q 174.95 201.55 173.8 204.1 173.65 204.25 173.55 204.35 170.8 207.05 170.3 207.5 168.45 209.15 164.4 212.05 160.95 215 160.15 218.15 160 218.45 159.5 221.7 159.35 222.95 158.6 225.4
L 152.95 244.45
Q 151.75 248.35 151.5 250.65 151.15 254.1 152.4 256.6 153.05 257.9 154.55 259.75
L 159.65 265.85
Q 160 266.35 160.4 266.4
L 160.45 266.4
Q 160.3 268.45 160.3 271.35 160.2 272.85 160.55 273.7 160.8 274.25 161.9 275.45 163 276.65 164.9 278.8
L 167.9 281.85
Q 166.35 284.9 169.8 290.3 172.7556640625 294.976171875 183 312.35 184.355078125 314.6576171875 185.85 317.2 198.2 338.25 207.4 367.95
L 209.95 367.95
Q 209.6 361.55 200.95 342.95 194.7623046875 329.730859375 183.5 309.25 176.737109375 296.9869140625 168.15 282.1
L 172.85 284.65 166.3 277
Q 164.85 275.25 164 274.35 163.05 273.45 162.9 273 162.65 272.35 162.65 271.55
L 162.5 268
Q 162.5 265.85 162.65 264.8
L 163 262.55
Q 162.75 260.15 162.9 259 163.5 256.3 163.15 255.05 162.9 254.4 162.45 254.35 161.85 254.25 161.7 255.1
L 161.7 256.25
Q 161.65 256.7 161.3 257.5 161.05 258.05 161.05 260.25 161.05 261.4 160.75 263.55 160.05 262.45 158.9 261.1 157.4 259.3 156.65 258.4 153.95 255.05 153.9 252.05 153.9 250.7 154.6 248
L 160.85 226.5
Q 161.7 223.15 161.9 222.15 162.4 218.7 162.6 217.95 163.3 215.8 165.6 213.7 168.45 211.45 169.8 210.35 172.85 207.85 177.8 201.85 179.7 200.4 180.5 199.4 181.6 198.1 182 195.2 182.1 193.9 182.1 191.4 182.2 184.4 181.9 177.45 181.85 176.35 181.9 175.25
L 182.15 174.05
Q 182.2 173.95 182.3 173.8 182.75 174.7 183.4 175.8 185.6 179.6 189.8 187.4 193.75 193.9 198.2 197.2 190.8 184.95 184.5 172.5 181.6 166.9 180.1 162.8 178.85 159.2 178.1 157.4 176.15 152.65 172.05 147.5 169.8 144.7 164.15 138.75 163.05 137.55 162.8 137 162.1 135.2 163.4 133.35 163.6521484375 132.9845703125 163.95 132.65 164.87890625 131.6732421875 166.3 131 166.85 130.7 167.1 130.2 167.5 129.6 167 129.35 166.75 129.4 166.5 129.5 164.8 128.7 161.25 128.7
L 156.35 128.8
Q 154.626953125 128.8 154 129.4 153.9755859375 129.422265625 153.95 129.45
L 153.95 129.5
Q 153.9029296875 129.4294921875 153.8 129.35 153.755859375 129.255859375 153.65 129.15
L 153.5 129 153.1 128.7
Q 152.9 128.35 152.9 127.95 152.65 126.3 153.1 125.35 153.5 124.7 153.65 124.3 153.75 123.95 153.7 123.7 154.25 123.35 154.95 123.05 155.0791015625 122.9970703125 155.2 122.95 157.0787109375 122.2533203125 159.6 122.3 165.1537109375 122.4431640625 172.25 124.3 177.5447265625 125.6990234375 183.7 128.05 203.3 135.5 207.4 136.55 210.05 137.15 211.1 138.2 211.9 139.15 212.45 140.95 213.55 144.4 215.4 150.2 213.8 146.25 211.95 142.55 211.8 142.2 211.6 142.05 211.65 141.95 211.7 141.9
L 211.3 141.45
Q 207.75 145.2 203.75 147.75 203.2001953125 148.11171875 202.75 148.4 201.7341796875 149.2169921875 201.45 149.75 203.337890625 148.882421875 205.05 147.75 205.3404296875 147.59921875 205.6 147.4 205.846875 147.253515625 206.1 147.05 208.8814453125 145.1193359375 211.25 142.5 211.55 143.6 212.5 145.9 215.5 152.45 217.95 161.35 218.965625 165.0609375 220.7 172.65 221.203125 174.8109375 221.75 177.25 223.1 183.5 224.75 186.05
L 222.25 175 222.1 174.2
Q 220.3 165.7 218.75 160.2 220.9 165.8 223.15 170.05 224.8 173.1 227.35 177.05 228.85 179.4 231.85 183.9 234.65 188.35 234.95 191 235.3 193.6 234.1 196.7 233.45 198.35 231.45 202.1 227.8 209.05 224.5 218.25 222.45 223.95 219.05 234.95
L 212.7 255.95
Q 210.75 262.3 210.05 265.85 209.25 270 209.6 273.55 208.5 272.35 207.3 271.3 210.9 278.55 212.25 282.65 212.65 283.8 213.5 287.3 214.3 290.2 214.85 291.95 216.55 296.85 220.4 302.35 222.3 305.05 227.8 311.7 238.4 324.55 243.55 333.9 244.3 335.2 246.1 338.75 247.65 341.8 248.7 343.5 249.0669921875 344.133984375 249.75 345.25 250.6419921875 346.60390625 252 348.65
L 252 344.4
Q 251.4064453125 343.494140625 251.05 342.9 249.85 340.9 248.15 337.35 246 333.05 245.25 331.65 241.7 325.1 234.4 316.1 223.95 303.2 222.5 301.15 219.05 296.6 217.6 292.9 216.8 291 215.9 287.3 214.9 283.35 214.3 281.65 212.9 277.85 210.55 274.8 211 273.8 211.25 272.6 211.4 271.75 211.8 268.85 212.25 265.25 214.35 258.6
L 223.15 230.05
Q 226.05 220.7 227.8 215.8 230.7 208.05 233.95 202.15 236 198.35 236.45 197.4 237.65 194.65 237.65 192.3 237.65 189.6 236.15 186.6 235.3 185 232.9 181.45 224.5 169.1 219.45 155.05 217.35 149.4 214.9 140.25 214.05 137.05 212.8 135.8 211.85 134.85 210 134.3
M 162.05 140.1
Q 162.4 140.55 163 141.2 160.3 139.9 157.85 138.35 156.35 137.4 155.75 136.5 154.75 135.1 155.1 132.15
L 160.4 132.2
Q 161.35 132.25 162.15 132.15 160.45 134.05 160.5 136.3 160.55 138.15 162.05 140.1
M 165.35 129.95
Q 163.95 130.55 162.9 131.5 162.1939453125 131.568359375 161.4 131.6 160.4845703125 131.65 159.45 131.65 156.45 131.7 155.1 131.8 155.15 131.15 155.3 130.5 156.662109375 130.5263671875 158 130.5 161.74609375 130.428125 165.35 129.95
M 74.25 278.25
Q 75.6 276.35 75.8 275.15 73.9 276.35 72.75 278.4 72.464453125 278.887890625 72.25 279.4 71.526171875 280.9974609375 71.45 282.75 71.45 283.531640625 71.4 284.05 71.3580078125 284.7029296875 71.25 285 71.190625 285.3267578125 71 285.7 70.8529296875 285.9658203125 70.65 286.25 70.4 286.6 69.85 287.35 68.55 289.25 68.15 292.1 68.0109375 292.934375 67.9 293.75 67.6884765625 296.259765625 67.95 298.8 68.3 297.7 69.05 293.7 69.6 290.45 70.7 288.8 71.45 287.85 71.8 287.35 72.4 286.5 72.65 285.75 72.85 285 72.75 283.5 72.6 281.95 72.75 281.2 72.9 280.1 74.25 278.25
M 80.5 268.9
Q 80.4 268.9 80 269.15 75.707421875 272.227734375 68.3 275.6 66.56015625 276.4328125 64.65 277.25 63.65 277.65 63.9 278.25 66.4646484375 277.471484375 69.65 276 73.415625 274.2830078125 78.05 271.6
L 80.25 270.35
Q 80.75 269.95 80.85 269.65 81 269.4 80.85 269.25 80.75 269 80.5 268.9
M 23.85 202.8
Q 23.803125 202.805859375 23.7 202.85 23.65 202.85 23.5 203.15 23.4900390625 203.35078125 23.45 203.55 23.43515625 205.250390625 23.75 206.15 23.95 206.7 24.55 207.8 25 208.65 25.6 210.55 25.9 210.95 26.15 210.9 25.95 210.05 25 207.75 24.2 205.75 24.15 204.55
L 24.05 203.2
Q 24.05 202.847265625 23.85 202.8
M 44.25 146.05
Q 44.75 146.05 44.8 145.9 44.5 145.6 43.4 145.2 42.3 144.75 41.05 143.65 51.9 141.35 64.6 135.45 64.05 135.75 64.35 136.05
L 73.65 131.35
Q 78.4 128.7 79.75 128.15 81 127.6 82.95 126.9 82.95 127.15 83.05 127.45
L 87.8 127.55
Q 88.6 127.55 89 127.5
L 89.7 127.2
Q 90.65 126.75 92 125.7
L 91.75 125.35
Q 90.25 125.95 89.45 126.15 88.8 126.35 87.65 126.35
L 84.4 126.35
Q 85.2 126.05 86.05 125.7 89.75 124.3 91.9 122.8 92.1 122.85 92.7 122.85 93.1 122.9 94.5 123.45
L 96.3 124.45
Q 97.2 125.1 97.95 125.9 98.3603515625 126.438671875 98.6 126.8 98.826953125 127.180859375 98.9 127.4 99.55 128.6 99.55 130.7 99.55 132.1 99.3 132.7 99.05 133.5 98.45 134.3
L 97.55 135.5
Q 96.95 136.25 96.35 136.7 95.6 137.25 93.6 138.15
L 88.4 140.4
Q 84.7 142.05 83.5 142.7 83.45 141.4 83.3 140.55 83.225390625 139.928515625 83.05 139.35 82.926171875 138.827734375 82.7 138.35 82.05 136.85 81.1 136.5 80.6 136.3 79.6 136.45 78.7 136.5 75.6 137.1 71.55 137.95 69.55 138.5
L 65.15 139.8
Q 61.45 141 59.2 142.2 58.65 142.6 58.6 142.8 58.85 142.85 59.45 142.8
L 51.4 146.75 40.65 152.05
Q 37.85 153.3 36.85 154.85 36.25 155.75 36 157.3 35.9 158.2 35.75 160 35.6 162.5 34.5 167.1 32.3140625 175.956640625 29 185.25 27.9443359375 188.271875 26.75 191.35 26.1 192.85 26.75 193.55 27.069921875 193.0091796875 27.35 192.45 29.1166015625 189.2611328125 30.6 185.15 31.7 182.15 33.5 176.35 35.15 170.65 35.75 168.15 36.85 163.5 37.15 159.7 37.35 157.8 37.4 157.4 37.6 156.15 38.15 155.3 38.95 154.2 41.6 152.9 50.3787109375 148.551171875 58.3 144.3 60.1626953125 143.3232421875 61.95 142.35 61.95 142.3 61.9 142.25 65.8 141.25 69.3 140.45 69.35 140.6 69.4 140.8 69.8 141.4 70.4 141.5 70.65 141.65 71.15 141.65
L 73.3 141.7
Q 73.75859375 141.71171875 74.2 141.7 77.405859375 141.705859375 78.95 141 79.45 140.85 79.25 140.6 77.6900390625 140.71640625 76 140.7 74.10703125 140.7568359375 72.05 140.65 70.95 140.65 70.3 140.3 74 139.35 77.3 138.7 79.6 138.25 80.5 138.45 80.4412109375 138.9208984375 80.7 139.65 80.900390625 140.1919921875 81.25 140.85 81.5 141.7 81.35 143.55 81.35 144.95 81.3 145.1 81.25 145.35 80.6 146.1 77.2 149.75 70.35 151.55 68.2 152.05 67.15 152.4 63.35 154.1 61.4 154.75 59.7 155.3 59.4 156 59.2 156.4 59.3 156.7 59.2 157 58.95 157.75 58.75 158.9 57.85 161.6 54.45 170.7 52.2 174.45 49.95 178.5 49.8 178.95 48.7 181.9 49.55 184.05 49.9 185 51.05 186.8 51.75 188.15 52.55 191.1 52.7 191.7 53.45 193.35 54.05 194.7 54.25 195.55 54.75 197.45 54.3 200.85 53.75 204.65 53.95 206.15 54.3 209.3 57.25 213.7 60.85 219.25 61.6 221.05 62.2 222.6 63 222.15 62.75 219.15 59.7 214.05 56.5 208.75 56.2 205.9 56.034375 204.4919921875 56.3 201.8 56.37265625 201.259765625 56.45 200.65 56.490625 200.2029296875 56.55 199.75 56.6109375 199.1638671875 56.7 198.6 58.4 199.4 60.6 201.4 61.5833984375 202.2849609375 62.35 202.95 64.009765625 204.3458984375 64.85 204.85 65.65 205.4 66.2 205.1 66.096875 204.9142578125 65.9 204.65 65.59921875 204.3611328125 65.1 203.95
L 58.9 198.8
Q 57.65 198 56.7 197.65 56.7 196.3 56.55 195.45 56.2 193.65 55 190.95
L 52.3 185.1
Q 51.85 184.15 51.6 183.35
L 55.75 182.7
Q 58 182.35 58.9 181.55
L 58.65 181.15
Q 58.05 181.55 55.7 181.65 54.25 181.8 51.75 182.4 51.55 182.45 51.45 182.5 51.35 182.35 51.35 182.2 51.85 182.1 52.55 181.85 56 180.5 59.45 180.3 60.3 180.3 60.1 179.8 58.3 179.2 55.55 179.75 54.8 179.95 51.35 181.1 51.5 180.2 52.45 178.5 58.2 168.25 60.65 157.35 60.65 157.25 60.75 157.1 61.75 157 63.05 156.55 62.95 157.25 62.7 158.15 62.15 160 62.15 160.9
L 62.15 162.75
Q 62.1 163.2 61.7 164.05 61.55 164.75 61.65 166.85 61.65 167.6 61.55 170.4 61.4 172.6 61.6 173.95 61.75 175.05 62.15 176.15 63 178.25 63.1 178.65 63.3 179.45 63.3 181.8 63.3 185.45 63.6 188
L 63.6 188.1
Q 63.3 188.15 63.2 188.7 63.1 189.25 63.35 189.8 64.4 191.8 66.85 194.45 70.1 197.85 70.75 198.75 72.05 200.45 73.65 203.75 75.5 207.55 76.3 208.9 77.95 211.65 81.9 216.65 84.5 220.4 88.4 228.6 90.1 232.25 90.45 233.85 91 236.05 91.15 240.55 91.4 248.5 91 252.4 90.4 257.85 90.35 258.75 90.3 259.6 90.25 261.25 90.05 262.7 89.7 263.65 89.3 264.75 88.35 266 87.95 266.5 86.5 268.05 85.8 268.85 85.15 269.65 86.007421875 267.0345703125 85.75 264.9 85.7212890625 264.5419921875 85.65 264.2 85.5 263.65 85.15 263.25 84.9509765625 263.0509765625 84.75 263 84.5451171875 262.9326171875 84.35 263.1 84 263.4 84.1 264.2 84.35 266.7 83.15 269.85 82.75 270.75 80.6 275.15 79.5 277.55 76.95 284.4
L 75.15 289.4
Q 70.238671875 305.98515625 64.4 322.2 62.5296875 327.4439453125 60.55 332.65 54.05 349.75 51.2 367.95
L 52.7 367.95
Q 56.45 351.55 62.1 335.3 70.15 312.35 78.05 289.35 78.6 287.85 78.95 286.6 79.25 285.65 80.4 281.75 81.15 278.8 81.9 277 82.95 274.85 83.7 273.2
L 88.65 268.45
Q 91 266.3 91.7 264.65 92.1 263.7 92.3 262.3 92.5 260.7 92.55 259.95 93.05 255.6 93.25 253.4 93.7 248.55 93.45 238.8 93.35 234.45 92.75 232.4 92.35 230.8 90.7 227.55
L 88.1 222.25
Q 85.75 217.75 84.5 215.95 83.75 214.9 82.15 212.85 80.5 210.85 79.75 209.75 78.65 208.1 77.05 205.05 75.3 201.55 74.55 200.3 71.75 195.75 64.95 189 65 188.9 65.1 188.75 65.3 188.35 65.3 187.8 65.65 184.8 65.65 180.55 65.65 179.05 65.5 178.25 65.4 177.6 64.9 176.65 64.35 175.5 64.2 175.1 63.8 174 63.6 172.4 63.2 169.05 63.65 163.25
L 63.95 159.25
Q 64.05 157.35 63.9 156.25 64.75 155.9 66.05 155.35 67.35 154.85 70.5 154 73.4 153.2 74.95 152.55
L 76.45 151.85
Q 77.95 151.1 78.3 150.9 79.35 150.25 80.5 149.3
L 82.4 147.7
Q 83 147.2 83.2 146.85 83.55 146.3 83.45 145 83.7 144.95 83.9 144.8
L 94.4 140.25
Q 96.2 139.5 97.4 138.7 98.35 138.15 99.3 137.1 99.95 136.45 100.65 135.2 101.25 134.1 101.45 133.55 101.55 133 101.55 131.1 101.55 128.9 101.5 128.5 101.2056640625 126.7609375 100.15 125.3 99.2376953125 124.0193359375 97.75 122.95 96.35 122 94.95 121.6 94.65 121.05 93.85 120.5 92.5 119.6 91.75 119.4 89.8 118.8 86.45 120.95 61.6 136.15 39.75 142.15 38.65 142.45 38.05 142.85
L 37.9 142.9 37.9 143
Q 37.35 143.45 37.4 144.15
L 37.35 144.25
Q 37.3 144.4 37.25 144.5
L 37 144.4
Q 37 144.65 37.1 144.8 37.05 145 36.95 145
L 36.75 145.55
Q 36.55 145.65 36.55 145.9 36.5 146.1 36.4 146.1 36.4 146.3 36.15 146.55
L 36.15 146.6
Q 32.6 149.85 29.15 155 26.2 159.3 20.55 168.15 20.1 168.75 14.4 175.7 10.65 180.3 8.85 183.7 6.4 188.35 6.15 193.1 5.95 198.5 8.7 202.15 9.1 202.65 10.45 204.2 11.45 205.35 11.95 206.2 12.45 207.1 12.8 208.5 13.05 209.3 13.5 210.85 14.65 214.35 18.75 219.9 24.25 227.35 26.6 231.35 31.3 239.2 34.95 250 37.05 256.05 40.1 267.35 39.15 269.3 37.7 271.35 34.55 276 34.05 276.75 32.15 279.95 31.55 282.7 31.4 283.2 31.1 285.45 30.85 287.15 30.55 288.2 30.4 288.75 30.15 289.3 27.95 292.9 26.15 296.7 25.0650390625 298.978515625 24 301.25 18.7068359375 312.6453125 14 324.1 8.459375 337.5865234375 1 350.25
L 1 353.65
Q 5.4431640625 344.8955078125 10.2 336.3 21.5 315.75 30.15 293.95 31.3515625 292.4814453125 31.95 291.4 32.033984375 291.2763671875 32.1 291.15 32.9 289.5 33.25 286.65 33.8 283 34.05 282.1 34.7 279.65 36.5 276.75 38.75 273.45 39.85 271.8 44 265.35 43.3 260.7 43.15 260.1 42.8 259.6 42.35 259.15 41.9 259.3 42.15 261.7 41.2 264.6
L 41.2 264.5
Q 38.2 251.9 35.95 245.5 32.4 235.15 27.4 228 26.6 226.9 23.15 222.5 20.55 219.1 19.1 216.8 16.85 213.1 15.75 209.45 15 207.05 14.55 205.95 13.85 204.6 11.9 202.05 9.95 199.6 9.25 198.1 7.3 193.6 9.55 187.85 10.5400390625 185.5033203125 13.1 181.75 14.016796875 180.433203125 15.15 178.9 22.25 169.4 29.7 158.6 28.6 161.35 27.05 164.7 22.9 174.15 18.45 184.85 17.95 185.95 18.65 185.95 19.05 185.7 19.6 184.65
L 28.9 163.5
Q 31.35 158.05 32.45 154.55 34.816796875 151.06015625 37.15 147.5 37.766796875 146.6298828125 38.35 145.75
L 42.35 148.3
Q 43.15 148.75 43.55 148.6 42 147.4 39.6 146
L 38.65 145.3 38.7 145.25 38.8 145
Q 39 145 39 144.8
L 39.2 144.65 39.7 143.95 39.8 143.9
Q 40.1 143.85 40.35 143.8 42.45 145.6 44.25 146.05
M 92.75 121.45
Q 92.6 121.45 92.45 121.45 92.35 121.4 92.3 121.4 92.25 121.45 92.1 121.5 91.95 121.5 91.75 121.55 91.35 121.7 91.2 121.85 91.15 121.95 91.15 122.05 88.7 123.35 85.8 124.5 85.1 124.75 84.5 125 85.4 124.45 86.35 123.85 89.8 121.7 92.3 121.4 92.55 121.3 92.75 121.3
L 92.75 121.45
M 83.9 252.85
Q 83.85 251.2 82.45 248.85
L 75.7 237.15
Q 72.75 232.1 70.5 229.35 69.25 227.8 68.85 226.95 68.55 226 68.05 226.1 67.6 226.15 67.6 226.95 67.7 227.8 68.85 229.1 71.15 231.7 74.95 238.15
L 81.9 250.15
Q 82.75 251.5 82.9 252.4 82.95 252.65 82.95 253.85 82.95 254.8 83.25 255.3 83.9 254.3 83.9 252.85
M 38.6 155.55
Q 38.6 155.65 38.8 155.75 39.3 156 40.55 156.25
L 47.2 157.4
Q 47.4 157.5 47.55 157.4 47.75 157.3 47.7 157.2
L 38.95 155.4
Q 38.7 155.3 38.6 155.55
M 38.05 156.75
Q 37.95 156.8 38.05 156.95 38.15 157.05 38.25 157.05
L 46 158.2
Q 46.05 157.95 45.6 157.85
L 42.55 157.35
Q 39.45 156.85 38.05 156.75 Z"/>

<path fill="url(#Gradient_2)" stroke="none" d="
M 155.2 122.95
Q 155.0791015625 122.9970703125 154.95 123.05 154.25 123.35 153.7 123.7 153.75 123.95 153.65 124.3 153.5 124.7 153.1 125.35 152.65 126.3 152.9 127.95 152.9 128.35 153.1 128.7
L 153.5 129 155.2 122.95
M 164.35 132.85
Q 164.1646484375 132.752734375 163.95 132.65 163.6521484375 132.9845703125 163.4 133.35 162.1 135.2 162.8 137 163.05 137.55 164.15 138.75 169.8 144.7 172.05 147.5 176.15 152.65 178.1 157.4 178.85 159.2 180.1 162.8 181.6 166.9 184.5 172.5 190.8 184.95 198.2 197.2 193.75 193.9 189.8 187.4 185.6 179.6 183.4 175.8 182.75 174.7 182.3 173.8 182.2 173.95 182.15 174.05
L 181.9 175.25
Q 181.85 176.35 181.9 177.45 182.2 184.4 182.1 191.4 182.1 193.9 182 195.2 181.6 198.1 180.5 199.4 179.7 200.4 177.8 201.85 172.85 207.85 169.8 210.35 168.45 211.45 165.6 213.7 163.3 215.8 162.6 217.95 162.4 218.7 161.9 222.15 161.7 223.15 160.85 226.5
L 154.6 248
Q 153.9 250.7 153.9 252.05 153.95 255.05 156.65 258.4 157.4 259.3 158.9 261.1 160.05 262.45 160.75 263.55 161.05 261.4 161.05 260.25 161.05 258.05 161.3 257.5 161.65 256.7 161.7 256.25
L 161.7 255.1
Q 161.85 254.25 162.45 254.35 162.9 254.4 163.15 255.05 163.5 256.3 162.9 259 162.75 260.15 163 262.55
L 162.65 264.8
Q 162.5 265.85 162.5 268
L 162.65 271.55
Q 162.65 272.35 162.9 273 163.05 273.45 164 274.35 164.85 275.25 166.3 277
L 172.85 284.65 168.15 282.1
Q 176.737109375 296.9869140625 183.5 309.25 187.3 286.34375 187.3 286.1 187.3 285.416796875 187.15 284.85 185.667578125 285.3046875 184.65 285.45 184.5 284.95 185 284.6 185.15 284.45 185.95 284.35 186.348046875 284.2615234375 186.9 284.1 186.5232421875 283.2501953125 185.75 282.65
L 175.55 286.5
Q 175.25 286.3 175.5 285.95
L 176.05 285.55 184.75 282.1
Q 184.3599609375 281.9650390625 183.9 281.85 179.1 281.45 176.4 281.15 171.35 280.65 168.85 278.25 165.45 274.95 165.45 267.4 165.45 261.8 166.35 256.95 168.246875 246.780078125 173.6 231.95 171.9494140625 234.6103515625 170.45 237.9 168.65 242.2 165.5 250.85 165.25 251.65 164.85 251.8 164.35 251.75 164.6 250.85 166.7 243.65 169.6 237.1 172.225 231.325 175.15 227.85 175.753515625 226.2583984375 176.4 224.6 174.75 226.25 168.95 237.05 162.635546875 248.741796875 162.55 252.1
L 162.55 246.45
Q 162.55 244.35 163.8 238.5 165.4 231.2 167.75 225.2 168.6 222.8 175.95 213.9 184.2 203.95 187.3 203.95 189.8 203.95 192.5 214.25
L 192.5 213.7
Q 194.95 208.6 197.35 204.5 198.009375 203.3826171875 198.65 202.4 198.3544921875 202.0318359375 197.9 201.35 196.9 200.15 196.4 199.45 194.75 197.25 194.45 194.4 194.85 194.15 195.15 194.65
L 195.4 195.45
Q 195.65 196.9 197.1 199.15 198.334375 201.037890625 198.85 202.15 202.8505859375 196.45 206.85 196.45
L 206.85 194.75
Q 203.15 189.25 182.7 160.85 177.15 153.1 173.4 145.95 170.35 139.55 169.15 137.5 167.35 134.45 164.35 132.85
M 188.7 186.3
Q 188.6 186.6 187.55 187.05 186.85 187.3 186.5 187.4 185.55 187.95 185.05 187.9 185.1 187.55 185.55 187.25 186.55 186.5 187.8 186.15 188.1 186.15 188.35 185.95
L 188.7 186.3
M 194.45 202.35
Q 194.65 202.75 194.4 203.4 194.35 203.65 193.75 205.05 193.35 206 193.25 206.65
L 193.05 207.85
Q 192.75 208.85 192.15 209.45 192 209.3 192.15 208.75 192.25 208.6 192.55 206.75 192.75 205.7 193.85 202.85 194.15 202.2 194.45 202.35
M 155.3 130.5
Q 155.15 131.15 155.1 131.8 156.45 131.7 159.45 131.65 160.4845703125 131.65 161.4 131.6 159.9349609375 131.071484375 158 130.5 156.662109375 130.5263671875 155.3 130.5
M 163 141.2
Q 162.4 140.55 162.05 140.1 160.55 138.15 160.5 136.3 160.45 134.05 162.15 132.15 161.35 132.25 160.4 132.2
L 155.1 132.15
Q 154.75 135.1 155.75 136.5 156.35 137.4 157.85 138.35 160.3 139.9 163 141.2
M 84.35 263.1
Q 84.5451171875 262.9326171875 84.75 263 84.035546875 259.3283203125 81.35 253.05 77.5 244.6 77.05 243.35
L 76.6 243.35 76.6 247.1
Q 76.9 248.85 77.7 254.15 78.45 259.3 78.45 259.55 78.45 266.15 76.15 268.4 75.3 269.2 65.8 274.35 65.8 274.7 67.35 275.3 67.8029296875 275.475390625 68.3 275.6 75.707421875 272.227734375 80 269.15 80.4 268.9 80.5 268.9 80.75 269 80.85 269.25 81 269.4 80.85 269.65 80.75 269.95 80.25 270.35
L 78.05 271.6
Q 73.415625 274.2830078125 69.65 276 70.2712890625 276.167578125 70.95 276.3 72.328125 277.3828125 72.35 276.3
L 72.35 278.6
Q 72.2966796875 279.0013671875 72.25 279.4 72.464453125 278.887890625 72.75 278.4 73.9 276.35 75.8 275.15 75.6 276.35 74.25 278.25 72.9 280.1 72.75 281.2 72.6 281.95 72.75 283.5 72.85 285 72.65 285.75 72.4 286.5 71.8 287.35 71.45 287.85 70.7 288.8 69.6 290.45 69.05 293.7 68.3 297.7 67.95 298.8 67.6884765625 296.259765625 67.9 293.75 65.76171875 301.4119140625 64.4 322.2 70.238671875 305.98515625 75.15 289.4
L 76.95 284.4
Q 79.5 277.55 80.6 275.15 82.75 270.75 83.15 269.85 84.35 266.7 84.1 264.2 84 263.4 84.35 263.1
M 98.9 127.4
Q 98.826953125 127.180859375 98.6 126.8 87.2265625 137.915625 83.35 139.3 83.2291015625 139.342578125 83.05 139.35 83.225390625 139.928515625 83.3 140.55 83.45 141.4 83.5 142.7 84.7 142.05 88.4 140.4
L 93.6 138.15
Q 95.6 137.25 96.35 136.7 96.95 136.25 97.55 135.5
L 98.45 134.3
Q 99.05 133.5 99.3 132.7 99.55 132.1 99.55 130.7 99.55 128.6 98.9 127.4
M 62.7 158.15
Q 62.95 157.25 63.05 156.55 61.75 157 60.75 157.1 60.65 157.25 60.65 157.35 58.2 168.25 52.45 178.5 51.5 180.2 51.35 181.1 54.8 179.95 55.55 179.75 58.3 179.2 60.1 179.8 60.3 180.3 59.45 180.3 56 180.5 52.55 181.85 51.85 182.1 51.35 182.2 51.35 182.35 51.45 182.5 51.55 182.45 51.75 182.4 54.25 181.8 55.7 181.65 58.05 181.55 58.65 181.15
L 58.9 181.55
Q 58 182.35 55.75 182.7
L 51.6 183.35
Q 51.85 184.15 52.3 185.1
L 55 190.95
Q 56.2 193.65 56.55 195.45 56.7 196.3 56.7 197.65 57.65 198 58.9 198.8
L 65.1 203.95
Q 65.59921875 204.3611328125 65.9 204.65 66.9728515625 205.2017578125 68.15 205.75 68.05 205.95 66.25 208.35 66.25 208.4 69.9 213.3 74.4 219.4 78 225.15 89.75 243.85 89.75 253.65 89.75 258.45 89.5 259.85 88.733203125 264.2107421875 85.75 264.9 86.007421875 267.0345703125 85.15 269.65 85.8 268.85 86.5 268.05 87.95 266.5 88.35 266 89.3 264.75 89.7 263.65 90.05 262.7 90.25 261.25 90.3 259.6 90.35 258.75 90.4 257.85 91 252.4 91.4 248.5 91.15 240.55 91 236.05 90.45 233.85 90.1 232.25 88.4 228.6 84.5 220.4 81.9 216.65 77.95 211.65 76.3 208.9 75.5 207.55 73.65 203.75 72.05 200.45 70.75 198.75 70.1 197.85 66.85 194.45 64.4 191.8 63.35 189.8 63.1 189.25 63.2 188.7 63.3 188.15 63.6 188.1
L 63.6 188
Q 63.3 185.45 63.3 181.8 63.3 179.45 63.1 178.65 63 178.25 62.15 176.15 61.75 175.05 61.6 173.95 61.4 172.6 61.55 170.4 61.65 167.6 61.65 166.85 61.55 164.75 61.7 164.05 62.1 163.2 62.15 162.75
L 62.15 160.9
Q 62.15 160 62.7 158.15
M 79.25 140.6
Q 79.45 140.85 78.95 141 77.405859375 141.705859375 74.2 141.7 72.0833984375 143.084375 70.95 145.2 69.6 147.85 63.45 150.3 54.45 153.9 53.7 154.6 52.8 155.55 49.35 164.85
L 41.4 186.9
Q 41.4 188.65 43.45 192.1 45.75 195.9 46.5 203.4 46.8 206.55 52.7 213.3 53.85 214.6 62.55 223.65
L 63 224.1
Q 63.55 219.15 59.7 209.4 58.184765625 205.5935546875 56.3 201.8 56.034375 204.4919921875 56.2 205.9 56.5 208.75 59.7 214.05 62.75 219.15 63 222.15 62.2 222.6 61.6 221.05 60.85 219.25 57.25 213.7 54.3 209.3 53.95 206.15 53.75 204.65 54.3 200.85 54.75 197.45 54.25 195.55 54.05 194.7 53.45 193.35 52.7 191.7 52.55 191.1 51.75 188.15 51.05 186.8 49.9 185 49.55 184.05 48.7 181.9 49.8 178.95 49.95 178.5 52.2 174.45 54.45 170.7 57.85 161.6 58.75 158.9 58.95 157.75 59.2 157 59.3 156.7 59.2 156.4 59.4 156 59.7 155.3 61.4 154.75 63.35 154.1 67.15 152.4 68.2 152.05 70.35 151.55 77.2 149.75 80.6 146.1 81.25 145.35 81.3 145.1 81.35 144.95 81.35 143.55 81.5 141.7 81.25 140.85 80.900390625 140.1919921875 80.7 139.65 80.4197265625 139.68671875 80.1 139.7 78.2095703125 139.7921875 76 140.7 77.6900390625 140.71640625 79.25 140.6 Z"/>

<path fill="#C1807B" stroke="none" d="
M 222.1 174.2
L 222.25 175
Q 222.4388671875 175.227734375 222.6 175.45 226.15 180.35 226.35 181.5 226.9 183.95 226.95 188.05 227 190.2 226.9 192.7 226.9 199.27421875 226.2 204.9
L 228.35 196.4
Q 228.8 196.4 228.6 197.2 227.1 202.15 226.35 206.1 226.2 207.1 225.8 207.75 224.9072265625 213.2130859375 223.3 217.7 221.30390625 223.2890625 217.25 230.3 217.2568359375 230.6119140625 217.25 230.85
L 217.25 230.35 217.25 230.3
Q 217.3658203125 227.8048828125 218.1 220.55 218.9 212.15 218.9 211.4 218.9 210.7 218.35 207.6 218.255078125 207.0732421875 218.15 206.6 217.9109375 208.0701171875 217.3 210.65
L 213.7 223.5 213.4 223.45
Q 210.7892578125 234.658984375 207.05 249.4 203.2 264.6 199.95 277.2 199.95 278.2 212.95 300.35 226.1 322.8 228.7 325.7 230.980859375 328.3458984375 249.75 345.25 249.0669921875 344.133984375 248.7 343.5 247.65 341.8 246.1 338.75 244.3 335.2 243.55 333.9 238.4 324.55 227.8 311.7 222.3 305.05 220.4 302.35 216.55 296.85 214.85 291.95 214.3 290.2 213.5 287.3 212.65 283.8 212.25 282.65 210.9 278.55 207.3 271.3 208.5 272.35 209.6 273.55 209.25 270 210.05 265.85 210.75 262.3 212.7 255.95
L 219.05 234.95
Q 222.45 223.95 224.5 218.25 227.8 209.05 231.45 202.1 233.45 198.35 234.1 196.7 235.3 193.6 234.95 191 234.65 188.35 231.85 183.9 228.85 179.4 227.35 177.05 224.8 173.1 223.15 170.05 220.9 165.8 218.75 160.2 220.3 165.7 222.1 174.2
M 205.8 142.8
Q 207.437890625 141.9169921875 209.15 141.15 207.85 140.95 206.1 140.15 202.95 138.8 195.15 136.75
L 187.3 134.75
Q 191.2166015625 137.2646484375 198.7 140.1 204.4626953125 142.28984375 205.8 142.8
M 206.1 147.05
Q 206.2767578125 147.05 206.5 147.05 208.55 147.05 209.1 147.25 209.8 147.55 210.35 148.85 211.05 150.65 214.9 161.4 217.5044921875 167.6587890625 220.7 172.65 218.965625 165.0609375 217.95 161.35 215.5 152.45 212.5 145.9 211.55 143.6 211.25 142.5 208.8814453125 145.1193359375 206.1 147.05
M 210.75 140.45
Q 210.8 140.4 210.85 140.4
L 211.35 140.85
Q 211.3 140.85 211.25 140.9 211.3 140.9 211.3 140.95 211.05 141.1 210.75 141.15 208.1912109375 142.440234375 205.75 143.9 205.110546875 145.0248046875 204.05 146.05 203.5 146.65 201.05 148.75 200.9 148.75 200.8 148.85 200.5 149 200.5 149.35 200.8134765625 149.0365234375 202.75 148.4 203.2001953125 148.11171875 203.75 147.75 207.75 145.2 211.3 141.45
L 211.7 141.9
Q 211.65 141.95 211.6 142.05 211.8 142.2 211.95 142.55 213.8 146.25 215.4 150.2 213.55 144.4 212.45 140.95 211.9 139.15 211.1 138.2 210.05 137.15 207.4 136.55 203.3 135.5 183.7 128.05 177.5447265625 125.6990234375 172.25 124.3
L 173.25 125.4
Q 190.2521484375 131.5 190.75 131.5
L 187.95 133.5 197.4 135.75
Q 204.4 137.6 207.8 138.9 209.65 139.6 210.75 140.45
M 15.5 196.8
Q 14.65 197.35 13.3 197.8 12.2 198.2 11.95 198.2 9.45 198.2 9.45 193.05 9.45 187.973046875 13.1 181.75 10.5400390625 185.5033203125 9.55 187.85 7.3 193.6 9.25 198.1 9.95 199.6 11.9 202.05 13.85 204.6 14.55 205.95 15 207.05 15.75 209.45 16.85 213.1 19.1 216.8 20.55 219.1 23.15 222.5 26.6 226.9 27.4 228 32.4 235.15 35.95 245.5 38.2 251.9 41.2 264.5
L 41.2 264.6
Q 42.15 261.7 41.9 259.3 42.35 259.15 42.8 259.6 43.15 260.1 43.3 260.7 44 265.35 39.85 271.8 38.75 273.45 36.5 276.75 34.7 279.65 34.05 282.1 33.8 283 33.25 286.65 32.9 289.5 32.1 291.15 32.033984375 291.2763671875 31.95 291.4 34.655078125 288.0609375 36.3 286 43.35 277.15 46.05 271.95 49.35 265.65 49.35 259.5 49.35 255.15 37.95 229.75 26 203.95 24.9 201.05 24.790625 201.159375 23.85 202.8 24.05 202.847265625 24.05 203.2
L 24.15 204.55
Q 24.2 205.75 25 207.75 25.95 210.05 26.15 210.9 25.9 210.95 25.6 210.55 25 208.65 24.55 207.8 23.95 206.7 23.75 206.15 23.43515625 205.250390625 23.45 203.55 23.3037109375 203.8736328125 23.1 204.25 21.4 207.3 20.7 208.1 19 205.8 17.8 203.75 15.5 199.75 15.5 196.8
M 36 157.3
Q 36.25 155.75 36.85 154.85 37.85 153.3 40.65 152.05
L 51.4 146.75
Q 47.1537109375 148.217578125 43.05 149.5 35.65 151.8 34.65 152.45 33.3 153.3 33.4 156.2 33.55 161.75 32.9 166.25 32.001171875 171.9794921875 29 185.25 32.3140625 175.956640625 34.5 167.1 35.6 162.5 35.75 160 35.9 158.2 36 157.3 Z"/>

<path fill="#DA9E8B" stroke="none" d="
M 205.6 147.4
Q 205.3404296875 147.59921875 205.05 147.75 203.337890625 148.882421875 201.45 149.75 201.7341796875 149.2169921875 202.75 148.4 200.8134765625 149.0365234375 200.5 149.35 200.5 149 200.8 148.85 200.9 148.75 201.05 148.75 203.5 146.65 204.05 146.05 205.110546875 145.0248046875 205.75 143.9 202.563671875 145.891796875 199.6 148.2 198.6 148.9 198 148.65 201.5576171875 145.2375 205.8 142.8 204.4626953125 142.28984375 198.7 140.1 191.2166015625 137.2646484375 187.3 134.75
L 178.3 132.5
Q 174.65 131.6 172.7 131.25 177.1 135.15 182.4 143.8 185.05 148.05 187.35 151.2 187.6 151.25 188.05 151.55 189.1 152.4 193.65 155.15 197.15 157.25 198.7 159.25 198.05 159.65 197.1 158.9 193.8 156.65 190.25 154.75 190.1 154.65 190.05 154.6 191.75 156.7 193.25 157.9 196.55 160.6 197.2 161.4 197.95 162.25 198.7 163.6 199.15 164.4 199.95 166 201.25 168.45 203.9 172.5 206.9 177 208 178.9 208.05 179.05 211.1 185.2 213 188.95 214.7 191.15 215.8 192.6 216.15 193.2 216.8 194.45 216.55 195.45 213.8 192.9 211.1 189 209.45 186.6 206.6 181.8
L 200.65 171.7
Q 198.4 167.9 197.2 166.25 196.6 165.4 196.05 164.6
L 193.8 166.8 193.55 166.95 193 166.85
Q 193.05 166.4 193.5 166.1
L 195.65 164.05
Q 195.2 163.55 194.85 163.05
L 193.4 164.3 193 165
Q 192.65 165.55 191.9 165.85 191.85 165.6 192.1 165.15 192.55 164.15 193.2 163.35
L 194.1 162.65
Q 194.2 162.55 194.35 162.5 193.75 161.85 193.2 161.3 190 158.6 188.55 157.05 186.95 155.35 184.75 152.15 180.35 144.9 178 141.35 173.95 135.15 170 131.6 168.15 130 168.1 128.9 169.5 128.8 171.25 130.05 171.8 130.5 172.45 131 172.45 130.75 172.75 130.6 173 130.5 173.45 130.5 175.2 130.6 179.6 131.55
L 187.95 133.5 190.75 131.5
Q 190.2521484375 131.5 173.25 125.4
L 172.25 124.3
Q 165.1537109375 122.4431640625 159.6 122.3 157.0787109375 122.2533203125 155.2 122.95
L 153.5 129 153.65 129.15
Q 153.755859375 129.255859375 153.8 129.35 153.9029296875 129.4294921875 153.95 129.5
L 153.95 129.45
Q 153.9755859375 129.422265625 154 129.4 154.626953125 128.8 156.35 128.8
L 161.25 128.7
Q 164.8 128.7 166.5 129.5 166.75 129.4 167 129.35 167.5 129.6 167.1 130.2 166.85 130.7 166.3 131 164.87890625 131.6732421875 163.95 132.65 164.1646484375 132.752734375 164.35 132.85 167.35 134.45 169.15 137.5 170.35 139.55 173.4 145.95 177.15 153.1 182.7 160.85 203.15 189.25 206.85 194.75
L 206.85 196.45
Q 202.8505859375 196.45 198.85 202.15 199.0541015625 202.5849609375 199.15 202.9 198.9767578125 202.8009765625 198.65 202.4 198.009375 203.3826171875 197.35 204.5 194.95 208.6 192.5 213.7
L 192.5 214.25
Q 189.8 203.95 187.3 203.95 184.2 203.95 175.95 213.9 168.6 222.8 167.75 225.2 165.4 231.2 163.8 238.5 162.55 244.35 162.55 246.45
L 162.55 252.1
Q 162.635546875 248.741796875 168.95 237.05 174.75 226.25 176.4 224.6 175.753515625 226.2583984375 175.15 227.85 175.8384765625 227.0423828125 176.55 226.35 178.85 224.15 179.3 223.5 180.2 222.15 180.75 219.95
L 181.3 219.95
Q 180.95 222.7 180 224.2 179.6 224.8 178.05 226.35 175.7021484375 228.6701171875 173.6 231.95 168.246875 246.780078125 166.35 256.95 165.45 261.8 165.45 267.4 165.45 274.95 168.85 278.25 171.35 280.65 176.4 281.15 179.1 281.45 183.9 281.85 184.3599609375 281.9650390625 184.75 282.1
L 188 280.85
Q 188.4 280.65 188.85 280.65 189.25 280.75 189.3 281.1 188.95 281.45 187.6 282
L 185.75 282.65
Q 186.5232421875 283.2501953125 186.9 284.1 187.623828125 283.884765625 188.6 283.55
L 193.85 281.65
Q 193.65 282.35 192.3 282.9
L 189.55 284
Q 188.2314453125 284.50234375 187.15 284.85 187.3 285.416796875 187.3 286.1 187.3 286.34375 183.5 309.25 194.7623046875 329.730859375 200.95 342.95 209.6 361.55 209.95 367.95
L 252 367.95 252 348.65
Q 250.6419921875 346.60390625 249.75 345.25 230.980859375 328.3458984375 228.7 325.7 226.1 322.8 212.95 300.35 199.95 278.2 199.95 277.2 203.2 264.6 207.05 249.4 210.7892578125 234.658984375 213.4 223.45
L 212.8 223.4
Q 214.6 214.4 216 209.8 216.85 206.95 217 206.25 217.4 204.2 217.25 202.6 217.1 201.85 217.25 201.55 217.35 201.25 217.6 201.1 217.9 201 218.1 201.2 218.35 201.35 218.35 201.9
L 218.35 205.5
Q 218.3017578125 205.9333984375 218.15 206.6 218.255078125 207.0732421875 218.35 207.6 218.9 210.7 218.9 211.4 218.9 212.15 218.1 220.55 217.3658203125 227.8048828125 217.25 230.3 221.30390625 223.2890625 223.3 217.7 224.9072265625 213.2130859375 225.8 207.75
L 225.55 207.5 226.2 204.9
Q 226.9 199.27421875 226.9 192.7 227 190.2 226.95 188.05 226.9 183.95 226.35 181.5 226.15 180.35 222.6 175.45 222.4388671875 175.227734375 222.25 175
L 224.75 186.05
Q 223.1 183.5 221.75 177.25 221.203125 174.8109375 220.7 172.65 217.5044921875 167.6587890625 214.9 161.4 211.05 150.65 210.35 148.85 209.8 147.55 209.1 147.25 208.55 147.05 206.5 147.05 206.2767578125 147.05 206.1 147.05 205.846875 147.253515625 205.6 147.4
M 166.3 131.25
Q 166.6 131.1 166.8 131.6
L 166.8 132.35
Q 166.85 132.9 167.65 133.8 171.35 137.6 173.8 138.9 173.95 139.15 173.4 139.15 171.75 138.75 170.05 137.4 169 136.6 167.3 134.8 166.35 133.75 166.2 133.35 165.7 132.45 165.95 131.65 166.05 131.25 166.3 131.25
M 191.2 221.2
Q 191.1 221.6 190.75 221.5 191.35 221.8 192.75 221.25 194.1 220.7 194.65 221.1 195.4 221.8 194.85 222.8 194.55 223.4 193.5 224.1 190.35 226.2 187 229.25 184.55 231.45 183.25 233.35 182.6 234.45 182.2 234.8 181.35 235.55 180.55 235.25 179.6 234.35 180.35 232 181.2 229.7 182.15 227.5 183.3 224.9 184.45 223.7 186 222.15 189.7 220.7 190.6 220.3 191 220.6 191.3 220.8 191.2 221.2
M 162.9 131.5
Q 163.95 130.55 165.35 129.95 161.74609375 130.428125 158 130.5 159.9349609375 131.071484375 161.4 131.6 162.1939453125 131.568359375 162.9 131.5
M 217.25 230.3
L 217.25 230.35 217.25 230.85
Q 217.2568359375 230.6119140625 217.25 230.3
M 80.1 139.7
Q 80.4197265625 139.68671875 80.7 139.65 80.4412109375 138.9208984375 80.5 138.45 79.6 138.25 77.3 138.7 74 139.35 70.3 140.3 70.95 140.65 72.05 140.65 74.10703125 140.7568359375 76 140.7 78.2095703125 139.7921875 80.1 139.7
M 91.15 122.05
Q 91.15 121.95 91.2 121.85 91.35 121.7 91.75 121.55 91.95 121.5 92.1 121.5 92.25 121.45 92.3 121.4 89.8 121.7 86.35 123.85 85.4 124.45 84.5 125 85.1 124.75 85.8 124.5 88.7 123.35 91.15 122.05
M 44.8 145.9
Q 44.75 146.05 44.25 146.05 42.45 145.6 40.35 143.8 40.1 143.85 39.8 143.9
L 39.7 143.95 39.2 144.65 39 144.8
Q 39 145 38.8 145
L 38.7 145.25 38.65 145.3 39.6 146
Q 42 147.4 43.55 148.6 43.15 148.75 42.35 148.3
L 38.35 145.75
Q 37.766796875 146.6298828125 37.15 147.5 34.816796875 151.06015625 32.45 154.55 31.35 158.05 28.9 163.5
L 19.6 184.65
Q 19.05 185.7 18.65 185.95 17.95 185.95 18.45 184.85 22.9 174.15 27.05 164.7 28.6 161.35 29.7 158.6 22.25 169.4 15.15 178.9 14.016796875 180.433203125 13.1 181.75 9.45 187.973046875 9.45 193.05 9.45 198.2 11.95 198.2 12.2 198.2 13.3 197.8 14.65 197.35 15.5 196.8 15.5 199.75 17.8 203.75 19 205.8 20.7 208.1 21.4 207.3 23.1 204.25 23.3037109375 203.8736328125 23.45 203.55 23.4900390625 203.35078125 23.5 203.15 23.65 202.85 23.7 202.85 23.803125 202.805859375 23.85 202.8 24.790625 201.159375 24.9 201.05 26 203.95 37.95 229.75 49.35 255.15 49.35 259.5 49.35 265.65 46.05 271.95 43.35 277.15 36.3 286 34.655078125 288.0609375 31.95 291.4 31.3515625 292.4814453125 30.15 293.95 21.5 315.75 10.2 336.3 5.4431640625 344.8955078125 1 353.65
L 1 367.95 51.2 367.95
Q 54.05 349.75 60.55 332.65 62.5296875 327.4439453125 64.4 322.2 65.76171875 301.4119140625 67.9 293.75 68.0109375 292.934375 68.15 292.1 68.55 289.25 69.85 287.35 70.4 286.6 70.65 286.25 70.8529296875 285.9658203125 71 285.7 71.190625 285.3267578125 71.25 285 71.3580078125 284.7029296875 71.4 284.05 71.45 283.531640625 71.45 282.75 71.526171875 280.9974609375 72.25 279.4 72.2966796875 279.0013671875 72.35 278.6
L 72.35 276.3
Q 72.328125 277.3828125 70.95 276.3 70.2712890625 276.167578125 69.65 276 66.4646484375 277.471484375 63.9 278.25 63.65 277.65 64.65 277.25 66.56015625 276.4328125 68.3 275.6 67.8029296875 275.475390625 67.35 275.3 65.8 274.7 65.8 274.35 75.3 269.2 76.15 268.4 78.45 266.15 78.45 259.55 78.45 259.3 77.7 254.15 76.9 248.85 76.6 247.1
L 76.6 243.35 77.05 243.35
Q 77.5 244.6 81.35 253.05 84.035546875 259.3283203125 84.75 263 84.9509765625 263.0509765625 85.15 263.25 85.5 263.65 85.65 264.2 85.7212890625 264.5419921875 85.75 264.9 88.733203125 264.2107421875 89.5 259.85 89.75 258.45 89.75 253.65 89.75 243.85 78 225.15 74.4 219.4 69.9 213.3 66.25 208.4 66.25 208.35 68.05 205.95 68.15 205.75 66.9728515625 205.2017578125 65.9 204.65 66.096875 204.9142578125 66.2 205.1 65.65 205.4 64.85 204.85 64.009765625 204.3458984375 62.35 202.95 61.5833984375 202.2849609375 60.6 201.4 58.4 199.4 56.7 198.6 56.6109375 199.1638671875 56.55 199.75 56.490625 200.2029296875 56.45 200.65 56.37265625 201.259765625 56.3 201.8 58.184765625 205.5935546875 59.7 209.4 63.55 219.15 63 224.1
L 62.55 223.65
Q 53.85 214.6 52.7 213.3 46.8 206.55 46.5 203.4 45.75 195.9 43.45 192.1 41.4 188.65 41.4 186.9
L 49.35 164.85
Q 52.8 155.55 53.7 154.6 54.45 153.9 63.45 150.3 69.6 147.85 70.95 145.2 72.0833984375 143.084375 74.2 141.7 73.75859375 141.71171875 73.3 141.7
L 71.15 141.65
Q 70.65 141.65 70.4 141.5 69.8 141.4 69.4 140.8 69.35 140.6 69.3 140.45 65.8 141.25 61.9 142.25 61.95 142.3 61.95 142.35 60.1626953125 143.3232421875 58.3 144.3 50.3787109375 148.551171875 41.6 152.9 38.95 154.2 38.15 155.3 37.6 156.15 37.4 157.4 37.35 157.8 37.15 159.7 36.85 163.5 35.75 168.15 35.15 170.65 33.5 176.35 31.7 182.15 30.6 185.15 29.1166015625 189.2611328125 27.35 192.45 27.069921875 193.0091796875 26.75 193.55 26.1 192.85 26.75 191.35 27.9443359375 188.271875 29 185.25 32.001171875 171.9794921875 32.9 166.25 33.55 161.75 33.4 156.2 33.3 153.3 34.65 152.45 35.65 151.8 43.05 149.5 47.1537109375 148.217578125 51.4 146.75
L 59.45 142.8
Q 58.85 142.85 58.6 142.8 58.65 142.6 59.2 142.2 61.45 141 65.15 139.8
L 69.55 138.5
Q 71.55 137.95 75.6 137.1 78.7 136.5 79.6 136.45 80.6 136.3 81.1 136.5 82.05 136.85 82.7 138.35 82.926171875 138.827734375 83.05 139.35 83.2291015625 139.342578125 83.35 139.3 87.2265625 137.915625 98.6 126.8 98.3603515625 126.438671875 97.95 125.9 97.2 125.1 96.3 124.45
L 94.5 123.45
Q 93.1 122.9 92.7 122.85 92.1 122.85 91.9 122.8 89.75 124.3 86.05 125.7 85.2 126.05 84.4 126.35
L 87.65 126.35
Q 88.8 126.35 89.45 126.15 90.25 125.95 91.75 125.35
L 92 125.7
Q 90.65 126.75 89.7 127.2
L 89 127.5
Q 88.6 127.55 87.8 127.55
L 83.05 127.45
Q 82.95 127.15 82.95 126.9 81 127.6 79.75 128.15 78.4 128.7 73.65 131.35
L 64.35 136.05
Q 64.05 135.75 64.6 135.45 51.9 141.35 41.05 143.65 42.3 144.75 43.4 145.2 44.5 145.6 44.8 145.9
M 38.05 156.95
Q 37.95 156.8 38.05 156.75 39.45 156.85 42.55 157.35
L 45.6 157.85
Q 46.05 157.95 46 158.2
L 38.25 157.05
Q 38.15 157.05 38.05 156.95
M 38.8 155.75
Q 38.6 155.65 38.6 155.55 38.7 155.3 38.95 155.4
L 47.7 157.2
Q 47.75 157.3 47.55 157.4 47.4 157.5 47.2 157.4
L 40.55 156.25
Q 39.3 156 38.8 155.75
M 82.45 248.85
Q 83.85 251.2 83.9 252.85 83.9 254.3 83.25 255.3 82.95 254.8 82.95 253.85 82.95 252.65 82.9 252.4 82.75 251.5 81.9 250.15
L 74.95 238.15
Q 71.15 231.7 68.85 229.1 67.7 227.8 67.6 226.95 67.6 226.15 68.05 226.1 68.55 226 68.85 226.95 69.25 227.8 70.5 229.35 72.75 232.1 75.7 237.15
L 82.45 248.85
M 55.2 226.75
Q 57.85 227.5 59.05 228.25 59.75 228.7 60.1 229.3 60.5 230 60.2 230.55 62.9 232.1 63.45 235 63.6 235.9 63.4 236.7 63.15 237.6 62.45 237.9 61.35 238.4 59.5 237 53.1 231.9 48.75 227.8 46.85 226.15 47.7 224.95 48.25 224.1 49.5 224.4
L 51.3 225.3
Q 52.45 225.95 55.2 226.75 Z"/>

<path fill="url(#Gradient_3)" stroke="none" d="
M 190.75 221.5
Q 191.1 221.6 191.2 221.2 191.3 220.8 191 220.6 190.6 220.3 189.7 220.7 186 222.15 184.45 223.7 183.3 224.9 182.15 227.5 181.2 229.7 180.35 232 179.6 234.35 180.55 235.25 181.35 235.55 182.2 234.8 182.6 234.45 183.25 233.35 184.55 231.45 187 229.25 190.35 226.2 193.5 224.1 194.55 223.4 194.85 222.8 195.4 221.8 194.65 221.1 194.1 220.7 192.75 221.25 191.35 221.8 190.75 221.5
M 59.05 228.25
Q 57.85 227.5 55.2 226.75 52.45 225.95 51.3 225.3
L 49.5 224.4
Q 48.25 224.1 47.7 224.95 46.85 226.15 48.75 227.8 53.1 231.9 59.5 237 61.35 238.4 62.45 237.9 63.15 237.6 63.4 236.7 63.6 235.9 63.45 235 62.9 232.1 60.2 230.55 60.5 230 60.1 229.3 59.75 228.7 59.05 228.25 Z"/>

<path fill="#FFFFFF" stroke="none" d="
M 92.45 121.45
Q 92.6 121.45 92.75 121.45
L 92.75 121.3
Q 92.55 121.3 92.3 121.4 92.35 121.4 92.45 121.45 Z"/>
</g>

<g id="Layer1_2_MEMBER_0_FILL">
<path fill="#7CB8AF" fill-opacity="0.7490196078431373" stroke="none" d="
M 201.35 183.1
Q 201.35 156 182.2 136.85 163.05 117.7 135.95 117.7 108.85 117.7 89.7 136.85 70.55 156 70.55 183.1 70.55 210.2 89.7 229.35 108.85 248.5 135.95 248.5 163.05 248.5 182.2 229.35 201.35 210.2 201.35 183.1 Z"/>
</g>

<g id="Layer1_2_MEMBER_1_FILL">
<path fill="#E5FFF9" stroke="none" d="
M 97.55 135.5
L 91.3 132.15
Q 91 132.05 90.75 132.15 90.45 132.25 90.3 132.5
L 86.6 139.5
Q 86.45 139.75 86.55 140.05 86.6 140.35 86.9 140.45
L 93.15 143.8 89.8 150.05
Q 89.65 150.3 89.7 150.6 89.8 150.9 90.05 151.05
L 97.05 154.75
Q 97.35 154.9 97.65 154.8 97.9 154.7 98.05 154.45
L 101.4 148.2 107.65 151.5
Q 107.9 151.65 108.2 151.55 108.5 151.45 108.65 151.2
L 112.35 144.2
Q 112.5 143.95 112.4 143.65 112.3 143.35 112.05 143.2
L 105.8 139.9 109.1 133.7
Q 109.25 133.4 109.2 133.1 109.1 132.85 108.8 132.7
L 101.8 129
Q 101.55 128.85 101.25 128.9 101 129 100.85 129.3
L 97.55 135.5
M 98.05 137.2
Q 98.3 137.15 98.45 136.85
L 101.75 130.6 107.45 133.6 104.15 139.85
Q 104 140.15 104.1 140.4 104.2 140.7 104.45 140.85
L 110.7 144.15 107.65 149.85 101.4 146.55
Q 101.15 146.4 100.85 146.5 100.55 146.6 100.45 146.85
L 97.1 153.1 91.4 150.1 94.75 143.85
Q 94.85 143.6 94.8 143.3 94.7 143 94.4 142.85
L 88.2 139.5 91.25 133.8 97.45 137.15
Q 97.75 137.3 98.05 137.2 Z"/>
</g>

<path id="Layer1_0_MEMBER_0_1_STROKES" stroke="#47B5C3" stroke-width="2" stroke-linejoin="round" stroke-linecap="round" fill="none" d="
M 231.59116516113284 27.9233154296875
L 231.59116516113284 368.9845794677734 21.166909790039085 368.9845794677734 21.166909790039085 27.9233154296875 231.59116516113284 27.9233154296875 Z"/>

<path id="Layer1_0_MEMBER_2_1_STROKES" stroke="#47B5C3" stroke-width="2" stroke-linejoin="round" stroke-linecap="round" fill="none" d="
M 58.97184829711914 112.30883941650391
Q 38.04551696777344 112.30883941650391 23.26214141845702 97.50532302856446 8.458625030517581 82.72194747924804 8.458625030517581 61.795616149902344 8.458625030517581 40.86928482055664 23.26214141845702 26.06576843261719 38.04551696777344 11.282392883300782 58.97184829711914 11.282392883300782 79.89817962646484 11.282392883300782 94.70169601440429 26.06576843261719 109.4850715637207 40.86928482055664 109.4850715637207 61.795616149902344 109.4850715637207 82.72194747924804 94.70169601440429 97.50532302856446 79.89817962646484 112.30883941650391 58.97184829711914 112.30883941650391 Z"/>

<path id="Layer1_0_MEMBER_4_1_STROKES" stroke="#47B5C3" stroke-width="2" stroke-linejoin="round" stroke-linecap="round" fill="none" d="
M 228.5021942138672 378.24293823242186
Q 222.19552001953127 378.24293823242186 217.74017944335938 373.7815277099609 213.27876892089844 369.32618713378906 213.27876892089844 363.0195129394531 213.27876892089844 356.71283874511715 217.74017944335938 352.2514282226562 222.19552001953127 347.79608764648435 228.5021942138672 347.79608764648435 234.80886840820312 347.79608764648435 239.27027893066406 352.2514282226562 243.72561950683595 356.71283874511715 243.72561950683595 363.0195129394531 243.72561950683595 369.32618713378906 239.27027893066406 373.7815277099609 234.80886840820312 378.24293823242186 228.5021942138672 378.24293823242186 Z"/>
</defs>

<g transform="matrix( 0, 1.03179931640625, -0.63958740234375, 0, 261.3,-39.35) ">
<use xlink:href="#Layer1_0_MEMBER_0_1_STROKES" transform="matrix( 0, -1.563507080078125, 0.96917724609375, 0, 38.1,408.5) "/>
</g>

<g transform="matrix( 0, 0.4028167724609375, -0.4028167724609375, 0, 108.45,2) ">
<use xlink:href="#Layer1_0_MEMBER_1_FILL"/>
</g>

<g transform="matrix( 0, 0.4028167724609375, -0.4028167724609375, 0, 113.05,6.65) ">
<use xlink:href="#Layer1_0_MEMBER_2_1_STROKES" transform="matrix( 0, -2.482513427734375, 2.482513427734375, 0, -16.5,280.6) "/>
</g>

<g transform="matrix( 0, 0.12139892578125, -0.12139892578125, 0, 241.4,342.9) ">
<use xlink:href="#Layer1_0_MEMBER_3_FILL"/>
</g>

<g transform="matrix( 0, 0.12139892578125, -0.12139892578125, 0, 244.8,346.4) ">
<use xlink:href="#Layer1_0_MEMBER_4_1_STROKES" transform="matrix( 0, -8.2373046875, 8.2373046875, 0, -2853.4,2016.45) "/>
</g>

<g transform="matrix( 1, 0, 0, 1, 0,0) ">
<use xlink:href="#Layer1_1_FILL"/>
</g>

<g transform="matrix( 1.082611083984375, 0, 0, 1.082611083984375, -17.1,-5.85) ">
<use xlink:href="#Layer1_2_MEMBER_0_FILL"/>
</g>

<g transform="matrix( 2.6180419921875, -1.46484375, 1.46484375, 2.6180419921875, -338.1,-33.45) ">
<use xlink:href="#Layer1_2_MEMBER_1_FILL"/>
</g>
</svg>
