<?xml version="1.0" encoding="utf-8"?>
<!-- Generator: Adobe Illustrator 24.3.0, SVG Export Plug-In . SVG Version: 6.00 Build 0)  -->
<svg version="1.1" id="Camada_1" xmlns="http://www.w3.org/2000/svg" xmlns:xlink="http://www.w3.org/1999/xlink" x="0px" y="0px"
	 viewBox="0 0 120 120" style="enable-background:new 0 0 120 120;" xml:space="preserve">
<style type="text/css">
	.st0{fill:#7CB8AF;}
	.st1{fill:#0F5DA6;}
</style>
<g transform="matrix( 0.9119873046875, 0, 0, 0.9119873046875, -74.5,-4.35) ">
	<g>
		<g id="Layer0_0_MEMBER_0_MEMBER_0_FILL">
			<path class="st0" d="M209.8,70.1c0-17.3-6.1-32-18.3-44.2S164.6,7.6,147.3,7.6s-32,6.1-44.2,18.3S84.8,52.8,84.8,70.1
				s6.1,32,18.3,44.2s26.9,18.3,44.2,18.3s32-6.1,44.2-18.3S209.8,87.3,209.8,70.1z"/>
		</g>
	</g>
</g>
<g>
	<path class="st1" d="M74.1,15.2h-8.9v-1.8c0-1-0.8-1.8-1.8-1.8h-9.5c-1.5-4.2-5.5-7.1-10-7.1s-8.6,2.9-10,7.1h-9.5
		c-1,0-1.8,0.8-1.8,1.8v1.8h-8.9c-4.9,0-8.9,4-8.9,8.9v81.6c0,4.9,4,8.9,8.9,8.9h60.3c4.9,0,8.9-4,8.9-8.9V24.1
		C82.9,19.2,79,15.2,74.1,15.2z M24.4,29.4h39c1,0,1.8-0.8,1.8-1.8v-1.8h7.1v78.1H15.5V25.9h7.1v1.8C22.6,28.6,23.4,29.4,24.4,29.4z
		 M26.2,15.2h9c0.8,0,1.6-0.6,1.7-1.4c0.7-3.3,3.6-5.7,7-5.7s6.3,2.4,7,5.7c0.2,0.8,0.9,1.4,1.7,1.4h9v10.6H26.2L26.2,15.2z
		 M79.4,105.7c0,2.9-2.4,5.3-5.3,5.3H13.7c-2.9,0-5.3-2.4-5.3-5.3V24.1c0-2.9,2.4-5.3,5.3-5.3h8.9v3.5h-8.9c-1,0-1.8,0.8-1.8,1.8
		v81.6c0,1,0.8,1.8,1.8,1.8h60.3c1,0,1.8-0.8,1.8-1.8V24.1c0-1-0.8-1.8-1.8-1.8h-8.9v-3.5h8.9c2.9,0,5.3,2.4,5.3,5.3V105.7z"/>
	<path class="st1" d="M43.9,72c7.8,0,14.2-6.4,14.2-14.2s-6.4-14.2-14.2-14.2S29.7,50,29.7,57.8S36.1,72,43.9,72z M43.9,47.1
		c5.9,0,10.6,4.8,10.6,10.6s-4.8,10.6-10.6,10.6s-10.6-4.8-10.6-10.6S38,47.1,43.9,47.1z"/>
	<path class="st1" d="M19.1,54.2v7.1c0,0.8,0.5,1.4,1.2,1.7l3.4,1.2c0.4,1.2,0.8,2.3,1.4,3.4l-1.5,3.2c-0.3,0.7-0.2,1.5,0.3,2l5,5
		c0.5,0.5,1.3,0.7,2,0.3l3.2-1.5c1.1,0.6,2.2,1,3.4,1.4l1.2,3.4c0.2,0.7,0.9,1.2,1.7,1.2h7.1c0.8,0,1.4-0.5,1.7-1.2l1.2-3.4
		c1.2-0.4,2.3-0.9,3.4-1.4l3.2,1.5c0.7,0.3,1.5,0.2,2-0.3l5-5c0.5-0.5,0.7-1.3,0.3-2l-1.5-3.2c0.6-1.1,1-2.3,1.4-3.4l3.4-1.2
		c0.7-0.2,1.2-0.9,1.2-1.7v-7.1c0-0.8-0.5-1.4-1.2-1.7l-3.4-1.2c-0.4-1.2-0.8-2.3-1.4-3.4l1.5-3.2c0.3-0.7,0.2-1.5-0.3-2l-5-5
		c-0.5-0.5-1.3-0.7-2-0.3l-3.2,1.5c-1.1-0.6-2.2-1-3.4-1.4l-1.2-3.4c-0.2-0.7-0.9-1.2-1.7-1.2h-7.1c-0.8,0-1.4,0.5-1.7,1.2l-1.2,3.4
		c-1.2,0.4-2.3,0.9-3.4,1.4l-3.2-1.5c-0.7-0.3-1.5-0.2-2,0.3l-5,5c-0.5,0.5-0.7,1.3-0.3,2L25,48c-0.6,1.1-1,2.3-1.4,3.4l-3.4,1.2
		C19.5,52.8,19.1,53.5,19.1,54.2L19.1,54.2z M22.6,55.5l3-1.1c0.6-0.2,1-0.6,1.1-1.2c0.4-1.5,1-3,1.8-4.3c0.3-0.5,0.3-1.1,0.1-1.7
		l-1.4-2.9l3.2-3.2l2.9,1.4c0.5,0.3,1.2,0.2,1.7-0.1c1.3-0.8,2.8-1.4,4.3-1.8c0.6-0.2,1-0.6,1.2-1.1l1.1-3h4.6l1.1,3
		c0.2,0.6,0.7,1,1.2,1.1c1.5,0.4,3,1,4.3,1.8c0.5,0.3,1.1,0.3,1.7,0.1l2.9-1.4l3.2,3.2l-1.4,2.9c-0.3,0.5-0.2,1.2,0.1,1.7
		c0.8,1.3,1.4,2.8,1.8,4.3c0.2,0.6,0.6,1,1.1,1.2l3,1.1v4.6l-3,1.1c-0.6,0.2-1,0.6-1.1,1.2c-0.4,1.5-1,3-1.8,4.3
		c-0.3,0.5-0.3,1.1-0.1,1.7l1.4,2.9l-3.2,3.2l-2.9-1.4c-0.5-0.3-1.2-0.2-1.7,0.1c-1.3,0.8-2.8,1.4-4.3,1.8c-0.6,0.2-1,0.6-1.2,1.1
		l-1.1,3h-4.6l-1.1-3c-0.2-0.6-0.7-1-1.2-1.1c-1.5-0.4-3-1-4.3-1.8c-0.5-0.3-1.1-0.3-1.7-0.1l-2.9,1.4l-3.2-3.2l1.4-2.9
		c0.3-0.5,0.2-1.2-0.1-1.7c-0.8-1.3-1.4-2.8-1.8-4.3c-0.2-0.6-0.6-1-1.1-1.2l-3-1.1L22.6,55.5z"/>
	<path class="st1" d="M52.8,96.8H20.8c-1,0-1.8,0.8-1.8,1.8s0.8,1.8,1.8,1.8h31.9c1,0,1.8-0.8,1.8-1.8S53.8,96.8,52.8,96.8z"/>
	<path class="st1" d="M67,89.7H20.8c-1,0-1.8,0.8-1.8,1.8c0,1,0.8,1.8,1.8,1.8H67c1,0,1.8-0.8,1.8-1.8C68.7,90.5,68,89.7,67,89.7z"
		/>
	<path class="st1" d="M109.6,32.9c-0.6,0-1.2,0.1-1.8,0.3v-2.1c0-4.9-4-8.9-8.9-8.9c-4.9,0-8.9,4-8.9,8.9v67.4c0,0.2,0,0.4,0.1,0.6
		l4.7,12.5c0.6,1.7,2.3,2.8,4.1,2.8c1.8,0,3.4-1.1,4.1-2.8l4.7-12.5c0.1-0.2,0.1-0.4,0.1-0.6V68.1c0.6,0.2,1.2,0.3,1.8,0.3
		c2.9,0,5.3-2.4,5.3-5.3V38.3C114.9,35.3,112.5,32.9,109.6,32.9L109.6,32.9z M109.6,36.5c1,0,1.8,0.8,1.8,1.8V40h-3.5v-1.8
		C107.8,37.3,108.6,36.5,109.6,36.5z M104.2,96.8h-3.5V47.1h3.5V96.8z M93.6,96.8V47.1h3.5v49.7H93.6z M104.2,43.6H93.6V40h10.6
		V43.6z M98.9,25.9c2.9,0,5.3,2.4,5.3,5.3v5.3H93.6v-5.3C93.6,28.2,96,25.9,98.9,25.9z M99.6,110.5c-0.2,0.6-1.2,0.6-1.5,0
		l-3.8-10.1h9.1L99.6,110.5z M109.6,64.9c-1,0-1.8-0.8-1.8-1.8V43.6h3.5v19.5C111.3,64.1,110.5,64.9,109.6,64.9z"/>
</g>
</svg>
