
<svg xmlns="http://www.w3.org/2000/svg" version="1.1" xmlns:xlink="http://www.w3.org/1999/xlink" preserveAspectRatio="none" x="0px" y="0px" width="250px" height="390px" viewBox="0 0 250 390">
<defs>
<linearGradient id="Gradient_1" gradientUnits="userSpaceOnUse" x1="18.299999999999983" y1="129.6" x2="269.1" y2="129.6" spreadMethod="pad">
<stop  offset="0%" stop-color="#FAC496"/>

<stop  offset="24.313725490196077%" stop-color="#F4D7B7"/>

<stop  offset="63.92156862745098%" stop-color="#ECF4E8"/>

<stop  offset="83.52941176470588%" stop-color="#E9FFFB"/>
</linearGradient>

<g id="Layer2_0_MEMBER_0_FILL">
<path fill="url(#Gradient_1)" stroke="none" d="
M 269.1 129.6
Q 269.1 77.65 232.35 40.9 195.65 4.2 143.7 4.2 91.75 4.2 55 40.9 18.3 77.65 18.3 129.6 18.3 181.55 55 218.25 91.75 255 143.7 255 195.65 255 232.35 218.25 269.1 181.55 269.1 129.6 Z"/>
</g>

<g id="Layer2_0_MEMBER_2_FILL">
<path fill="url(#Gradient_1)" stroke="none" d="
M 269.1 129.6
Q 269.1 77.65 232.35 40.9 195.65 4.2 143.7 4.2 91.75 4.2 55 40.9 18.3 77.65 18.3 129.6 18.3 181.55 55 218.25 91.75 255 143.7 255 195.65 255 232.35 218.25 269.1 181.55 269.1 129.6 Z"/>
</g>

<g id="Cubo_0_Layer0_0_FILL">
<path fill="#053336" stroke="none" d="
M 48.6 1.9
Q 48.45 1.75 48.3 1.6 47.9 1.45 47.5 1.3 47.25 1.2 47 1.1 46.75 1.05 46.5 1 46.35 0.95 46.2 0.9 46.1 0.85 46 0.85
L 46 0.8
Q 45.9 0.65 45.8 0.5 45.7 0.35 45.6 0.2 45.3 0.1 45 0 29.05 0 13.1 0 13.1 0.05 13.1 0.1 10.85 0.1 8.6 0.1 8.3 0.2 8 0.3 7.6 0.4 7.2 0.5 5.35 0.6 3.5 0.7 3.3 0.85 3.1 1 2.75 1.15 2.4 1.3 2.25 1.45 2.1 1.6 1.95 1.75 1.8 1.9 1.7 2.05 1.6 2.2 1.45 2.35 1.3 2.5 1.2 2.65 1.1 2.8 1.1 2.85 1.1 2.9 1.05 2.9 1 2.9 0.9 2.9 0.8 2.9 0.75 2.95 0.7 3 0.65 3.1 0.6 3.2 0.6 3.35 0.6 3.5 0.55 3.65 0.5 3.8 0.5 3.95 0.5 4.1 0.5 4.25 0.5 4.4 0.6 4.55 0.7 4.7 0.7 4.85 0.7 5 0.6 5.15 0.5 5.3 0.5 5.45 0.5 5.6 0.5 5.75 0.5 5.9 0.45 6.05 0.4 6.2 0.4 6.35 0.4 6.5 0.4 6.65 0.4 6.8 0.4 6.95 0.4 7.1 0.4 7.25 0.4 7.4 0.4 7.55 0.4 7.7 0.4 7.85 0.4 8 0.4 8.15 0.4 8.3 0.4 8.45 0.4 8.6 0.4 8.75 0.4 8.9 0.4 9.05 0.4 9.2 0.35 9.35 0.3 9.5 0.3 9.65 0.3 9.8 0.3 9.95 0.3 10.1 0.3 10.25 0.3 10.4 0.3 10.55 0.3 10.7 0.3 10.85 0.3 11 0.3 11.15 0.3 11.3 0.3 11.45 0.3 11.6 0.3 11.75 0.3 11.9 0.3 12.05 0.3 12.2 0.3 12.35 0.3 12.5 0.3 12.65 0.3 12.8 0.3 12.95 0.3 13.1 0.3 13.25 0.3 13.4 0.25 13.55 0.2 13.7 0.2 13.85 0.2 14 0.2 14.15 0.2 14.3 0.2 14.45 0.2 14.6 0.2 14.75 0.2 14.9 0.2 15.05 0.2 15.2 0.2 15.35 0.2 15.5 0.2 15.65 0.2 15.8 0.2 15.95 0.2 16.1 0.2 16.25 0.2 16.4 0.2 16.55 0.2 16.7 0.2 16.85 0.2 17 0.2 17.15 0.2 17.3 0.2 17.45 0.2 17.6 0.2 17.75 0.2 17.9 0.2 18.05 0.2 18.2 0.2 18.35 0.2 18.5 0.2 18.65 0.2 18.8 0.2 18.95 0.2 19.1 0.2 19.25 0.2 19.4 0.2 19.55 0.2 19.7 0.2 19.85 0.2 20 0.2 20.15 0.2 20.3 0.2 20.45 0.2 20.6 0.2 20.75 0.2 20.9 0.2 21.05 0.2 21.2 0.2 21.35 0.2 21.5 0.2 21.65 0.2 21.8 0.2 21.95 0.2 22.1 0.2 22.25 0.2 22.4 0.2 22.55 0.2 22.7 0.2 22.85 0.2 23 0.2 23.15 0.2 23.3 0.2 23.45 0.2 23.6 0.2 23.75 0.2 23.9 0.2 24.05 0.2 24.2 0.2 24.35 0.2 24.5 0.2 24.65 0.2 24.8 0.2 24.95 0.2 25.1 0.2 25.25 0.2 25.4 0.2 25.55 0.2 25.7 0.2 25.85 0.2 26 0.2 26.15 0.2 26.3 0.2 26.45 0.2 26.6 0.2 26.75 0.2 26.9 0.2 27.05 0.2 27.2 0.2 27.35 0.2 27.5 0.2 27.65 0.2 27.8 0.2 27.95 0.2 28.1 0.2 28.25 0.2 28.4 0.2 28.55 0.2 28.7 0.2 28.85 0.2 29 0.2 29.15 0.2 29.3 0.2 29.45 0.2 29.6 0.2 29.75 0.2 29.9 0.2 30.05 0.2 30.2 0.2 30.35 0.2 30.5 0.15 30.65 0.1 30.8 0.1 30.95 0.1 31.1 0.1 31.25 0.1 31.4 0.1 31.55 0.1 31.7 0.1 31.85 0.1 32 0.1 32.15 0.1 32.3 0.1 32.45 0.1 32.6 0.1 32.75 0.1 32.9 0.1 33.05 0.1 33.2 0.1 33.35 0.1 33.5 0.1 33.65 0.1 33.8 0.1 33.95 0.1 34.1 0.1 34.25 0.1 34.4 0.1 34.55 0.1 34.7 0.1 34.85 0.1 35 0.1 35.15 0.1 35.3 0.1 35.45 0.1 35.6 0.1 35.75 0.1 35.9 0.1 36.05 0.1 36.2 0.1 36.35 0.1 36.5 0.1 36.65 0.1 36.8 0.1 36.95 0.1 37.1 0.1 37.25 0.1 37.4 0.1 37.55 0.1 37.7 0.1 37.85 0.1 38 0.1 38.15 0.1 38.3 0.1 38.45 0.1 38.6 0.1 38.75 0.1 38.9 0.1 39.05 0.1 39.2 0.1 39.35 0.1 39.5 0.1 39.65 0.1 39.8 0.1 39.95 0.1 40.1 0.1 40.25 0.1 40.4 0.1 40.55 0.1 40.7 0.1 40.85 0.1 41 0.1 41.15 0.1 41.3 0.1 41.45 0.1 41.6 0.1 41.75 0.1 41.9 0.1 42.05 0.1 42.2 0.1 42.35 0.1 42.5 0.1 42.65 0.1 42.8 0.15 42.95 0.2 43.1 0.2 43.25 0.2 43.4 0.2 43.55 0.2 43.7 0.2 43.85 0.2 44 0.2 44.15 0.2 44.3 0.2 44.4 0.2 44.5 0.1 44.65 0 44.8 0 44.95 0 45.1 0 45.25 0 45.4 0.1 45.55 0.2 45.7 0.3 45.85 0.4 46 0.5 46.15 0.6 46.3 0.85 46.45 1.1 46.6 1.15 46.75 1.2 46.9 1.35 47.05 1.5 47.2 1.7 47.35 1.9 47.5 15.6 47.6 29.3 47.7 38.75 47.7 48.2 47.7 48.25 47.6 48.3 47.5 48.4 47.35 48.5 47.2 48.55 47.05 48.6 46.9 48.6 46.85 48.6 46.8 48.75 46.7 48.9 46.6 49 46.45 49.1 46.3 49.1 46.15 49.1 46 49.1 45.85 49.1 45.7 49.1 45.55 49.1 45.4 49.1 45.25 49.1 45.1 49.1 44.95 49.1 44.8 49.1 44.65 49.1 44.5 49.1 44.35 49.1 44.2 49.1 44.05 49.1 43.9 49.1 43.75 49.1 43.6 49.1 43.45 49.1 43.3 49.1 43.15 49.1 43 49.1 42.85 49.1 42.7 49.1 42.55 49.1 42.4 49.1 42.25 49.1 42.1 49.1 41.95 49.1 41.8 49.1 41.65 49.1 41.5 49.1 41.35 49.1 41.2 49.1 41.05 49.1 40.9 49.1 40.75 49.1 40.6 49.1 40.45 49.1 40.3 49.1 40.15 49.1 40 49.1 39.85 49.1 39.7 49.1 39.55 49.1 39.4 49.1 39.25 49.1 39.1 49.1 38.95 49.1 38.8 49.1 38.65 49.1 38.5 49.1 38.35 49.1 38.2 49.1 38.05 49.1 37.9 49.1 37.75 49.1 37.6 49.1 37.45 49.1 37.3 49.1 37.15 49.1 37 49.1 36.85 49.1 36.7 49.1 36.55 49.1 36.4 49.1 36.25 49.1 36.1 49.1 35.95 49.1 35.8 49.1 35.65 49.1 35.5 49.1 35.35 49.1 35.2 49.1 35.05 49.1 34.9 49.1 34.75 49.1 34.6 49.1 34.45 49.1 34.3 49.1 34.15 49.1 34 49.1 33.85 49.1 33.7 49.1 33.55 49.1 33.4 49.1 33.25 49.1 33.1 49.1 32.95 49.1 32.8 49.1 32.65 49.1 32.5 49.1 32.35 49.1 32.2 49.1 32.05 49.1 31.9 49.1 31.75 49.1 31.6 49.1 31.45 49.1 31.3 49.1 31.15 49.1 31 49.1 30.85 49.1 30.7 49.1 30.55 49.1 30.4 49.1 30.25 49.1 30.1 49.1 29.95 49.1 29.8 49.1 29.65 49.1 29.5 49.1 29.35 49.1 29.2 49.1 29.05 49.1 28.9 49.1 28.75 49.1 28.6 49.1 28.45 49.1 28.3 49.1 28.15 49.1 28 49.1 27.85 49.1 27.7 49.1 27.55 49.1 27.4 49.1 27.25 49.1 27.1 49.1 26.95 49.1 26.8 49.1 26.65 49.1 26.5 49.1 26.35 49.1 26.2 49.1 26.05 49.1 25.9 49.1 25.75 49.1 25.6 49.1 25.45 49.1 25.3 49.1 25.15 49.1 25 49.1 24.85 49.1 24.7 49.1 24.55 49.1 24.4 49.1 24.25 49.1 24.1 49.1 23.95 49.1 23.8 49.1 23.65 49.1 23.5 49.1 23.35 49.1 23.2 49.1 23.05 49.1 22.9 49.1 22.75 49.1 22.6 49.1 22.45 49.1 22.3 49.1 22.15 49.1 22 49.1 21.85 49.1 21.7 49.1 21.55 49.1 21.4 49.1 21.25 49.1 21.1 49.1 20.95 49.1 20.8 49.1 20.65 49.1 20.5 49.1 20.35 49.1 20.2 49.1 20.05 49.1 19.9 49.1 19.75 49.1 19.6 49.1 19.45 49.1 19.3 49.1 19.15 49.1 19 49.1 18.85 49.1 18.7 49.1 18.55 49.1 18.4 49.1 18.25 49.1 18.1 49.1 17.95 49.1 17.8 49.1 17.65 49.1 17.5 49.1 17.35 49.1 17.2 49.1 17.05 49.1 16.9 49.1 16.75 49.1 16.6 49.1 16.45 49.1 16.3 49.1 16.15 49.1 16 49.1 15.85 49.1 15.7 49.1 15.55 49.1 15.4 49.1 15.25 49.1 15.1 49.1 14.95 49.1 14.8 49.1 14.65 49.1 14.5 49.1 14.35 49.1 14.2 49.1 14.05 49.1 13.9 49.1 13.75 49.1 13.6 49.1 13.45 49.1 13.3 49.1 13.15 49.1 13 49.1 12.85 49.1 12.7 49.1 12.55 49.1 12.4 49.1 12.25 49.1 12.1 49.1 11.95 49.1 11.8 49.1 11.65 49.1 11.5 49.1 11.35 49.1 11.2 49.1 11.05 49.1 10.9 49.1 10.75 49.1 10.6 49.1 10.45 49.1 10.3 49.1 10.15 49.1 10 49.1 9.85 49.1 9.7 49.1 9.55 49.1 9.4 49.1 9.25 49.1 9.1 49.1 8.95 49.1 8.8 49.1 8.65 49.1 8.5 49.1 8.35 49.1 8.2 49.1 8.05 49.1 7.9 49.1 7.75 49.1 7.6 49.1 7.45 49.1 7.3 49.1 7.15 49.1 7 49.1 6.85 49.1 6.7 49.1 6.55 49.1 6.4 49.1 6.25 49.1 6.1 49.1 5.95 49.1 5.8 49.1 5.65 49.1 5.5 49.1 5.35 49.1 5.2 49.1 5.05 49.1 4.9 49.1 4.75 49.1 4.6 49.1 4.45 49.1 4.3 49.1 4.15 49.1 4 49.1 3.85 49.1 3.7 49.05 3.55 49 3.4 49 3.25 49 3.1 49 2.95 49 2.8 49 2.65 49 2.5 48.95 2.35 48.9 2.2 48.75 2.05 48.6 1.9
M 45.6 1.9
Q 45.65 1.95 45.7 2 45.9 2.1 46.1 2.2 46.5 2.3 46.9 2.4 47 2.45 47.1 2.5 47.1 2.6 47.1 2.7 47.2 2.85 47.3 3 47.4 3.15 47.5 3.3 47.45 3.45 47.4 3.6 47.4 3.75 47.4 3.9 47.4 4.05 47.4 4.2 47.4 4.35 47.4 4.5 47.4 4.65 47.4 4.8 47.4 4.95 47.4 5.1 47.4 5.25 47.4 5.4 47.4 5.55 47.4 5.7 47.4 5.85 47.4 6 47.4 6.15 47.4 6.3 47.4 6.45 47.4 6.6 47.4 6.75 47.4 6.9 47.4 7.05 47.4 7.2 47.4 7.35 47.4 7.5 47.4 7.65 47.4 7.8 47.4 7.95 47.4 8.1 47.4 8.25 47.4 8.4 47.4 8.55 47.4 8.7 47.4 8.85 47.4 9 47.4 9.15 47.4 9.3 47.4 9.45 47.4 9.6 47.4 9.75 47.4 9.9 47.4 10.05 47.4 10.2 47.4 10.35 47.4 10.5 47.4 10.65 47.4 10.8 47.4 10.95 47.4 11.1 47.4 11.25 47.4 11.4 47.4 11.55 47.4 11.7 47.4 11.85 47.4 12 47.4 12.15 47.4 12.3 47.4 12.45 47.4 12.6 47.4 12.75 47.4 12.9 47.4 13.05 47.4 13.2 47.4 13.35 47.4 13.5 47.4 13.65 47.4 13.8 47.4 13.95 47.4 14.1 47.4 14.25 47.4 14.4 47.4 14.55 47.4 14.7 47.4 14.85 47.4 15 47.4 15.15 47.4 15.3 47.4 15.45 47.4 15.6 47.4 15.75 47.4 15.9 47.4 16.05 47.4 16.2 47.4 16.35 47.4 16.5 47.4 16.65 47.4 16.8 47.4 16.95 47.4 17.1 47.4 17.25 47.4 17.4 47.4 17.55 47.4 17.7 47.4 17.85 47.4 18 47.4 18.15 47.4 18.3 47.4 18.45 47.4 18.6 47.4 18.75 47.4 18.9 47.4 19.05 47.4 19.2 47.4 19.35 47.4 19.5 47.4 19.65 47.4 19.8 47.4 19.95 47.4 20.1 47.4 20.25 47.4 20.4 47.4 20.55 47.4 20.7 47.4 20.85 47.4 21 47.4 21.15 47.4 21.3 47.4 21.45 47.4 21.6 47.4 21.75 47.4 21.9 47.4 22.05 47.4 22.2 47.4 22.35 47.4 22.5 47.4 22.65 47.4 22.8 47.4 22.95 47.4 23.1 47.4 23.25 47.4 23.4 47.4 23.55 47.4 23.7 47.4 23.85 47.4 24 47.4 24.15 47.4 24.3 47.4 24.45 47.4 24.6 47.4 24.75 47.4 24.9 47.4 25.05 47.4 25.2 47.4 25.35 47.4 25.5 47.4 25.65 47.4 25.8 47.4 25.95 47.4 26.1 47.4 26.25 47.4 26.4 47.4 26.55 47.4 26.7 47.4 26.85 47.4 27 47.4 27.15 47.4 27.3 47.4 27.45 47.4 27.6 47.4 27.75 47.4 27.9 47.4 28.05 47.4 28.2 47.4 28.35 47.4 28.5 47.4 28.65 47.4 28.8 47.4 28.95 47.4 29.1 47.4 29.25 47.4 29.4 47.4 29.55 47.4 29.7 47.4 29.85 47.4 30 47.4 30.15 47.4 30.3 47.4 30.45 47.4 30.6 47.4 30.75 47.4 30.9 47.4 31.05 47.4 31.2 47.4 31.35 47.4 31.5 47.4 31.65 47.4 31.8 47.4 31.95 47.4 32.1 47.4 32.25 47.4 32.4 47.4 32.55 47.4 32.7 47.4 32.85 47.4 33 47.4 33.15 47.4 33.3 47.4 33.45 47.4 33.6 47.4 33.75 47.4 33.9 47.4 34.05 47.4 34.2 47.4 34.35 47.4 34.5 47.4 34.65 47.4 34.8 47.4 34.95 47.4 35.1 47.4 35.25 47.4 35.4 47.4 35.55 47.4 35.7 47.4 35.85 47.4 36 47.4 36.15 47.4 36.3 47.4 36.45 47.4 36.6 47.4 36.75 47.4 36.9 47.4 37.05 47.4 37.2 47.4 37.35 47.4 37.5 47.4 37.65 47.4 37.8 47.4 37.95 47.4 38.1 47.4 38.25 47.4 38.4 47.4 38.55 47.4 38.7 47.4 38.85 47.4 39 47.4 39.15 47.4 39.3 47.4 39.45 47.4 39.6 47.4 39.75 47.4 39.9 47.4 40.05 47.4 40.2 47.4 40.35 47.4 40.5 47.4 40.65 47.4 40.8 47.4 40.95 47.4 41.1 47.4 41.25 47.4 41.4 47.4 41.55 47.4 41.7 47.4 41.85 47.4 42 47.4 42.15 47.4 42.3 47.4 42.45 47.4 42.6 47.4 42.75 47.4 42.9 47.4 43 47.4 43.1 32.8 43.1 18.2 43.1 18.2 43.15 18.2 43.2 13 43.2 7.8 43.2 6.5607421875 43.2728515625 5.3 43.35 4.8607421875 43.3728515625 4.4 43.4 4.35 43.55 4.3 43.7 4.35 43.85 4.4 44 6.1 44.1 7.8 44.2 13 44.25 18.2 44.3 32.8 44.3 47.4 44.3 47.4 44.35 47.4 44.4 47.4 44.55 47.4 44.7 47.4 44.85 47.4 45 47.4 45.15 47.4 45.3 47.4 45.45 47.4 45.6 47.4 45.75 47.4 45.9 47.4 46 47.4 46.1 38.5 46.1 29.6 46.1 16.3 46.05 3.05 46 3.15 45.65 3.25 45.45 3.4 45.05 3.65 44.7 4.25 43.8 4.25 43.3
L 4.25 43.25
Q 4.35 43.3 4.5 43.3 4.5115234375 43.2771484375 4.5 43.25 4.5615234375 43.1771484375 4.6 43.1 4.65 42.95 4.7 42.8 4.7 42.65 4.7 42.5 4.75 42.35 4.8 42.2 4.8 42.05 4.8 41.9 4.8 41.75 4.8 41.6 4.8 41.45 4.8 41.3 4.8 41.15 4.8 41 4.8 40.85 4.8 40.7 4.8 40.55 4.8 40.4 4.8 40.25 4.8 40.1 4.8 39.95 4.8 39.8 4.8 39.65 4.8 39.5 4.8 39.35 4.8 39.2 4.8 39.05 4.8 38.9 4.8 38.75 4.8 38.6 4.8 38.45 4.8 38.3 4.8 38.15 4.8 38 4.8 37.85 4.8 37.7 4.8 37.55 4.8 37.4 4.8 37.25 4.8 37.1 4.8 36.95 4.8 36.8 4.8 36.65 4.8 36.5 4.8 36.35 4.8 36.2 4.8 36.05 4.8 35.9 4.8 35.75 4.8 35.6 4.8 35.45 4.8 35.3 4.8 35.15 4.8 35 4.8 34.85 4.8 34.7 4.8 34.55 4.8 34.4 4.8 34.25 4.8 34.1 4.8 33.95 4.8 33.8 4.8 33.65 4.8 33.5 4.8 33.35 4.8 33.2 4.8 33.05 4.8 32.9 4.8 32.75 4.8 32.6 4.8 32.45 4.8 32.3 4.8 32.15 4.8 32 4.8 31.85 4.8 31.7 4.8 31.55 4.8 31.4 4.8 31.25 4.8 31.1 4.8 30.95 4.8 30.8 4.8 30.65 4.8 30.5 4.8 30.35 4.8 30.2 4.8 30.05 4.8 29.9 4.8 29.75 4.8 29.6 4.8 29.45 4.8 29.3 4.75 29.15 4.7 29 4.7 28.85 4.7 28.7 4.7 28.55 4.7 28.4 4.7 28.25 4.7 28.1 4.7 27.95 4.7 27.8 4.7 27.65 4.7 27.5 4.7 27.35 4.7 27.2 4.7 27.05 4.7 26.9 4.7 26.75 4.7 26.6 4.7 26.45 4.7 26.3 4.7 26.15 4.7 26 4.7 25.85 4.7 25.7 4.7 25.55 4.7 25.4 4.7 25.25 4.7 25.1 4.7 24.95 4.7 24.8 4.7 24.65 4.7 24.5 4.7 24.35 4.7 24.2 4.7 24.05 4.7 23.9 4.7 23.75 4.7 23.6 4.7 23.45 4.7 23.3 4.7 23.15 4.7 23 4.7 22.85 4.7 22.7 4.7 22.55 4.7 22.4 4.7 22.25 4.7 22.1 4.7 21.95 4.7 21.8 4.7 21.65 4.7 21.5 4.7 21.35 4.7 21.2 4.7 21.05 4.7 20.9 4.7 20.75 4.7 20.6 4.7 20.45 4.7 20.3 4.7 20.15 4.7 20 4.7 19.85 4.7 19.7 4.7 19.55 4.7 19.4 4.7 19.25 4.7 19.1 4.7 18.95 4.7 18.8 4.7 18.65 4.7 18.5 4.7 18.35 4.7 18.2 4.7 18.05 4.7 17.9 4.7 17.75 4.7 17.6 4.7 17.45 4.7 17.3 4.7 17.15 4.7 17 4.7 16.85 4.7 16.7 4.7 16.55 4.7 16.4 4.7 16.25 4.7 16.1 4.7 15.95 4.7 15.8 4.7 15.65 4.7 15.5 4.7 15.35 4.7 15.2 4.7 15.05 4.7 14.9 4.7 14.75 4.7 14.6 4.7 14.45 4.7 14.3 4.7 14.15 4.7 14 4.7 13.85 4.7 13.7 4.7 13.55 4.7 13.4 4.7 13.25 4.7 13.1 4.7 12.95 4.7 12.8 4.7 12.65 4.7 12.5 4.7 12.35 4.7 12.2 4.7 12.05 4.7 11.9 4.7 11.75 4.7 11.6 4.7 11.45 4.7 11.3 4.7 11.15 4.7 11 4.7 10.85 4.7 10.7 4.7 10.55 4.7 10.4 4.7 10.25 4.7 10.1 4.7 9.95 4.7 9.8 4.7 9.65 4.7 9.5 4.7 9.35 4.7 9.2 4.7 9.05 4.7 8.9 4.7 8.75 4.7 8.6 4.7 8.45 4.7 8.3 4.7 8.15 4.7 8 4.7 7.85 4.7 7.7 4.7 7.55 4.7 7.4 4.65 7.25 4.6 7.1 4.6 6.95 4.6 6.8 4.6 6.65 4.6 6.5 4.6 6.35 4.6 6.2 4.6 6.05 4.6 5.9 4.6 5.75 4.6 5.6 4.6 5.45 4.6 5.3 4.6 5.15 4.6 5 4.6 4.85 4.6 4.7 4.6 4.55 4.6 4.4 4.6 4.25 4.6 4.1 4.6 3.95 4.6 3.8 4.6 3.65 4.6 3.5 4.6 3.35 4.6 3.2 4.6 3.05 4.6 2.9 4.6 2.75 4.6 2.6 4.5 2.45 4.4 2.3 4.3 2.3 4.2 2.3 4.15 2.3166015625 4.1 2.3 4 2.3666015625 3.9 2.4 3.9 2.55 3.9 2.7 3.9 2.85 3.9 3 3.9 3.15 3.9 3.3 3.9 3.45 3.9 3.6 3.9 3.75 3.9 3.9 3.9 4.05 3.9 4.2 3.9 4.35 3.9 4.5 3.9 4.65 3.9 4.8 3.9 4.95 3.9 5.1 3.9 5.25 3.9 5.4 3.9 5.55 3.9 5.7 3.9 5.85 3.9 6 3.9 6.15 3.9 6.3 3.9 6.45 3.9 6.6 3.9 6.75 3.9 6.9 3.85 7.05 3.8 7.2 3.8 7.35 3.8 7.5 3.8 7.65 3.8 7.8 3.8 7.95 3.8 8.1 3.8 8.25 3.8 8.4 3.8 8.55 3.8 8.7 3.8 8.85 3.8 9 3.8 9.15 3.8 9.3 3.8 9.45 3.8 9.6 3.8 9.75 3.8 9.9 3.8 10.05 3.8 10.2 3.8 10.35 3.8 10.5 3.8 10.65 3.8 10.8 3.8 10.95 3.8 11.1 3.8 11.25 3.8 11.4 3.8 11.55 3.8 11.7 3.8 11.85 3.8 12 3.8 12.15 3.8 12.3 3.8 12.45 3.8 12.6 3.8 12.75 3.8 12.9 3.8 13.05 3.8 13.2 3.8 13.35 3.8 13.5 3.8 13.65 3.8 13.8 3.8 13.95 3.8 14.1 3.8 14.25 3.8 14.4 3.8 14.55 3.8 14.7 3.8 14.85 3.8 15 3.8 15.15 3.8 15.3 3.8 15.45 3.8 15.6 3.8 15.75 3.8 15.9 3.8 16.05 3.8 16.2 3.8 16.35 3.8 16.5 3.8 16.65 3.8 16.8 3.8 16.95 3.8 17.1 3.8 17.25 3.8 17.4 3.8 17.55 3.8 17.7 3.8 17.85 3.8 18 3.8 18.15 3.8 18.3 3.8 18.45 3.8 18.6 3.8 18.75 3.8 18.9 3.8 19.05 3.8 19.2 3.8 19.35 3.8 19.5 3.8 19.65 3.8 19.8 3.8 19.95 3.8 20.1 3.8 20.25 3.8 20.4 3.8 20.55 3.8 20.7 3.8 20.85 3.8 21 3.8 21.15 3.8 21.3 3.8 21.45 3.8 21.6 3.8 21.75 3.8 21.9 3.8 22.05 3.8 22.2 3.8 22.35 3.8 22.5 3.8 22.65 3.8 22.8 3.8 22.95 3.8 23.1 3.8 23.25 3.8 23.4 3.8 23.55 3.8 23.7 3.8 23.85 3.8 24 3.8 24.15 3.8 24.3 3.8 24.45 3.8 24.6 3.8 24.75 3.8 24.9 3.8 25.05 3.8 25.2 3.8 25.35 3.8 25.5 3.8 25.65 3.8 25.8 3.8 25.95 3.8 26.1 3.8 26.25 3.8 26.4 3.8 26.55 3.8 26.7 3.8 26.85 3.8 27 3.8 27.15 3.8 27.3 3.8 27.45 3.8 27.6 3.8 27.75 3.8 27.9 3.8 28.05 3.8 28.2 3.8 28.35 3.8 28.5 3.8 28.65 3.8 28.8 3.75 28.95 3.7 29.1 3.7 29.25 3.7 29.4 3.7 29.55 3.7 29.7 3.7 29.85 3.7 30 3.7 30.15 3.7 30.3 3.7 30.45 3.7 30.6 3.7 30.75 3.7 30.9 3.7 31.05 3.7 31.2 3.7 31.35 3.7 31.5 3.7 31.65 3.7 31.8 3.7 31.95 3.7 32.1 3.7 32.25 3.7 32.4 3.7 32.55 3.7 32.7 3.7 32.85 3.7 33 3.7 33.15 3.7 33.3 3.7 33.45 3.7 33.6 3.7 33.75 3.7 33.9 3.7 34.05 3.7 34.2 3.7 34.35 3.7 34.5 3.7 34.65 3.7 34.8 3.7 34.95 3.7 35.1 3.7 35.25 3.7 35.4 3.7 35.55 3.7 35.7 3.7 35.85 3.7 36 3.7 36.15 3.7 36.3 3.7 36.45 3.7 36.6 3.7 36.75 3.7 36.9 3.7 37.05 3.7 37.2 3.7 37.35 3.7 37.5 3.7 37.65 3.7 37.8 3.7 37.95 3.7 38.1 3.7 38.25 3.7 38.4 3.7 38.55 3.7 38.7 3.7 38.85 3.7 39 3.7 39.15 3.7 39.3 3.7 39.45 3.7 39.6 3.7 39.75 3.7 39.9 3.7 40.05 3.7 40.2 3.7 40.35 3.7 40.5 3.7 40.65 3.7 40.8 3.7 40.95 3.7 41.1 3.7 41.25 3.7 41.4 3.7 41.55 3.7 41.7 3.7 41.85 3.7 42 3.7 42.15 3.7 42.3 3.75 42.45 3.8 42.6
L 3.8 42.65
Q 3.7 42.65 3.6 42.7 3.5 43.2 3.3 43.55 3.2 43.8 2.6 44.6
L 2.2 45.5
Q 2.15 45.45 2.1 45.4 1.9 45.25 1.7 45.1 1.75 45 1.8 44.9 1.85 44.75 1.9 44.6 1.9 44.45 1.9 44.3 1.9 44.15 1.9 44 1.9 43.85 1.9 43.7 1.9 43.55 1.9 43.4 1.9 43.25 1.9 43.1 1.9 42.95 1.9 42.8 1.95 42.65 2 42.5 2 42.35 2 42.2 2 42.05 2 41.9 2 41.75 2 41.6 2 41.45 2 41.3 2 41.15 2 41 2 40.85 2 40.7 2 40.55 2 40.4 2 40.25 2 40.1 2 39.95 2 39.8 2 39.65 2 39.5 2 39.35 2 39.2 2 39.05 2 38.9 2 38.75 2 38.6 2 38.45 2 38.3 2 38.15 2 38 2 37.85 2 37.7 2 37.55 2 37.4 2 37.25 2 37.1 2 36.95 2 36.8 2 36.65 2 36.5 2 36.35 2 36.2 2 36.05 2 35.9 1.95 35.75 1.9 35.6 1.95 35.45 2 35.3 2 35.15 2 35 2 34.85 2 34.7 2 34.55 2 34.4 2 34.25 2 34.1 2 33.95 2 33.8 2 33.65 2 33.5 2 33.35 2 33.2 2 33.05 2 32.9 2 32.75 2 32.6 2 32.45 2 32.3 2 32.15 2 32 2 31.85 2 31.7 2 31.55 2 31.4 2 31.25 2 31.1 2 30.95 2 30.8 1.95 30.65 1.9 30.5 1.9 30.35 1.9 30.2 1.9 30.05 1.9 29.9 1.9 29.75 1.9 29.6 1.9 29.45 1.9 29.3 1.9 29.15 1.9 29 1.9 28.85 1.9 28.7 1.9 28.55 1.9 28.4 1.9 28.25 1.9 28.1 1.9 27.95 1.9 27.8 1.9 27.65 1.9 27.5 1.9 27.35 1.9 27.2 1.9 27.05 1.9 26.9 1.9 26.75 1.9 26.6 1.9 26.45 1.9 26.3 1.9 26.15 1.9 26 1.9 25.85 1.9 25.7 1.9 25.55 1.9 25.4 1.9 25.25 1.9 25.1 1.9 24.95 1.9 24.8 1.9 24.65 1.9 24.5 1.9 24.35 1.9 24.2 1.9 24.05 1.9 23.9 1.9 23.75 1.9 23.6 1.9 23.45 1.9 23.3 1.9 23.15 1.9 23 1.9 22.85 1.9 22.7 1.9 22.55 1.9 22.4 1.9 22.25 1.9 22.1 1.9 21.95 1.9 21.8 1.9 21.65 1.9 21.5 1.9 21.35 1.9 21.2 1.9 21.05 1.9 20.9 1.9 20.75 1.9 20.6 1.9 20.45 1.9 20.3 1.9 20.15 1.9 20 1.9 19.85 1.9 19.7 1.9 19.55 1.9 19.4 1.9 19.25 1.9 19.1 1.9 18.95 1.9 18.8 1.9 18.65 1.9 18.5 1.9 18.35 1.9 18.2 1.9 18.05 1.9 17.9 1.9 17.75 1.9 17.6 1.9 17.45 1.9 17.3 1.9 17.15 1.9 17 1.9 16.85 1.9 16.7 1.9 16.55 1.9 16.4 1.9 16.25 1.9 16.1 1.9 15.95 1.9 15.8 1.9 15.65 1.9 15.5 1.9 15.35 1.9 15.2 1.9 15.05 1.9 14.9 1.9 14.75 1.9 14.6 1.9 14.45 1.9 14.3 1.9 14.15 1.9 14 1.9 13.85 1.9 13.7 1.85 13.55 1.8 13.4 1.8 13.25 1.8 13.1 1.8 12.95 1.8 12.8 1.8 12.65 1.8 12.5 1.8 12.35 1.8 12.2 1.8 12.05 1.8 11.9 1.8 11.75 1.8 11.6 1.8 11.45 1.8 11.3 1.8 11.15 1.8 11 1.8 10.85 1.8 10.7 1.8 10.55 1.8 10.4 1.8 10.25 1.8 10.1 1.8 9.95 1.8 9.8 1.8 9.65 1.8 9.5 1.75 9.35 1.7 9.2 1.7 9.05 1.7 8.9 1.7 8.75 1.7 8.6 1.7 8.45 1.7 8.3 1.7 8.15 1.7 8 1.7 7.85 1.7 7.7 1.7 7.55 1.7 7.4 1.7 7.25 1.7 7.1 1.7 6.95 1.7 6.8 1.7 6.65 1.7 6.5 1.65 6.35 1.6 6.2 1.6 6.05 1.6 5.9 1.65 5.75 1.7 5.6 1.75 5.45 1.8 5.3 1.85 5.15 1.9 5 1.9 4.85 1.9 4.7 1.85 4.55 1.8 4.4 1.7 4.25 1.6 4.1 1.55 3.95 1.5 3.8 1.5 3.7 1.5 3.55 1.65 3.5 1.8 3.4 1.95 3.25 2.1 3.1 2.25 2.95 2.4 2.8 2.7 2.7 3 2.6 3.05 2.5 3.1 2.4 3.35 2.3 3.6 2.2 3.7 2.15 3.8 2.1 3.95 2.1 4.1 2.1 5.5 2.1 6.9 2.1 7.45 2.1 8 2.1 8.25 2 8.5 1.9 10.8 1.85 13.1 1.8 29 1.75 44.9 1.7 45.25 1.8 45.6 1.9 Z"/>

<path fill="#D2AE72" stroke="none" d="
M 3.6 2.2
Q 3.35 2.3 3.1 2.4 3.05 2.5 3 2.6 2.7 2.7 2.4 2.8 2.25 2.95 2.1 3.1 1.95 3.25 1.8 3.4 1.65 3.5 1.5 3.55 1.5 3.7 1.5 3.8 1.55 3.95 1.6 4.1 1.7 4.25 1.8 4.4 1.85 4.55 1.9 4.7 1.9 4.85 1.9 5 1.85 5.15 1.8 5.3 1.75 5.45 1.7 5.6 1.65 5.75 1.6 5.9 1.6 6.05 1.6 6.2 1.65 6.35 1.7 6.5 1.7 6.65 1.7 6.8 1.7 6.95 1.7 7.1 1.7 7.25 1.7 7.4 1.7 7.55 1.7 7.7 1.7 7.85 1.7 8 1.7 8.15 1.7 8.3 1.7 8.45 1.7 8.6 1.7 8.75 1.7 8.9 1.7 9.05 1.7 9.2 1.75 9.35 1.8 9.5 1.8 9.65 1.8 9.8 1.8 9.95 1.8 10.1 1.8 10.25 1.8 10.4 1.8 10.55 1.8 10.7 1.8 10.85 1.8 11 1.8 11.15 1.8 11.3 1.8 11.45 1.8 11.6 1.8 11.75 1.8 11.9 1.8 12.05 1.8 12.2 1.8 12.35 1.8 12.5 1.8 12.65 1.8 12.8 1.8 12.95 1.8 13.1 1.8 13.25 1.8 13.4 1.85 13.55 1.9 13.7 1.9 13.85 1.9 14 1.9 14.15 1.9 14.3 1.9 14.45 1.9 14.6 1.9 14.75 1.9 14.9 1.9 15.05 1.9 15.2 1.9 15.35 1.9 15.5 1.9 15.65 1.9 15.8 1.9 15.95 1.9 16.1 1.9 16.25 1.9 16.4 1.9 16.55 1.9 16.7 1.9 16.85 1.9 17 1.9 17.15 1.9 17.3 1.9 17.45 1.9 17.6 1.9 17.75 1.9 17.9 1.9 18.05 1.9 18.2 1.9 18.35 1.9 18.5 1.9 18.65 1.9 18.8 1.9 18.95 1.9 19.1 1.9 19.25 1.9 19.4 1.9 19.55 1.9 19.7 1.9 19.85 1.9 20 1.9 20.15 1.9 20.3 1.9 20.45 1.9 20.6 1.9 20.75 1.9 20.9 1.9 21.05 1.9 21.2 1.9 21.35 1.9 21.5 1.9 21.65 1.9 21.8 1.9 21.95 1.9 22.1 1.9 22.25 1.9 22.4 1.9 22.55 1.9 22.7 1.9 22.85 1.9 23 1.9 23.15 1.9 23.3 1.9 23.45 1.9 23.6 1.9 23.75 1.9 23.9 1.9 24.05 1.9 24.2 1.9 24.35 1.9 24.5 1.9 24.65 1.9 24.8 1.9 24.95 1.9 25.1 1.9 25.25 1.9 25.4 1.9 25.55 1.9 25.7 1.9 25.85 1.9 26 1.9 26.15 1.9 26.3 1.9 26.45 1.9 26.6 1.9 26.75 1.9 26.9 1.9 27.05 1.9 27.2 1.9 27.35 1.9 27.5 1.9 27.65 1.9 27.8 1.9 27.95 1.9 28.1 1.9 28.25 1.9 28.4 1.9 28.55 1.9 28.7 1.9 28.85 1.9 29 1.9 29.15 1.9 29.3 1.9 29.45 1.9 29.6 1.9 29.75 1.9 29.9 1.9 30.05 1.9 30.2 1.9 30.35 1.9 30.5 1.95 30.65 2 30.8 2 30.95 2 31.1 2 31.25 2 31.4 2 31.55 2 31.7 2 31.85 2 32 2 32.15 2 32.3 2 32.45 2 32.6 2 32.75 2 32.9 2 33.05 2 33.2 2 33.35 2 33.5 2 33.65 2 33.8 2 33.95 2 34.1 2 34.25 2 34.4 2 34.55 2 34.7 2 34.85 2 35 2 35.15 2 35.3 1.95 35.45 1.9 35.6 1.95 35.75 2 35.9 2 36.05 2 36.2 2 36.35 2 36.5 2 36.65 2 36.8 2 36.95 2 37.1 2 37.25 2 37.4 2 37.55 2 37.7 2 37.85 2 38 2 38.15 2 38.3 2 38.45 2 38.6 2 38.75 2 38.9 2 39.05 2 39.2 2 39.35 2 39.5 2 39.65 2 39.8 2 39.95 2 40.1 2 40.25 2 40.4 2 40.55 2 40.7 2 40.85 2 41 2 41.15 2 41.3 2 41.45 2 41.6 2 41.75 2 41.9 2 42.05 2 42.2 2 42.35 2 42.5 1.95 42.65 1.9 42.8 1.9 42.95 1.9 43.1 1.9 43.25 1.9 43.4 1.9 43.55 1.9 43.7 1.9 43.85 1.9 44 1.9 44.15 1.9 44.3 1.9 44.45 1.9 44.6 1.85 44.75 1.8 44.9 1.75 45 1.7 45.1 1.9 45.25 2.1 45.4 2.15 45.45 2.2 45.5
L 2.6 44.6
Q 3.2 43.8 3.3 43.55 3.5 43.2 3.6 42.7 3.7 42.65 3.8 42.65
L 3.8 42.6
Q 3.75 42.45 3.7 42.3 3.7 42.15 3.7 42 3.7 41.85 3.7 41.7 3.7 41.55 3.7 41.4 3.7 41.25 3.7 41.1 3.7 40.95 3.7 40.8 3.7 40.65 3.7 40.5 3.7 40.35 3.7 40.2 3.7 40.05 3.7 39.9 3.7 39.75 3.7 39.6 3.7 39.45 3.7 39.3 3.7 39.15 3.7 39 3.7 38.85 3.7 38.7 3.7 38.55 3.7 38.4 3.7 38.25 3.7 38.1 3.7 37.95 3.7 37.8 3.7 37.65 3.7 37.5 3.7 37.35 3.7 37.2 3.7 37.05 3.7 36.9 3.7 36.75 3.7 36.6 3.7 36.45 3.7 36.3 3.7 36.15 3.7 36 3.7 35.85 3.7 35.7 3.7 35.55 3.7 35.4 3.7 35.25 3.7 35.1 3.7 34.95 3.7 34.8 3.7 34.65 3.7 34.5 3.7 34.35 3.7 34.2 3.7 34.05 3.7 33.9 3.7 33.75 3.7 33.6 3.7 33.45 3.7 33.3 3.7 33.15 3.7 33 3.7 32.85 3.7 32.7 3.7 32.55 3.7 32.4 3.7 32.25 3.7 32.1 3.7 31.95 3.7 31.8 3.7 31.65 3.7 31.5 3.7 31.35 3.7 31.2 3.7 31.05 3.7 30.9 3.7 30.75 3.7 30.6 3.7 30.45 3.7 30.3 3.7 30.15 3.7 30 3.7 29.85 3.7 29.7 3.7 29.55 3.7 29.4 3.7 29.25 3.7 29.1 3.75 28.95 3.8 28.8 3.8 28.65 3.8 28.5 3.8 28.35 3.8 28.2 3.8 28.05 3.8 27.9 3.8 27.75 3.8 27.6 3.8 27.45 3.8 27.3 3.8 27.15 3.8 27 3.8 26.85 3.8 26.7 3.8 26.55 3.8 26.4 3.8 26.25 3.8 26.1 3.8 25.95 3.8 25.8 3.8 25.65 3.8 25.5 3.8 25.35 3.8 25.2 3.8 25.05 3.8 24.9 3.8 24.75 3.8 24.6 3.8 24.45 3.8 24.3 3.8 24.15 3.8 24 3.8 23.85 3.8 23.7 3.8 23.55 3.8 23.4 3.8 23.25 3.8 23.1 3.8 22.95 3.8 22.8 3.8 22.65 3.8 22.5 3.8 22.35 3.8 22.2 3.8 22.05 3.8 21.9 3.8 21.75 3.8 21.6 3.8 21.45 3.8 21.3 3.8 21.15 3.8 21 3.8 20.85 3.8 20.7 3.8 20.55 3.8 20.4 3.8 20.25 3.8 20.1 3.8 19.95 3.8 19.8 3.8 19.65 3.8 19.5 3.8 19.35 3.8 19.2 3.8 19.05 3.8 18.9 3.8 18.75 3.8 18.6 3.8 18.45 3.8 18.3 3.8 18.15 3.8 18 3.8 17.85 3.8 17.7 3.8 17.55 3.8 17.4 3.8 17.25 3.8 17.1 3.8 16.95 3.8 16.8 3.8 16.65 3.8 16.5 3.8 16.35 3.8 16.2 3.8 16.05 3.8 15.9 3.8 15.75 3.8 15.6 3.8 15.45 3.8 15.3 3.8 15.15 3.8 15 3.8 14.85 3.8 14.7 3.8 14.55 3.8 14.4 3.8 14.25 3.8 14.1 3.8 13.95 3.8 13.8 3.8 13.65 3.8 13.5 3.8 13.35 3.8 13.2 3.8 13.05 3.8 12.9 3.8 12.75 3.8 12.6 3.8 12.45 3.8 12.3 3.8 12.15 3.8 12 3.8 11.85 3.8 11.7 3.8 11.55 3.8 11.4 3.8 11.25 3.8 11.1 3.8 10.95 3.8 10.8 3.8 10.65 3.8 10.5 3.8 10.35 3.8 10.2 3.8 10.05 3.8 9.9 3.8 9.75 3.8 9.6 3.8 9.45 3.8 9.3 3.8 9.15 3.8 9 3.8 8.85 3.8 8.7 3.8 8.55 3.8 8.4 3.8 8.25 3.8 8.1 3.8 7.95 3.8 7.8 3.8 7.65 3.8 7.5 3.8 7.35 3.8 7.2 3.85 7.05 3.9 6.9 3.9 6.75 3.9 6.6 3.9 6.45 3.9 6.3 3.9 6.15 3.9 6 3.9 5.85 3.9 5.7 3.9 5.55 3.9 5.4 3.9 5.25 3.9 5.1 3.9 4.95 3.9 4.8 3.9 4.65 3.9 4.5 3.9 4.35 3.9 4.2 3.9 4.05 3.9 3.9 3.9 3.75 3.9 3.6 3.9 3.45 3.9 3.3 3.9 3.15 3.9 3 3.9 2.85 3.9 2.7 3.9 2.55 3.9 2.4 4 2.3666015625 4.1 2.3
L 4.1 2.1
Q 3.95 2.1 3.8 2.1 3.7 2.15 3.6 2.2
M 47.4 46.1
Q 47.4 46 47.4 45.9 47.4 45.75 47.4 45.6 47.4 45.45 47.4 45.3 47.4 45.15 47.4 45 47.4 44.85 47.4 44.7 47.4 44.55 47.4 44.4 47.4 44.35 47.4 44.3 32.8 44.3 18.2 44.3 13 44.25 7.8 44.2 6.1 44.1 4.4 44 4.35 43.85 4.3 43.7 4.35 43.55 4.4 43.4 4.8607421875 43.3728515625 5.3 43.35 4.86640625 43.26796875 4.5 43.25 4.5115234375 43.2771484375 4.5 43.3 4.35 43.3 4.25 43.25
L 4.25 43.3
Q 4.25 43.8 3.65 44.7 3.4 45.05 3.25 45.45 3.15 45.65 3.05 46 16.3 46.05 29.6 46.1 38.5 46.1 47.4 46.1 Z"/>

<path fill="#E5BD79" stroke="none" d="
M 45.7 2
Q 45.65 1.95 45.6 1.9 45.25 1.8 44.9 1.7 29 1.75 13.1 1.8 10.8 1.85 8.5 1.9 8.25 2 8 2.1 7.45 2.1 6.9 2.1 5.5 2.1 4.1 2.1
L 4.1 2.3
Q 4.15 2.3166015625 4.2 2.3 4.3 2.3 4.4 2.3 4.5 2.45 4.6 2.6 4.6 2.75 4.6 2.9 4.6 3.05 4.6 3.2 4.6 3.35 4.6 3.5 4.6 3.65 4.6 3.8 4.6 3.95 4.6 4.1 4.6 4.25 4.6 4.4 4.6 4.55 4.6 4.7 4.6 4.85 4.6 5 4.6 5.15 4.6 5.3 4.6 5.45 4.6 5.6 4.6 5.75 4.6 5.9 4.6 6.05 4.6 6.2 4.6 6.35 4.6 6.5 4.6 6.65 4.6 6.8 4.6 6.95 4.6 7.1 4.65 7.25 4.7 7.4 4.7 7.55 4.7 7.7 4.7 7.85 4.7 8 4.7 8.15 4.7 8.3 4.7 8.45 4.7 8.6 4.7 8.75 4.7 8.9 4.7 9.05 4.7 9.2 4.7 9.35 4.7 9.5 4.7 9.65 4.7 9.8 4.7 9.95 4.7 10.1 4.7 10.25 4.7 10.4 4.7 10.55 4.7 10.7 4.7 10.85 4.7 11 4.7 11.15 4.7 11.3 4.7 11.45 4.7 11.6 4.7 11.75 4.7 11.9 4.7 12.05 4.7 12.2 4.7 12.35 4.7 12.5 4.7 12.65 4.7 12.8 4.7 12.95 4.7 13.1 4.7 13.25 4.7 13.4 4.7 13.55 4.7 13.7 4.7 13.85 4.7 14 4.7 14.15 4.7 14.3 4.7 14.45 4.7 14.6 4.7 14.75 4.7 14.9 4.7 15.05 4.7 15.2 4.7 15.35 4.7 15.5 4.7 15.65 4.7 15.8 4.7 15.95 4.7 16.1 4.7 16.25 4.7 16.4 4.7 16.55 4.7 16.7 4.7 16.85 4.7 17 4.7 17.15 4.7 17.3 4.7 17.45 4.7 17.6 4.7 17.75 4.7 17.9 4.7 18.05 4.7 18.2 4.7 18.35 4.7 18.5 4.7 18.65 4.7 18.8 4.7 18.95 4.7 19.1 4.7 19.25 4.7 19.4 4.7 19.55 4.7 19.7 4.7 19.85 4.7 20 4.7 20.15 4.7 20.3 4.7 20.45 4.7 20.6 4.7 20.75 4.7 20.9 4.7 21.05 4.7 21.2 4.7 21.35 4.7 21.5 4.7 21.65 4.7 21.8 4.7 21.95 4.7 22.1 4.7 22.25 4.7 22.4 4.7 22.55 4.7 22.7 4.7 22.85 4.7 23 4.7 23.15 4.7 23.3 4.7 23.45 4.7 23.6 4.7 23.75 4.7 23.9 4.7 24.05 4.7 24.2 4.7 24.35 4.7 24.5 4.7 24.65 4.7 24.8 4.7 24.95 4.7 25.1 4.7 25.25 4.7 25.4 4.7 25.55 4.7 25.7 4.7 25.85 4.7 26 4.7 26.15 4.7 26.3 4.7 26.45 4.7 26.6 4.7 26.75 4.7 26.9 4.7 27.05 4.7 27.2 4.7 27.35 4.7 27.5 4.7 27.65 4.7 27.8 4.7 27.95 4.7 28.1 4.7 28.25 4.7 28.4 4.7 28.55 4.7 28.7 4.7 28.85 4.7 29 4.75 29.15 4.8 29.3 4.8 29.45 4.8 29.6 4.8 29.75 4.8 29.9 4.8 30.05 4.8 30.2 4.8 30.35 4.8 30.5 4.8 30.65 4.8 30.8 4.8 30.95 4.8 31.1 4.8 31.25 4.8 31.4 4.8 31.55 4.8 31.7 4.8 31.85 4.8 32 4.8 32.15 4.8 32.3 4.8 32.45 4.8 32.6 4.8 32.75 4.8 32.9 4.8 33.05 4.8 33.2 4.8 33.35 4.8 33.5 4.8 33.65 4.8 33.8 4.8 33.95 4.8 34.1 4.8 34.25 4.8 34.4 4.8 34.55 4.8 34.7 4.8 34.85 4.8 35 4.8 35.15 4.8 35.3 4.8 35.45 4.8 35.6 4.8 35.75 4.8 35.9 4.8 36.05 4.8 36.2 4.8 36.35 4.8 36.5 4.8 36.65 4.8 36.8 4.8 36.95 4.8 37.1 4.8 37.25 4.8 37.4 4.8 37.55 4.8 37.7 4.8 37.85 4.8 38 4.8 38.15 4.8 38.3 4.8 38.45 4.8 38.6 4.8 38.75 4.8 38.9 4.8 39.05 4.8 39.2 4.8 39.35 4.8 39.5 4.8 39.65 4.8 39.8 4.8 39.95 4.8 40.1 4.8 40.25 4.8 40.4 4.8 40.55 4.8 40.7 4.8 40.85 4.8 41 4.8 41.15 4.8 41.3 4.8 41.45 4.8 41.6 4.8 41.75 4.8 41.9 4.8 42.05 4.8 42.2 4.75 42.35 4.7 42.5 4.7 42.65 4.7 42.8 4.65 42.95 4.6 43.1 4.5615234375 43.1771484375 4.5 43.25 4.86640625 43.26796875 5.3 43.35 6.5607421875 43.2728515625 7.8 43.2 13 43.2 18.2 43.2 18.2 43.15 18.2 43.1 32.8 43.1 47.4 43.1 47.4 43 47.4 42.9 47.4 42.75 47.4 42.6 47.4 42.45 47.4 42.3 47.4 42.15 47.4 42 47.4 41.85 47.4 41.7 47.4 41.55 47.4 41.4 47.4 41.25 47.4 41.1 47.4 40.95 47.4 40.8 47.4 40.65 47.4 40.5 47.4 40.35 47.4 40.2 47.4 40.05 47.4 39.9 47.4 39.75 47.4 39.6 47.4 39.45 47.4 39.3 47.4 39.15 47.4 39 47.4 38.85 47.4 38.7 47.4 38.55 47.4 38.4 47.4 38.25 47.4 38.1 47.4 37.95 47.4 37.8 47.4 37.65 47.4 37.5 47.4 37.35 47.4 37.2 47.4 37.05 47.4 36.9 47.4 36.75 47.4 36.6 47.4 36.45 47.4 36.3 47.4 36.15 47.4 36 47.4 35.85 47.4 35.7 47.4 35.55 47.4 35.4 47.4 35.25 47.4 35.1 47.4 34.95 47.4 34.8 47.4 34.65 47.4 34.5 47.4 34.35 47.4 34.2 47.4 34.05 47.4 33.9 47.4 33.75 47.4 33.6 47.4 33.45 47.4 33.3 47.4 33.15 47.4 33 47.4 32.85 47.4 32.7 47.4 32.55 47.4 32.4 47.4 32.25 47.4 32.1 47.4 31.95 47.4 31.8 47.4 31.65 47.4 31.5 47.4 31.35 47.4 31.2 47.4 31.05 47.4 30.9 47.4 30.75 47.4 30.6 47.4 30.45 47.4 30.3 47.4 30.15 47.4 30 47.4 29.85 47.4 29.7 47.4 29.55 47.4 29.4 47.4 29.25 47.4 29.1 47.4 28.95 47.4 28.8 47.4 28.65 47.4 28.5 47.4 28.35 47.4 28.2 47.4 28.05 47.4 27.9 47.4 27.75 47.4 27.6 47.4 27.45 47.4 27.3 47.4 27.15 47.4 27 47.4 26.85 47.4 26.7 47.4 26.55 47.4 26.4 47.4 26.25 47.4 26.1 47.4 25.95 47.4 25.8 47.4 25.65 47.4 25.5 47.4 25.35 47.4 25.2 47.4 25.05 47.4 24.9 47.4 24.75 47.4 24.6 47.4 24.45 47.4 24.3 47.4 24.15 47.4 24 47.4 23.85 47.4 23.7 47.4 23.55 47.4 23.4 47.4 23.25 47.4 23.1 47.4 22.95 47.4 22.8 47.4 22.65 47.4 22.5 47.4 22.35 47.4 22.2 47.4 22.05 47.4 21.9 47.4 21.75 47.4 21.6 47.4 21.45 47.4 21.3 47.4 21.15 47.4 21 47.4 20.85 47.4 20.7 47.4 20.55 47.4 20.4 47.4 20.25 47.4 20.1 47.4 19.95 47.4 19.8 47.4 19.65 47.4 19.5 47.4 19.35 47.4 19.2 47.4 19.05 47.4 18.9 47.4 18.75 47.4 18.6 47.4 18.45 47.4 18.3 47.4 18.15 47.4 18 47.4 17.85 47.4 17.7 47.4 17.55 47.4 17.4 47.4 17.25 47.4 17.1 47.4 16.95 47.4 16.8 47.4 16.65 47.4 16.5 47.4 16.35 47.4 16.2 47.4 16.05 47.4 15.9 47.4 15.75 47.4 15.6 47.4 15.45 47.4 15.3 47.4 15.15 47.4 15 47.4 14.85 47.4 14.7 47.4 14.55 47.4 14.4 47.4 14.25 47.4 14.1 47.4 13.95 47.4 13.8 47.4 13.65 47.4 13.5 47.4 13.35 47.4 13.2 47.4 13.05 47.4 12.9 47.4 12.75 47.4 12.6 47.4 12.45 47.4 12.3 47.4 12.15 47.4 12 47.4 11.85 47.4 11.7 47.4 11.55 47.4 11.4 47.4 11.25 47.4 11.1 47.4 10.95 47.4 10.8 47.4 10.65 47.4 10.5 47.4 10.35 47.4 10.2 47.4 10.05 47.4 9.9 47.4 9.75 47.4 9.6 47.4 9.45 47.4 9.3 47.4 9.15 47.4 9 47.4 8.85 47.4 8.7 47.4 8.55 47.4 8.4 47.4 8.25 47.4 8.1 47.4 7.95 47.4 7.8 47.4 7.65 47.4 7.5 47.4 7.35 47.4 7.2 47.4 7.05 47.4 6.9 47.4 6.75 47.4 6.6 47.4 6.45 47.4 6.3 47.4 6.15 47.4 6 47.4 5.85 47.4 5.7 47.4 5.55 47.4 5.4 47.4 5.25 47.4 5.1 47.4 4.95 47.4 4.8 47.4 4.65 47.4 4.5 47.4 4.35 47.4 4.2 47.4 4.05 47.4 3.9 47.4 3.75 47.4 3.6 47.45 3.45 47.5 3.3 47.4 3.15 47.3 3 47.2 2.85 47.1 2.7 47.1 2.6 47.1 2.5 47 2.45 46.9 2.4 46.5 2.3 46.1 2.2 45.9 2.1 45.7 2 Z"/>
</g>

<g id="Layer2_7_FILL">
<path fill="#053336" stroke="none" d="
M 139.55 165.7
L 139.55 165
Q 139.5 164.8 139.35 164.7 139.15 164.6 139 164.7 138.8 164.85 138.8 165.2 138.8 166.6 139.05 167.3 139.25 167.9 139.75 168.45 140.2416015625 169.12890625 140.9 169.85 141.6896484375 170.6958984375 142.7 171.6
L 145.2 174.05
Q 145.25 173.3 144.25 172.2
L 141.3 169.1 141.15 168.9
Q 139.4 167.05 139.55 165.7
M 143 164.7
Q 143.3685546875 165.148046875 143.75 165.6 146.9 169.35 147.65 171.75 147.7 171.95 147.85 172.05 148 172.2 148.1 172.05 147.75 169.5 145.15 166.25 144.401953125 165.373046875 143.85 164.7 143.3646484375 164.1115234375 143.05 163.7 141.85 162.2 141.2 160.95 140.5 159.45 139.7 159.5 140.4060546875 161.4859375 143 164.7
M 145.25 163.9
Q 145 163.45 144.5 163.55 144.779296875 164.2328125 145.1 164.85 146.3673828125 167.3259765625 148.35 169.15 149.8 170.6 150.05 171.1 150.6 172.1 150.75 172.2 150.95 171.85 150.55 171.25 149.95 170.2 148 168 146.4173828125 166.2853515625 145.8 165 145.71640625 164.8189453125 145.65 164.65 145.4 164.05 145.25 163.9
M 111.9 170.8
Q 112.55 170.65 114.05 170.05 115.95 169.4 117.8 169 120.4 168.55 122 168.9 122.2 168.95 122.4 169 122.1 169.1 121.95 169.6 121.8 170.1 121.8 171.15 121.775390625 171.7025390625 121.75 172.15 121.810546875 173.645703125 122.15 174.4 122.5 175.25 123.45 176.4 124.4 177.65 125.3 177.65
L 125.4 177.35
Q 123.45 176.05 122.75 173.75 122.509765625 172.9947265625 122.45 172.2 122.324609375 170.7603515625 122.85 169.25
L 122.65 169.1
Q 124.5 169.65 125.5 171.1 125.787109375 171.551171875 126.15 172.45 126.219140625 172.675390625 126.3 172.9 126.75 174.1 127.15 174.65 128 176 129.55 176.45
L 127.8 172.55 127.6 172.1
Q 126.95 170.55 126.3 169.7 124.6 167.65 121.6 167.4 119.4 167.2 116.35 168.1 112.8 169.1 109.7 170.8 110.65 171.1 111.9 170.8
M 102.95 105.05
L 103.15 105 103.2 104.75 100.9 104.65 100.9 104.75 100.8 104.75 100.8 104.95 102.95 105.05
M 119.8 91.35
L 120.05 91.6 123.45 94.8
Q 123.75 95 123.85 94.9 122.55 93.3 120.3 91.05 119.9 90.65 119.5 90.75 119.4 91.05 119.8 91.35
M 121.45 75.95
Q 121.3853515625 76.1369140625 121.3 76.3 120.9712890625 77.300390625 120.8 77.6 120.6 78 119.65 79.3
L 119.9 79.55
Q 120.827734375 78.450390625 121.6 76.25 122.005859375 75.235546875 122.35 74 122.55 73.4 122.55 73.05 122.3 73.15 122.1 73.75 121.95 74.6 121.45 75.95
M 175.35 135.55
L 181.5 132.5
Q 182.5 131.95 182.65 131.45 180.85 132.15 174.6 135 172.45 136.05 171.65 136.6 171.1193359375 136.998046875 170.6 137.55 170.35234375 137.8634765625 170.1 138.2
L 175.35 135.55
M 219.55 133.15
Q 217.1 131 213.1 127.05 208.6 122.55 206.75 120.85 202.15 116.6 201.7 116.15 199 113.35 197.7 110.7 197.55 110.3 197.3 110.45 198.35 113.4 201.1 116.35 202.05 117.35 206.4 121.35 208.45 123.2 212.55 127.35 216.5 131.3 218.7 133.3 226.4 140.1 233.2 142.3 233.240234375 142.3126953125 233.25 142.3 234.1689453125 142.5873046875 234.6 142.3 233.77265625 142.0427734375 232.95 141.7 226.34453125 139.233984375 219.55 133.15
M 194.4 59.7
Q 195.2580078125 59.8888671875 196.15 60.15 197.8611328125 60.71328125 199.7 61.6 200.8017578125 62.1359375 202.35 63 203.39609375 63.6017578125 204.65 64.35 206.2140625 65.26875 207.75 66.15 224.082421875 75.7880859375 236.2 83.15
L 236.2 81.1
Q 230.209375 77.4806640625 225.15 74.45 211.99296875 66.5662109375 205.2 62.7 201.85 60.75 199.75 59.8 196.7 58.4 193.95 57.9 189.7 57.1 183.65 58.3 176.75 59.95 173.3 60.6 167.95 61.55 160.65 61.65 152.15 61.6 147.9 61.55 140.35 61.55 135.15 62.25 128.25 63.2 122.95 65.55 118.6 67.5 111.2 72.85
L 100.6 80.45 101.55 80.55 94.15 85.55
Q 91.6 87.1 89.1 88.7 87.1 90 86.3 90.85 85.5 91.75 84.75 93.2 84.3 94.05 83.55 95.8 80.85 101.9 75.45 107.15 73.3 109.3 72.8 110.5 72.556640625 111.1384765625 72.45 112 72.4173828125 112.3849609375 72.4 112.75 72.4 113.0306640625 72.4 113.3 72.4 115.05 72.9 115.95 73.75 117.6 76.5 118.35 79.4 119.1 82.4 118.7 82.55 118.7 82.65 118.65 83.95 118.7 85.4 118.6 85.9 118.6 86.4 118.55 86.27734375 118.8830078125 86.1 119.25 86.066015625 119.3958984375 86 119.55 85.7783203125 120.1173828125 85.5 120.75
L 70.2 151.1
Q 69.8 152 69.4 152.95 68.35 155.55 69.1 156.95 69.4 157.5 70.3 158.15
L 102.25 175.1
Q 103.4 175.6 104.25 175.65 104.15 176.35 104.2 177 104.25 178.5 105.05 179.8 106.15 181.55 108.2 182.6 110.1 183.55 112.35 183.65 115.95 183.8 120.7 181.8 122.05 181.25 124.65 180.1 127 179.1 128.7 178.65 131.6 177.9 137.05 177.55 142.9 177.2 145.45 176.65 148.35 176.05 152.6 174.25 158.85 171.65 159.55 171.4 165.2 169.45 174.85 168.15 183.65 167 190 166.85 198.25 166.6 205.15 167.75 207.05 168.1 210.8 168.85 214.15 169.45 216.5 169.55 221.35 169.7 228.05 167.8 231 167 236.2 165.35
L 236.2 163.7
Q 233 164.5 229.85 165.35 222.95 167.15 219.95 167.35 216.25 167.65 210.75 166.85 204.65 165.8 201.55 165.45 195.5 164.85 187 165.35 168.55 166.45 156.9 170.8 152.75 172.45 150.65 173.25 146.9 174.7 144.2 175.25 141.85 175.7 135.3 176.05 129.7 176.35 126.55 177.35 125 177.85 122.65 178.95 119.6 180.35 118.8 180.65 114.1 182.55 110.55 181.65 108.45 181.05 107 179.4 105.75 177.9 105.65 176.2 105.65 175.9 105.65 175.6 105.7 174.95 105.95 173.85 106.05 173.4 106.15 173.05 106.3 173.05 106.35 173 106.5 172.85 106.5 172.65
L 106.5 172.5
Q 106.6 172.25 106.8 172.25
L 107.1 172.25 107.25 172.05
Q 107.35 171.85 107.3 171.7 107.15 171.6 107.1 171.5 107.387109375 171.6025390625 107.65 171.5 108.005078125 171.33984375 108.3 170.75 108.3515625 170.646875 108.45 170.25 108.5291015625 169.8791015625 108.65 169.25 108.8 168.5 109.55 167.3 109.95 166.55 110.55 165.7 111.9 163.65 113.2 161.25
L 113.25 161.2 113.7 161.35
Q 114.1 161.3 114.7 160.85 115.25 160.4 115.85 160
L 117.3 158.9
Q 124.05 154.2 132.3 152.65 132.85 152.55 134.4 152.35
L 140.8 151.55
Q 145.05 151 147.8 150.1 150.25 149.35 154.85 146.95
L 160.85 143.7
Q 160.1 144.35 160.55 144.7 160.8 144.85 161.15 144.65 161.85 144.35 163.05 143.55 165.7 141.65 167.8 139.25 168.1474609375 138.8603515625 168.4 138.5 169.4078125 137.105078125 169.25 136 169.25 135.35 168.8 135.4 168.6 135.4 168.35 135.9 168.2 136.35 168 136.75
L 164.75 139.15 158.2 133.7
Q 158.05 133.25 157.95 132.8 156.55 124.4 156.05 116.25 156.15 115.15 156.2 114.1
L 156 108.95 160.05 106.85
Q 160.4 107.75 161.15 108.55 161.35 108.75 161.55 108.95 164.45 111.05 168 111.55 168.7 111.75 169.2 111.4
L 169.15 111.95 161.35 111.6
Q 164 113.45 167.35 112.85 168.25 112.7 169.2 112.6
L 169.45 118.6
Q 169.4 122.6 169.55 128.75 169.55 130.1 169.8 130.75 170.05 131.8 171 132.45 170.55 133.95 170.35 135.15
L 170.85 135.25
Q 171.140234375 133.31484375 172.75 129.4 172.794921875 129.2828125 172.85 129.15 174.45 125.25 174.65 123 174.25 122.9 174.15 123.5
L 172 129.35
Q 171.9291015625 129.5486328125 171.85 129.75 171.450390625 130.9203125 171.15 131.95 171.05 131.85 171 131.75 170.66328125 131.1802734375 170.5 130.2 170.444921875 129.6173828125 170.4 128.85 170.4330078125 128.4892578125 170.45 128.05 170.6 123.4 170.55 118.35
L 170.1 111.2 171.6 110.5
Q 171.5 110.05 171.05 109.85 170.25 109.7 169.65 109.3 168.2 108.45 166.4 107.85 165.7 107.55 165.1 107.2 164.2 106.55 163.35 105.9 161.7 104.7 160.15 103.45 160.15 103.85 160 104.25
L 159.8 104.25 155.9 103.45
Q 153.85 102.85 151.95 101.8 150.65 101.05 150 100.7 148.9 100.1 148 99.85 146.6 99.45 143.65 99.45 136.95 99.3 130.3 97.7 127.15 96.95 125.55 97.1
L 125.6 97.05
Q 125.9 96.85 125.95 96.7 126.1 96.45 125.95 96.15 125.8 95.85 125.5 95.75 125.05 95.55 124.35 95.85 124 96 122.8 96.95 120.75 98.65 117.15 100.35 115.65 101.15 114.2 101.65 112.4 102.2 111.5 102.55
L 109.35 103.5
Q 108.1 104.05 107.15 104.2 105.5 104.3 104.55 104.45 104.15 104.1 103.25 104 100.8845703125 103.6869140625 98.7 102.75 97.728125 102.3326171875 96.8 101.8 95.85 101.35 95.45 101.45 95.55 101.85 96.25 102.25 97.6181640625 102.9931640625 98.95 103.5 101.5837890625 104.4837890625 104.1 104.55
L 103.8 104.7
Q 103.75 104.8 103.75 104.9 103.75 105.05 103.8 105.1 104.2 105.2 104.65 105.3 104.25 105.65 103.85 106.2
L 96.2 111.7
Q 95.25 112.3 94.8 112.55 94.3 112.35 93.95 112.35 93.446875 112.29609375 92.8 112.45 91.66953125 112.775 90.1 113.8 89.98046875 113.873828125 89.85 113.95 88.7171875 114.7259765625 88.65 115.5 88.64296875 115.740625 88.7 115.95
L 91.45 114.45
Q 92.55 113.85 93.2 113.8 94.25 113.75 95.85 114.85 101.45 118.6 109.9 123.1 114.7 125.65 124.35 130.6 126.6 131.8 127.25 132.85 128.6 134.8 127.55 137.6
L 113.9 158.35
Q 113.85 158.35 113.8 158.35 113.55 158.35 113.25 158.75
L 109.8 164.05
Q 109.45 164.6 109.15 165.15 108.2 166.65 107.8 167.65 107.55 168.25 107.4 168.8 107.25 168.7 107 168.55
L 73.6 151.5
Q 73.35 151.4 73.1 151.3
L 86.9 121.1
Q 87.5 119.25 87.55 117.65 87.55 117.55 87.6 117.5 87.75 117.3 87.9 117.15
L 88.7 117.25 88.9 117.25 89.1 117.1
Q 89.2 117.05 89.3 116.85 89.3 116.65 89.15 116.5
L 88.85 116.25 88.7 116.15 88.4 116.2
Q 88.251953125 116.2421875 88.15 116.3 87.9865234375 116.4056640625 87.9 116.55 87.8365234375 116.6453125 87.8 116.75 87.8318359375 116.8271484375 87.85 116.9
L 87.7 116.9 87.7 116.9
Q 85.85 117.3 83.95 117.35 82.85 117.4 82.15 117.45
L 78.4 117
Q 76.3 116.7 75.5 116.1 74.4 115.3 74.15 113.75 74.1060546875 113.4201171875 74.1 113.1 74.10390625 111.9640625 74.65 110.95 75.1 110.05 76.3 108.8 77.25 107.95 78.8 106.9 80.5 105.8 81.15 105.05 81.85 104.2 82.15 103.3
L 80.25 105.1 78.7 106.25
Q 82.1955078125 102.272265625 84.4 98.1 84.9384765625 97.08125 85.4 96.05 86.65 93.25 87.35 92.4 88.25 91.25 90.35 89.9
L 96.45 85.7
Q 96.55 85.65 96.65 85.6
L 104.6 80.85 104.65 80.8
Q 105.25 80.45 105.25 80.2 105.3 80.05 105.2 79.95
L 105.35 79.7
Q 109.7 77.15 114.3 75.05 114.1837890625 75.2337890625 114.05 75.4 112.94140625 77.23828125 112.4 78.45 112.3279296875 78.7236328125 112.25 78.95 111.95 79.95 111.9 80.45 112.25 80.55 112.5 80.2 112.65 80 112.75 79.55 112.984765625 78.8455078125 113.25 78.2 113.6416015625 77.344921875 114.1 76.6 114.5017578125 75.9302734375 115.25 74.75 115.3537109375 74.64453125 115.45 74.5 116.7244140625 73.9173828125 118 73.35 118.5109375 73.1537109375 119 72.95 119.6 72.7 120.2 72.5 119.8 73.05 119.5 73.65 118.905078125 74.9193359375 118.3 76.9 118.155078125 77.4314453125 118 78 117.2 80.75 117.7 82.2
L 118.45 79.35
Q 118.8435546875 77.8681640625 119.2 76.7 119.647265625 75.3859375 120.05 74.5 120.7 73.1 121.5 72.05 122.85 71.55 123.9 71.35 126.25 70.9 130.3 71 148.9380859375 71.234765625 166.35 70.85 167.5205078125 70.8275390625 168.65 70.8 167.35 69.9 164.3 69.9
L 133.15 69.75
Q 127.45703125 69.75 124.1 70.3 123.4328125 70.4564453125 122.85 70.6 122.9 70.55 122.95 70.5
L 122.5 70.15
Q 121.9 70.5 121.4 71 119.15 71.7 116.45 73 110.75 75.6 106.5 78.05
L 113.15 73.25
Q 118.95 69.1 121.85 67.7 127.25 65 134.35 63.95 139.85 63.15 147.6 63.25 152 63.3 160.8 63.45 168.45 63.4 173.9 62.35 177.35 61.7 184.15 60 190.15 58.85 194.4 59.7
M 72.2 151.6
Q 72.35 151.85 72.65 151.95
L 106.4 169.35
Q 106.85 169.5 107.2 169.6 107 170.55 107.05 171.5 106.95 171.4 106.9 171.35 106.85 171.45 106.5 171.45
L 106.05 171.5 105.9 171.6 105.85 171.75
Q 105.75 172.15 105.8 172.5 105.05 173.2 104.65 174.25
L 95.25 169.35 70.8 155.45 71.15 154.25 72.2 151.6
M 155.15 109.3
L 154.2 110.8 149.7 109.35
Q 149.75 110.15 150.35 110.5 152.25 111.95 154.25 111.55
L 155.05 111.3 152.4 126.95
Q 151.95 127.15 151.5 127.35 148.45 128.85 145.25 129.2 143.65 129.4 142.5 128.45 141.5 127.6 141.85 128.9 142.5 129.5 143.4 129.75 148.4 130.4 152.4 127.25 153.1 136.25 156.1 144.8
L 142.75 149.35 139.55 149.95
Q 139.4 148.75 139.25 147.6 138 137.25 132.85 128.05 132.5 126.85 132.65 125.45 134.05 113.05 135.2 100.45 140.5 101.4 145.9 101.5 147.2 101.5 148.25 102.15 151.45 104.1 155.15 105.1
L 159 105.9 153.5 108.7 155.15 109.3
M 124.6 97.85
Q 124.65 97.95 125 98.05 131 99.65 134.2 100.25 134.15 100.35 134.1 100.5
L 132.05 113.2
Q 130.85 121.2 130.7 125.2 130.6 128.2 131.2 129.75 131.2 129.8 131.25 129.85 132.15 131.75 133.2 133.65 137.55 141.45 138.15 150.1
L 133.4 150.8
Q 127.35 151.9 122.6 154
L 115.7 158.05 128.9 139.3
Q 129.5 137.95 129.75 136.7
L 129.95 134.1
Q 129.8 132.7 129.15 131.85 128.5 130.95 126.8 129.9 122.6 127.4 111.75 121.95 102.55 117.3 97.45 114.05 97.55 113.95 97.65 113.9 99.95 112.6 100.95 111.8 102 111 104.1 108.55
L 105.75 106.6
Q 106.3 105.95 106.45 105.45 107.5 105.4 108.6 105.15 109.85 104.85 111.85 104.1
L 114.65 103.05
Q 117.75 101.95 119.2 101.2 121.75 99.95 124.6 97.85
M 157.75 143.95
Q 157.4 144.1 157.1 144.3
L 155.95 138.55
Q 152.85 130.4 155 122.25 152.9 135 163.85 140.1
L 157.75 143.95
M 150.75 130.3
L 151.1 130
Q 149.85 130 148.7 130.4
L 150.75 130.3
M 185.75 71.7
Q 186.4810546875 71.740625 187.05 71.8 187.3509765625 71.8208984375 187.6 71.85 188.0912109375 71.9203125 188.45 72 189.55 72.2 192.25 73.5 196.95 75.75 205.1 78.95 207.9 80.05 209.4 79.95 208.35 78.9 205.55 77.6
L 201.7 75.85 193.5 72.15
Q 191.9884765625 71.4919921875 190.75 71 188.4853515625 70.2111328125 187.1 70.05 185.15 69.85 181.75 70.35 177.9 70.95 176.35 70.95 175.7 70.95 175.4 71.1 175.15 71.2 175.1 71.45 175 71.75 175.1 71.95 175.25 72.2 175.65 72.2 176.95 72.55 178.95 72.25 180.05 72.1 182.25 71.75 182.85 71.7 185.75 71.7
M 175.15 151.1
Q 174.45 151.3 174.15 151.6 174.2 151.95 174.75 151.8 179.55 150.6 184 148.95 184.65 148.75 184.65 148.3
L 175.15 151.1
M 181.65 145.75
Q 182.25 145.45 182.25 145.1 171.65 149.8 163.5 153.1 160.5 154.3 158.9 154.35 158.4 154.35 158.2 154.45 157.75 154.55 157.75 154.95 159.1 155.15 160.7 154.7 161.75 154.45 163.55 153.65 171.7 150.3 172.7 149.9 177.85 147.7 181.65 145.75
M 180.3 134.6
L 176.8 135.9
Q 176 136.2 175.75 136.55 176.15 136.7 176.9 136.4
L 184.3 133.55
Q 184.65 133.4 184.45 133.3 183 133.6 180.3 134.6
M 227.55 143.15
L 227.45 143.15 227.45 143.35
Q 228.2 143.55 229.75 143.95 230.15 144.05 230.35 143.95 230.35 143.75 230.05 143.65 228.85 143.2 227.55 143.05
L 227.55 143.15
M 209.85 87.15
L 209.85 87.35 213.45 88 213.75 88
Q 214 87.9 213.85 87.75 211.9 87.2 209.95 87.05
L 209.85 87.15
M 191.35 81.1
Q 191.25 81.25 191.55 81.35 195.95 82.95 203 84.05 213.85 85.8 214.7 86 214.85 86.05 215 85.95 215.15 85.9 215.05 85.8 212.65 85 209.25 84.45 205.3 83.85 203.3 83.55 198.7 82.8 193.15 81.4 191.8 81.05 191.35 81.1 Z"/>

<path fill="#FCD0C7" stroke="none" d="
M 122.65 169.1
L 122.85 169.25
Q 122.324609375 170.7603515625 122.45 172.2 124.601171875 172.3947265625 126.15 172.45 125.787109375 171.551171875 125.5 171.1 124.5 169.65 122.65 169.1
M 115.45 74.5
Q 115.3537109375 74.64453125 115.25 74.75 116.6953125 74.0388671875 118 73.35 116.7244140625 73.9173828125 115.45 74.5
M 196.15 60.15
Q 195.2759765625 60.05 194.35 60.05 192.5 60.05 182.85 61.85 172.75 63.65 161.9 63.9 161.2 63.9 154.8 64.5 148.45 65.15 147.5 65.1 138.4 64.9 134.8 65.9 131.4166015625 66.8396484375 124.1 70.3 127.45703125 69.75 133.15 69.75
L 164.3 69.9
Q 167.35 69.9 168.65 70.8 167.5205078125 70.8275390625 166.35 70.85 166.5568359375 70.964453125 166.65 71.1 166.45 71.1 166.4 71.25
L 166.35 71.4
Q 158.1 71.8 149.7 72.4 133.2 73.6 124.35 75.75 122.919140625 76.00078125 121.6 76.25 120.827734375 78.450390625 119.9 79.55
L 119.65 79.3
Q 120.6 78 120.8 77.6 120.9712890625 77.300390625 121.3 76.3 120.217578125 76.5173828125 119.2 76.7 118.8435546875 77.8681640625 118.45 79.35
L 117.7 82.2
Q 117.2 80.75 118 78 118.155078125 77.4314453125 118.3 76.9 117.2572265625 77.133984375 116.35 77.35 114.7896484375 77.7267578125 113.25 78.2 112.984765625 78.8455078125 112.75 79.55 112.65 80 112.5 80.2 112.25 80.55 111.9 80.45 111.95 79.95 112.25 78.95 112.3279296875 78.7236328125 112.4 78.45 108.729296875 79.7119140625 105.25 81.55 95.1416015625 86.7830078125 84.4 98.1 82.1955078125 102.272265625 78.7 106.25
L 80.25 105.1 82.15 103.3
Q 81.85 104.2 81.15 105.05 80.5 105.8 78.8 106.9 77.25 107.95 76.3 108.8 75.1 110.05 74.65 110.95 74.10390625 111.9640625 74.1 113.1 83.621484375 114.9 84.3 114.9 87.2931640625 114.9 89.85 113.95 89.98046875 113.873828125 90.1 113.8 91.66953125 112.775 92.8 112.45 94.2591796875 111.5189453125 95.55 110.2 99 106.7 99 104.7 99 103.8865234375 98.95 103.5 97.6181640625 102.9931640625 96.25 102.25 95.55 101.85 95.45 101.45 95.85 101.35 96.8 101.8 97.728125 102.3326171875 98.7 102.75 98.3783203125 102.2587890625 97.7 101.75 98.6 101.95 100.5 102.15 102.25 102.35 102.9 102.35 107.25 102.35 113.35 98.35 118.4705078125 94.908984375 120.05 91.6
L 119.8 91.35
Q 119.4 91.05 119.5 90.75 119.9 90.65 120.3 91.05 120.48671875 90.603515625 120.6 90.15 130.7 93 137.45 94.15 141.9 94.85 152.85 96.15 154.95 96.4 158.9 96.05 159.55 96 162.6 98.9 166.8 102.95 171.95 104.95 175.7 106.45 175.7 107.25
L 174.15 112.15
Q 172.55 117.65 172.55 120.6 172.55 122.2853515625 170.4 128.85 170.444921875 129.6173828125 170.5 130.2 170.66328125 131.1802734375 171 131.75 171.05 131.85 171.15 131.95 171.450390625 130.9203125 171.85 129.75 171.9291015625 129.5486328125 172 129.35
L 174.15 123.5
Q 174.25 122.9 174.65 123 174.45 125.25 172.85 129.15 172.794921875 129.2828125 172.75 129.4 174.3439453125 128.79296875 176.1 128 178 127.15 181.35 126.5
L 181.65 126.5
Q 181.35 127.4 177.75 130.1 174.2 132.75 173.55 132.75 174.45 132.75 179.25 131.65 183.818359375 130.6138671875 186.95 130.55 182.1044921875 132.7162109375 175.35 135.55
L 170.1 138.2
Q 170.35234375 137.8634765625 170.6 137.55 169.9873046875 137.8337890625 169.35 138.1 168.8703125 138.2998046875 168.4 138.5 168.1474609375 138.8603515625 167.8 139.25 165.7 141.65 163.05 143.55 161.85 144.35 161.15 144.65 160.8 144.85 160.55 144.7 160.1 144.35 160.85 143.7
L 154.85 146.95
Q 150.25 149.35 147.8 150.1 145.05 151 140.8 151.55
L 134.4 152.35
Q 132.85 152.55 132.3 152.65 124.05 154.2 117.3 158.9
L 115.85 160
Q 115.25 160.4 114.7 160.85 114.1 161.3 113.7 161.35
L 113.25 161.2 113.2 161.25
Q 111.9 163.65 110.55 165.7 109.95 166.55 109.55 167.3 108.8 168.5 108.65 169.25 108.5291015625 169.8791015625 108.45 170.25 108.3515625 170.646875 108.3 170.75 108.005078125 171.33984375 107.65 171.5 107.4705078125 171.7697265625 107.4 171.9 107.65 171.7 108.6 171.5 109.5 171.3 110.1 171.3 112 171.3 119 171.95 120.4919921875 172.0787109375 121.75 172.15 121.775390625 171.7025390625 121.8 171.15 121.8 170.1 121.95 169.6 122.1 169.1 122.4 169 122.2 168.95 122 168.9 120.4 168.55 117.8 169 115.95 169.4 114.05 170.05 112.55 170.65 111.9 170.8 110.65 171.1 109.7 170.8 112.8 169.1 116.35 168.1 119.4 167.2 121.6 167.4 124.6 167.65 126.3 169.7 126.95 170.55 127.6 172.1
L 127.8 172.55
Q 128.2103515625 172.55 128.55 172.55 138.2 172.55 139.35 171.6 140.3236328125 170.812890625 140.9 169.85 140.2416015625 169.12890625 139.75 168.45 139.25 167.9 139.05 167.3 138.8 166.6 138.8 165.2 138.8 164.85 139 164.7 139.15 164.6 139.35 164.7 139.5 164.8 139.55 165
L 139.55 165.7
Q 139.4 167.05 141.15 168.9
L 141.3 169.1
Q 141.7865234375 168.0541015625 141.85 166.85 141.9408203125 164.8982421875 143 164.7 140.4060546875 161.4859375 139.7 159.5 140.5 159.45 141.2 160.95 141.85 162.2 143.05 163.7 143.3646484375 164.1115234375 143.85 164.7 144.44140625 164.7634765625 145.1 164.85 144.779296875 164.2328125 144.5 163.55 145 163.45 145.25 163.9 145.4 164.05 145.65 164.65 145.71640625 164.8189453125 145.8 165 147.0484375 165.2435546875 148.6 165.7 152 166.65 154.75 166.65 160.1 166.65 163.85 163.95 165.7 162.6 166.95 161.25 167.55 161.25 168.8 161.55
L 172.6 162.2
Q 200.85 162.2 219 156 234.3 150.7 234.3 144.85 234.3 144.25 233.4 142.55 233.340234375 142.4369140625 233.25 142.3 233.240234375 142.3126953125 233.2 142.3 226.4 140.1 218.7 133.3 216.5 131.3 212.55 127.35 208.45 123.2 206.4 121.35 202.05 117.35 201.1 116.35 198.35 113.4 197.3 110.45 197.55 110.3 197.7 110.7 199 113.35 201.7 116.15 202.15 116.6 206.75 120.85 208.6 122.55 213.1 127.05 217.1 131 219.55 133.15 226.34453125 139.233984375 232.95 141.7 232.1513671875 140.359375 231.15 139.05
L 229.95 138.45
Q 230.7 138.45 234.3 139.65
L 236.2 139.65 236.2 83.15
Q 224.082421875 75.7880859375 207.75 66.15 206.2140625 65.26875 204.65 64.35 203.39609375 63.6017578125 202.35 63 200.8017578125 62.1359375 199.7 61.6 197.8611328125 60.71328125 196.15 60.15
M 191.55 81.35
Q 191.25 81.25 191.35 81.1 191.8 81.05 193.15 81.4 198.7 82.8 203.3 83.55 205.3 83.85 209.25 84.45 212.65 85 215.05 85.8 215.15 85.9 215 85.95 214.85 86.05 214.7 86 213.85 85.8 203 84.05 195.95 82.95 191.55 81.35
M 209.85 87.35
L 209.85 87.15 209.95 87.05
Q 211.9 87.2 213.85 87.75 214 87.9 213.75 88
L 213.45 88 209.85 87.35
M 227.45 143.15
L 227.55 143.15 227.55 143.05
Q 228.85 143.2 230.05 143.65 230.35 143.75 230.35 143.95 230.15 144.05 229.75 143.95 228.2 143.55 227.45 143.35
L 227.45 143.15
M 176.8 135.9
L 180.3 134.6
Q 183 133.6 184.45 133.3 184.65 133.4 184.3 133.55
L 176.9 136.4
Q 176.15 136.7 175.75 136.55 176 136.2 176.8 135.9
M 182.25 145.1
Q 182.25 145.45 181.65 145.75 177.85 147.7 172.7 149.9 171.7 150.3 163.55 153.65 161.75 154.45 160.7 154.7 159.1 155.15 157.75 154.95 157.75 154.55 158.2 154.45 158.4 154.35 158.9 154.35 160.5 154.3 163.5 153.1 171.65 149.8 182.25 145.1
M 174.15 151.6
Q 174.45 151.3 175.15 151.1
L 184.65 148.3
Q 184.65 148.75 184 148.95 179.55 150.6 174.75 151.8 174.2 151.95 174.15 151.6
M 180.5 79.2
Q 181.1 79.95 180.8 80.6 180.6 81.1 179.85 81.3 179.45 81.35 178.55 81.15 172.9 80 167.45 79.7 166.35 79.6 166.1 79.15 165.9 78.8 166.05 78.4 166.2 78.05 166.55 77.8 166.9 77.55 168.05 77.45
L 172.7 77.1
Q 175.5 76.9 176.9 77.15 179.25 77.55 180.5 79.2
M 187.05 71.8
Q 186.4810546875 71.740625 185.75 71.7 182.85 71.7 182.25 71.75 180.05 72.1 178.95 72.25 176.95 72.55 175.65 72.2 175.25 72.2 175.1 71.95 175 71.75 175.1 71.45 175.15 71.2 175.4 71.1 175.7 70.95 176.35 70.95 177.9 70.95 181.75 70.35 185.15 69.85 187.1 70.05 188.4853515625 70.2111328125 190.75 71 195.4896484375 69.8 196.05 69.8 196.55 69.8 202.25 72.55 207.5 75.1 209.25 76.05 210.15 76.55 214.25 79.2 214.7 79.5 215.95 80 217 80.4 217.35 80.75 206.65 77.65 201.7 75.85
L 205.55 77.6
Q 208.35 78.9 209.4 79.95 207.9 80.05 205.1 78.95 196.95 75.75 192.25 73.5 189.55 72.2 188.45 72 188.0912109375 71.9203125 187.6 71.85 187.3509765625 71.8208984375 187.05 71.8 Z"/>

<path fill="#FEACA0" stroke="none" d="
M 103.8 104.7
L 104.1 104.55
Q 101.5837890625 104.4837890625 98.95 103.5 99 103.8865234375 99 104.7 99 106.7 95.55 110.2 94.2591796875 111.5189453125 92.8 112.45 93.446875 112.29609375 93.95 112.35 94.3 112.35 94.8 112.55 95.25 112.3 96.2 111.7
L 103.85 106.2
Q 104.25 105.65 104.65 105.3 104.2 105.2 103.8 105.1 103.75 105.05 103.75 104.9 103.75 104.8 103.8 104.7
M 103.15 105
L 102.95 105.05 100.8 104.95 100.8 104.75 100.9 104.75 100.9 104.65 103.2 104.75 103.15 105
M 74.1 113.1
Q 74.1060546875 113.4201171875 74.15 113.75 74.4 115.3 75.5 116.1 76.3 116.7 78.4 117
L 82.15 117.45
Q 82.85 117.4 83.95 117.35 85.85 117.3 87.7 116.9
L 87.7 116.9
Q 87.7755859375 116.8236328125 87.8 116.75 87.8365234375 116.6453125 87.9 116.55 87.9865234375 116.4056640625 88.15 116.3 88.43984375 115.8669921875 88.6 115.6 88.6294921875 115.566015625 88.65 115.5 88.7171875 114.7259765625 89.85 113.95 87.2931640625 114.9 84.3 114.9 83.621484375 114.9 74.1 113.1
M 169.45 118.6
L 169.2 112.6
Q 168.25 112.7 167.35 112.85 164 113.45 161.35 111.6
L 169.15 111.95 169.2 111.4
Q 168.7 111.75 168 111.55 164.45 111.05 161.55 108.95 161.35 108.75 161.15 108.55 160.4 107.75 160.05 106.85
L 156 108.95 156.2 114.1
Q 156.15 115.15 156.05 116.25 156.55 124.4 157.95 132.8 158.05 133.25 158.2 133.7
L 164.75 139.15 168 136.75
Q 168.2 136.35 168.35 135.9 168.6 135.4 168.8 135.4 169.25 135.35 169.25 136 169.4078125 137.105078125 168.4 138.5 168.8703125 138.2998046875 169.35 138.1 169.9873046875 137.8337890625 170.6 137.55 171.1193359375 136.998046875 171.65 136.6 172.45 136.05 174.6 135 180.85 132.15 182.65 131.45 182.5 131.95 181.5 132.5
L 175.35 135.55
Q 182.1044921875 132.7162109375 186.95 130.55 183.818359375 130.6138671875 179.25 131.65 174.45 132.75 173.55 132.75 174.2 132.75 177.75 130.1 181.35 127.4 181.65 126.5
L 181.35 126.5
Q 178 127.15 176.1 128 174.3439453125 128.79296875 172.75 129.4 171.140234375 133.31484375 170.85 135.25
L 170.35 135.15
Q 170.55 133.95 171 132.45 170.05 131.8 169.8 130.75 169.55 130.1 169.55 128.75 169.4 122.6 169.45 118.6
M 163.35 105.9
Q 164.2 106.55 165.1 107.2 165.7 107.55 166.4 107.85 168.2 108.45 169.65 109.3 170.25 109.7 171.05 109.85 171.5 110.05 171.6 110.5
L 170.1 111.2 170.55 118.35
Q 170.6 123.4 170.45 128.05 170.4330078125 128.4892578125 170.4 128.85 172.55 122.2853515625 172.55 120.6 172.55 117.65 174.15 112.15
L 175.7 107.25
Q 175.7 106.45 171.95 104.95 166.8 102.95 162.6 98.9 159.55 96 158.9 96.05 154.95 96.4 152.85 96.15 141.9 94.85 137.45 94.15 130.7 93 120.6 90.15 120.48671875 90.603515625 120.3 91.05 122.55 93.3 123.85 94.9 123.75 95 123.45 94.8
L 120.05 91.6
Q 118.4705078125 94.908984375 113.35 98.35 107.25 102.35 102.9 102.35 102.25 102.35 100.5 102.15 98.6 101.95 97.7 101.75 98.3783203125 102.2587890625 98.7 102.75 100.8845703125 103.6869140625 103.25 104 104.15 104.1 104.55 104.45 105.5 104.3 107.15 104.2 108.1 104.05 109.35 103.5
L 111.5 102.55
Q 112.4 102.2 114.2 101.65 115.65 101.15 117.15 100.35 120.75 98.65 122.8 96.95 124 96 124.35 95.85 125.05 95.55 125.5 95.75 125.8 95.85 125.95 96.15 126.1 96.45 125.95 96.7 125.9 96.85 125.6 97.05
L 125.55 97.1
Q 127.15 96.95 130.3 97.7 136.95 99.3 143.65 99.45 146.6 99.45 148 99.85 148.9 100.1 150 100.7 150.65 101.05 151.95 101.8 153.85 102.85 155.9 103.45
L 159.8 104.25 160 104.25
Q 160.15 103.85 160.15 103.45 161.7 104.7 163.35 105.9
M 229.95 138.45
L 231.15 139.05
Q 232.1513671875 140.359375 232.95 141.7 233.77265625 142.0427734375 234.6 142.3 234.1689453125 142.5873046875 233.25 142.3 233.340234375 142.4369140625 233.4 142.55 234.3 144.25 234.3 144.85 234.3 150.7 219 156 200.85 162.2 172.6 162.2
L 168.8 161.55
Q 167.55 161.25 166.95 161.25 165.7 162.6 163.85 163.95 160.1 166.65 154.75 166.65 152 166.65 148.6 165.7 147.0484375 165.2435546875 145.8 165 146.4173828125 166.2853515625 148 168 149.95 170.2 150.55 171.25 150.95 171.85 150.75 172.2 150.6 172.1 150.05 171.1 149.8 170.6 148.35 169.15 146.3673828125 167.3259765625 145.1 164.85 144.44140625 164.7634765625 143.85 164.7 144.401953125 165.373046875 145.15 166.25 147.75 169.5 148.1 172.05 148 172.2 147.85 172.05 147.7 171.95 147.65 171.75 146.9 169.35 143.75 165.6 143.3685546875 165.148046875 143 164.7 141.9408203125 164.8982421875 141.85 166.85 141.7865234375 168.0541015625 141.3 169.1
L 144.25 172.2
Q 145.25 173.3 145.2 174.05
L 142.7 171.6
Q 141.6896484375 170.6958984375 140.9 169.85 140.3236328125 170.812890625 139.35 171.6 138.2 172.55 128.55 172.55 128.2103515625 172.55 127.8 172.55
L 129.55 176.45
Q 128 176 127.15 174.65 126.75 174.1 126.3 172.9 126.219140625 172.675390625 126.15 172.45 124.601171875 172.3947265625 122.45 172.2 122.509765625 172.9947265625 122.75 173.75 123.45 176.05 125.4 177.35
L 125.3 177.65
Q 124.4 177.65 123.45 176.4 122.5 175.25 122.15 174.4 121.810546875 173.645703125 121.75 172.15 120.4919921875 172.0787109375 119 171.95 112 171.3 110.1 171.3 109.5 171.3 108.6 171.5 107.65 171.7 107.4 171.9 107.4705078125 171.7697265625 107.65 171.5 107.387109375 171.6025390625 107.1 171.5 107.15 171.6 107.3 171.7 107.35 171.85 107.25 172.05
L 107.1 172.25 106.8 172.25
Q 106.6 172.25 106.5 172.5
L 106.5 172.65
Q 106.5 172.85 106.35 173 106.3 173.05 106.15 173.05 106.05 173.4 105.95 173.85 105.7 174.95 105.65 175.6 105.65 175.9 105.65 176.2 105.75 177.9 107 179.4 108.45 181.05 110.55 181.65 114.1 182.55 118.8 180.65 119.6 180.35 122.65 178.95 125 177.85 126.55 177.35 129.7 176.35 135.3 176.05 141.85 175.7 144.2 175.25 146.9 174.7 150.65 173.25 152.75 172.45 156.9 170.8 168.55 166.45 187 165.35 195.5 164.85 201.55 165.45 204.65 165.8 210.75 166.85 216.25 167.65 219.95 167.35 222.95 167.15 229.85 165.35 233 164.5 236.2 163.7
L 236.2 139.65 234.3 139.65
Q 230.7 138.45 229.95 138.45
M 154.2 110.8
L 155.15 109.3 153.5 108.7 159 105.9 155.15 105.1
Q 151.45 104.1 148.25 102.15 147.2 101.5 145.9 101.5 140.5 101.4 135.2 100.45 134.05 113.05 132.65 125.45 132.5 126.85 132.85 128.05 138 137.25 139.25 147.6 139.4 148.75 139.55 149.95
L 142.75 149.35 156.1 144.8
Q 153.1 136.25 152.4 127.25 148.4 130.4 143.4 129.75 142.5 129.5 141.85 128.9 141.5 127.6 142.5 128.45 143.65 129.4 145.25 129.2 148.45 128.85 151.5 127.35 151.95 127.15 152.4 126.95
L 155.05 111.3 154.25 111.55
Q 152.25 111.95 150.35 110.5 149.75 110.15 149.7 109.35
L 154.2 110.8
M 151.1 130
L 150.75 130.3 148.7 130.4
Q 149.85 130 151.1 130
M 202.25 72.55
Q 196.55 69.8 196.05 69.8 195.4896484375 69.8 190.75 71 191.9884765625 71.4919921875 193.5 72.15
L 201.7 75.85
Q 206.65 77.65 217.35 80.75 217 80.4 215.95 80 214.7 79.5 214.25 79.2 210.15 76.55 209.25 76.05 207.5 75.1 202.25 72.55 Z"/>

<path fill="#F8EAE9" stroke="none" d="
M 96.65 85.6
Q 96.55 85.65 96.45 85.7
L 90.35 89.9
Q 88.25 91.25 87.35 92.4 86.65 93.25 85.4 96.05 84.9384765625 97.08125 84.4 98.1 95.1416015625 86.7830078125 105.25 81.55 108.729296875 79.7119140625 112.4 78.45 112.94140625 77.23828125 114.05 75.4 114.1837890625 75.2337890625 114.3 75.05 109.7 77.15 105.35 79.7
L 105.2 79.95
Q 105.3 80.05 105.25 80.2 105.25 80.45 104.65 80.8
L 104.6 80.85 96.65 85.6
M 119 72.95
Q 118.5109375 73.1537109375 118 73.35 116.6953125 74.0388671875 115.25 74.75 114.5017578125 75.9302734375 114.1 76.6 113.6416015625 77.344921875 113.25 78.2 114.7896484375 77.7267578125 116.35 77.35 117.2572265625 77.133984375 118.3 76.9 118.905078125 74.9193359375 119.5 73.65 119.8 73.05 120.2 72.5 119.6 72.7 119 72.95
M 166.35 71.4
L 166.4 71.25
Q 166.45 71.1 166.65 71.1 166.5568359375 70.964453125 166.35 70.85 148.9380859375 71.234765625 130.3 71 126.25 70.9 123.9 71.35 122.85 71.55 121.5 72.05 120.7 73.1 120.05 74.5 119.647265625 75.3859375 119.2 76.7 120.217578125 76.5173828125 121.3 76.3 121.3853515625 76.1369140625 121.45 75.95 121.95 74.6 122.1 73.75 122.3 73.15 122.55 73.05 122.55 73.4 122.35 74 122.005859375 75.235546875 121.6 76.25 122.919140625 76.00078125 124.35 75.75 133.2 73.6 149.7 72.4 158.1 71.8 166.35 71.4
M 180.8 80.6
Q 181.1 79.95 180.5 79.2 179.25 77.55 176.9 77.15 175.5 76.9 172.7 77.1
L 168.05 77.45
Q 166.9 77.55 166.55 77.8 166.2 78.05 166.05 78.4 165.9 78.8 166.1 79.15 166.35 79.6 167.45 79.7 172.9 80 178.55 81.15 179.45 81.35 179.85 81.3 180.6 81.1 180.8 80.6
M 194.35 60.05
Q 195.2759765625 60.05 196.15 60.15 195.2580078125 59.8888671875 194.4 59.7 190.15 58.85 184.15 60 177.35 61.7 173.9 62.35 168.45 63.4 160.8 63.45 152 63.3 147.6 63.25 139.85 63.15 134.35 63.95 127.25 65 121.85 67.7 118.95 69.1 113.15 73.25
L 106.5 78.05
Q 110.75 75.6 116.45 73 119.15 71.7 121.4 71 121.9 70.5 122.5 70.15
L 122.95 70.5
Q 122.9 70.55 122.85 70.6 123.4328125 70.4564453125 124.1 70.3 131.4166015625 66.8396484375 134.8 65.9 138.4 64.9 147.5 65.1 148.45 65.15 154.8 64.5 161.2 63.9 161.9 63.9 172.75 63.65 182.85 61.85 192.5 60.05 194.35 60.05 Z"/>

<path fill="#D2AE72" stroke="none" d="
M 72.65 151.95
Q 72.35 151.85 72.2 151.6
L 71.15 154.25 70.8 155.45 95.25 169.35 104.65 174.25
Q 105.05 173.2 105.8 172.5 105.75 172.15 105.85 171.75
L 105.9 171.6 106.05 171.5 106.5 171.45
Q 106.85 171.45 106.9 171.35 106.95 171.4 107.05 171.5 107 170.55 107.2 169.6 106.85 169.5 106.4 169.35
L 72.65 151.95 Z"/>

<path fill="#DA9E8B" stroke="none" d="
M 87.7 116.9
L 87.85 116.9
Q 87.8318359375 116.8271484375 87.8 116.75 87.7755859375 116.8236328125 87.7 116.9 Z"/>

<path fill="#E5BD79" stroke="none" d="
M 73.1 151.3
Q 73.35 151.4 73.6 151.5
L 107 168.55
Q 107.25 168.7 107.4 168.8 107.55 168.25 107.8 167.65 108.2 166.65 109.15 165.15 109.45 164.6 109.8 164.05
L 113.25 158.75
Q 113.55 158.35 113.8 158.35 113.85 158.35 113.9 158.35
L 127.55 137.6
Q 128.6 134.8 127.25 132.85 126.6 131.8 124.35 130.6 114.7 125.65 109.9 123.1 101.45 118.6 95.85 114.85 94.25 113.75 93.2 113.8 92.55 113.85 91.45 114.45
L 88.7 115.95
Q 88.64296875 115.740625 88.65 115.5 88.6294921875 115.566015625 88.6 115.6 88.43984375 115.8669921875 88.15 116.3 88.251953125 116.2421875 88.4 116.2
L 88.7 116.15 88.85 116.25 89.15 116.5
Q 89.3 116.65 89.3 116.85 89.2 117.05 89.1 117.1
L 88.9 117.25 88.7 117.25 87.9 117.15
Q 87.75 117.3 87.6 117.5 87.55 117.55 87.55 117.65 87.5 119.25 86.9 121.1
L 73.1 151.3 Z"/>
</g>

<g id="Layer1_0_MEMBER_0_FILL">
<path fill="#F7393B" stroke="none" d="
M 599.6 269.5
Q 597.15 267.1 593.75 267.1
L 543.15 267.1
Q 539.75 267.1 537.3 269.5 534.9 271.95 534.9 275.35
L 534.9 306.85 165.05 306.85 165.05 205.7
Q 165.05 202.3 162.65 199.85 160.2 197.45 156.8 197.45
L 106.25 197.45
Q 102.85 197.45 100.4 199.85 98 202.3 98 205.7
L 98 494.7
Q 98 498.1 100.4 500.55 102.85 502.95 106.25 502.95
L 156.8 502.95
Q 160.2 502.95 162.65 500.55 165.05 498.1 165.05 494.7
L 165.05 404.5 534.9 404.5 534.9 494.7
Q 534.9 498.1 537.3 500.55 539.75 502.95 543.15 502.95
L 593.75 502.95
Q 597.15 502.95 599.6 500.55 602 498.1 602 494.7
L 602 275.35
Q 602 271.95 599.6 269.5
M 534.9 323.4
L 534.9 388 165.05 388 165.05 323.4 534.9 323.4
M 551.4 283.6
L 585.45 283.6 585.45 486.45 551.4 486.45 551.4 283.6
M 114.5 214
L 148.55 214 148.55 486.45 114.5 486.45 114.5 214 Z"/>
</g>

<g id="Layer1_0_MEMBER_1_FILL">
<path fill="#F7393B" stroke="none" d="
M 276.5 245.1
Q 269.25 237.85 259 237.85
L 198.1 237.85
Q 187.85 237.85 180.6 245.1 173.3 252.35 173.3 262.6
L 173.3 273.85
Q 173.3 284.1 180.6 291.35 187.85 298.6 198.1 298.6
L 259 298.6
Q 269.25 298.6 276.5 291.35 283.75 284.1 283.75 273.85
L 283.75 262.6
Q 283.75 252.35 276.5 245.1
M 264.85 279.7
Q 262.4 282.1 259 282.1
L 198.1 282.1
Q 194.7 282.1 192.25 279.7 189.85 277.25 189.85 273.85
L 189.85 262.6
Q 189.85 259.2 192.25 256.75 194.7 254.35 198.1 254.35
L 259 254.35
Q 262.4 254.35 264.85 256.75 267.25 259.2 267.25 262.6
L 267.25 273.85
Q 267.25 277.25 264.85 279.7 Z"/>
</g>

<g id="Layer1_0_MEMBER_2_FILL">
<path fill="#F7393B" stroke="none" d="
M 505.65 106.65
Q 503.85 104.8 501.25 104.8
L 459.75 104.8 459.75 63.25
Q 459.75 60.7 457.95 58.9 456.1 57.1 453.55 57.1
L 405.1 57.1
Q 402.55 57.1 400.75 58.9 398.9 60.7 398.9 63.25
L 398.9 104.8 357.4 104.8
Q 354.8 104.8 353 106.65 351.2 108.45 351.2 111
L 351.2 159.45
Q 351.2 162 353 163.85 354.7826171875 165.6326171875 357.35 165.65
L 398.9 165.65 398.9 207.2
Q 398.9 209.75 400.75 211.55 402.55 213.35 405.1 213.35
L 453.55 213.35
Q 456.1 213.35 457.95 211.55 459.75 209.75 459.75 207.2
L 459.75 165.65 501.25 165.65
Q 503.85 165.65 505.65 163.85 507.45 162 507.45 159.45
L 507.45 111
Q 507.45 108.45 505.65 106.65
M 495.05 117.2
L 495.05 153.25 453.55 153.25
Q 450.95 153.25 449.15 155.1 447.35 156.9 447.35 159.45
L 447.35 201 411.3 201 411.3 159.45
Q 411.3 156.9 409.5 155.1 407.65 153.25 405.1 153.25
L 363.55 153.25 363.55 117.2 405.1 117.2
Q 407.65 117.2 409.5 115.4 411.3 113.6 411.3 111
L 411.3 69.45 447.35 69.45 447.35 111
Q 447.35 113.6 449.15 115.4 450.95 117.2 453.55 117.2
L 495.05 117.2 Z"/>
</g>

<g id="Layer1_1_FILL">
<path fill="#F7393B" stroke="none" d="
M 105.7 308.25
Q 105.6 308.35 106.05 309.2 106.4 309.9 106.6 310.2
L 104.1 312.7 102.4 311
Q 101.9 310.45 101.3 310.5 100.7 310.5 100.25 310.95 99.8 311.4 99.75 311.95 99.7 312.6 100.2 313.1
L 100.9 313.8 90.45 324.15 91.25 327.2 86.4 331.9
Q 86.2 332.05 86.25 332.25 86.25 332.45 86.4 332.6 86.55 332.75 86.75 332.8 86.95 332.8 87.15 332.65
L 91.95 327.9 94.95 328.8 105.6 318.65 106.25 319.3
Q 106.75 319.85 107.4 319.8 107.95 319.75 108.4 319.35 108.85 318.9 108.9 318.35 108.95 317.7 108.45 317.2
L 106.8 315.5 109.35 313
Q 109.55 313.25 110.3 313.6 111.1 313.95 111.25 313.8 111.25 313.7 110.45 312.8 109.65 311.95 108.55 310.85 105.8 308.1 105.7 308.25
M 107.25 311
Q 107.85 311.7 108.55 312.35
L 106.1 314.7 104.8 313.4 107.25 311
M 101.3 311.5
Q 101.55 311.5 101.7 311.7
L 107.75 317.85
Q 107.9 318.05 107.9 318.25 107.85 318.45 107.7 318.6 107.55 318.75 107.4 318.75 107.15 318.75 107 318.6
L 100.95 312.4
Q 100.8 312.2 100.8 312 100.85 311.8 101 311.65 101.15 311.55 101.3 311.5
M 103.3 319.45
Q 102.35 320.45 101.7 321
L 100.55 319.85
Q 100.4 319.65 100.15 319.7 100 319.7 99.85 319.85 99.7 320 99.65 320.2 99.65 320.4 99.8 320.55
L 100.95 321.75 99.15 323.55 98.45 322.85
Q 98.3 322.7 98.1 322.7 97.9 322.7 97.75 322.85 97.6 323 97.6 323.2 97.55 323.4 97.75 323.6
L 98.35 324.25 96.55 326.05 95.4 324.85
Q 95.2 324.7 95 324.7 94.8 324.7 94.7 324.85 94.55 325 94.5 325.2 94.5 325.4 94.65 325.6
L 95.8 326.75 94.8 327.75 92.3 326.85 91.45 324.35 101.55 314.5 104.9 317.9
Q 104.55 318.25 103.3 319.45 Z"/>
</g>

<g id="Layer1_2_MEMBER_0_FILL">
<path fill="#F7393B" stroke="none" d="
M 426.5 168
L 445.2 168 445.15 101.45 255.4 101.45 255.4 168 274.05 168 274.05 120.1 426.5 120.1 426.5 168 Z"/>
</g>

<g id="Layer1_2_MEMBER_1_FILL">
<path fill="#F7393B" stroke="none" d="
M 417.15 380.2
L 417.15 306.8 386.7 306.8 386.7 276.3 313.25 276.3 313.25 306.8 282.75 306.8 282.75 380.2 313.25 380.2 313.25 410.7 386.7 410.7 386.7 380.2 417.15 380.2
M 331.95 294.95
L 368 294.95 368 325.45 398.5 325.45 398.5 361.55 368 361.55 368 392.05 331.95 392.05 331.95 361.55 301.45 361.55 301.45 325.45 331.95 325.45 331.95 294.95 Z"/>
</g>

<g id="Layer1_2_MEMBER_2_FILL">
<path fill="#F7393B" stroke="none" d="
M 458.25 238.95
L 458.25 220.3 241.7 220.3 241.7 238.95 458.25 238.95 Z"/>
</g>

<g id="Layer1_2_MEMBER_3_FILL">
<path fill="#F7393B" stroke="none" d="
M 548.45 238.95
L 548.45 220.3 504.3 220.3 504.3 238.95 548.45 238.95 Z"/>
</g>

<g id="Layer1_2_MEMBER_4_FILL">
<path fill="#F7393B" stroke="none" d="
M 151.5 220.3
L 151.5 238.95 195.65 238.95 195.65 220.3 151.5 220.3 Z"/>
</g>

<g id="Layer1_2_MEMBER_5_FILL">
<path fill="#F7393B" stroke="none" d="
M 251.05 184.85
L 186.95 184.85 186.95 282.5 251.05 282.5 251.05 184.85
M 205.6 203.5
L 232.4 203.5 232.4 263.85 205.6 263.85 205.6 203.5 Z"/>
</g>

<g id="Layer1_2_MEMBER_6_FILL">
<path fill="#F7393B" stroke="none" d="
M 448.9 282.5
L 513 282.5 513 184.85 448.9 184.85 448.9 282.5
M 467.55 263.85
L 467.55 203.5 494.35 203.5 494.35 263.85 467.55 263.85 Z"/>
</g>

<g id="Layer1_2_MEMBER_7_FILL">
<path fill="#F7393B" stroke="none" d="
M 557.8 458.6
L 557.8 158.7 142.15 158.7 142.15 458.6 557.8 458.6
M 160.8 439.95
L 160.8 177.35 539.15 177.35 539.15 439.95 160.8 439.95 Z"/>
</g>

<g id="Layer1_3_MEMBER_0_FILL">
<path fill="#F7393B" stroke="none" d="
M 573.05 154.95
Q 577.1 158.75 577.1 164.3
L 577.1 354.05
Q 577.1 359.25 573.05 363.15 568.95 367.15 563.4 367.15
L 557.15 367.15 557.15 379.55 563.4 379.55
Q 574 379.55 581.6 371.85 589.05 364.3 589.55 353.45
L 589.55 164.3
Q 589.55 154 581.85 146.4 574.1 138.75 563.4 138.75
L 344.4 138.75
Q 333.6 138.75 325.95 146.15 318.25 153.6 318.25 164.3
L 318.25 379.55 491.25 379.55 491.25 367.1 330.7 367.1 330.7 164.3
Q 330.7 159.1 334.75 155.2 338.8 151.2 344.35 151.2
L 563.4 151.2
Q 569.05 151.2 573.05 154.95 Z"/>
</g>

<g id="Layer1_3_MEMBER_1_FILL">
<path fill="#F7393B" stroke="none" d="
M 330.7 379.55
L 331.3 379.6 331.3 202.85 217.45 202.85
Q 195.9 202.85 176.15 211.25 157.05 219.35 142.3 234.15 127.55 248.9 119.45 267.95 111.05 287.75 111.05 309.25
L 111.05 343.5
Q 111.05 358.45 121.6 369 132.2 379.6 147.15 379.6
L 167.05 379.6 167.05 367.15 147.15 367.15
Q 137.35 367.15 130.4 360.2 123.5 353.3 123.5 343.5
L 123.5 309.25
Q 123.5 290.25 130.9 272.8 138.05 255.95 151.1 242.9 164.15 229.85 181 222.7 198.45 215.3 217.45 215.3
L 318.25 215.3 318.25 367.15 232.35 367.15 232.35 379.55 330.7 379.55 Z"/>
</g>

<g id="Layer1_3_MEMBER_2_FILL">
<path fill="#F7393B" stroke="none" d="
M 478.8 235.25
L 478.8 227.75
Q 478.8 217.95 471.85 211.05 464.95 204.1 455.15 204.1 445.35 204.1 438.4 211.05 431.5 217.95 431.5 227.75
L 431.5 235.25 424.05 235.25
Q 414.25 235.25 407.3 242.15 400.4 249.05 400.4 258.85 400.4 268.7 407.3 275.6 414.25 282.5 424.05 282.5
L 431.5 282.5 431.5 290
Q 431.5 299.8 438.4 306.7 445.35 313.65 455.15 313.65 464.95 313.65 471.85 306.7 478.8 299.8 478.8 290
L 478.8 282.5 486.25 282.5
Q 496.05 282.5 502.95 275.6 509.9 268.65 509.9 258.85 509.9 249.05 502.95 242.15 496.05 235.25 486.25 235.25
L 478.8 235.25
M 447.2 220.45
Q 450.45 217.2 455.15 217.2 459.8 217.2 463.1 220.45 466.35 223.7 466.35 228.4
L 466.35 248.3 486.25 248.3
Q 490.9 248.3 494.2 251.55 497.45 254.8 497.45 259.5 497.45 264.15 494.2 267.45 490.9 270.7 486.25 270.7
L 466.35 270.7 466.35 290.6
Q 466.35 295.25 463.1 298.55 459.8 301.8 455.15 301.8 450.45 301.8 447.2 298.55 443.95 295.25 443.95 290.6
L 443.95 270.7 424 270.7
Q 419.35 270.7 416.1 267.45 412.8 264.15 412.8 259.5 412.8 254.8 416.1 251.55 419.35 248.3 424 248.3
L 443.95 248.3 443.95 228.4
Q 443.95 223.7 447.2 220.45 Z"/>
</g>

<g id="Layer1_3_MEMBER_3_FILL">
<path fill="#F7393B" stroke="none" d="
M 485.95 183.65
Q 471.2 177.35 455.15 177.35 439.1 177.35 424.35 183.6 410.05 189.6 399 200.6 387.9 211.65 381.8 225.9 375.5 240.75 375.5 257 375.5 273.05 381.75 287.8 387.75 302.1 398.75 313.15 409.75 324.25 424.05 330.35 438.9 336.65 455.15 336.65 471.4 336.65 486.2 330.4 500.55 324.4 511.55 313.4 522.55 302.4 528.55 288.1 534.8 273.3 534.8 257 534.8 240.95 528.5 226.2 522.4 211.9 511.3 200.85 500.25 189.75 485.95 183.65
M 481.15 318.85
Q 468.65 324.2 455.15 324.2 427.5 324.2 407.75 304.6 387.95 284.9 387.95 257 387.95 229.35 407.55 209.65 427.25 189.8 455.15 189.8 483.15 189.8 502.75 209.4 522.35 229 522.35 257 522.35 284.55 502.5 304.35 493.15 313.7 481.15 318.85 Z"/>
</g>

<g id="Layer1_3_MEMBER_4_FILL">
<path fill="#F7393B" stroke="none" d="
M 265.3 237.8
Q 259.6 232.1 251.65 232.1
L 213.7 232.1
Q 194.1 232.1 180.25 245.95 166.4 259.8 166.4 279.4
L 166.4 287.5
Q 166.4 295.4 172.1 301.1 177.8 306.75 185.7 306.75
L 251.65 306.75 251.65 306.8
Q 259.6 306.8 265.3 301.1 270.95 295.4 270.95 287.5
L 270.95 251.4
Q 270.95 243.45 265.3 237.8
M 251.65 244.55
Q 254.45 244.55 256.5 246.55 258.5 248.6 258.5 251.4
L 258.5 287.5
Q 258.5 290.3 256.5 292.3 254.45 294.35 251.65 294.35
L 185.7 294.35
Q 182.95 294.35 180.9 292.3 178.85 290.3 178.85 287.5
L 178.85 279.4
Q 178.85 264.95 189.05 254.75 199.25 244.55 213.7 244.55
L 251.65 244.55 Z"/>
</g>

<g id="Layer1_3_MEMBER_5_FILL">
<path fill="#F7393B" stroke="none" d="
M 239.2 381.45
Q 239.2 365.15 227.45 353.4 215.7 341.65 199.4 341.65 183.05 341.65 171.35 353.4 159.6 365.15 159.6 381.45 159.6 397.8 171.35 409.55 183.05 421.25 199.4 421.25 216.1 421.25 227.7 409.55 239.2 397.9 239.2 381.45
M 172 381.45
Q 172 370.25 180.1 362.15 188.2 354.05 199.4 354.05 210.95 354.05 218.9 362.15 226.75 370.15 226.75 381.45 226.75 392.65 218.7 400.75 210.6 408.85 199.4 408.85 188.2 408.85 180.1 400.75 172 392.65 172 381.45 Z"/>
</g>

<g id="Layer1_3_MEMBER_6_FILL">
<path fill="#F7393B" stroke="none" d="
M 564 381.45
Q 564 365.15 552.25 353.4 540.5 341.65 524.2 341.65 507.85 341.65 496.1 353.4 484.35 365.15 484.35 381.45 484.35 397.8 496.1 409.55 507.85 421.25 524.2 421.25 540.5 421.25 552.25 409.55 564 397.8 564 381.45
M 496.8 381.45
Q 496.8 370.25 504.9 362.15 513 354.05 524.2 354.05 535.4 354.05 543.5 362.15 551.55 370.25 551.55 381.45 551.55 392.65 543.5 400.75 535.4 408.85 524.2 408.85 513 408.85 504.9 400.75 496.8 392.65 496.8 381.45 Z"/>
</g>

<g id="Layer1_3_MEMBER_7_FILL">
<path fill="#F7393B" stroke="none" d="
M 267.85 164.9
L 261.6 164.9
Q 251.25 164.9 243.75 172.3 236.1 179.8 236.1 190.4
L 236.1 215.3 293.35 215.3 293.35 190.4
Q 293.35 180.05 285.95 172.55 278.45 164.9 267.85 164.9
M 249.2 190.4
Q 249.2 185.2 252.95 181.35 256.75 177.35 262.25 177.35
L 268.45 177.35
Q 273.7 177.35 277.55 181.1 281.55 184.9 281.55 190.4
L 281.55 202.85 249.2 202.85 249.2 190.4 Z"/>
</g>

<g id="Layer1_4_MEMBER_0_FILL">
<path fill="#F7393B" stroke="none" d="
M 381.1 125.7
L 381.1 138.15 405.95 138.15
Q 407.95 138.15 409.4 139.2 410.15 139.75 410.95 140.65 412.3 143.5 410.95 146.25
L 336.9 274.45
Q 335 277.25 332 278.95 328.95 280.65 325.7 280.65 318.7 280.65 314.5 274.45
L 240.45 146.25
Q 239.6 144.55 239.75 142.75 239.9 141.2 240.45 140.65 240.8 140.35 242.05 139.2 243.5 138.15 245.45 138.15
L 270.95 138.15 270.95 125.7 245.45 125.7
Q 240.65 125.7 236.5 128 232.2 130.35 229.9 134.45 227.55 138.6 227.55 143.45 227.55 148.25 229.9 152.45
L 303.95 281.25
Q 307.25 286.95 312.95 290.3 318.8 293.7 325.7 293.7 332.8 293.7 338.5 290.5 344.3 287.25 347.5 281.25
L 422.15 152.45
Q 424.5 148.25 424.5 143.45 424.5 138.6 422.15 134.4 419.9 130.3 415.55 127.95 411.4 125.7 406.6 125.7
L 381.1 125.7 Z"/>
</g>

<g id="Layer1_4_MEMBER_1_FILL">
<path fill="#F7393B" stroke="none" d="
M 312 133.2
Q 312 123.4 305.1 116.45 298.2 109.55 288.35 109.55 278.55 109.55 271.65 116.45 264.75 123.4 264.75 133.2 264.75 143 271.65 149.9 278.55 156.85 288.35 156.85 298.5 156.85 305.3 149.9 312 143.1 312 133.2
M 288.35 121.35
Q 293.5 121.35 296.75 124.65 300.05 127.9 299.55 132.55 299.55 137.25 296.3 140.5 293.05 143.75 288.35 143.75 283.7 143.75 280.45 140.5 277.2 137.25 277.2 132.55 277.2 127.9 280.45 124.65 283.7 121.35 288.35 121.35 Z"/>
</g>

<g id="Layer1_4_MEMBER_2_FILL">
<path fill="#F7393B" stroke="none" d="
M 386.7 133.2
Q 386.7 123.4 379.75 116.45 372.85 109.55 363.05 109.55 353.25 109.55 346.35 116.45 339.4 123.4 339.4 133.2 339.4 143 346.35 149.9 353.25 156.85 363.05 156.85 373.2 156.85 380 149.9 386.7 143.1 386.7 133.2
M 371.45 124.65
Q 374.7 127.9 374.25 132.55 374.25 137.25 371 140.5 367.7 143.75 363.05 143.75 358.35 143.75 355.1 140.5 351.85 137.25 351.85 132.55 351.85 127.9 355.1 124.65 358.35 121.35 363.05 121.35 368.2 121.35 371.45 124.65 Z"/>
</g>

<g id="Layer1_4_MEMBER_3_FILL">
<path fill="#F7393B" stroke="none" d="
M 331.95 394.5
L 331.95 288.75 319.5 288.75 319.5 394.5 331.95 394.5 Z"/>
</g>

<g id="Layer1_4_MEMBER_4_FILL">
<path fill="#F7393B" stroke="none" d="
M 226.15 392.05
Q 226.15 372.9 239.9 359.1 253.65 345.35 272.8 345.35
L 272.8 332.9
Q 248.55 332.9 231.1 350.35 213.7 367.75 213.7 392.05 213.7 416.3 231.1 433.75 248.55 451.15 272.8 451.15 297.45 451.15 314.75 433.75 331.95 416.4 331.95 392.05
L 319.5 392.05
Q 319.5 411.2 305.75 424.95 291.95 438.7 272.8 438.7 253.7 438.7 239.9 424.95 226.15 411.2 226.15 392.05 Z"/>
</g>

<g id="Layer1_4_MEMBER_5_FILL">
<path fill="#F7393B" stroke="none" d="
M 436.45 345.35
L 436.45 332.9 272.2 332.9 272.2 345.35 436.45 345.35 Z"/>
</g>

<g id="Layer1_4_MEMBER_6_FILL">
<path fill="#F7393B" stroke="none" d="
M 478.1 319.3
Q 469.9 311.15 458.25 311.15 446.6 311.15 438.4 319.3 430.25 327.5 430.25 339.15 430.25 350.8 438.4 359 446.6 367.15 458.25 367.15 469.55 367.15 477.85 359 486.25 350.7 486.25 339.15 486.25 327.5 478.1 319.3
M 458.25 323.6
Q 464.45 323.6 469.05 328.1 473.8 332.7 473.8 339.15 473.8 345.7 469.3 350.2 464.8 354.7 458.25 354.7 451.75 354.7 447.2 350.2 442.7 345.7 442.7 339.15 442.7 332.6 447.2 328.1 451.7 323.6 458.25 323.6 Z"/>
</g>

<g id="Layer1_5_MEMBER_0_FILL">
<path fill="#F7393B" stroke="none" d="
M 465.7 228.4
Q 472.7 228.4 477.6 233.3 482.5 238.2 482.5 245.2
L 482.5 402 494.95 402 494.95 245.2
Q 494.95 233.05 486.4 224.5 477.85 215.95 465.7 215.95 458.7 215.95 453.8 211.05 448.9 206.15 448.9 199.15
L 448.9 132.55 251.05 132.55 251.05 199.15
Q 251.05 206.15 246.15 211.05 241.25 215.95 234.25 215.95 222.1 215.95 213.55 224.5 205 233.05 205 245.2
L 205 460.45
Q 205 472.6 213.55 481.15 222.1 489.7 234.25 489.7
L 466.3 489.7 466.3 477.25 234.25 477.25
Q 227.25 477.25 222.35 472.35 217.45 467.45 217.45 460.45
L 217.45 245.2
Q 217.45 238.2 222.35 233.3 227.25 228.4 234.25 228.4 246.35 228.4 254.95 219.85 263.5 211.25 263.5 199.15
L 263.5 145.6 436.45 145.6 436.45 199.15
Q 436.45 211.25 445 219.85 453.6 228.4 465.7 228.4 Z"/>
</g>

<g id="Layer1_5_MEMBER_1_FILL">
<path fill="#F7393B" stroke="none" d="
M 476.9 95.2
Q 476.9 84.95 469.6 77.65 462.25 70.35 452 70.35
L 249.2 70.35
Q 238.95 70.35 231.6 77.65 224.3 84.95 224.3 95.2
L 224.3 120.1
Q 224.3 130.4 231.6 137.7 238.95 145 249.2 145
L 452 145
Q 462.3 145 469.6 137.7 476.9 130.4 476.9 120.1
L 476.9 95.2
M 452 82.8
Q 457.15 82.8 460.8 86.45 464.45 90.1 464.45 95.25
L 464.45 120.1
Q 464.45 125.25 460.8 128.9 457.15 132.55 452 132.55
L 249.2 132.55
Q 244.05 132.55 240.4 128.9 236.75 125.25 236.75 120.1
L 236.75 95.25
Q 236.75 90.1 240.4 86.45 244.05 82.8 249.2 82.8
L 452 82.8 Z"/>
</g>

<g id="Layer1_5_MEMBER_2_FILL">
<path fill="#F7393B" stroke="none" d="
M 331.3 177.35
Q 334.1 177.35 335.85 175.65 337.55 173.95 337.55 171.15 337.55 168.35 335.85 166.6 334.1 164.9 331.3 164.9
L 257.25 164.9
Q 254.45 164.9 252.75 166.6 251.05 168.35 251.05 171.15 251.05 173.95 252.75 175.65 254.5 177.35 257.25 177.35
L 331.3 177.35 Z"/>
</g>

<g id="Layer1_5_MEMBER_3_FILL">
<path fill="#F7393B" stroke="none" d="
M 361.2 171.15
Q 361.2 168.3 359.2 166.3 357.15 164.3 354.35 164.3 351.5 164.3 349.5 166.3 347.5 168.3 347.5 171.15 347.5 173.95 349.5 176 351.5 178 354.35 178 357.15 178 359.2 176 361.2 173.95 361.2 171.15 Z"/>
</g>

<g id="Layer1_5_MEMBER_4_FILL">
<path fill="#F7393B" stroke="none" d="
M 489.35 271.3
L 489.35 258.85 214.35 258.85 214.35 271.3 489.35 271.3 Z"/>
</g>

<g id="Layer1_5_MEMBER_5_FILL">
<path fill="#F7393B" stroke="none" d="
M 214.35 420.65
L 214.35 433.1 415.95 433.1 415.95 420.65 214.35 420.65 Z"/>
</g>

<g id="Layer1_5_MEMBER_6_FILL">
<path fill="#F7393B" stroke="none" d="
M 350.6 285.6
Q 339.85 285.6 332.5 293 325.1 300.4 325.1 311.15
L 325.1 319.85 315.75 319.85
Q 305.05 319.85 297.65 327.25 290.25 334.65 290.25 345.35 290.25 356.1 297.65 363.45 305.05 370.85 315.75 370.85
L 325.1 370.85 325.1 380.2
Q 325.1 390.95 332.5 398.3 339.9 405.7 350.6 405.7 360.85 405.7 368.5 398.15 376.1 390.65 376.1 380.8
L 376.1 371.5 385.45 371.5
Q 396.2 371.5 403.55 364.1 410.95 356.75 410.95 346 410.95 335.25 403.55 327.85 396.2 320.45 385.45 320.45
L 376.1 320.45 376.1 311.15
Q 376.1 300.4 368.7 293 361.35 285.6 350.6 285.6
M 385.45 332.9
Q 390.95 332.9 394.75 336.9 398.5 340.75 398.5 346 398.5 351.5 394.55 355.3 390.7 359.05 385.45 359.05
L 363.65 359.05 363.65 380.85
Q 363.65 386.35 359.7 390.15 355.85 393.9 350.6 393.9 345.1 393.9 341.3 389.95 337.55 386.05 337.55 380.85
L 337.55 359.05 315.75 359.05
Q 310.25 359.05 306.45 355.1 302.7 351.25 302.7 346 302.7 340.5 306.65 336.65 310.5 332.9 315.75 332.9
L 337.55 332.9 337.55 311.15
Q 337.55 305.65 341.5 301.8 345.35 298.05 350.6 298.05 356.1 298.05 359.9 302.05 363.65 305.9 363.65 311.15
L 363.65 332.9 385.45 332.9 Z"/>
</g>

<g id="Layer1_5_MEMBER_7_FILL">
<path fill="#F7393B" stroke="none" d="
M 583.3 443.05
Q 583.3 423.8 569.8 410.15 556.15 396.4 536.65 396.4
L 453.25 396.4
Q 434.15 396.4 420.35 410.15 406.6 423.95 406.6 443.05 406.6 462.3 420.15 475.95 433.8 489.7 453.25 489.7
L 536.65 489.7
Q 555.8 489.7 569.55 475.95 583.3 462.2 583.3 443.05
M 536.65 408.2
Q 550.65 408.2 560.75 418.3 570.85 428.45 570.85 442.45 570.85 456.55 561 466.55 551 476.65 536.65 476.65
L 453.25 476.65
Q 439.25 476.65 429.15 466.55 419.05 456.45 419.05 442.45 419.05 428.35 428.95 418.3 438.9 408.2 453.25 408.2
L 536.65 408.2 Z"/>
</g>

<g id="Layer1_5_MEMBER_8_FILL">
<path fill="#F7393B" stroke="none" d="
M 501.15 402
L 488.75 402 488.75 483.5 501.15 483.5 501.15 402 Z"/>
</g>

<g id="Layer1_6_FILL">
<path fill="#F7393B" stroke="none" d="
M 90.85 132.9
Q 90.55 133 90.4 133.25
L 86.7 140.25
Q 86.55 140.5 86.65 140.8 86.7 141.1 87 141.2
L 93.25 144.55 89.9 150.8
Q 89.75 151.05 89.8 151.35 89.9 151.65 90.15 151.8
L 97.15 155.5
Q 97.45 155.65 97.75 155.55 98 155.45 98.15 155.2
L 101.5 148.95 107.75 152.25
Q 108 152.4 108.3 152.3 108.6 152.2 108.75 151.95
L 112.45 144.95
Q 112.6 144.7 112.5 144.4 112.4 144.1 112.15 143.95
L 105.9 140.65 109.2 134.45
Q 109.35 134.15 109.3 133.85 109.2 133.6 108.9 133.45
L 101.9 129.75
Q 101.65 129.6 101.35 129.65 101.1 129.75 100.95 130.05
L 97.65 136.25 91.4 132.9
Q 91.1 132.8 90.85 132.9
M 98.15 137.95
Q 98.4 137.9 98.55 137.6
L 101.85 131.35 107.55 134.35 104.25 140.6
Q 104.1 140.9 104.2 141.15 104.3 141.45 104.55 141.6
L 110.8 144.9 107.75 150.6 101.5 147.3
Q 101.25 147.15 100.95 147.25 100.65 147.35 100.55 147.6
L 97.2 153.85 91.5 150.85 94.85 144.6
Q 94.95 144.35 94.9 144.05 94.8 143.75 94.5 143.6
L 88.3 140.25 91.35 134.55 97.55 137.9
Q 97.85 138.05 98.15 137.95 Z"/>
</g>

<path id="Layer2_0_MEMBER_1_1_STROKES" stroke="#47B5C3" stroke-width="2" stroke-linejoin="round" stroke-linecap="round" fill="none" d="
M 55.96791763305664 371.8115119934082
Q 75.80667266845703 371.7124252319336 89.75163650512695 357.60827255249023 103.71578979492188 343.52311859130856 103.61670303344727 323.6843635559082 103.51761627197266 303.84560852050777 89.41336822509766 289.8815505981445 75.32830963134765 275.93649139404295 55.48955459594727 276.03557815551756 35.65079956054687 276.13466491699216 21.68664627075195 290.2198188781738 7.741682434082032 304.32397155761714 7.840769195556641 324.16272659301757 7.93985595703125 344.00148162841793 22.024914550781247 357.94654083251953 36.12916259765625 371.9105987548828 55.96791763305664 371.8115119934082 Z"/>

<path id="Layer2_0_MEMBER_3_1_STROKES" stroke="#47B5C3" stroke-width="2" stroke-linejoin="round" stroke-linecap="round" fill="none" d="
M 111.69046325683593 97.6397933959961
Q 111.69046325683593 125.45859985351562 131.36979217529296 145.1111541748047 151.02234649658203 164.7904830932617 178.84115295410157 164.7904830932617 206.6599594116211 164.7904830932617 226.33928833007812 145.1111541748047 245.9918426513672 125.45859985351562 245.9918426513672 97.6397933959961 245.9918426513672 69.82098693847655 226.33928833007812 50.141658020019534 206.6599594116211 30.489103698730467 178.84115295410157 30.489103698730467 151.02234649658203 30.489103698730467 131.36979217529296 50.141658020019534 111.69046325683593 69.82098693847655 111.69046325683593 97.6397933959961 Z"/>

<path id="Layer2_0_MEMBER_4_1_STROKES" stroke="#47B5C3" stroke-width="2" stroke-linejoin="round" stroke-linecap="round" fill="none" d="
M 237.224658203125 39.84752731323242
L 19.00834960937496 39.84752731323242 19.00834960937496 363.08092193603517 237.224658203125 363.08092193603517 237.224658203125 39.84752731323242 Z"/>

<path id="Layer2_0_MEMBER_5_1_STROKES" stroke="#47B5C3" stroke-width="2" stroke-linejoin="round" stroke-linecap="round" fill="none" d="
M 10.517253112792957 30.935513305664063
L 61.8183853149414 70.3202407836914"/>

<path id="Layer2_0_MEMBER_6_1_STROKES" stroke="#47B5C3" stroke-width="2" stroke-linejoin="round" stroke-linecap="round" fill="none" d="
M 0.41725311279296307 31.985513305664064
L 51.71838531494141 71.3702407836914"/>
</defs>

<g transform="matrix( 0.0019073486328125, 0.3818817138671875, 0.3818817138671875, -0.0019073486328125, 0.8,274.95) ">
<use xlink:href="#Layer2_0_MEMBER_0_FILL"/>
</g>

<g transform="matrix( 0.0019073486328125, 0.3818817138671875, 0.3818817138671875, -0.0019073486328125, 4.2,271.9) ">
<use xlink:href="#Layer2_0_MEMBER_1_1_STROKES" transform="matrix( 0.0130767822265625, 2.6185455322265625, 2.6185455322265625, -0.0130767822265625, -712,-7.4) "/>
</g>

<g transform="matrix( -0.535491943359375, 0, 0, 0.535491943359375, 252.85,24.2) ">
<use xlink:href="#Layer2_0_MEMBER_2_FILL"/>
</g>

<g transform="matrix( -0.535491943359375, 0, 0, 0.535491943359375, 252.15,25.75) ">
<use xlink:href="#Layer2_0_MEMBER_3_1_STROKES" transform="matrix( -1.867431640625, 0, 0, 1.867431640625, 470.85,-48.05) "/>
</g>

<g transform="matrix( -0.9111328125, 0, 0, 0.9578704833984375, 274.9,4.55) ">
<use xlink:href="#Layer2_0_MEMBER_4_1_STROKES" transform="matrix( -1.0975341796875, 0, 0, 1.043975830078125, 301.7,-4.75) "/>
</g>

<g transform="matrix( -0.807891845703125, 0, 0, 0.807891845703125, 88.6,27.3) ">
<use xlink:href="#Layer2_0_MEMBER_5_1_STROKES" transform="matrix( -1.2377777099609375, 0, 0, 1.2377777099609375, 109.65,-33.75) "/>
</g>

<g transform="matrix( -0.807891845703125, 0, 0, 0.807891845703125, 78.5,28.35) ">
<use xlink:href="#Layer2_0_MEMBER_6_1_STROKES" transform="matrix( -1.2377777099609375, 0, 0, 1.2377777099609375, 97.15,-35.05) "/>
</g>

<g transform="matrix( 1, 0, 0, 1, 72.3,209) ">
<g transform="matrix( 1, 0, 0, 1, 0,0) ">
<use xlink:href="#Cubo_0_Layer0_0_FILL"/>
</g>
</g>

<g transform="matrix( 1, 0, 0, 1, 94.3,253) ">
<g transform="matrix( 1, 0, 0, 1, 0,0) ">
<use xlink:href="#Cubo_0_Layer0_0_FILL"/>
</g>
</g>

<g transform="matrix( 1, 0, 0, 1, 47.9,253) ">
<g transform="matrix( 1, 0, 0, 1, 0,0) ">
<use xlink:href="#Cubo_0_Layer0_0_FILL"/>
</g>
</g>

<g transform="matrix( 1, 0, 0, 1, 118.65,296.6) ">
<g transform="matrix( 1, 0, 0, 1, 0,0) ">
<use xlink:href="#Cubo_0_Layer0_0_FILL"/>
</g>
</g>

<g transform="matrix( 1, 0, 0, 1, 71.85,296.6) ">
<g transform="matrix( 1, 0, 0, 1, 0,0) ">
<use xlink:href="#Cubo_0_Layer0_0_FILL"/>
</g>
</g>

<g transform="matrix( 1, 0, 0, 1, 25.45,296.6) ">
<g transform="matrix( 1, 0, 0, 1, 0,0) ">
<use xlink:href="#Cubo_0_Layer0_0_FILL"/>
</g>
</g>

<g transform="matrix( 1, 0, 0, 1, 0,0) ">
<use xlink:href="#Layer2_7_FILL"/>
</g>

<g transform="matrix( 0.049591064453125, 0, 0, 0.0495452880859375, 127.15,306.6) ">
<use xlink:href="#Layer1_0_MEMBER_0_FILL"/>
</g>

<g transform="matrix( 0.049591064453125, 0, 0, 0.0495452880859375, 127.15,306.6) ">
<use xlink:href="#Layer1_0_MEMBER_1_FILL"/>
</g>

<g transform="matrix( 0.049591064453125, 0, 0, 0.0495452880859375, 127.15,306.6) ">
<use xlink:href="#Layer1_0_MEMBER_2_FILL"/>
</g>

<g transform="matrix( 1, 0, 0, 1, 0,0) ">
<use xlink:href="#Layer1_1_FILL"/>
</g>

<g transform="matrix( 0.0601348876953125, 0, 0, 0.0601806640625, 29.3,303.65) ">
<use xlink:href="#Layer1_2_MEMBER_0_FILL"/>
</g>

<g transform="matrix( 0.0601348876953125, 0, 0, 0.0601806640625, 29.3,303.65) ">
<use xlink:href="#Layer1_2_MEMBER_1_FILL"/>
</g>

<g transform="matrix( 0.0601348876953125, 0, 0, 0.0601806640625, 29.3,303.65) ">
<use xlink:href="#Layer1_2_MEMBER_2_FILL"/>
</g>

<g transform="matrix( 0.0601348876953125, 0, 0, 0.0601806640625, 29.3,303.65) ">
<use xlink:href="#Layer1_2_MEMBER_3_FILL"/>
</g>

<g transform="matrix( 0.0601348876953125, 0, 0, 0.0601806640625, 29.3,303.65) ">
<use xlink:href="#Layer1_2_MEMBER_4_FILL"/>
</g>

<g transform="matrix( 0.0601348876953125, 0, 0, 0.0601806640625, 29.3,303.65) ">
<use xlink:href="#Layer1_2_MEMBER_5_FILL"/>
</g>

<g transform="matrix( 0.0601348876953125, 0, 0, 0.0601806640625, 29.3,303.65) ">
<use xlink:href="#Layer1_2_MEMBER_6_FILL"/>
</g>

<g transform="matrix( 0.0601348876953125, 0, 0, 0.0601806640625, 29.3,303.65) ">
<use xlink:href="#Layer1_2_MEMBER_7_FILL"/>
</g>

<g transform="matrix( 0.0565032958984375, 0, 0, 0.0564727783203125, 100.1,261) ">
<use xlink:href="#Layer1_3_MEMBER_0_FILL"/>
</g>

<g transform="matrix( 0.0565032958984375, 0, 0, 0.0564727783203125, 100.1,261) ">
<use xlink:href="#Layer1_3_MEMBER_1_FILL"/>
</g>

<g transform="matrix( 0.0565032958984375, 0, 0, 0.0564727783203125, 100.1,261) ">
<use xlink:href="#Layer1_3_MEMBER_2_FILL"/>
</g>

<g transform="matrix( 0.0565032958984375, 0, 0, 0.0564727783203125, 100.1,261) ">
<use xlink:href="#Layer1_3_MEMBER_3_FILL"/>
</g>

<g transform="matrix( 0.0565032958984375, 0, 0, 0.0564727783203125, 100.1,261) ">
<use xlink:href="#Layer1_3_MEMBER_4_FILL"/>
</g>

<g transform="matrix( 0.0565032958984375, 0, 0, 0.0564727783203125, 100.1,261) ">
<use xlink:href="#Layer1_3_MEMBER_5_FILL"/>
</g>

<g transform="matrix( 0.0565032958984375, 0, 0, 0.0564727783203125, 100.1,261) ">
<use xlink:href="#Layer1_3_MEMBER_6_FILL"/>
</g>

<g transform="matrix( 0.0565032958984375, 0, 0, 0.0564727783203125, 100.1,261) ">
<use xlink:href="#Layer1_3_MEMBER_7_FILL"/>
</g>

<g transform="matrix( 0.073150634765625, 0, 0, 0.073150634765625, 49.35,256.5) ">
<use xlink:href="#Layer1_4_MEMBER_0_FILL"/>
</g>

<g transform="matrix( 0.073150634765625, 0, 0, 0.073150634765625, 49.35,256.5) ">
<use xlink:href="#Layer1_4_MEMBER_1_FILL"/>
</g>

<g transform="matrix( 0.073150634765625, 0, 0, 0.073150634765625, 49.35,256.5) ">
<use xlink:href="#Layer1_4_MEMBER_2_FILL"/>
</g>

<g transform="matrix( 0.073150634765625, 0, 0, 0.073150634765625, 49.35,256.5) ">
<use xlink:href="#Layer1_4_MEMBER_3_FILL"/>
</g>

<g transform="matrix( 0.073150634765625, 0, 0, 0.073150634765625, 49.35,256.5) ">
<use xlink:href="#Layer1_4_MEMBER_4_FILL"/>
</g>

<g transform="matrix( 0.073150634765625, 0, 0, 0.073150634765625, 49.35,256.5) ">
<use xlink:href="#Layer1_4_MEMBER_5_FILL"/>
</g>

<g transform="matrix( 0.073150634765625, 0, 0, 0.073150634765625, 49.35,256.5) ">
<use xlink:href="#Layer1_4_MEMBER_6_FILL"/>
</g>

<g transform="matrix( 0.059600830078125, 0, 0, 0.0596160888671875, 76.55,214.1) ">
<use xlink:href="#Layer1_5_MEMBER_0_FILL"/>
</g>

<g transform="matrix( 0.059600830078125, 0, 0, 0.0596160888671875, 76.55,214.1) ">
<use xlink:href="#Layer1_5_MEMBER_1_FILL"/>
</g>

<g transform="matrix( 0.059600830078125, 0, 0, 0.0596160888671875, 76.55,214.1) ">
<use xlink:href="#Layer1_5_MEMBER_2_FILL"/>
</g>

<g transform="matrix( 0.059600830078125, 0, 0, 0.0596160888671875, 76.55,214.1) ">
<use xlink:href="#Layer1_5_MEMBER_3_FILL"/>
</g>

<g transform="matrix( 0.059600830078125, 0, 0, 0.0596160888671875, 76.55,214.1) ">
<use xlink:href="#Layer1_5_MEMBER_4_FILL"/>
</g>

<g transform="matrix( 0.059600830078125, 0, 0, 0.0596160888671875, 76.55,214.1) ">
<use xlink:href="#Layer1_5_MEMBER_5_FILL"/>
</g>

<g transform="matrix( 0.059600830078125, 0, 0, 0.0596160888671875, 76.55,214.1) ">
<use xlink:href="#Layer1_5_MEMBER_6_FILL"/>
</g>

<g transform="matrix( 0.059600830078125, 0, 0, 0.0596160888671875, 76.55,214.1) ">
<use xlink:href="#Layer1_5_MEMBER_7_FILL"/>
</g>

<g transform="matrix( 0.059600830078125, 0, 0, 0.0596160888671875, 76.55,214.1) ">
<use xlink:href="#Layer1_5_MEMBER_8_FILL"/>
</g>

<g transform="matrix( 1, 0, 0, 1, -0.1,-0.75) ">
<use xlink:href="#Layer1_6_FILL"/>
</g>
</svg>
