
<svg xmlns="http://www.w3.org/2000/svg" version="1.1" xmlns:xlink="http://www.w3.org/1999/xlink" preserveAspectRatio="none" x="0px" y="0px" width="290px" height="390px" viewBox="0 0 290 390">
<defs>
<g id="Layer0_0_FILL">
<path fill="#95D7D6" stroke="none" d="
M 186.7 48.95
Q 183.95 46.2 180.1 46.2
L 112.85 46.2
Q 109 46.2 106.25 48.95 103.5 51.7 103.5 55.55
L 103.5 55.6
Q 103.5 59.45 106.25 62.2 109 64.95 112.85 64.95
L 180.1 64.95
Q 183.95 64.95 186.7 62.2 189.45 59.45 189.45 55.6
L 189.45 55.55
Q 189.45 51.7 186.7 48.95 Z"/>
</g>

<g id="Layer0_2_FILL">
<path fill="#F58B1B" stroke="none" d="
M 187.05 156.7
Q 203.95 139.85 203.95 116 203.95 92.15 187.05 75.25 170.2 58.4 146.35 58.4 122.5 58.4 105.6 75.25 88.75 92.15 88.75 116 88.75 139.85 105.6 156.7 122.5 173.6 146.35 173.6 170.2 173.6 187.05 156.7 Z"/>
</g>

<g id="Layer0_3_FILL">
<path fill="#FFAC5A" stroke="none" d="
M 187.05 156.7
Q 203.95 139.85 203.95 116 203.95 92.15 187.05 75.25 170.2 58.4 146.35 58.4 122.5 58.4 105.6 75.25 88.75 92.15 88.75 116 88.75 139.85 105.6 156.7 122.5 173.6 146.35 173.6 170.2 173.6 187.05 156.7 Z"/>
</g>

<g id="Layer0_4_FILL">
<path fill="#FAC496" stroke="none" d="
M 187.05 156.7
Q 203.95 139.85 203.95 116 203.95 92.15 187.05 75.25 170.2 58.4 146.35 58.4 122.5 58.4 105.6 75.25 88.75 92.15 88.75 116 88.75 139.85 105.6 156.7 122.5 173.6 146.35 173.6 170.2 173.6 187.05 156.7 Z"/>
</g>

<g id="Layer0_5_MEMBER_0_FILL">
<path fill="#FFFFFF" stroke="none" d="
M 547.55 53.55
Q 541.85 51.2 535.75 51.2
L 382.15 51.2 394.55 33.7
Q 396.6 30.8 397.5 27.4 398.35 23.95 397.95 20.45 397.15 13.15 391.65 8.25 386.2 3.4 378.85 3.4
L 309.8 3.4
Q 306.3 3.4 302.95 4.65 299.65 5.9 297 8.25 291.55 13.15 290.7 20.45 289.95 27.75 294.1 33.7
L 306.5 51.25 164.2 51.25
Q 158.05 51.25 152.4 53.6 146.75 55.95 142.4 60.25 138.1 64.6 135.75 70.25 133.4 75.9 133.4 82.05
L 133.4 525.9
Q 133.4 532.05 135.75 537.7 138.1 543.35 142.4 547.7 146.75 552.05 152.4 554.4 158.05 556.7 164.2 556.7
L 535.75 556.7
Q 541.85 556.7 547.55 554.35 553.2 552 557.5 547.7 561.8 543.35 564.15 537.7 566.5 532.05 566.5 525.9
L 566.5 82
Q 566.5 75.9 564.15 70.25 561.8 64.55 557.5 60.25 553.2 55.9 547.55 53.55
M 530.5 95.9
Q 530.5 92.35 527.95 89.8 525.4 87.25 521.8 87.25
L 434.9 87.25 434.9 68.55 535.75 68.55
Q 541.3 68.55 545.25 72.5 549.2 76.4 549.2 82
L 549.2 525.9
Q 549.2 531.5 545.25 535.4 541.3 539.35 535.75 539.35
L 164.15 539.35
Q 158.6 539.35 154.7 535.4 150.75 531.5 150.75 525.9
L 150.75 82
Q 150.75 76.4 154.7 72.5 158.6 68.55 164.15 68.55
L 253.8 68.55 253.8 87.25 178.1 87.25
Q 174.45 87.25 172 89.8 169.45 92.25 169.45 95.95
L 169.45 512
Q 169.45 515.6 172 518.15 174.55 520.65 178.1 520.65
L 468.9 520.65
Q 472.45 520.65 475.05 518.15
L 527.95 465.2
Q 530.5 462.65 530.5 459.1
L 530.5 95.9
M 380.55 21.7
Q 381.1 22.75 380.4 23.7
L 358.35 54.85
Q 356.95 56.85 356.8 59.3 356.65 61.7 357.75 63.85 358.9 66.05 360.95 67.3 363 68.55 365.45 68.55
L 417.6 68.55 417.6 101.45 271.1 101.45 271.1 68.55 323.25 68.55
Q 325.7 68.55 327.75 67.3 329.85 66.05 330.95 63.85 332.1 61.7 331.9 59.3 331.75 56.85 330.3 54.85
L 308.25 23.7
Q 307.6 22.75 308.1 21.7 308.7 20.7 309.8 20.7
L 378.85 20.7
Q 380.05 20.7 380.55 21.7
M 426.25 118.75
Q 429.9 118.75 432.35 116.2 434.9 113.75 434.9 110.1
L 434.9 104.55 513.15 104.55 513.15 450.45 468.9 450.45
Q 465.25 450.45 462.8 453 460.25 455.45 460.25 459.1
L 460.25 503.35 186.8 503.35 186.8 104.55 253.8 104.55 253.8 110.1
Q 253.8 113.7 256.35 116.25 258.85 118.75 262.45 118.75
L 426.25 118.75
M 477.55 491.1
L 477.55 467.75 500.9 467.75 477.55 491.1
M 371.3 438.65
L 379.9 430.05
Q 382.45 427.5 382.45 423.9 382.45 420.3 379.9 417.8 377.4 415.25 373.8 415.25 370.2 415.25 367.65 417.8
L 359.05 426.4 350.45 417.8
Q 347.9 415.35 344.35 415.35 340.8 415.4 338.3 417.9 335.8 420.4 335.75 423.95 335.75 427.5 338.2 430.05
L 346.8 438.65 338.2 447.25
Q 335.7 449.8 335.65 453.4 335.65 456.95 338.2 459.5 340.75 462.05 344.35 462.05 347.9 462.05 350.45 459.5
L 359.05 450.9 367.65 459.5
Q 370.2 462.15 373.85 462.15 377.45 462.25 380 459.6 382.65 457.05 382.55 453.45 382.55 449.8 379.9 447.25
L 371.3 438.65
M 235.15 162.8
Q 232.6 160.25 229 160.25 225.4 160.25 222.9 162.8 220.35 165.3 220.35 168.9 220.35 172.5 222.9 175.05
L 231.5 183.65 222.9 192.25
Q 220.45 194.8 220.45 198.35 220.5 201.9 223 204.4 225.5 206.9 229.05 206.95 232.6 207 235.15 204.5
L 243.75 195.9 252.35 204.5
Q 254.9 207.05 258.5 207.05 262.05 207.05 264.6 204.5 267.15 201.95 267.15 198.4 267.15 194.8 264.6 192.25
L 256 183.65 264.6 175.05
Q 267.15 172.5 267.15 168.9 267.15 165.25 264.6 162.8 262.05 160.25 258.5 160.25 254.9 160.25 252.35 162.8
L 243.75 171.4 235.15 162.8
M 444.1 372.85
Q 441.6 370.4 438.05 370.4 434.45 370.45 431.95 372.95 429.5 375.45 429.45 379 429.4 382.55 431.85 385.1
L 440.5 393.7 431.85 402.3
Q 429.35 404.85 429.35 408.45 429.35 412.05 431.85 414.55 434.4 417.1 438 417.1 441.6 417.1 444.1 414.55
L 452.75 405.95 461.35 414.55
Q 463.85 417.1 467.45 417.1 471.05 417.1 473.6 414.55 476.1 412.05 476.1 408.45 476.1 404.85 473.6 402.3
L 465 393.7 473.6 385.1
Q 476.1 382.6 476.1 379 476.1 375.4 473.6 372.85 471.05 370.35 467.45 370.35 463.85 370.35 461.35 372.85
L 452.75 381.45 444.1 372.85
M 436.6 227.45
Q 432.65 227.45 430.1 230.4
L 409.4 254.05
Q 407 256.75 407.25 260.35 407.5 263.95 410.2 266.3 412.95 268.65 416.5 268.45 420.1 268.2 422.45 265.45
L 428 259.15 428 306.35
Q 428 315.65 423.35 323.7 418.7 331.75 410.65 336.4 402.6 341.05 393.3 341.05 383.95 341.05 375.9 336.4 367.85 331.75 363.2 323.7 358.55 315.65 358.55 306.35
L 358.55 263.2
Q 358.9 252.6 355.1 242.75 351.3 232.85 343.95 225.25 336.55 217.65 326.8 213.5 317.1 209.4 306.5 209.4 295.9 209.4 286.2 213.5 276.45 217.65 269.1 225.25 261.75 232.85 257.9 242.75 254.1 252.6 254.45 263.2
L 254.45 405
Q 247.1 407.1 241.55 412.35 236 417.6 233.45 424.8 230.95 432 232 439.55 233.1 447.15 237.5 453.35 241.9 459.6 248.65 463.1 255.45 466.6 263.1 466.6 270.7 466.6 277.5 463.1 284.3 459.6 288.7 453.35 293.1 447.15 294.2 439.55 295.25 432 292.75 424.8 290.2 417.6 284.65 412.35 279.1 407.1 271.75 405
L 271.75 263.2
Q 271.75 253.9 276.4 245.85 281.05 237.75 289.1 233.1 297.15 228.45 306.5 228.45 315.8 228.45 323.85 233.1 331.9 237.75 336.55 245.85 341.2 253.9 341.2 263.2
L 341.2 306.35
Q 341.35 320.2 348.35 332.15 355.35 344.1 367.35 351 379.4 357.85 393.25 357.85 407.1 357.85 419.1 351 431.15 344.1 438.15 332.15 445.15 320.2 445.3 306.35
L 445.3 259.15 450.8 265.45
Q 453.2 268.05 456.7 268.3 460.25 268.5 462.9 266.15 465.55 263.8 465.85 260.3 466.15 256.75 463.85 254.05
L 443.15 230.4
Q 440.6 227.45 436.6 227.45
M 273.05 425.25
Q 277.15 429.35 277.15 435.2 277.15 439.45 274.8 443 272.45 446.55 268.5 448.2 264.55 449.85 260.35 449 256.15 448.2 253.15 445.15 250.1 442.15 249.3 437.95 248.45 433.75 250.1 429.8 251.7 425.85 255.25 423.5 258.85 421.1 263.1 421.1 268.95 421.15 273.05 425.25
M 477.05 144.7
Q 474.45 142.2 470.9 142.2 467.4 142.2 464.75 144.75
L 434.3 175.5 420.1 161.65
Q 417.5 159.2 413.95 159.25 410.4 159.3 407.9 161.9 405.45 164.45 405.45 168 405.5 171.55 408 174.05
L 428.35 193.9
Q 430.95 196.4 434.5 196.35 438.05 196.3 440.55 193.8
L 477.1 156.95
Q 479.6 154.4 479.6 150.8 479.6 147.2 477.05 144.7 Z"/>
</g>

<g id="Layer0_6_FILL">
<path fill="#FFFFFF" stroke="none" d="
M 100.7 272.05
L 100.5 251.15
Q 100.55 250.4 99.9 249.8 99.35 249.25 98.55 249.25
L 79.9 249.4 79.75 230.85
Q 79.7 230 79.25 229.4 78.7 228.9 77.8 228.95
L 56.9 229.15
Q 56.15 229.1 55.5 229.6 55.05 230.15 55.05 231
L 55.2 249.55 36.5 249.65
Q 35.65 249.8 35.2 250.3 34.6 250.95 34.6 251.75
L 34.8 272.65
Q 34.75 273.4 35.4 273.95 35.85 274.6 36.7 274.45
L 55.45 274.35 55.5 293.1
Q 55.45 293.85 55.95 294.5 56.55 295.05 57.35 295.1
L 78.25 294.9
Q 79.15 294.9 79.65 294.25 80.15 293.7 80.2 292.95
L 80.15 274.25 98.8 274
Q 99.5 274.05 100.1 273.45 100.65 272.85 100.7 272.05
M 96.6 253.15
L 96.7 270.15 78.05 270.4
Q 77.25 270.35 76.7 270.95 76.1 271.55 76.2 272.3
L 76.3 291 59.25 291.2 59.2 272.5
Q 59.1 271.75 58.6 271.15 58.05 270.55 57.15 270.6
L 38.55 270.65 38.4 253.55 57.05 253.55
Q 57.9 253.5 58.5 252.9 59.05 252.5 59 251.6
L 58.8 232.95 75.75 232.75 76 251.4
Q 76 252.25 76.55 252.75 77.2 253.25 77.95 253.3
L 96.6 253.15 Z"/>
</g>

<g id="Layer0_7_MEMBER_0_FILL">
<path fill="#FFFFFF" stroke="none" d="
M 259.8 224.6
L 263.75 242.5 280 238.6 268.8 188.2 222.85 207.2 229.6 222.35 245.8 215.6 215.6 268.25 230.7 276.65 259.8 224.6
M 148.35 420.6
L 161.25 398.2 146.7 389.8 133.8 412.2 148.35 420.6
M 174.7 374.1
L 188.7 350 174.15 341.65 160.15 365.7 174.7 374.1
M 202.7 325.4
L 216.7 301.3 202.15 292.9 188.15 317 202.7 325.4
M 366.2 146.2
L 366.2 118.75 416.6 95.8 349.4 45.95 349.4 145.6 141.65 505.7 573.4 505.7 366.2 146.2
M 366.2 79.55
L 383.55 92.4 366.2 100.25 366.2 79.55
M 383.6 274.4
L 357.8 243.6 316.95 308.6 299 266.6 357.8 165.2 402.05 241.95 383.6 274.4
M 386.35 304.65
L 411.55 259.85 544.3 489.45 170.75 489.45 288.35 285.05 313.55 345 359.5 272.75 386.35 304.65 Z"/>
</g>

<g id="Layer0_8_MEMBER_0_FILL">
<path fill="#0F5DA6" stroke="none" d="
M -128.6 139.75
L -135.6 139.75 -135.6 194.1 -128.6 194.1 -128.6 139.75 Z"/>
</g>

<g id="Layer0_8_MEMBER_1_FILL">
<path fill="#0F5DA6" stroke="none" d="
M -87.3 136
L -87.3 155.15 -70.75 145.6 -87.3 136 Z"/>
</g>

<g id="Layer0_8_MEMBER_2_FILL">
<path fill="#0F5DA6" stroke="none" d="
M -87.3 136
L -87.3 155.15 -70.75 145.6 -87.3 136 Z"/>
</g>

<g id="Layer0_9_MEMBER_0_FILL">
<path fill="#0F5DA6" stroke="none" d="
M -128.6 139.75
L -135.6 139.75 -135.6 194.1 -128.6 194.1 -128.6 139.75 Z"/>
</g>

<g id="Layer0_9_MEMBER_1_FILL">
<path fill="#0F5DA6" stroke="none" d="
M -87.3 136
L -87.3 155.15 -70.75 145.6 -87.3 136 Z"/>
</g>

<g id="Layer0_9_MEMBER_2_FILL">
<path fill="#0F5DA6" stroke="none" d="
M -87.3 136
L -87.3 155.15 -70.75 145.6 -87.3 136 Z"/>
</g>

<g id="Layer0_10_MEMBER_0_FILL">
<path fill="#0F5DA6" stroke="none" d="
M -128.6 139.75
L -135.6 139.75 -135.6 194.1 -128.6 194.1 -128.6 139.75 Z"/>
</g>

<g id="Layer0_10_MEMBER_1_FILL">
<path fill="#0F5DA6" stroke="none" d="
M -87.3 136
L -87.3 155.15 -70.75 145.6 -87.3 136 Z"/>
</g>

<g id="Layer0_10_MEMBER_2_FILL">
<path fill="#0F5DA6" stroke="none" d="
M -87.3 136
L -87.3 155.15 -70.75 145.6 -87.3 136 Z"/>
</g>

<g id="Layer0_11_FILL">
<path fill="#95D7D6" stroke="none" d="
M 186.7 48.95
Q 183.95 46.2 180.1 46.2
L 112.85 46.2
Q 109 46.2 106.25 48.95 103.5 51.7 103.5 55.55
L 103.5 55.6
Q 103.5 59.45 106.25 62.2 109 64.95 112.85 64.95
L 180.1 64.95
Q 183.95 64.95 186.7 62.2 189.45 59.45 189.45 55.6
L 189.45 55.55
Q 189.45 51.7 186.7 48.95 Z"/>
</g>

<g id="Layer0_12_FILL">
<path fill="#95D7D6" stroke="none" d="
M 186.7 48.95
Q 183.95 46.2 180.1 46.2
L 112.85 46.2
Q 109 46.2 106.25 48.95 103.5 51.7 103.5 55.55
L 103.5 55.6
Q 103.5 59.45 106.25 62.2 109 64.95 112.85 64.95
L 180.1 64.95
Q 183.95 64.95 186.7 62.2 189.45 59.45 189.45 55.6
L 189.45 55.55
Q 189.45 51.7 186.7 48.95 Z"/>
</g>

<g id="Layer0_13_FILL">
<path fill="#0F5DA6" stroke="none" d="
M 65.1 330.65
L 65.1 330.5 63.1 330.5
Q 62.75 331.1 61.7 332.25
L 61.7 332.45 62.9 332.45 65.1 330.65
M 71.65 334
L 71.6 334
Q 70.95 333.05 69.7 333.05 68.55 333.05 67.85 333.95 67.2 334.85 67.2 336.45 67.2 338 67.85 338.9 68.5 339.8 69.65 339.8 70.9 339.8 71.5 338.85
L 71.6 338.85 71.95 339.7 73.3 339.7 73.3 330.6 71.5 330.6 71.5 332.7
Q 71.5 333.25 71.65 334
M 70.3 338.4
Q 69.65 338.4 69.35 337.9 69 337.45 69 336.45 69 335.5 69.35 335 69.65 334.5 70.25 334.5 71 334.5 71.3 334.95 71.65 335.4 71.65 336.45
L 71.65 336.65
Q 71.6 337.6 71.3 338 70.95 338.4 70.3 338.4
M 77.85 333.05
Q 76.4 333.05 75.55 333.95 74.75 334.85 74.75 336.45 74.75 338.05 75.65 338.95 76.5 339.8 78.1 339.8 78.85 339.8 79.4 339.7 79.95 339.6 80.4 339.35
L 80.4 337.95
Q 79.85 338.25 79.3 338.35 78.8 338.5 78.2 338.5 77.4 338.5 77 338.05 76.6 337.65 76.55 336.85
L 80.75 336.85 80.75 336
Q 80.75 334.6 80 333.8 79.25 333.05 77.85 333.05
M 78.75 334.65
Q 79.1 335 79.1 335.7
L 76.6 335.7
Q 76.65 335 76.95 334.65 77.3 334.3 77.85 334.3 78.4 334.3 78.75 334.65
M 59.7 337.4
Q 59.7 338.6 60.3 339.2 60.85 339.8 62.05 339.8 62.7 339.8 63.25 339.55 63.75 339.3 64.05 338.85
L 64.15 338.85 64.4 339.7 65.75 339.7 65.75 333.15 63.95 333.15 63.95 336.25
Q 63.95 337.4 63.65 337.9 63.3 338.4 62.55 338.4 62 338.4 61.75 338.05 61.5 337.7 61.5 337
L 61.5 333.15 59.7 333.15 59.7 337.4
M 46.4 331.65
Q 45.65 332.3 45.65 333.45 45.65 334.05 45.9 334.5 46.1 334.95 46.5 335.3 46.9 335.65 47.7 336
L 48.8 336.6
Q 49.05 336.75 49.2 336.95 49.35 337.15 49.35 337.4 49.35 337.85 49.05 338.1 48.7 338.3 48.1 338.3 47.6 338.3 47 338.15 46.4 338 45.55 337.6
L 45.55 339.3
Q 46.6 339.8 48 339.8 49.45 339.8 50.3 339.15 51.15 338.5 51.15 337.3 51.15 336.5 50.7 335.9 50.25 335.35 49.05 334.75 48.15 334.3 47.9 334.15 47.65 334 47.55 333.8 47.45 333.65 47.45 333.4 47.45 333 47.7 332.75 48 332.5 48.5 332.5 48.95 332.5 49.4 332.65 49.8 332.75 50.5 333.05
L 51.1 331.6
Q 50.45 331.35 49.85 331.15 49.2 331 48.55 331 47.2 331 46.4 331.65
M 55.2 333
Q 53.85 333 52.7 333.6
L 53.3 334.8
Q 54.35 334.35 55.15 334.35 56.15 334.35 56.15 335.35
L 56.15 335.6 55.05 335.65
Q 53.55 335.7 52.85 336.2 52.1 336.7 52.1 337.75 52.1 338.75 52.65 339.3 53.2 339.8 54.15 339.8 54.9 339.8 55.4 339.6 55.85 339.4 56.3 338.8
L 56.35 338.8 56.7 339.7 57.95 339.7 57.95 335.35
Q 57.95 334.15 57.25 333.6 56.55 333 55.2 333
M 56.15 336.65
L 56.15 337.2
Q 56.15 337.8 55.8 338.15 55.45 338.5 54.8 338.5 53.95 338.5 53.95 337.75 53.95 337.25 54.3 336.95 54.7 336.7 55.5 336.7
L 56.15 336.65 Z"/>
</g>

<g id="Layer0_14_FILL">
<path fill="#0F5DA6" stroke="none" d="
M 229.05 333.6
Q 228.35 333 227 333 225.65 333 224.5 333.6
L 225.1 334.8
Q 226.15 334.35 226.95 334.35 227.95 334.35 227.95 335.35
L 227.95 335.6 226.85 335.65
Q 225.35 335.7 224.65 336.2 223.9 336.7 223.9 337.75 223.9 338.75 224.45 339.3 225 339.8 225.95 339.8 226.7 339.8 227.2 339.6 227.65 339.4 228.1 338.8
L 228.15 338.8 228.5 339.7 229.75 339.7 229.75 335.35
Q 229.75 334.15 229.05 333.6
M 227.95 336.65
L 227.95 337.2
Q 227.95 337.8 227.6 338.15 227.25 338.5 226.6 338.5 225.75 338.5 225.75 337.75 225.75 337.25 226.1 336.95 226.5 336.7 227.3 336.7
L 227.95 336.65
M 242.6 333.05
Q 241.05 333.05 240.25 333.9 239.4 334.8 239.4 336.4 239.4 337.45 239.8 338.2 240.15 339 240.9 339.4 241.6 339.8 242.55 339.8 244.05 339.8 244.9 338.9 245.75 338 245.75 336.4 245.75 335.4 245.35 334.6 244.95 333.85 244.25 333.45 243.55 333.05 242.6 333.05
M 241.55 334.95
Q 241.85 334.45 242.55 334.45 243.3 334.45 243.6 334.95 243.9 335.45 243.9 336.4 243.9 337.4 243.6 337.9 243.3 338.4 242.55 338.4 241.85 338.4 241.55 337.9 241.2 337.4 241.2 336.4 241.2 335.45 241.55 334.95
M 236.05 331.45
Q 236.05 332.35 237.05 332.35 237.5 332.35 237.75 332.1 238 331.85 238 331.45 238 330.6 237.05 330.6 236.05 330.6 236.05 331.45
M 237.9 333.15
L 236.15 333.15 236.15 339.7 237.9 339.7 237.9 333.15
M 234.35 331.95
Q 234.8 331.95 235.35 332.1
L 235.8 330.8
Q 235.05 330.5 234.15 330.5 232.95 330.5 232.4 331.05 231.8 331.55 231.8 332.65
L 231.8 333.15 230.85 333.65 230.85 334.5 231.8 334.5 231.8 339.7 233.6 339.7 233.6 334.5 235.15 334.5 235.15 333.15 233.6 333.15 233.6 332.75
Q 233.6 332.4 233.8 332.15 233.95 331.95 234.35 331.95
M 205.3 331.15
L 202.65 331.15 202.65 339.7 205.05 339.7
Q 207.35 339.7 208.55 338.6 209.75 337.45 209.75 335.35 209.75 333.35 208.6 332.25 207.4 331.15 205.3 331.15
M 204.45 332.6
L 205.4 332.6
Q 207.85 332.6 207.85 335.4 207.85 338.2 205.2 338.2
L 204.45 338.2 204.45 332.6
M 216.2 333.8
Q 215.45 333.05 214.05 333.05 212.6 333.05 211.75 333.95 210.95 334.85 210.95 336.45 210.95 338.05 211.85 338.95 212.7 339.8 214.3 339.8 215.05 339.8 215.6 339.7 216.15 339.6 216.6 339.35
L 216.6 337.95
Q 216.05 338.25 215.5 338.35 215 338.5 214.4 338.5 213.6 338.5 213.2 338.05 212.8 337.65 212.75 336.85
L 216.95 336.85 216.95 336
Q 216.95 334.6 216.2 333.8
M 214.05 334.3
Q 214.6 334.3 214.95 334.65 215.3 335 215.3 335.7
L 212.8 335.7
Q 212.85 335 213.15 334.65 213.5 334.3 214.05 334.3
M 220.6 333.05
Q 219.35 333.05 218.65 333.5 218 334 218 334.85 218 335.35 218.15 335.7 218.3 336.05 218.65 336.35 219 336.6 219.8 336.9
L 220.6 337.3
Q 220.95 337.45 221.05 337.6 221.2 337.75 221.2 337.95 221.2 338.5 220.2 338.5 219.75 338.5 219.15 338.35 218.5 338.2 218 337.95
L 218 339.45
Q 218.45 339.6 218.95 339.7 219.45 339.8 220.15 339.8 221.55 339.8 222.25 339.3 222.95 338.75 222.95 337.75 222.95 337.25 222.8 336.9 222.6 336.55 222.25 336.3 221.9 336.05 221.15 335.7 220.25 335.35 220 335.2 219.75 335 219.75 334.8 219.75 334.35 220.55 334.35 221 334.35 221.45 334.5
L 222.35 334.85 222.9 333.55
Q 221.75 333.05 220.6 333.05 Z"/>
</g>

<g id="Layer0_15_FILL">
<path fill="#0F5DA6" stroke="none" d="
M 122.35 54.5
Q 122.5 54.85 122.85 55.15 123.2 55.4 124 55.7
L 124.8 56.1
Q 125.15 56.25 125.25 56.4 125.4 56.55 125.4 56.75 125.4 57.3 124.4 57.3 123.95 57.3 123.35 57.15 122.7 57 122.2 56.75
L 122.2 58.25
Q 122.65 58.4 123.15 58.5 123.65 58.6 124.35 58.6 125.75 58.6 126.45 58.1 127.15 57.55 127.15 56.55 127.15 56.05 127 55.7 126.8 55.35 126.45 55.1 126.1 54.85 125.35 54.5 124.45 54.15 124.2 54 123.95 53.8 123.95 53.6 123.95 53.15 124.75 53.15 125.2 53.15 125.65 53.3
L 126.55 53.65 127.1 52.35
Q 125.95 51.85 124.8 51.85 123.55 51.85 122.85 52.3 122.2 52.8 122.2 53.65 122.2 54.15 122.35 54.5
M 132.35 53.3
L 132.35 51.95 130.5 51.95 130.5 50.55 129.4 50.55 128.85 51.95 127.9 52.55 127.9 53.3 128.75 53.3 128.75 56.45
Q 128.75 57.55 129.2 58.1 129.7 58.6 130.8 58.6 131.75 58.6 132.4 58.3
L 132.4 57
Q 131.75 57.2 131.3 57.2 130.95 57.2 130.75 57 130.5 56.85 130.5 56.45
L 130.5 53.3 132.35 53.3
M 138 51.9
L 137.4 51.85
Q 136.8 51.85 136.25 52.15 135.75 52.5 135.45 53.05
L 135.35 53.05 135.1 51.95 133.75 51.95 133.75 58.5 135.5 58.5 135.5 55.15
Q 135.5 54.4 136 53.95 136.5 53.5 137.35 53.5
L 137.85 53.55 138 51.9
M 144.35 54.15
Q 144.35 52.95 143.65 52.4 142.95 51.8 141.6 51.8 140.25 51.8 139.1 52.4
L 139.7 53.6
Q 140.75 53.15 141.55 53.15 142.55 53.15 142.55 54.15
L 142.55 54.4 141.45 54.45
Q 139.95 54.5 139.25 55 138.5 55.5 138.5 56.55 138.5 57.55 139.05 58.1 139.6 58.6 140.55 58.6 141.3 58.6 141.8 58.4 142.25 58.2 142.7 57.6
L 142.75 57.6 143.1 58.5 144.35 58.5 144.35 54.15
M 141.9 55.5
L 142.55 55.45 142.55 56
Q 142.55 56.6 142.2 56.95 141.85 57.3 141.2 57.3 140.35 57.3 140.35 56.55 140.35 56.05 140.7 55.75 141.1 55.5 141.9 55.5
M 148.1 50.55
L 147 50.55 146.45 51.95 145.5 52.55 145.5 53.3 146.35 53.3 146.35 56.45
Q 146.35 57.55 146.8 58.1 147.3 58.6 148.4 58.6 149.35 58.6 150 58.3
L 150 57
Q 149.35 57.2 148.9 57.2 148.55 57.2 148.35 57 148.1 56.85 148.1 56.45
L 148.1 53.3 149.95 53.3 149.95 51.95 148.1 51.95 148.1 50.55
M 156.95 55.65
L 156.95 54.8
Q 156.95 53.4 156.2 52.6 155.45 51.85 154.05 51.85 152.6 51.85 151.75 52.75 150.95 53.65 150.95 55.25 150.95 56.85 151.85 57.75 152.7 58.6 154.3 58.6 155.05 58.6 155.6 58.5 156.15 58.4 156.6 58.15
L 156.6 56.75
Q 156.05 57.05 155.5 57.15 155 57.3 154.4 57.3 153.6 57.3 153.2 56.85 152.8 56.45 152.75 55.65
L 156.95 55.65
M 153.15 53.45
Q 153.5 53.1 154.05 53.1 154.6 53.1 154.95 53.45 155.3 53.8 155.3 54.5
L 152.8 54.5
Q 152.85 53.8 153.15 53.45
M 117.85 54.8
L 120.75 54.8 120.75 53.3 117.85 53.3 117.85 51.4 120.95 51.4 120.95 49.95 116.05 49.95 116.05 58.5 120.95 58.5 120.95 57 117.85 57 117.85 54.8
M 156.4 49.3
L 154.4 49.3
Q 154.05 49.9 153 51.05
L 153 51.25 154.2 51.25 156.4 49.45 156.4 49.3
M 166.9 51.95
L 165.15 51.95 165.15 58.5 166.9 58.5 166.9 51.95
M 166.05 51.15
Q 166.5 51.15 166.75 50.9 167 50.65 167 50.25 167 49.4 166.05 49.4 165.05 49.4 165.05 50.25 165.05 51.15 166.05 51.15
M 163.35 54.1
Q 163.35 53.55 163.05 53.1
L 164.1 52.85 164.1 51.95 160.65 51.85
Q 159.35 51.85 158.65 52.4 158 53 158 54.05 158 54.75 158.3 55.25 158.6 55.7 159.1 55.95 158.7 56.2 158.45 56.45 158.25 56.7 158.25 57.05 158.25 57.35 158.45 57.65 158.65 57.9 158.95 58 158.2 58.2 157.85 58.6 157.5 58.95 157.5 59.55 157.5 60.45 158.2 60.9 158.95 61.4 160.3 61.4 162.1 61.4 163.05 60.75 164 60.1 164 58.95 164 58.05 163.45 57.6 162.9 57.15 161.8 57.15
L 160.7 57.15
Q 159.7 57.15 159.7 56.75 159.7 56.5 160 56.3
L 160.25 56.3 160.55 56.35
Q 161.85 56.35 162.6 55.75 163.35 55.15 163.35 54.1
M 162.1 58.7
Q 162.45 58.85 162.45 59.25 162.45 59.7 161.9 59.95 161.35 60.2 160.4 60.2 159.75 60.2 159.4 60 159.05 59.8 159.05 59.45 159.05 59.05 159.35 58.8 159.7 58.6 160.2 58.6
L 161.1 58.6
Q 161.8 58.6 162.1 58.7
M 159.7 54.1
Q 159.7 52.9 160.65 52.9 161.65 52.9 161.65 54.1 161.65 54.65 161.4 54.95 161.15 55.25 160.65 55.25 160.15 55.25 159.95 54.95 159.7 54.65 159.7 54.1
M 174.2 58.5
L 174.2 54.15
Q 174.2 52.95 173.5 52.4 172.8 51.8 171.45 51.8 170.1 51.8 168.95 52.4
L 169.55 53.6
Q 170.6 53.15 171.4 53.15 172.4 53.15 172.4 54.15
L 172.4 54.4 171.3 54.45
Q 169.8 54.5 169.1 55 168.35 55.5 168.35 56.55 168.35 57.55 168.9 58.1 169.45 58.6 170.4 58.6 171.15 58.6 171.65 58.4 172.1 58.2 172.55 57.6
L 172.6 57.6 172.95 58.5 174.2 58.5
M 172.4 55.45
L 172.4 56
Q 172.4 56.6 172.05 56.95 171.7 57.3 171.05 57.3 170.2 57.3 170.2 56.55 170.2 56.05 170.55 55.75 170.95 55.5 171.75 55.5
L 172.4 55.45 Z"/>
</g>

<path id="Layer0_1_1_STROKES" stroke="#47B5C3" stroke-width="2" stroke-linejoin="round" stroke-linecap="round" fill="none" d="
M 276.6686218261719 15.604428100585942
L 13.387685394287132 15.604428100585942 13.387685394287132 374.38390808105464 276.6686218261719 374.38390808105464 276.6686218261719 15.604428100585942 Z"/>
</defs>

<g transform="matrix( 1, 0, 0, 1, -1.45,-9) ">
<use xlink:href="#Layer0_0_FILL"/>
</g>

<g transform="matrix( -0.7964935302734375, 0, 0, 1.09051513671875, 328.6,-35.05) ">
<use xlink:href="#Layer0_1_1_STROKES" transform="matrix( -1.2554931640625, 0, 0, 0.9169921875, 412.55,32.1) "/>
</g>

<g transform="matrix( 1, 0, 0, 1, -1.35,3.05) ">
<use xlink:href="#Layer0_2_FILL"/>
</g>

<g transform="matrix( 1, 0, 0, 1, -78.8,136.95) ">
<use xlink:href="#Layer0_3_FILL"/>
</g>

<g transform="matrix( 1, 0, 0, 1, 76.1,136.95) ">
<use xlink:href="#Layer0_4_FILL"/>
</g>

<g transform="matrix( 0.14068603515625, 0, 0, 0.140777587890625, 95.2,78.3) ">
<use xlink:href="#Layer0_5_MEMBER_0_FILL"/>
</g>

<g transform="matrix( 1, 0, 0, 1, 0,-9) ">
<use xlink:href="#Layer0_6_FILL"/>
</g>

<g transform="matrix( 0.1578369140625, 0, 0, 0.1578369140625, 167,204.8) ">
<use xlink:href="#Layer0_7_MEMBER_0_FILL"/>
</g>

<g transform="matrix( 0, 1, -0.6777191162109375, 0, 257.7,386.15) ">
<use xlink:href="#Layer0_8_MEMBER_0_FILL"/>
</g>

<g transform="matrix( 1, 0, 0, 1, 246.75,108.45) ">
<use xlink:href="#Layer0_8_MEMBER_1_FILL"/>
</g>

<g transform="matrix( -1, 0, 0, -1, 43.65,399.55) ">
<use xlink:href="#Layer0_8_MEMBER_2_FILL"/>
</g>

<g transform="matrix( 0.8187103271484375, 0.5741729736328125, -0.3891143798828125, 0.5548553466796875, 259.95,160.55) ">
<use xlink:href="#Layer0_9_MEMBER_0_FILL"/>
</g>

<g transform="matrix( 0.5741729736328125, -0.8187103271484375, 0.8187103271484375, 0.5741729736328125, 26.35,10.1) ">
<use xlink:href="#Layer0_9_MEMBER_1_FILL"/>
</g>

<g transform="matrix( -0.5741729736328125, 0.8187103271484375, -0.8187103271484375, -0.5741729736328125, 148.05,343.5) ">
<use xlink:href="#Layer0_9_MEMBER_2_FILL"/>
</g>

<g transform="matrix( -0.818695068359375, 0.5741424560546875, 0.38909912109375, 0.554840087890625, 30.05,160.55) ">
<use xlink:href="#Layer0_10_MEMBER_0_FILL"/>
</g>

<g transform="matrix( -0.5741424560546875, -0.818695068359375, -0.818695068359375, 0.5741424560546875, 263.65,10.1) ">
<use xlink:href="#Layer0_10_MEMBER_1_FILL"/>
</g>

<g transform="matrix( 0.5741424560546875, 0.818695068359375, 0.818695068359375, -0.5741424560546875, 142,343.45) ">
<use xlink:href="#Layer0_10_MEMBER_2_FILL"/>
</g>

<g transform="matrix( 1, 0, 0, 1, 77.45,271) ">
<use xlink:href="#Layer0_11_FILL"/>
</g>

<g transform="matrix( 1, 0, 0, 1, -83.3,271) ">
<use xlink:href="#Layer0_12_FILL"/>
</g>

<g transform="matrix( 1, 0, 0, 1, 0,-9) ">
<use xlink:href="#Layer0_13_FILL"/>
</g>

<g transform="matrix( 1, 0, 0, 1, 0,-9) ">
<use xlink:href="#Layer0_14_FILL"/>
</g>

<g transform="matrix( 1, 0, 0, 1, 0,-9) ">
<use xlink:href="#Layer0_15_FILL"/>
</g>
</svg>
