
<svg xmlns="http://www.w3.org/2000/svg" version="1.1" xmlns:xlink="http://www.w3.org/1999/xlink" preserveAspectRatio="none" x="0px" y="0px" width="250px" height="390px" viewBox="0 0 250 390">
<defs>
<linearGradient id="Gradient_1" gradientUnits="userSpaceOnUse" x1="18.299999999999983" y1="129.6" x2="269.1" y2="129.6" spreadMethod="pad">
<stop  offset="0%" stop-color="#FAC496"/>

<stop  offset="24.313725490196077%" stop-color="#F4D7B7"/>

<stop  offset="63.92156862745098%" stop-color="#ECF4E8"/>

<stop  offset="83.52941176470588%" stop-color="#E9FFFB"/>
</linearGradient>

<g id="Layer2_0_MEMBER_0_FILL">
<path fill="url(#Gradient_1)" stroke="none" d="
M 269.1 129.6
Q 269.1 77.65 232.35 40.9 195.65 4.2 143.7 4.2 91.75 4.2 55 40.9 18.3 77.65 18.3 129.6 18.3 181.55 55 218.25 91.75 255 143.7 255 195.65 255 232.35 218.25 269.1 181.55 269.1 129.6 Z"/>
</g>

<g id="Layer2_1_FILL">
<path fill="#47B5C3" stroke="none" d="
M 1003.5 177.5
L 974.65 176.4 956.8 182.2 945.2 171.15 952.4 160.45 946.3 152.25 906.35 162.75 918.45 173.8 901.1 186.4 883.3 173.8 861.7 192.2 872.75 199 864.35 225.8 846 227.35 834.4 250.5 865.4 277.8 905.35 268.35 913.75 291.95 964.15 314.55 972.55 361.3 1010.9 397.5 978.3 426.95 1017.2 458.5 1051.3 407.55 1049.2 389.1 1098.55 363.9 1118 334.5 1120.65 291.95 1150.6 256.25 1148.5 232.6 1078.65 211.65 1043.95 193.2 1027.7 190.1 1031.4 179.55 1018.9 158.95 1003.5 177.5 Z"/>
</g>

<g id="Layer1_1_MEMBER_0_FILL">
<path fill="#0F5DA6" stroke="none" d="
M -102.1 133.3
Q -117.85 133.3 -129 144.4 -140.1 155.55 -140.1 171.3 -140.1 187.05 -129 198.15 -117.85 209.3 -102.1 209.3 -86.35 209.3 -75.25 198.15 -64.1 187.05 -64.1 171.3 -64.1 155.55 -75.25 144.4 -86.35 133.3 -102.1 133.3 Z"/>
</g>

<g id="Layer1_1_MEMBER_1_MEMBER_0_FILL">
<path fill="#47B5C3" stroke="none" d="
M 490 26.25
Q 490 22.65 487.45 20.1 484.85 17.5 481.25 17.5
L 358.75 17.5
Q 355.1 17.5 352.55 20.1 350 22.65 350 26.25
L 350 52.5 236.25 52.5
Q 232.6 52.5 230.05 55.1 227.5 57.65 227.5 61.25
L 227.5 175
Q 227.5 178.65 230.05 181.2 232.6 183.75 236.25 183.75 239.85 183.75 242.45 181.2 245 178.65 245 175
L 245 70 472.5 70 472.5 113.75
Q 472.5 117.4 475.05 119.95 477.6 122.5 481.25 122.5 484.85 122.5 487.45 119.95 490 117.4 490 113.75
L 490 26.25
M 472.5 35
L 472.5 52.5 367.5 52.5 367.5 35 472.5 35 Z"/>
</g>

<g id="Layer1_1_MEMBER_1_MEMBER_1_FILL">
<path fill="#47B5C3" stroke="none" d="
M 312.45 300.1
Q 309.85 297.5 306.25 297.5
L 271.25 297.5
Q 267.6 297.5 265.05 300.1 262.5 302.65 262.5 306.25
L 262.5 341.25
Q 262.5 344.9 265.05 347.45 267.6 350 271.25 350
L 306.25 350
Q 309.85 350 312.45 347.45 315 344.9 315 341.25
L 315 306.25
Q 315 302.65 312.45 300.1
M 297.5 315
L 297.5 332.5 280 332.5 280 315 297.5 315 Z"/>
</g>

<g id="Layer1_1_MEMBER_1_MEMBER_2_FILL">
<path fill="#47B5C3" stroke="none" d="
M 312.45 230.1
Q 309.85 227.5 306.25 227.5
L 271.25 227.5
Q 267.6 227.5 265.05 230.1 262.5 232.65 262.5 236.25
L 262.5 271.25
Q 262.5 274.9 265.05 277.45 267.6 280 271.25 280
L 306.25 280
Q 309.85 280 312.45 277.45 315 274.9 315 271.25
L 315 236.25
Q 315 232.65 312.45 230.1
M 297.5 245
L 297.5 262.5 280 262.5 280 245 297.5 245 Z"/>
</g>

<g id="Layer1_1_MEMBER_1_MEMBER_3_FILL">
<path fill="#47B5C3" stroke="none" d="
M 382.45 230.1
Q 379.85 227.5 376.25 227.5
L 341.25 227.5
Q 337.6 227.5 335.05 230.1 332.5 232.65 332.5 236.25
L 332.5 271.25
Q 332.5 274.9 335.05 277.45 337.6 280 341.25 280
L 376.25 280
Q 379.85 280 382.45 277.45 385 274.9 385 271.25
L 385 236.25
Q 385 232.65 382.45 230.1
M 367.5 245
L 367.5 262.5 350 262.5 350 245 367.5 245 Z"/>
</g>

<g id="Layer1_1_MEMBER_1_MEMBER_4_FILL">
<path fill="#47B5C3" stroke="none" d="
M 265.05 160.1
Q 262.5 162.65 262.5 166.25
L 262.5 201.25
Q 262.5 204.9 265.05 207.45 267.6 210 271.25 210
L 306.25 210
Q 309.85 210 312.45 207.45 315 204.9 315 201.25
L 315 166.25
Q 315 162.65 312.45 160.1 309.85 157.5 306.25 157.5
L 271.25 157.5
Q 267.6 157.5 265.05 160.1
M 280 192.5
L 280 175 297.5 175 297.5 192.5 280 192.5 Z"/>
</g>

<g id="Layer1_1_MEMBER_1_MEMBER_5_FILL">
<path fill="#47B5C3" stroke="none" d="
M 335.05 160.1
Q 332.5 162.65 332.5 166.25
L 332.5 201.25
Q 332.5 204.9 335.05 207.45 337.6 210 341.25 210
L 376.25 210
Q 379.85 210 382.45 207.45 385 204.9 385 201.25
L 385 166.25
Q 385 162.65 382.45 160.1 379.85 157.5 376.25 157.5
L 341.25 157.5
Q 337.6 157.5 335.05 160.1
M 350 192.5
L 350 175 367.5 175 367.5 192.5 350 192.5 Z"/>
</g>

<g id="Layer1_1_MEMBER_1_MEMBER_6_FILL">
<path fill="#47B5C3" stroke="none" d="
M 411.25 157.5
Q 407.6 157.5 405.05 160.1 402.5 162.65 402.5 166.25
L 402.5 201.25
Q 402.5 204.9 405.05 207.45 407.6 210 411.25 210
L 446.25 210
Q 449.85 210 452.45 207.45 455 204.9 455 201.25
L 455 166.25
Q 455 162.65 452.45 160.1 449.85 157.5 446.25 157.5
L 411.25 157.5
M 437.5 175
L 437.5 192.5 420 192.5 420 175 437.5 175 Z"/>
</g>

<g id="Layer1_1_MEMBER_1_MEMBER_7_FILL">
<path fill="#47B5C3" stroke="none" d="
M 265.05 90.1
Q 262.5 92.65 262.5 96.25
L 262.5 131.25
Q 262.5 134.9 265.05 137.45 267.6 140 271.25 140
L 306.25 140
Q 309.85 140 312.45 137.45 315 134.9 315 131.25
L 315 96.25
Q 315 92.65 312.45 90.1 309.85 87.5 306.25 87.5
L 271.25 87.5
Q 267.6 87.5 265.05 90.1
M 297.5 105
L 297.5 122.5 280 122.5 280 105 297.5 105 Z"/>
</g>

<g id="Layer1_1_MEMBER_1_MEMBER_8_FILL">
<path fill="#47B5C3" stroke="none" d="
M 335.05 90.1
Q 332.5 92.65 332.5 96.25
L 332.5 131.25
Q 332.5 134.9 335.05 137.45 337.6 140 341.25 140
L 376.25 140
Q 379.85 140 382.45 137.45 385 134.9 385 131.25
L 385 96.25
Q 385 92.65 382.45 90.1 379.85 87.5 376.25 87.5
L 341.25 87.5
Q 337.6 87.5 335.05 90.1
M 367.5 105
L 367.5 122.5 350 122.5 350 105 367.5 105 Z"/>
</g>

<g id="Layer1_1_MEMBER_1_MEMBER_9_FILL">
<path fill="#47B5C3" stroke="none" d="
M 411.25 87.5
Q 407.6 87.5 405.05 90.1 402.5 92.65 402.5 96.25
L 402.5 131.25
Q 402.5 134.9 405.05 137.45 407.6 140 411.25 140
L 446.25 140
Q 449.85 140 452.45 137.45 455 134.9 455 131.25
L 455 96.25
Q 455 92.65 452.45 90.1 449.85 87.5 446.25 87.5
L 411.25 87.5
M 437.5 105
L 437.5 122.5 420 122.5 420 105 437.5 105 Z"/>
</g>

<g id="Layer1_1_MEMBER_1_MEMBER_10_FILL">
<path fill="#47B5C3" stroke="none" d="
M 125.05 282.6
Q 122.5 285.15 122.5 288.75
L 122.5 323.75
Q 122.5 327.4 125.05 329.95 127.6 332.5 131.25 332.5
L 166.25 332.5
Q 169.85 332.5 172.45 329.95 175 327.4 175 323.75
L 175 288.75
Q 175 285.15 172.45 282.6 169.85 280 166.25 280
L 131.25 280
Q 127.6 280 125.05 282.6
M 140 315
L 140 297.5 157.5 297.5 157.5 315 140 315 Z"/>
</g>

<g id="Layer1_1_MEMBER_1_MEMBER_11_FILL">
<path fill="#47B5C3" stroke="none" d="
M 122.5 358.75
L 122.5 393.75
Q 122.5 397.4 125.05 399.95 127.6 402.5 131.25 402.5
L 166.25 402.5
Q 169.85 402.5 172.45 399.95 175 397.4 175 393.75
L 175 358.75
Q 175 355.15 172.45 352.6 169.85 350 166.25 350
L 131.25 350
Q 127.6 350 125.05 352.6 122.5 355.15 122.5 358.75
M 140 385
L 140 367.5 157.5 367.5 157.5 385 140 385 Z"/>
</g>

<g id="Layer1_1_MEMBER_1_MEMBER_12_FILL">
<path fill="#47B5C3" stroke="none" d="
M 557.45 142.6
Q 554.85 140 551.25 140
L 481.25 140
Q 477.6 140 475.05 142.6 472.5 145.15 472.5 148.75
L 472.5 250.55 467.65 256.2
Q 462.7 261.95 455 269.05
L 455 236.25
Q 455 232.65 452.45 230.1 449.85 227.5 446.25 227.5
L 411.25 227.5
Q 407.6 227.5 405.05 230.1 402.5 232.65 402.5 236.25
L 402.5 271.25
Q 402.5 274.9 405.05 277.45 407.6 280 411.25 280
L 441.15 280
Q 423.1 292.75 402.2 299.45 381 306.25 358.75 306.25 355.1 306.25 352.55 308.85 350 311.4 350 315
L 350 367.5 306.25 367.5
Q 302.6 367.5 300.05 370.1 297.5 372.65 297.5 376.25
L 297.5 472.5 245 472.5 245 210
Q 245 206.4 242.45 203.85 239.85 201.25 236.25 201.25 232.6 201.25 230.05 203.85 227.5 206.4 227.5 210
L 227.5 245 96.25 245
Q 92.6 245 90.05 247.6 87.5 250.15 87.5 253.75
L 87.5 481.25
Q 87.5 484.9 90.05 487.45 92.6 490 96.25 490
L 131.25 490
Q 134.85 490 137.45 487.45 140 484.9 140 481.25 140 477.65 137.45 475.1 134.85 472.5 131.25 472.5
L 105 472.5 105 262.5 227.5 262.5 227.5 280 201.25 280
Q 197.6 280 195.05 282.6 192.5 285.15 192.5 288.75
L 192.5 323.75
Q 192.5 327.4 195.05 329.95 197.6 332.5 201.25 332.5
L 227.5 332.5 227.5 350 201.25 350
Q 197.6 350 195.05 352.6 192.5 355.15 192.5 358.75
L 192.5 393.75
Q 192.5 397.4 195.05 399.95 197.6 402.5 201.25 402.5
L 227.5 402.5 227.5 420 166.25 420
Q 162.6 420 160.05 422.6 157.5 425.15 157.5 428.75
L 157.5 481.25
Q 157.5 484.9 160.05 487.45 162.6 490 166.25 490
L 354.35 490
Q 358 490 360.55 487.45 363.1 484.9 363.1 481.25 363.1 477.65 360.55 475.1 358 472.5 354.35 472.5
L 315 472.5 315 385 350 385 350 392.7
Q 350 427.9 367.75 458.55 385.5 489.15 416.1 506.65
L 476.9 541.35
Q 478.85 542.5 481.25 542.5 483.7 542.5 485.55 541.35
L 546.35 506.65
Q 576.95 489.15 594.75 458.5 612.5 427.9 612.5 392.65
L 612.5 350
Q 612.5 346.4 609.95 343.85 607.35 341.25 603.75 341.25 600.1 341.25 597.55 343.85 595 346.4 595 350
L 595 392.7
Q 595 423.2 579.6 449.75 564.15 476.3 537.65 491.45
L 481.25 523.7 424.8 491.45
Q 398.3 476.3 382.9 449.75 367.5 423.25 367.5 392.7
L 367.5 323.55
Q 400.35 321.75 429.85 307.2 459.4 292.65 480.95 267.6
L 481.25 267.2 481.55 267.6
Q 504.5 294.35 536.5 309.05 568.45 323.75 603.75 323.75 607.35 323.75 609.95 321.2 612.5 318.65 612.5 315 612.5 311.4 609.95 308.85 607.35 306.25 603.75 306.25 581.45 306.25 560 299.35
L 560 148.75
Q 560 145.15 557.45 142.6
M 490 175
L 490 157.5 542.5 157.5 542.5 175 490 175
M 490 192.5
L 542.5 192.5 542.5 210 490 210 490 192.5
M 420 245
L 437.5 245 437.5 262.5 420 262.5 420 245
M 542.5 227.5
L 542.5 245 490 245 490 227.5 542.5 227.5
M 542.5 262.5
L 542.5 292.5
Q 519.35 281.55 500.9 262.5
L 542.5 262.5
M 227.5 315
L 210 315 210 297.5 227.5 297.5 227.5 315
M 227.5 385
L 210 385 210 367.5 227.5 367.5 227.5 385
M 175 472.5
L 175 437.5 227.5 437.5 227.5 472.5 175 472.5 Z"/>
</g>

<g id="Layer1_1_MEMBER_1_MEMBER_13_FILL">
<path fill="#47B5C3" stroke="none" d="
M 392.1 338.15
Q 388.55 338.85 386.5 341.8 384.5 344.8 385.15 348.35 385.85 351.9 388.85 353.95 391.85 356.05 395.35 355.35 418.95 350.85 440.75 340.8 462.5 330.75 481.2 315.8 498.5 329.6 518.45 339.25 538.4 348.9 559.95 353.85
L 559.95 392.7
Q 559.95 413.85 549.3 432.2 538.65 450.55 520.3 461.05
L 481.2 483.4 442.15 461.05
Q 423.8 450.55 413.1 432.2 402.45 413.8 402.45 392.7
L 402.45 376.25
Q 402.45 372.65 399.9 370.1 397.367578125 367.5177734375 393.75 367.5
L 393.7 367.5
Q 390.08671875 367.5134765625 387.55 370.1 385 372.65 385 376.25
L 385 392.7
Q 385 418.55 398 441 411.05 463.45 433.5 476.25
L 476.9 501.05
Q 478.9 502.2 481.2 502.2 483.5 502.2 485.55 501.05
L 528.95 476.25
Q 551.4 463.45 564.45 441 577.45 418.55 577.45 392.7
L 577.45 346.75
Q 577.45 343.6 575.45 341.15 573.45 338.7 570.35 338.15 547.25 333.75 526 323.5 504.75 313.2 486.95 297.8 484.5 295.65 481.25 295.65 478 295.65 475.5 297.8 457.7 313.2 436.45 323.5 415.25 333.75 392.1 338.15 Z"/>
</g>

<g id="Layer1_1_MEMBER_1_MEMBER_14_FILL">
<path fill="#47B5C3" stroke="none" d="
M 525 367.5
Q 521.35 367.5 518.8 370.1
L 472.5 416.4 452.4 396.35
Q 449.85 393.75 446.25 393.75 442.6 393.75 440.05 396.35 437.45 398.9 437.45 402.55 437.45 406.15 440.05 408.7
L 466.3 434.95
Q 468.85 437.5 472.5 437.5 476.1 437.5 478.65 434.95
L 531.15 382.45
Q 533.75 379.9 533.75 376.3 533.75 372.65 531.15 370.1 528.6 367.5 525 367.5 Z"/>
</g>

<g id="Layer1_2_MEMBER_0_FILL">
<path fill="#0F5DA6" stroke="none" d="
M -102.1 133.3
Q -117.85 133.3 -129 144.4 -140.1 155.55 -140.1 171.3 -140.1 187.05 -129 198.15 -117.85 209.3 -102.1 209.3 -86.35 209.3 -75.25 198.15 -64.1 187.05 -64.1 171.3 -64.1 155.55 -75.25 144.4 -86.35 133.3 -102.1 133.3 Z"/>
</g>

<g id="Layer1_2_MEMBER_1_MEMBER_0_FILL">
<path fill="#47B5C3" stroke="none" d="
M 396.6 380.7
Q 392.65 385.05 386.8 385.05
L 312.45 385.05
Q 308.8 385.05 306.25 387.6 303.7 390.15 303.7 393.8 303.7 397.4 306.25 400 308.8 402.55 312.45 402.55
L 478.7 402.55
Q 481.8 402.55 484.3 400.5
L 570 329.05
Q 574.35 325.45 579.9 325.35 585.5 325.25 589.2 328.65 593.8 332.9 593.9 338.9 594.05 344.8 589.75 349.1
L 547.4 391.45
Q 544.8 394 544.8 397.65 544.8 401.25 547.4 403.8 549.95 406.4 553.6 406.4 557.2 406.4 559.75 403.8
L 602.1 361.5
Q 606.65 357 609.1 351 611.5 345 611.4 338.55 611.3 332.05 608.6 326.15 605.95 320.25 601.05 315.75
L 600.3 315.2 605.5 308.6
Q 612.35 299.9 612.45 288.8 612.6 277.7 605.95 268.85 601.9 263.45 596 260.1 590.15 256.75 583.45 256 576.75 255.25 570.3 257.25 563.8 259.2 558.7 263.55
L 528.85 288.9
Q 527.9 287.3 527.2 286.35 523.15 280.95 517.25 277.6 511.4 274.25 504.7 273.5 498 272.75 491.55 274.75 485.05 276.7 479.95 281.05
L 423.05 329.4
Q 420.3 331.75 420 335.35 419.75 339 422.05 341.75 424.7 344.85 428.75 344.85 431.95 344.85 434.4 342.75
L 491.25 294.4
Q 496.3 290.15 502.75 290.9 509.2 291.6 513.2 296.85 514.35 298.35 515.15 300.6
L 415.8 385.05 414.5 385.05
Q 418.2 377.25 417.3 368.75 416.15 357.2 406.95 349.25 397.8 341.3 385.6 341.3
L 326.8 341.3
Q 304.95 341.3 286.55 345.5 268.1 349.7 251.35 358.55
L 233.1 368.3
Q 183.5 394.5 146.05 436.4 108.6 478.3 88.1 530.6 86.75 533.95 88.2 537.25 89.65 540.6 93.05 541.9 94.5 542.55 96.25 542.55 98.85 542.55 101.1 541.05 103.35 539.5 104.35 537 123.75 487.6 159.1 448.05 194.45 408.5 241.3 383.75
L 259.55 374.05
Q 274.35 366.25 290.8 362.55 307.2 358.8 326.8 358.8
L 385.6 358.8
Q 391.1 358.8 395.25 362.2 399.4 365.6 399.9 370.5 400.45 376.45 396.6 380.7
M 475.5 385.05
L 442.8 385.05 570.05 276.9
Q 572.45 274.85 575.45 273.95 578.4 273.05 581.55 273.4 584.65 273.75 587.35 275.3 590.1 276.85 591.95 279.35 595.05 283.5 595 288.6 594.95 293.75 591.75 297.8
L 583.65 308.15
Q 577.1 307.4 570.75 309.25 564.15 311.15 558.85 315.55
L 475.5 385.05 Z"/>
</g>

<g id="Layer1_2_MEMBER_1_MEMBER_1_FILL">
<path fill="#47B5C3" stroke="none" d="
M 320.65 476.7
Q 301.85 479.2 286.8 490.85 271.8 502.5 264.75 520.1
L 260.55 530.5
Q 259.2 533.85 260.65 537.2 262.05 540.55 265.4 541.9 267 542.55 268.65 542.55 271.3 542.55 273.5 541.1 275.75 539.6 276.8 537.05
L 281 526.6
Q 286.3 513.4 297.55 504.65 308.8 495.95 322.9 494.05
L 450.25 477.45
Q 470.2 474.85 488.5 465.85 506.75 456.85 521 442.6
L 535 428.6
Q 537.6 426 537.6 422.4 537.6 418.8 535 416.2 532.45 413.65 528.85 413.65 525.2 413.65 522.65 416.2
L 508.65 430.2
Q 496.45 442.4 480.75 450.15 465.1 457.85 448 460.1
L 320.65 476.7 Z"/>
</g>

<g id="Layer1_2_MEMBER_1_MEMBER_2_FILL">
<path fill="#47B5C3" stroke="none" d="
M 492.55 182.85
Q 498.75 167.95 498.75 151.6 498.75 135.25 492.6 120.35 486.4 105.45 474.85 93.9 463.25 82.35 448.4 76.2 433.5 70 417.15 70 400.8 70 385.9 76.2 371 82.35 359.45 93.9
L 350 103.4 340.5 93.9
Q 328.95 82.35 314.05 76.2 299.15 70 282.8 70 266.45 70 251.55 76.2 236.7 82.35 225.1 93.9 213.55 105.5 207.4 120.35 201.25 135.25 201.25 151.6 201.25 167.95 207.4 182.85 213.55 197.75 225.1 209.3
L 253.65 237.85
Q 256.25 240.4 259.85 240.4 263.45 240.4 266.05 237.85 268.6 235.25 268.6 231.65 268.6 228.05 266.05 225.45
L 237.5 196.95
Q 228.4 187.85 223.55 176.15 218.7 164.45 218.7 151.6 218.7 138.8 223.55 127.1 228.4 115.4 237.5 106.3 246.6 97.2 258.3 92.35 270 87.5 282.8 87.5 295.65 87.5 307.35 92.35 319.05 97.2 328.15 106.3
L 343.8 121.95
Q 346.35 124.5 350 124.5 353.6 124.5 356.15 121.95
L 371.8 106.3
Q 380.9 97.2 392.6 92.35 404.3 87.5 417.15 87.5 429.95 87.5 441.7 92.35 453.35 97.2 462.45 106.3 471.5 115.35 476.35 127.1 481.2 138.75 481.2 151.6 481.2 164.45 476.35 176.15 471.5 187.9 462.45 196.95
L 369.55 289.85
Q 361.7 297.7 350 297.7 338.25 297.7 330.4 289.85
L 290.75 250.2
Q 288.2 247.65 284.6 247.65 280.95 247.65 278.4 250.2 275.85 252.8 275.85 256.4 275.85 260 278.4 262.6
L 318.05 302.2
Q 324.4 308.6 332.65 312.05 340.9 315.45 349.95 315.45 359 315.45 367.25 312.05 375.5 308.6 381.9 302.2
L 474.8 209.3
Q 486.4 197.75 492.55 182.85 Z"/>
</g>

<g id="Layer1_2_MEMBER_1_MEMBER_3_FILL">
<path fill="#47B5C3" stroke="none" d="
M 373.7 142.6
Q 371.1 140 367.5 140
L 332.5 140
Q 328.85 140 326.3 142.6 323.75 145.15 323.75 148.75
L 323.75 166.25 306.25 166.25
Q 302.6 166.25 300.05 168.85 297.5 171.4 297.5 175
L 297.5 210
Q 297.5 213.65 300.05 216.2 302.6 218.75 306.25 218.75
L 323.75 218.75 323.75 236.25
Q 323.75 239.9 326.3 242.45 328.85 245 332.5 245
L 367.5 245
Q 371.1 245 373.7 242.45 376.25 239.9 376.25 236.25
L 376.25 218.75 393.75 218.75
Q 397.35 218.75 399.95 216.2 402.5 213.65 402.5 210
L 402.5 175
Q 402.5 171.4 399.95 168.85 397.35 166.25 393.75 166.25
L 376.25 166.25 376.25 148.75
Q 376.25 145.15 373.7 142.6
M 358.75 175
Q 358.75 178.65 361.3 181.2 363.85 183.75 367.5 183.75
L 385 183.75 385 201.25 367.5 201.25
Q 363.85 201.25 361.3 203.85 358.75 206.4 358.75 210
L 358.75 227.5 341.25 227.5 341.25 210
Q 341.25 206.4 338.7 203.85 336.1 201.25 332.5 201.25
L 315 201.25 315 183.75 332.5 183.75
Q 336.1 183.75 338.7 181.2 341.25 178.65 341.25 175
L 341.25 157.5 358.75 157.5 358.75 175 Z"/>
</g>

<g id="Layer1_3_MEMBER_0_FILL">
<path fill="#0F5DA6" stroke="none" d="
M -102.1 133.3
Q -117.85 133.3 -129 144.4 -140.1 155.55 -140.1 171.3 -140.1 187.05 -129 198.15 -117.85 209.3 -102.1 209.3 -86.35 209.3 -75.25 198.15 -64.1 187.05 -64.1 171.3 -64.1 155.55 -75.25 144.4 -86.35 133.3 -102.1 133.3 Z"/>
</g>

<g id="Layer1_3_MEMBER_1_MEMBER_0_FILL">
<path fill="#47B5C3" stroke="none" d="
M 427.25 479.75
Q 437.5 469.5 437.5 455 437.5 440.55 427.25 430.25 417 420 402.5 420 388 420 377.75 430.25 367.5 440.5 367.5 455 367.5 469.5 377.75 479.75 388 490 402.5 490 417 490 427.25 479.75
M 420 455
Q 420 462.25 414.85 467.4 409.75 472.5 402.5 472.5 395.25 472.5 390.1 467.4 385 462.3 385 455 385 447.75 390.1 442.65 395.25 437.5 402.5 437.5 409.75 437.5 414.85 442.65 420 447.75 420 455 Z"/>
</g>

<g id="Layer1_3_MEMBER_1_MEMBER_1_FILL">
<path fill="#47B5C3" stroke="none" d="
M 494.8 54.95
L 487.9 46.85
Q 485.4 43.95 481.25 43.95 477.1 43.95 474.6 46.85
L 467.65 54.95
Q 455.15 69.5 439.35 80.2 423.7 90.8 405.75 97.05
L 407.6 90.3
Q 410.35 80.35 408.4 70.35 406.45 60.45 400.2 52.2 393.95 44 384.85 39.5 375.7 35 365.4 35
L 348.4 35
Q 345.6 27.25 339 22.45 332.15 17.5 323.75 17.5
L 306.25 17.5
Q 299 17.5 293.9 22.65 288.75 27.75 288.75 35
L 288.75 52.5
Q 288.75 59.75 293.9 64.9 299 70 306.25 70
L 323.75 70
Q 332.2 70 339 65.1 345.6 60.25 348.4 52.5
L 365.4 52.5
Q 371.6 52.5 377.05 55.2 382.5 57.95 386.3 62.85 390.05 67.75 391.2 73.75 392.35 79.7 390.75 85.7
L 386.2 102.2
Q 372.3 105 358.75 105 355.1 105 352.55 107.6 350 110.15 350 113.75
L 350 166.25
Q 340.05 190.2 318.6 204.45 297.15 218.75 271.25 218.75 242.8 218.75 220.25 202 197.7 185.25 189.5 158
L 183.35 137.5
Q 182.4 134.15 179.3 132.45 176.25 130.7 172.85 131.55
L 164.8 133.55 151.75 85.7
Q 150.1 79.7 151.3 73.75 152.45 67.75 156.2 62.85 159.95 57.95 165.4 55.2 170.85 52.5 177.05 52.5
L 194.1 52.5
Q 196.85 60.25 203.5 65.1 210.3 70 218.75 70
L 236.25 70
Q 243.5 70 248.6 64.9 253.75 59.75 253.75 52.5
L 253.75 35
Q 253.75 27.75 248.6 22.65 243.5 17.5 236.25 17.5
L 218.75 17.5
Q 210.35 17.5 203.5 22.45 196.85 27.25 194.1 35
L 177.05 35
Q 166.75 35 157.65 39.5 148.55 44 142.3 52.2 136.05 60.4 134.1 70.35 132.15 80.3 134.85 90.3
L 147.8 137.8 137.85 140.3
Q 134.25 141.15 132.35 144.5 130.5 147.8 131.65 151.35
L 138.35 173.15
Q 147.6 203 168.25 225.7 170.7 228.4 174.3 228.55 177.95 228.75 180.65 226.3 183.3 223.85 183.5 220.25 183.65 216.6 181.2 213.95 163.15 194.1 155.1 168
L 151.1 155.05 169 150.55 172.75 163
Q 182.6 195.9 209.8 216.05 236.95 236.25 271.25 236.25 294.45 236.25 315.25 226.45 335.75 216.75 350.25 199.3 350.9 210.15 353.55 221.45 337.25 236.55 317.45 244.65 290.15 255.8 260.45 253.2 230.85 250.55 206.15 235 203.05 233.1 199.55 233.9 196 234.7 194.1 237.75 192.15 240.8 192.95 244.35 193.8 247.9 196.85 249.8 219.05 263.85 245 268.7
L 245 288.75 192.5 288.75
Q 171.2 288.75 151.65 297 132.85 305 118.3 319.55 103.75 334.1 95.75 352.95 87.5 372.45 87.5 393.75 87.5 413.15 94.35 431.15 101.15 449.15 114 463.55 116.65 466.5 120.55 466.5 123.85 466.5 126.4 464.25 129.1 461.85 129.3 458.25 129.5 454.6 127.1 451.9 116.4 439.95 110.7 424.95 105 409.9 105 393.75 105 376 111.9 359.75 118.55 344.05 130.65 331.95 142.8 319.8 158.45 313.15 174.75 306.25 192.5 306.25
L 323.75 306.25
Q 357.7 306.25 382.75 329.25 407.65 352.1 410.8 385.55 405.85 385 402.5 385 398.5 385 393.25 385.7 390.2 359.45 370.45 341.7 350.5 323.75 323.75 323.75
L 192.5 323.75
Q 178.3 323.75 165.3 329.25 152.75 334.6 143.05 344.3 133.35 354 128 366.55 122.5 379.55 122.5 393.75 122.5 422.7 143.05 443.25 152.7 452.9 165.3 458.25 178.3 463.75 192.5 463.75 206.7 463.75 219.7 458.25 232.3 452.9 242 443.25 251.65 433.55 257 420.95 262.5 407.95 262.5 393.75
L 262.5 341.25 280 341.25 280 393.75
Q 280 411.5 273.1 427.8 266.45 443.5 254.35 455.6 242.25 467.7 226.55 474.35 210.25 481.25 192.5 481.25 170.9 481.25 152.25 471.5 149 469.85 145.6 470.9 142.15 472 140.45 475.2 138.75 478.45 139.85 481.85 140.95 485.3 144.15 487 155.15 492.75 167.5 495.75 179.8 498.75 192.5 498.75 213.85 498.75 233.35 490.5 252.15 482.5 266.7 467.95 281.25 453.4 289.25 434.6 297.5 415.1 297.5 393.75
L 297.5 341.25 323.75 341.25
Q 344.5 341.25 359.65 355.5 374.7 369.7 376.05 390.25 356.65 398.2 344.7 415.6 332.5 433.4 332.5 455 332.5 483.95 353.05 504.5 362.7 514.15 375.3 519.5 388.3 525 402.5 525 420.3 525 435.8 516.6 439 514.9 440 511.4 441.05 507.95 439.3 504.75 437.6 501.55 434.1 500.5 430.65 499.5 427.45 501.2 415.9 507.5 402.5 507.5 380.8 507.5 365.4 492.15 350 476.75 350 455 350 433.3 365.4 417.9 380.8 402.5 402.5 402.5 424.2 402.5 439.6 417.9 455 433.3 455 455 455 468.3 448.7 480 446.95 483.2 448 486.65 449 490.1 452.2 491.85 455.4 493.6 458.85 492.55 462.35 491.55 464.05 488.35 472.5 472.75 472.5 455 472.5 433.3 460.15 415.45 448.15 398 428.55 390.1 427.85 369.35 419.3 350.55 411.1 332.35 396.65 318.4 382.25 304.4 363.75 296.75 344.6 288.8 323.75 288.8
L 297.5 288.8 297.5 268.75
Q 311.15 266.1 324.05 260.8 343.1 253.05 359.3 239.7 367.45 260.35 381.95 277.15 396.6 294.25 416.1 305.4
L 476.9 340.1
Q 478.95 341.3 481.25 341.3 483.6 341.3 485.55 340.1
L 546.35 305.4
Q 576.95 287.95 594.75 257.3 612.5 226.65 612.5 191.45
L 612.5 148.75
Q 612.5 145.15 609.95 142.6 607.35 140 603.75 140 600.1 140 597.55 142.6 595 145.15 595 148.75
L 595 191.45
Q 595 221.95 579.6 248.5 564.15 275.05 537.65 290.2
L 481.25 322.45 424.8 290.2
Q 398.3 275.05 382.9 248.5 367.5 222 367.5 191.45
L 367.5 122.3
Q 400.35 120.5 429.85 105.95 459.4 91.4 480.95 66.35
L 481.25 65.95 481.55 66.35
Q 504.5 93.1 536.5 107.8 568.45 122.5 603.75 122.5 607.35 122.5 609.95 119.95 612.5 117.4 612.5 113.75 612.5 110.15 609.95 107.6 607.35 105 603.75 105 572.3 105 543.8 91.9 515.3 78.8 494.8 54.95
M 329.95 37.6
Q 332.5 40.15 332.5 43.75 332.5 47.4 329.95 49.95 327.35 52.5 323.75 52.5
L 306.25 52.5 306.25 35 323.75 35
Q 327.35 35 329.95 37.6
M 140 393.75
Q 140 372.05 155.4 356.65 170.75 341.25 192.5 341.25
L 245 341.25 245 393.75
Q 245 415.5 229.6 430.9 214.2 446.25 192.5 446.25 170.75 446.25 155.4 430.9 140 415.5 140 393.75
M 280 270.85
L 280 288.75 262.5 288.75 262.5 270.95
Q 266.85 271.25 271.25 271.25 274.1 271.25 280 270.85
M 218.7 35
L 236.25 35 236.25 52.5 218.7 52.5
Q 215.1 52.5 212.55 49.95 209.95 47.4 209.95 43.75 209.95 40.15 212.55 37.6 215.1 35 218.7 35 Z"/>
</g>

<g id="Layer1_3_MEMBER_1_MEMBER_2_FILL">
<path fill="#47B5C3" stroke="none" d="
M 559.95 152.6
L 559.95 191.45
Q 559.95 212.6 549.3 230.95 538.65 249.3 520.3 259.8
L 481.2 282.15 442.15 259.8
Q 423.8 249.3 413.1 230.95 402.45 212.55 402.45 191.45
L 402.45 175
Q 402.45 171.4 399.9 168.85 397.367578125 166.2677734375 393.75 166.25
L 393.7 166.25
Q 390.08671875 166.2634765625 387.55 168.85 385 171.4 385 175
L 385 191.45
Q 385 217.3 398 239.75 411.05 262.2 433.5 275
L 476.9 299.8
Q 478.9 300.95 481.2 300.95 483.5 300.95 485.55 299.8
L 528.95 275
Q 551.4 262.2 564.45 239.75 577.45 217.3 577.45 191.45
L 577.45 145.5
Q 577.45 142.35 575.45 139.9 573.45 137.45 570.35 136.9 547.25 132.5 526 122.25 504.75 111.95 486.95 96.55 484.5 94.4 481.25 94.4 478 94.4 475.5 96.55 457.7 111.95 436.45 122.25 415.25 132.5 392.1 136.9 388.55 137.6 386.5 140.55 384.5 143.55 385.15 147.1 385.85 150.65 388.85 152.75 391.85 154.8 395.35 154.1 418.95 149.6 440.75 139.55 462.5 129.5 481.2 114.55 498.5 128.35 518.45 138 538.4 147.65 559.95 152.6 Z"/>
</g>

<g id="Layer1_3_MEMBER_1_MEMBER_3_FILL">
<path fill="#47B5C3" stroke="none" d="
M 525 166.25
Q 521.35 166.25 518.8 168.85
L 472.5 215.15 452.4 195.1
Q 449.85 192.5 446.25 192.5 442.6 192.5 440.05 195.1 437.45 197.65 437.45 201.3 437.45 204.9 440.05 207.45
L 466.3 233.7
Q 468.85 236.25 472.5 236.25 476.1 236.25 478.65 233.7
L 531.15 181.2
Q 533.75 178.65 533.75 175.05 533.75 171.4 531.15 168.85 528.6 166.25 525 166.25 Z"/>
</g>

<g id="Layer1_3_MEMBER_1_MEMBER_4_FILL">
<path fill="#47B5C3" stroke="none" d="
M 492.55 374.5
Q 490 377.05 490 380.65
L 490 424.4
Q 490 428.05 492.55 430.6 495.1 433.15 498.75 433.15
L 520.6 433.15 520.6 455.05
Q 520.6 458.65 523.15 461.25 525.7 463.8 529.35 463.8
L 573.1 463.8
Q 576.75 463.8 579.3 461.25 581.85 458.65 581.85 455.05
L 581.85 433.15 603.75 433.15
Q 607.35 433.15 609.95 430.6 612.5 428.05 612.5 424.4
L 612.5 380.65
Q 612.5 377.05 609.95 374.5 607.35 371.9 603.75 371.9
L 581.85 371.9 581.85 350.05
Q 581.85 346.4 579.3 343.85 576.75 341.3 573.1 341.3
L 529.35 341.3
Q 525.7 341.3 523.15 343.85 520.6 346.4 520.6 350.05
L 520.6 371.9 498.75 371.9
Q 495.1 371.9 492.55 374.5
M 564.35 380.65
Q 564.35 384.3 566.9 386.85 569.45 389.4 573.1 389.4
L 595 389.4 595 415.65 573.1 415.65
Q 569.45 415.65 566.9 418.25 564.35 420.8 564.35 424.4
L 564.35 446.3 538.1 446.3 538.1 424.4
Q 538.1 420.8 535.55 418.25 533 415.65 529.35 415.65
L 507.5 415.65 507.5 389.4 529.35 389.4
Q 533 389.4 535.55 386.85 538.1 384.3 538.1 380.65
L 538.1 358.8 564.35 358.8 564.35 380.65 Z"/>
</g>

<g id="Layer1_4_MEMBER_0_FILL">
<path fill="#0F5DA6" stroke="none" d="
M -102.1 133.3
Q -117.85 133.3 -129 144.4 -140.1 155.55 -140.1 171.3 -140.1 187.05 -129 198.15 -117.85 209.3 -102.1 209.3 -86.35 209.3 -75.25 198.15 -64.1 187.05 -64.1 171.3 -64.1 155.55 -75.25 144.4 -86.35 133.3 -102.1 133.3 Z"/>
</g>

<g id="Layer1_4_MEMBER_1_MEMBER_0_FILL">
<path fill="#47B5C3" stroke="none" d="
M 463.4 326.85
Q 465.95 329.4 469.55 329.4
L 501.4 329.4 501.4 361.25
Q 501.4 364.9 503.95 367.45 506.5 370 510.15 370 513.75 370 516.35 367.45 518.9 364.9 518.9 361.25
L 518.9 329.4 550.7 329.4
Q 554.35 329.4 556.9 326.85 559.45 324.3 559.45 320.65 559.45 317.05 556.9 314.5 554.35 311.9 550.7 311.9
L 518.9 311.9 518.9 280.1
Q 518.9 276.45 516.35 273.9 513.75 271.35 510.15 271.35 506.5 271.35 503.95 273.9 501.4 276.45 501.4 280.1
L 501.4 311.9 469.55 311.9
Q 465.95 311.9 463.4 314.5 460.8 317.05 460.8 320.65 460.8 324.3 463.4 326.85 Z"/>
</g>

<g id="Layer1_4_MEMBER_1_MEMBER_1_FILL">
<path fill="#47B5C3" stroke="none" d="
M 247.85 456.4
Q 250.3 453.8 250.2 450.2 250.1 446.6 247.45 444.1 239.95 437.1 230.1 434.2 220.2 431.25 210.1 433.1
L 115.35 449.8
Q 104.5 451.7 95.8 458.55 87.15 465.4 82.8 475.55 78.4 485.65 79.35 496.7 80.3 507.65 86.35 516.9 92.4 526.1 102.15 531.35 111.8 536.6 122.85 536.65 127 536.65 130.55 535.95
L 169.1 529.15
Q 172.6 528.45 174.6 525.5 176.6 522.6 175.95 519.1 175.35 515.6 172.45 513.5 169.6 511.45 166.05 511.95
L 166.1 511.95 127.5 518.75
Q 120.6 519.9 114.05 517.45 107.45 515 103 509.65 98.55 504.3 97.3 497.4 96.1 490.5 98.45 483.95 100.85 477.35 106.2 472.85 111.5 468.35 118.4 467.05
L 213.15 450.35
Q 219.2 449.25 225.15 450.95 231.05 452.7 235.6 456.95 238.25 459.35 241.85 459.2 245.4 459.05 247.85 456.4 Z"/>
</g>

<g id="Layer1_4_MEMBER_1_MEMBER_2_FILL">
<path fill="#47B5C3" stroke="none" d="
M 579.2 2.05
Q 574.4 0.05 569.15 0
L 344.4 0
Q 339.15 0.05 334.35 2.05 329.5 4.05 325.8 7.7 322.1 11.4 320.15 16.25 318.15 21.05 318.15 26.25
L 318.15 89.3
Q 318.15 92.95 320.7 95.5 323.25 98.05 326.9 98.05
L 350.6 98.05 350.6 124.3
Q 338.6 125.9 327.9 131.65 317.25 137.35 309.25 146.45 301.3 155.6 297.05 166.9 292.75 178.25 292.75 190.3
L 292.75 472.5 233.5 472.5
Q 221.75 472.5 211.6 478.35 201.45 484.25 195.6 494.4 189.7 504.55 189.7 516.3 189.7 528 195.6 538.15 201.45 548.3 211.6 554.15 221.75 560 233.5 560
L 329.75 560
Q 337.3 560 344.4 557.45 351.55 554.9 357.4 550.15 363.25 545.35 367.15 538.9 371.05 532.45 372.6 525
L 601.85 525
Q 605.65 525 609.1 523.6 612.6 522.15 615.25 519.5 617.9 516.85 619.35 513.35 620.75 509.9 620.8 506.15
L 620.8 190.35
Q 620.75 178.4 616.6 167.2 612.4 156 604.6 146.95 596.8 137.85 586.35 132.1 575.9 126.3 564.1 124.55
L 564.1 98.05 586.65 98.05
Q 590.3 98.05 592.85 95.5 595.4 92.85 595.4 89.3
L 595.4 26.25
Q 595.4 21.05 593.4 16.25 591.4 11.45 587.7 7.7 584.05 4.05 579.2 2.05
M 575.35 20.1
Q 577.9 22.65 577.9 26.25
L 577.9 80.55 552.1 80.55 552.1 70.85
Q 552.1 67.2 549.55 64.65 547 62.1 543.35 62.1 539.7 62.1 537.15 64.65 534.6 67.2 534.6 70.85
L 534.6 80.55 508.8 80.55 508.8 70.85
Q 508.8 67.2 506.25 64.65 503.7 62.1 500.05 62.1 496.4 62.1 493.85 64.65 491.3 67.2 491.3 70.85
L 491.3 80.55 465.5 80.55 465.5 70.85
Q 465.5 67.2 462.95 64.65 460.4 62.1 456.75 62.1 453.1 62.1 450.55 64.65 448 67.2 448 70.85
L 448 80.55 422.2 80.55 422.2 70.85
Q 422.2 67.2 419.65 64.65 417.1 62.1 413.45 62.1 409.8 62.1 407.25 64.65 404.7 67.2 404.7 70.85
L 404.7 80.55 378.9 80.55 378.9 70.85
Q 378.9 67.2 376.35 64.65 373.8 62.1 370.15 62.1 366.55 62.1 364 64.65 361.4 67.2 361.4 70.85
L 361.4 80.55 335.6 80.55 335.6 26.25
Q 335.65 22.65 338.2 20.1 340.75 17.55 344.35 17.5
L 569.15 17.5
Q 572.8 17.55 575.35 20.1
M 417 227.55
L 603.3 227.55 603.3 413.8 417 413.8 417 227.55
M 220.35 493.55
Q 226.45 490 233.5 490
L 329.75 490
Q 336.75 490 342.85 493.55 348.9 497.05 352.45 503.15 356 509.25 356 516.3 356 523.35 352.45 529.4 348.95 535.5 342.85 539 336.75 542.5 329.75 542.5
L 233.5 542.5
Q 226.45 542.5 220.35 539 214.3 535.5 210.75 529.4 207.25 523.35 207.25 516.3 207.25 509.25 210.75 503.15 214.3 497.05 220.35 493.55
M 599.55 171.55
Q 603.25 180.55 603.25 190.3
L 603.25 210.05 408.25 210.05
Q 404.6 210.05 402.05 212.6 399.5 215.15 399.5 218.8
L 399.5 422.55
Q 399.5 426.1 402.05 428.75 404.6 431.3 408.25 431.3
L 603.25 431.3 603.25 506.1
Q 603.25 506.7 602.85 507.1 602.466796875 507.483203125 601.9 507.5
L 372.6 507.5
Q 371.05 500.1 367.15 493.65 363.25 487.2 357.4 482.4 351.5 477.65 344.4 475.1 337.3 472.55 329.75 472.5
L 310.25 472.5 310.25 190.3
Q 310.25 180.55 314 171.55 317.75 162.5 324.65 155.6 331.55 148.7 340.55 144.95 349.55 141.25 359.35 141.2
L 368.1 141.2 368.1 98.05 546.6 98.05 546.6 123.7 456.75 123.7
Q 453.1 123.7 450.55 126.3 448 128.85 448 132.45 448 136.1 450.55 138.65 453.1 141.2 456.75 141.2
L 554.15 141.2
Q 563.95 141.25 572.95 144.95 581.95 148.7 588.9 155.6 595.8 162.5 599.55 171.55 Z"/>
</g>

<g id="Layer1_5_MEMBER_0_FILL">
<path fill="#0F5DA6" stroke="none" d="
M -129 144.4
Q -140.1 155.55 -140.1 171.3 -140.1 187.05 -129 198.15 -117.85 209.3 -102.1 209.3 -86.35 209.3 -75.25 198.15 -64.1 187.05 -64.1 171.3 -64.1 155.55 -75.25 144.4 -86.35 133.3 -102.1 133.3 -117.85 133.3 -129 144.4 Z"/>
</g>

<g id="Layer1_5_MEMBER_1_MEMBER_0_FILL">
<path fill="#47B5C3" stroke="none" d="
M 96.25 192.55
Q 92.6 192.55 90.05 195.1 87.5 197.65 87.5 201.3
L 87.5 498.8
Q 87.5 502.4 90.05 505 92.6 507.55 96.25 507.55
L 428.75 507.55
Q 432.35 507.55 434.95 505 437.5 502.4 437.5 498.8
L 437.5 423.6
Q 437.5 420 434.95 417.45 432.35 414.85 428.75 414.85 425.1 414.85 422.55 417.45 420 420 420 423.6
L 420 490.05 105 490.05 105 201.3
Q 105 197.65 102.45 195.1 99.85 192.55 96.25 192.55 Z"/>
</g>

<g id="Layer1_5_MEMBER_1_MEMBER_1_FILL">
<path fill="#47B5C3" stroke="none" d="
M 350 175
Q 369.55 175 387.4 182.6 404.7 189.9 418 203.25 431.35 216.55 438.65 233.85 446.25 251.7 446.25 271.25 446.25 290.8 438.65 308.7 431.35 325.95 418 339.3 404.7 352.6 387.4 359.95 369.55 367.5 350 367.5 328.4 367.5 309 358.4 289.6 349.25 275.8 332.6 273.5 329.8 269.9 329.5 266.25 329.15 263.5 331.45 260.7 333.8 260.4 337.4 260.05 341 262.35 343.75 278.6 363.45 301.55 374.2 324.5 385 350 385 373.1 385 394.25 376.05 414.65 367.4 430.4 351.65 446.15 335.9 454.8 315.5 463.75 294.35 463.75 271.25 463.75 248.15 454.8 227.05 446.15 206.6 430.4 190.85 414.65 175.1 394.25 166.45 373.1 157.5 350 157.5 326.9 157.5 305.75 166.45 285.35 175.1 269.6 190.85 253.85 206.6 245.2 227.05 236.25 248.15 236.25 271.25 236.25 291.55 243.45 310.9 244.75 314.3 248.05 315.8 251.35 317.3 254.7 316 258.1 314.75 259.6 311.45 261.15 308.15 259.85 304.75 253.75 288.35 253.75 271.25 253.75 251.7 261.3 233.85 268.65 216.55 281.95 203.25 295.3 189.9 312.55 182.6 330.45 175 350 175 Z"/>
</g>

<g id="Layer1_5_MEMBER_1_MEMBER_2_FILL">
<path fill="#47B5C3" stroke="none" d="
M 343.8 195.1
L 342.3 196.6
Q 331.6 207.3 317.75 213.05 303.9 218.75 288.75 218.75 285.1 218.75 282.55 221.35 280 223.9 280 227.5
L 280 275.8
Q 280 292.25 288.3 306.55 296.55 320.85 310.85 329
L 345.65 348.85
Q 347.6 350 350 350 352.35 350 354.3 348.85
L 389.1 329
Q 403.4 320.85 411.7 306.55 420 292.25 420 275.8
L 420 227.5
Q 420 223.9 417.45 221.35 414.85 218.75 411.25 218.75 396.05 218.75 382.2 213.05 368.35 207.3 357.65 196.6
L 356.15 195.1
Q 353.6 192.5 350 192.5 346.35 192.5 343.8 195.1
M 374.45 228.75
Q 387.85 234.5 402.5 235.85
L 402.5 275.8
Q 402.5 287.55 396.6 297.75 390.65 307.95 380.45 313.8
L 350 331.2 319.5 313.8
Q 309.3 307.95 303.4 297.75 297.5 287.55 297.5 275.8
L 297.5 235.85
Q 312.1 234.5 325.5 228.75 338.9 223 350 213.35 361.05 223 374.45 228.75 Z"/>
</g>

<g id="Layer1_5_MEMBER_1_MEMBER_3_FILL">
<path fill="#47B5C3" stroke="none" d="
M 326.3 277.45
L 343.8 294.95
Q 346.4 297.55 349.95 297.55 353.55 297.55 356.15 294.95
L 382.4 268.7
Q 385 266.15 385 262.55 385 258.9 382.4 256.35 379.85 253.75 376.25 253.75 372.6 253.75 370.05 256.35
L 349.95 276.4 338.65 265.1
Q 336.1 262.5 332.5 262.5 328.85 262.5 326.3 265.1 323.7 267.65 323.7 271.3 323.7 274.9 326.3 277.45 Z"/>
</g>

<g id="Layer1_5_MEMBER_1_MEMBER_4_FILL">
<path fill="#47B5C3" stroke="none" d="
M 434.95 20.1
Q 432.35 17.55 428.75 17.55
L 96.25 17.55
Q 92.6 17.55 90.05 20.1 87.5 22.65 87.5 26.3
L 87.5 166.3
Q 87.5 169.9 90.05 172.5 92.6 175.05 96.25 175.05 99.85 175.05 102.45 172.5 105 169.9 105 166.3
L 105 35.05 420 35.05 420 140.05
Q 404 131.5 386.4 127.05 368.55 122.55 350 122.55 313.7 122.55 281.65 139.3 250.7 155.45 229.95 183.8
L 166.25 183.8
Q 162.6 183.8 160.05 186.35 157.5 188.9 157.5 192.55 157.5 196.15 160.05 198.75 162.6 201.3 166.25 201.3
L 218.8 201.3
Q 214.7 209 211 218.8
L 140 218.8
Q 136.35 218.8 133.8 221.35 131.25 223.9 131.25 227.55 131.25 231.15 133.8 233.75 136.35 236.3 140 236.3
L 205.55 236.3
Q 203.35 245.2 202.35 253.8
L 140 253.8
Q 136.35 253.8 133.8 256.35 131.25 258.9 131.25 262.55 131.25 266.15 133.8 268.75 136.35 271.3 140 271.3
L 201.25 271.3
Q 201.25 279.75 202.35 288.8
L 140 288.8
Q 136.35 288.8 133.8 291.35 131.25 293.9 131.25 297.55 131.25 301.15 133.8 303.75 136.35 306.3 140 306.3
L 205.55 306.3
Q 207.65 314.9 211 323.8
L 140 323.8
Q 136.35 323.8 133.8 326.35 131.25 328.9 131.25 332.55 131.25 336.15 133.8 338.75 136.35 341.3 140 341.3
L 218.75 341.3 218.8 341.25
Q 223.2 349.6 229.95 358.8
L 140 358.8
Q 136.35 358.8 133.8 361.35 131.25 363.9 131.25 367.55 131.25 371.15 133.8 373.75 136.35 376.3 140 376.3
L 244.75 376.3
Q 254.4 385.95 265.8 393.8
L 140 393.8
Q 136.35 393.8 133.8 396.35 131.25 398.9 131.25 402.55 131.25 406.15 133.8 408.75 136.35 411.3 140 411.3
L 300.2 411.3
Q 324.8 420.05 350 420.05 373.2 420.05 395.2 413 416.4 406.15 434.85 393.3
L 468.15 426.55
Q 467.15 430.2 467.15 433.3 467.15 438.55 469.15 443.35 471.15 448.15 474.85 451.85
L 549.1 526.1
Q 552.85 529.85 557.8 531.85 562.5 533.75 567.65 533.75 572.8 533.75 577.55 531.85 582.45 529.85 586.2 526.1
L 604.8 507.55
Q 612.45 499.85 612.45 489 612.45 478.1 604.8 470.4
L 582.7 448.3
Q 580.1 445.75 576.5 445.75 572.9 445.75 570.3 448.3 567.75 450.9 567.75 454.5 567.75 458.1 570.3 460.7
L 592.4 482.8
Q 595 485.35 595 489 595 492.6 592.4 495.15
L 573.85 513.7
Q 571.3 516.25 567.65 516.25 564.05 516.3 561.45 513.7
L 487.25 439.5
Q 484.7 436.85 484.7 433.3 484.7 429.65 487.25 427.1
L 505.8 408.55
Q 508.3 406.1 512 406.1 515.7 406.1 518.15 408.55
L 545.55 435.95
Q 548.15 438.5 551.75 438.5 555.4 438.5 557.95 435.95 560.5 433.35 560.5 429.75 560.5 426.15 557.95 423.55
L 530.55 396.15
Q 525.7 391.35 518.8 389.65 512.15 388 505.4 389.6
L 471.95 356.15
Q 484.85 337.7 491.65 316.5 498.75 294.5 498.75 271.3 498.75 241.3 487.1 213.55 485.7 210.2 482.35 208.85 479 207.5 475.65 208.9 472.3 210.35 470.95 213.65 469.6 217 471 220.35 481.25 244.7 481.25 271.3 481.25 297.95 470.9 322.35 460.95 345.9 442.75 364.05 424.6 382.25 401.05 392.2 376.65 402.55 350 402.55 323.35 402.55 298.95 392.2 275.4 382.25 257.25 364.05 239.05 345.9 229.1 322.35 218.75 297.95 218.75 271.3 218.75 244.65 229.1 220.25 239.05 196.7 257.25 178.55 275.4 160.35 298.95 150.4 323.35 140.05 350 140.05 380.95 140.05 408.25 153.65 435.6 167.25 454.45 192.05 456.65 194.95 460.2 195.45 463.8 195.9 466.7 193.7 469.6 191.55 470.1 187.95 470.55 184.35 468.35 181.45 455 163.9 437.5 151.05
L 437.5 26.3
Q 437.5 22.65 434.95 20.1
M 448.65 382.3
Q 455.15 376.45 461 369.95
L 490.35 399.25 477.95 411.65 448.65 382.3 Z"/>
</g>

<g id="Layer1_5_MEMBER_1_MEMBER_5_FILL">
<path fill="#47B5C3" stroke="none" d="
M 201.25 61.25
Q 201.25 57.65 198.7 55.1 196.1 52.5 192.5 52.5
L 157.5 52.5
Q 153.85 52.5 151.3 55.1 148.75 57.65 148.75 61.25
L 148.75 78.75 131.25 78.75
Q 127.6 78.75 125.05 81.35 122.5 83.9 122.5 87.5
L 122.5 122.5
Q 122.5 126.15 125.05 128.7 127.6 131.25 131.25 131.25
L 148.75 131.25 148.75 148.75
Q 148.75 152.4 151.3 154.95 153.85 157.5 157.5 157.5
L 192.5 157.5
Q 196.1 157.5 198.7 154.95 201.25 152.4 201.25 148.75
L 201.25 131.25 218.75 131.25
Q 222.35 131.25 224.95 128.7 227.5 126.15 227.5 122.5
L 227.5 87.5
Q 227.5 83.9 224.95 81.35 222.35 78.75 218.75 78.75
L 201.25 78.75 201.25 61.25
M 163.7 93.7
Q 166.25 91.15 166.25 87.5
L 166.25 70 183.75 70 183.75 87.5
Q 183.75 91.15 186.3 93.7 188.85 96.25 192.5 96.25
L 210 96.25 210 113.75 192.5 113.75
Q 188.85 113.75 186.3 116.35 183.75 118.9 183.75 122.5
L 183.75 140 166.25 140 166.25 122.5
Q 166.25 118.9 163.7 116.35 161.1 113.75 157.5 113.75
L 140 113.75 140 96.25 157.5 96.25
Q 161.1 96.25 163.7 93.7 Z"/>
</g>

<g id="Layer1_5_MEMBER_1_MEMBER_6_FILL">
<path fill="#47B5C3" stroke="none" d="
M 332.5 87.5
Q 332.5 83.9 329.95 81.35 327.35 78.75 323.75 78.75
L 253.75 78.75
Q 250.1 78.75 247.55 81.35 245 83.9 245 87.5 245 91.15 247.55 93.7 250.1 96.25 253.75 96.25
L 323.75 96.25
Q 327.35 96.25 329.95 93.7 332.5 91.15 332.5 87.5 Z"/>
</g>

<g id="Layer1_5_MEMBER_1_MEMBER_7_FILL">
<path fill="#47B5C3" stroke="none" d="
M 280 122.5
Q 280 118.9 277.45 116.35 274.85 113.75 271.25 113.75
L 253.75 113.75
Q 250.1 113.75 247.55 116.35 245 118.9 245 122.5 245 126.15 247.55 128.7 250.1 131.25 253.75 131.25
L 271.25 131.25
Q 274.85 131.25 277.45 128.7 280 126.15 280 122.5 Z"/>
</g>

<g id="Layer1_5_MEMBER_1_MEMBER_8_FILL">
<path fill="#47B5C3" stroke="none" d="
M 268.7 431.35
Q 266.1 428.75 262.5 428.75
L 140 428.75
Q 136.35 428.75 133.8 431.35 131.25 433.9 131.25 437.5 131.25 441.15 133.8 443.7 136.35 446.25 140 446.25
L 262.5 446.25
Q 266.1 446.25 268.7 443.7 271.25 441.15 271.25 437.5 271.25 433.9 268.7 431.35 Z"/>
</g>

<g id="Layer1_8_FILL">
<path fill="#0F5DA6" stroke="none" d="
M 88.3 163.5
Q 89.6 162.25 89.6 160.45 89.6 158.65 88.3 157.35 87.05 156.1 85.25 156.1 83.45 156.1 82.15 157.35 80.9 158.65 80.9 160.45 80.9 162.25 82.15 163.5 83.45 164.8 85.25 164.8 87.05 164.8 88.3 163.5 Z"/>
</g>

<g id="Layer1_10_FILL">
<path fill="#0F5DA6" stroke="none" d="
M 89.6 160.45
Q 89.6 158.65 88.3 157.35 87.05 156.1 85.25 156.1 83.45 156.1 82.15 157.35 80.9 158.65 80.9 160.45 80.9 162.25 82.15 163.5 83.45 164.8 85.25 164.8 87.05 164.8 88.3 163.5 89.6 162.25 89.6 160.45 Z"/>
</g>

<g id="Layer1_12_FILL">
<path fill="#0F5DA6" stroke="none" d="
M 89.6 160.45
Q 89.6 158.65 88.3 157.35 87.05 156.1 85.25 156.1 83.45 156.1 82.15 157.35 80.9 158.65 80.9 160.45 80.9 162.25 82.15 163.5 83.45 164.8 85.25 164.8 87.05 164.8 88.3 163.5 89.6 162.25 89.6 160.45 Z"/>
</g>

<g id="Layer1_15_FILL">
<path fill="#0F5DA6" stroke="none" d="
M 89.6 160.45
Q 89.6 158.65 88.3 157.35 87.05 156.1 85.25 156.1 83.45 156.1 82.15 157.35 80.9 158.65 80.9 160.45 80.9 162.25 82.15 163.5 83.45 164.8 85.25 164.8 87.05 164.8 88.3 163.5 89.6 162.25 89.6 160.45 Z"/>
</g>

<g id="Layer1_17_FILL">
<path fill="#0F5DA6" stroke="none" d="
M 89.6 160.45
Q 89.6 158.65 88.3 157.35 87.05 156.1 85.25 156.1 83.45 156.1 82.15 157.35 80.9 158.65 80.9 160.45 80.9 162.25 82.15 163.5 83.45 164.8 85.25 164.8 87.05 164.8 88.3 163.5 89.6 162.25 89.6 160.45 Z"/>
</g>

<path id="Layer2_0_MEMBER_1_1_STROKES" stroke="#47B5C3" stroke-width="2" stroke-linejoin="round" stroke-linecap="round" fill="none" d="
M 39.682580566406244 176.82269897460935
Q 39.682580566406244 138.38654785156248 66.87273559570312 111.23338623046871 94.02589721679689 84.04323120117186 132.46204833984376 84.04323120117186 170.89819946289063 84.04323120117186 198.0883544921875 111.23338623046871 225.24151611328125 138.38654785156248 225.24151611328125 176.82269897460935 225.24151611328125 215.25885009765622 198.0883544921875 242.4490051269531 170.89819946289063 269.60216674804684 132.46204833984376 269.60216674804684 94.02589721679689 269.60216674804684 66.87273559570312 242.4490051269531 39.682580566406244 215.25885009765622 39.682580566406244 176.82269897460935 Z"/>

<path id="Layer1_0_1_STROKES" stroke="#0F5DA6" stroke-width="2" stroke-linejoin="round" stroke-linecap="round" fill="none" d="
M 218.5 104.95
L 218.5 128.4 174.7 157.4
M 63.6 208.65
L 90.75 181.5 149.4 181.5
M 53.1 69.75
L 53.1 128.4 85.8 161.1
M 145.05 222.2
L 145.05 314.2 116.05 329
M 175.3 206.8
L 214.8 217.9 214.8 255.55"/>
</defs>

<g transform="matrix( -0.7398681640625, 0, 0, -0.7398681640625, 234.8,278.15) ">
<use xlink:href="#Layer2_0_MEMBER_0_FILL"/>
</g>

<g transform="matrix( -0.7398681640625, 0, 0, -0.7398681640625, 233.75,276.15) ">
<use xlink:href="#Layer2_0_MEMBER_1_1_STROKES" transform="matrix( -1.3515777587890625, 0, 0, -1.3515777587890625, 315.9,373.2) "/>
</g>

<g transform="matrix( 0.7058258056640625, 0, 0, 0.7058258056640625, -575.5,-20.5) ">
<use xlink:href="#Layer2_1_FILL"/>
</g>

<g transform="matrix( 1, 0, 0, 1, 0,0) ">
<use xlink:href="#Layer1_0_1_STROKES"/>
</g>

<g transform="matrix( 0.857177734375, 0, 0, 0.857177734375, 297,139.2) ">
<use xlink:href="#Layer1_1_MEMBER_0_FILL"/>
</g>

<g transform="matrix( 0.0692138671875, 0, 0, 0.0691070556640625, 185.2,266.65) ">
<use xlink:href="#Layer1_1_MEMBER_1_MEMBER_0_FILL"/>
</g>

<g transform="matrix( 0.0692138671875, 0, 0, 0.0691070556640625, 185.2,266.65) ">
<use xlink:href="#Layer1_1_MEMBER_1_MEMBER_1_FILL"/>
</g>

<g transform="matrix( 0.0692138671875, 0, 0, 0.0691070556640625, 185.2,266.65) ">
<use xlink:href="#Layer1_1_MEMBER_1_MEMBER_2_FILL"/>
</g>

<g transform="matrix( 0.0692138671875, 0, 0, 0.0691070556640625, 185.2,266.65) ">
<use xlink:href="#Layer1_1_MEMBER_1_MEMBER_3_FILL"/>
</g>

<g transform="matrix( 0.0692138671875, 0, 0, 0.0691070556640625, 185.2,266.65) ">
<use xlink:href="#Layer1_1_MEMBER_1_MEMBER_4_FILL"/>
</g>

<g transform="matrix( 0.0692138671875, 0, 0, 0.0691070556640625, 185.2,266.65) ">
<use xlink:href="#Layer1_1_MEMBER_1_MEMBER_5_FILL"/>
</g>

<g transform="matrix( 0.0692138671875, 0, 0, 0.0691070556640625, 185.2,266.65) ">
<use xlink:href="#Layer1_1_MEMBER_1_MEMBER_6_FILL"/>
</g>

<g transform="matrix( 0.0692138671875, 0, 0, 0.0691070556640625, 185.2,266.65) ">
<use xlink:href="#Layer1_1_MEMBER_1_MEMBER_7_FILL"/>
</g>

<g transform="matrix( 0.0692138671875, 0, 0, 0.0691070556640625, 185.2,266.65) ">
<use xlink:href="#Layer1_1_MEMBER_1_MEMBER_8_FILL"/>
</g>

<g transform="matrix( 0.0692138671875, 0, 0, 0.0691070556640625, 185.2,266.65) ">
<use xlink:href="#Layer1_1_MEMBER_1_MEMBER_9_FILL"/>
</g>

<g transform="matrix( 0.0692138671875, 0, 0, 0.0691070556640625, 185.2,266.65) ">
<use xlink:href="#Layer1_1_MEMBER_1_MEMBER_10_FILL"/>
</g>

<g transform="matrix( 0.0692138671875, 0, 0, 0.0691070556640625, 185.2,266.65) ">
<use xlink:href="#Layer1_1_MEMBER_1_MEMBER_11_FILL"/>
</g>

<g transform="matrix( 0.0692138671875, 0, 0, 0.0691070556640625, 185.2,266.65) ">
<use xlink:href="#Layer1_1_MEMBER_1_MEMBER_12_FILL"/>
</g>

<g transform="matrix( 0.0692138671875, 0, 0, 0.0691070556640625, 185.2,266.65) ">
<use xlink:href="#Layer1_1_MEMBER_1_MEMBER_13_FILL"/>
</g>

<g transform="matrix( 0.0692138671875, 0, 0, 0.0691070556640625, 185.2,266.65) ">
<use xlink:href="#Layer1_1_MEMBER_1_MEMBER_14_FILL"/>
</g>

<g transform="matrix( 0.96148681640625, 0, 0, 0.96148681640625, 189.45,156.05) ">
<use xlink:href="#Layer1_2_MEMBER_0_FILL"/>
</g>

<g transform="matrix( 0.0871734619140625, 0, 0, 0.087127685546875, 61.45,292.85) ">
<use xlink:href="#Layer1_2_MEMBER_1_MEMBER_0_FILL"/>
</g>

<g transform="matrix( 0.0871734619140625, 0, 0, 0.087127685546875, 61.45,292.85) ">
<use xlink:href="#Layer1_2_MEMBER_1_MEMBER_1_FILL"/>
</g>

<g transform="matrix( 0.0871734619140625, 0, 0, 0.087127685546875, 61.45,292.85) ">
<use xlink:href="#Layer1_2_MEMBER_1_MEMBER_2_FILL"/>
</g>

<g transform="matrix( 0.0871734619140625, 0, 0, 0.087127685546875, 61.45,292.85) ">
<use xlink:href="#Layer1_2_MEMBER_1_MEMBER_3_FILL"/>
</g>

<g transform="matrix( 0.8328399658203125, 0, 0, 0.8328399658203125, 299.65,-64.45) ">
<use xlink:href="#Layer1_3_MEMBER_0_FILL"/>
</g>

<g transform="matrix( 0.0725860595703125, 0, 0, 0.072540283203125, 189.15,58.35) ">
<use xlink:href="#Layer1_3_MEMBER_1_MEMBER_0_FILL"/>
</g>

<g transform="matrix( 0.0725860595703125, 0, 0, 0.072540283203125, 189.15,58.35) ">
<use xlink:href="#Layer1_3_MEMBER_1_MEMBER_1_FILL"/>
</g>

<g transform="matrix( 0.0725860595703125, 0, 0, 0.072540283203125, 189.15,58.35) ">
<use xlink:href="#Layer1_3_MEMBER_1_MEMBER_2_FILL"/>
</g>

<g transform="matrix( 0.0725860595703125, 0, 0, 0.072540283203125, 189.15,58.35) ">
<use xlink:href="#Layer1_3_MEMBER_1_MEMBER_3_FILL"/>
</g>

<g transform="matrix( 0.0725860595703125, 0, 0, 0.072540283203125, 189.15,58.35) ">
<use xlink:href="#Layer1_3_MEMBER_1_MEMBER_4_FILL"/>
</g>

<g transform="matrix( 0.86572265625, 0, 0, 0.86572265625, 134.45,71.65) ">
<use xlink:href="#Layer1_4_MEMBER_0_FILL"/>
</g>

<g transform="matrix( 0.067352294921875, 0, 0, 0.06732177734375, 21.45,201.1) ">
<use xlink:href="#Layer1_4_MEMBER_1_MEMBER_0_FILL"/>
</g>

<g transform="matrix( 0.067352294921875, 0, 0, 0.06732177734375, 21.45,201.1) ">
<use xlink:href="#Layer1_4_MEMBER_1_MEMBER_1_FILL"/>
</g>

<g transform="matrix( 0.067352294921875, 0, 0, 0.06732177734375, 21.45,201.1) ">
<use xlink:href="#Layer1_4_MEMBER_1_MEMBER_2_FILL"/>
</g>

<g transform="matrix( 0.77496337890625, 0, 0, 0.77496337890625, 127.1,-82.85) ">
<use xlink:href="#Layer1_5_MEMBER_0_FILL"/>
</g>

<g transform="matrix( 0.0697784423828125, 0, 0, 0.0697784423828125, 25.35,30.55) ">
<use xlink:href="#Layer1_5_MEMBER_1_MEMBER_0_FILL"/>
</g>

<g transform="matrix( 0.0697784423828125, 0, 0, 0.0697784423828125, 25.35,30.55) ">
<use xlink:href="#Layer1_5_MEMBER_1_MEMBER_1_FILL"/>
</g>

<g transform="matrix( 0.0697784423828125, 0, 0, 0.0697784423828125, 25.35,30.55) ">
<use xlink:href="#Layer1_5_MEMBER_1_MEMBER_2_FILL"/>
</g>

<g transform="matrix( 0.0697784423828125, 0, 0, 0.0697784423828125, 25.35,30.55) ">
<use xlink:href="#Layer1_5_MEMBER_1_MEMBER_3_FILL"/>
</g>

<g transform="matrix( 0.0697784423828125, 0, 0, 0.0697784423828125, 25.35,30.55) ">
<use xlink:href="#Layer1_5_MEMBER_1_MEMBER_4_FILL"/>
</g>

<g transform="matrix( 0.0697784423828125, 0, 0, 0.0697784423828125, 25.35,30.55) ">
<use xlink:href="#Layer1_5_MEMBER_1_MEMBER_5_FILL"/>
</g>

<g transform="matrix( 0.0697784423828125, 0, 0, 0.0697784423828125, 25.35,30.55) ">
<use xlink:href="#Layer1_5_MEMBER_1_MEMBER_6_FILL"/>
</g>

<g transform="matrix( 0.0697784423828125, 0, 0, 0.0697784423828125, 25.35,30.55) ">
<use xlink:href="#Layer1_5_MEMBER_1_MEMBER_7_FILL"/>
</g>

<g transform="matrix( 0.0697784423828125, 0, 0, 0.0697784423828125, 25.35,30.55) ">
<use xlink:href="#Layer1_5_MEMBER_1_MEMBER_8_FILL"/>
</g>

<g transform="matrix( 1, 0, 0, 1, 0,0) ">
<use xlink:href="#Layer1_8_FILL"/>
</g>

<g transform="matrix( 1, 0, 0, 1, 90.15,-3.05) ">
<use xlink:href="#Layer1_10_FILL"/>
</g>

<g transform="matrix( 1, 0, 0, 1, 65.5,21) ">
<use xlink:href="#Layer1_12_FILL"/>
</g>

<g transform="matrix( 1, 0, 0, 1, 88.3,45.7) ">
<use xlink:href="#Layer1_15_FILL"/>
</g>

<g transform="matrix( 1, 0, 0, 1, 59.9,59.25) ">
<use xlink:href="#Layer1_17_FILL"/>
</g>
</svg>
