<?xml version="1.0" encoding="utf-8"?>
<!-- Generator: Adobe Illustrator 24.3.0, SVG Export Plug-In . SVG Version: 6.00 Build 0)  -->
<svg version="1.1" xmlns="http://www.w3.org/2000/svg" xmlns:xlink="http://www.w3.org/1999/xlink" x="0px" y="0px"
	 viewBox="0 0 735 320" style="enable-background:new 0 0 735 320;" xml:space="preserve">
<style type="text/css">
	.st0{display:none;}
	.st1{fill:none;stroke:#0F546B;stroke-miterlimit:10;}
	.st2{fill:#0F546B;}
	.st3{fill:#70A897;}
	.st4{fill:none;stroke:#00ABD1;stroke-width:2;stroke-miterlimit:10;}
	.st5{fill:#00ABD1;}
	.st6{fill:none;stroke:#105DA6;stroke-width:2;stroke-miterlimit:10;}
	.st7{fill:#016DAE;}
	.st8{fill:#7CB8AF;}
	.st9{fill:#95D7D6;}
	.st10{fill:none;}
	.st11{fill:#105DA6;}
	.st12{font-family:'OpenSans-Regular';}
	.st13{font-size:10px;}
	.st14{fill:#FFFFFF;}
	.st15{font-size:9.5px;}
	.st16{font-size:10px;glyph-orientation-vertical:0;writing-mode:tb;}
	.st17{font-family:'OpenSans-Bold';}
	.st18{fill:none;stroke:#70A897;stroke-width:2.04;stroke-miterlimit:10;}
	.st19{fill:none;stroke:#FFAC5A;stroke-width:1.6555;stroke-miterlimit:10;}
	.st20{fill:#F58B1B;}
	.st21{fill:#88DBED;}
</style>
<g id="Camada_1" class="st0">
	
		<image style="display:inline;overflow:visible;" width="626" height="301" xlink:href="../../../../../../../../../../Users/eduardocalazans/Downloads/Export Fiocruz/images/image1.png"  transform="matrix(1 0 0 1 54.5 9.5)">
	</image>
</g>
<g id="Camada_4">
</g>
<g id="Camada_5">
</g>
<g id="Camada_2">
	<g>
		<g>
			<polyline class="st1" points="98.8,89.9 98.8,29.1 671.6,29.1 671.6,54 			"/>
			<polygon class="st2" points="671.5,61.7 666.7,54 676.3,54 			"/>
		</g>
		<g>
			<polyline class="st1" points="98.8,43.9 348.8,43.9 348.8,66.9 			"/>
			<polygon class="st2" points="348.2,68.9 343.4,61.2 353,61.2 			"/>
		</g>
		<g>
			<polyline class="st1" points="673.1,263.5 673.1,299.2 348.2,299.2 348.2,257.2 			"/>
			<polygon class="st2" points="673.2,261.7 678,269.4 668.4,269.4 			"/>
		</g>
		<ellipse class="st3" cx="127.2" cy="171.5" rx="109.1" ry="88.6"/>
		<ellipse class="st4" cx="348.8" cy="164.6" rx="119" ry="92"/>
		<ellipse class="st5" cx="345.8" cy="164.5" rx="33.6" ry="19.4"/>
		<ellipse class="st5" cx="345.8" cy="95.2" rx="33.6" ry="19.4"/>
		<ellipse class="st5" cx="421.2" cy="134.7" rx="33.6" ry="19.4"/>
		<ellipse class="st3" cx="539.9" cy="94.3" rx="42" ry="21.8"/>
		<ellipse class="st5" cx="421.2" cy="196.3" rx="33.6" ry="19.4"/>
		<ellipse class="st5" cx="345.8" cy="233.9" rx="33.6" ry="19.4"/>
		<ellipse class="st3" cx="539.9" cy="232.6" rx="42" ry="21.8"/>
		<ellipse class="st3" cx="539.9" cy="194.8" rx="38.2" ry="14.9"/>
		<ellipse class="st3" cx="539.9" cy="163.5" rx="38.2" ry="14.9"/>
		<ellipse class="st3" cx="539.9" cy="132.6" rx="38.2" ry="14.9"/>
		<ellipse class="st6" cx="258.1" cy="102.1" rx="30.8" ry="48.1"/>
		<ellipse class="st6" cx="258.1" cy="236.9" rx="30.8" ry="48.1"/>
		<ellipse class="st7" cx="259.1" cy="167.3" rx="26.5" ry="34.9"/>
		<ellipse class="st8" cx="162.5" cy="170.8" rx="69.9" ry="38.9"/>
		<ellipse class="st9" cx="188.8" cy="172.8" rx="44.8" ry="26.9"/>
		<rect x="182.8" y="32.6" class="st10" width="104.4" height="12"/>
		<text transform="matrix(1 0 0 1 193.8943 40.2417)" class="st11 st12 st13">Determina Oferta</text>
		<rect x="67.6" y="111" class="st10" width="119.2" height="8.8"/>
		<text transform="matrix(1 0 0 1 73.3633 118.6183)" class="st14 st12 st13">Comunidade/Território</text>
		<rect x="98.8" y="166.1" class="st10" width="45.2" height="9.4"/>
		<text transform="matrix(1 0 0 1 104.8081 173.6523)" class="st14 st12 st13">Família</text>
		<rect x="166.2" y="167.1" class="st10" width="45.2" height="8.3"/>
		<text transform="matrix(1 0 0 1 172.4221 174.7321)" class="st14 st12 st13">Pessoa</text>
		<rect x="235.3" y="64.7" class="st10" width="45.2" height="23.9"/>
		<text transform="matrix(1 0 0 1 244.1713 71.8967)"><tspan x="0" y="0" class="st11 st12 st15">Saúde </tspan><tspan x="-2.3" y="11.4" class="st11 st12 st15">pública</tspan></text>
		<rect x="314.4" y="82.8" class="st10" width="62.9" height="23.9"/>
		<text transform="matrix(1 0 0 1 327.8096 90.0614)"><tspan x="0" y="0" class="st14 st12 st15">Atenção </tspan><tspan x="-11.4" y="11.4" class="st14 st12 st15">especializada</tspan></text>
		<rect x="314.4" y="153.8" class="st10" width="62.9" height="23.9"/>
		<text transform="matrix(1 0 0 1 327.8096 161.053)"><tspan x="0" y="0" class="st14 st12 st15">Atenção </tspan><tspan x="-11.4" y="11.4" class="st14 st12 st15">especializada</tspan></text>
		<rect x="389.7" y="122.8" class="st10" width="62.9" height="23.9"/>
		<text transform="matrix(1 0 0 1 403.1224 129.9942)"><tspan x="0" y="0" class="st14 st12 st15">Atenção </tspan><tspan x="-11.4" y="11.4" class="st14 st12 st15">especializada</tspan></text>
		<rect x="382.6" y="17.1" class="st10" width="137.4" height="11.9"/>
		<text transform="matrix(1 0 0 1 384.6472 24.7047)" class="st11 st12 st13">Participação em Governança </text>
		<rect x="382.6" y="286.7" class="st10" width="137.4" height="11.9"/>
		<text transform="matrix(1 0 0 1 384.6472 294.3138)" class="st11 st12 st13">Participação em Governança </text>
		<rect x="503.6" y="79.1" class="st10" width="72.7" height="32.4"/>
		<text transform="matrix(1 0 0 1 509.1877 86.7103)"><tspan x="0" y="0" class="st14 st12 st13">Apoio clínico, </tspan><tspan x="-2.9" y="12" class="st14 st12 st13">administrativo </tspan><tspan x="7.5" y="24" class="st14 st12 st13">e logístico </tspan></text>
		<rect x="503.6" y="121.7" class="st10" width="72.7" height="21.7"/>
		<text transform="matrix(1 0 0 1 518.7111 129.3144)"><tspan x="0" y="0" class="st14 st12 st13">Recursos </tspan><tspan x="-0.9" y="12" class="st14 st12 st13">humanos</tspan></text>
		<rect x="503.6" y="152.6" class="st10" width="72.7" height="21.7"/>
		<text transform="matrix(1 0 0 1 514.3244 160.1924)"><tspan x="0" y="0" class="st14 st12 st13">Sistema de </tspan><tspan x="-1.1" y="12" class="st14 st12 st13">informação</tspan></text>
		<rect x="503.6" y="183.9" class="st10" width="72.7" height="21.7"/>
		<text transform="matrix(1 0 0 1 516.2307 191.5433)"><tspan x="0" y="0" class="st14 st12 st13">Incentivos </tspan><tspan x="-2.1" y="12" class="st14 st12 st13">financeiros </tspan></text>
		<rect x="503.6" y="216.6" class="st10" width="72.7" height="33"/>
		<text transform="matrix(1 0 0 1 523.4914 224.207)"><tspan x="0" y="0" class="st14 st12 st13">Gestão </tspan><tspan x="-12" y="12" class="st14 st12 st13">baseada em </tspan><tspan x="-8.2" y="24" class="st14 st12 st13">resultados </tspan></text>
		<rect x="389.7" y="183.3" class="st10" width="62.9" height="23.9"/>
		<text transform="matrix(1 0 0 1 403.1224 190.4881)"><tspan x="0" y="0" class="st14 st12 st15">Atenção </tspan><tspan x="-11.4" y="11.4" class="st14 st12 st15">especializada</tspan></text>
		<rect x="314.4" y="222" class="st10" width="62.9" height="23.9"/>
		<text transform="matrix(1 0 0 1 327.8096 229.193)"><tspan x="0" y="0" class="st14 st12 st15">Atenção </tspan><tspan x="-11.4" y="11.4" class="st14 st12 st15">especializada</tspan></text>
		<rect x="228.7" y="236.6" class="st10" width="58.4" height="23.9"/>
		<text transform="matrix(1 0 0 1 247.1326 243.8667)"><tspan x="0" y="0" class="st11 st12 st15">Ação </tspan><tspan x="-16.1" y="11.4" class="st11 st12 st15">intersetorial </tspan></text>
		<rect x="236.3" y="151.6" class="st10" width="45.2" height="35.2"/>
		<text transform="matrix(1 0 0 1 238.8129 159.1528)"><tspan x="0" y="0" class="st14 st12 st13">Primeiro </tspan><tspan x="2" y="12" class="st14 st12 st13">nível de </tspan><tspan x="1.5" y="24" class="st14 st12 st13">atenção</tspan></text>
		<rect x="582.2" y="127.7" class="st10" width="10.2" height="81.9"/>
		<text transform="matrix(1 0 0 1 588.3866 138.6748)" class="st12 st16">Gestão</text>
		<rect x="667.8" y="115.4" class="st10" width="8.8" height="104.4"/>
		<text transform="matrix(1 0 0 1 672.5616 117.5921)" class="st17 st16">Governança</text>
		<ellipse class="st18" cx="539.9" cy="163.6" rx="68" ry="96.7"/>
		<ellipse class="st19" cx="672.2" cy="161.8" rx="44.8" ry="96.7"/>
		<path class="st20" d="M627.4,161.8c0-6.2,0.3-12.3,0.8-18.2l-27.1,18.2l27.1,18.2C627.7,174.1,627.4,168,627.4,161.8z"/>
		<path class="st3" d="M471.9,163.6c0-6.6,0.5-13.1,1.4-19.4l-26.2,17.6l25.7,17.3C472.2,174,471.9,168.9,471.9,163.6z"/>
		<polygon class="st2" points="314,165.5 306.3,160.7 306.3,163.5 290.1,163.5 290.1,160.7 282.4,165.5 290.1,170.3 290.1,167.5 
			306.3,167.5 306.3,170.3 		"/>
		<polygon class="st21" points="345.8,215.5 350.6,207.8 347.8,207.8 347.8,187.5 350.6,187.5 345.8,179.8 341,187.5 343.9,187.5 
			343.9,207.8 341,207.8 		"/>
		<polygon class="st21" points="345.8,148.1 350.6,140.4 347.8,140.4 347.8,120.2 350.6,120.2 345.8,112.5 341,120.2 343.9,120.2 
			343.9,140.4 341,140.4 		"/>
		<polygon class="st21" points="421.2,180.4 426,172.7 423.1,172.7 423.1,156.5 426,156.5 421.2,148.8 416.4,156.5 419.2,156.5 
			419.2,172.7 416.4,172.7 		"/>
		<polygon class="st21" points="406.3,117.7 403.2,109.2 401.5,111.4 385.5,99 387.2,96.7 378.2,95.8 381.3,104.3 383.1,102.1 
			399,114.5 397.3,116.7 		"/>
		<polygon class="st21" points="378.2,231.9 381.3,223.4 383.1,225.6 399,213.2 397.3,211 406.3,210 403.2,218.6 401.5,216.3 
			385.5,228.7 387.2,231 		"/>
		<polygon class="st2" points="316.1,102.7 307.1,103.7 308.8,106 278,130.2 276.3,128 273.2,136.5 282.2,135.5 280.4,133.3 
			311.3,109 313,111.3 		"/>
		<polygon class="st2" points="273.2,198.9 282.2,199.9 280.4,202.1 311.3,226.4 313,224.1 316.1,232.7 307.1,231.7 308.8,229.4 
			278,205.2 276.3,207.4 		"/>
	</g>
</g>
</svg>
