
<svg xmlns="http://www.w3.org/2000/svg" version="1.1" xmlns:xlink="http://www.w3.org/1999/xlink" preserveAspectRatio="none" x="0px" y="0px" width="434px" height="390px" viewBox="0 0 434 390">
<defs>
<g id="Layer0_1_FILL">
<path fill="#053336" stroke="none" d="
M 276.3 306.25
Q 276.2400390625 306.369921875 276.15 306.5 273.7568359375 311.3458984375 272 315.25 272.85 314.95 273.55 313.65 274 312.85 274.85 310.75 275.65 308.85 276.25 307.85 276.554296875 307.3326171875 276.75 306.9 277.265234375 305.9673828125 277.3 305.55 276.75 305.35 276.3 306.25
M 252.25 275.05
L 252.45 274.85 252.45 274.3
Q 252.45 273.85 252.35 273.65
L 252.15 273.65 252.15 274.6
Q 252.15 274.95 252.25 275.05
M 276.15 313.05
Q 276.35 312.65 276.35 312.45 276.2 312.35 275.95 312.7
L 274.25 316.05 274.45 316.25
Q 274.75 315.9 275.1 315.2
L 276.15 313.05
M 374.6 293.65
Q 374.95 293.57890625 375.3 293.5 381.95 292.05 392.1 290.45 393 290.2 393.15 289.85 386.1240234375 290.405078125 378.9 291.85 363.323828125 294.9623046875 346.8 302.2 347.05 302.55 347.8 302.35 350.2 301.7 353.45 300.45 355.3 299.75 358.95 298.3 365.92109375 295.655859375 374.6 293.65
M 327.15 273
Q 326.74609375 274.2669921875 326.2 275.5 325.333984375 277.6802734375 324.1 279.8 323.75 280.45 323.85 280.7 325.1 279.95 326 277.6 326.34765625 276.8005859375 326.7 275.95 327.3302734375 274.3962890625 327.95 272.7 328.15 272.3 328.1 272 327.6 272 327.15 273
M 340.45 284.25
Q 340.65 284.2 340.8 283.95
L 340.85 283.75 341 283.5
Q 341.15 283.3 341.15 282.85
L 340.95 282.85
Q 340.9 283.2 340.4 283.8 340.3 284.1 340.45 284.25
M 326.7 268.55
Q 326.7966796875 268.108203125 326.8 267.75 326.8291015625 266.8119140625 326.25 266.45 325.6599609375 266.7123046875 325.4 267.2 325.284375 267.50546875 325.25 267.85
L 325.8 267.95
Q 325.35 271.65 324.1 275 324.045703125 275.1427734375 324 275.25 323.138671875 277.5486328125 322.95 278.35 322.5 280.3 323 281.75 324.37578125 277.94453125 325.4 274.05 326.1404296875 271.32734375 326.7 268.55
M 417.6 319.1
Q 418 318.7 417.9 318.35 414.3 321.8 410.85 325.4 411.6 325.1 412.3 324.3
L 417.6 319.1
M 426.5 301.15
L 426.05 301.15
Q 426.35 302.95 424.9 305.55 423.95 307.45 422.8 309.1
L 421.05 311.45
Q 418.25 315.1 416.35 317.1 414.7 318.85 411 321.95 409.4 323.35 408.95 324.3 418.95 317.6 424.85 307 426.85 303.55 426.5 301.15
M 378.05 291.05
Q 378.6 291.1 379.9 290.8 390.35 288.05 401.9 286.8 402.4 286.7 402.35 286.4 401.25 286.35 399.05 286.65 388.75 288 378.95 290.55 378.2 290.75 378.05 291.05
M 425.5 290.75
Q 417.45 284.95 411.4 280.1 406.45 276.15 404.5 274.8 401.8591796875 273.02421875 397.2 270.55 396.7734375 270.345703125 396.3 270.1 390.45 267.1 387.1 266.35 384.25 265.7 380.55 265.7 378.35 265.65 374 265.9 357.55 266.8 347.1 265.95 332.35 264.65 321.35 259.65 315.8 257.1 313.9 256.55 310.5 255.55 307.8 256.2 307.2 254 306.1 251.5 305.15 249.35 303.2 245.75 301.45 242.6 299.75 241.8 298.05 241 295.9 241.7 294.1 242.3 292.35 243.8 292.5 243.95 292.7 244.05 292.45 244.2 292.25 244.35 291.95 244.45 291.85 244.7 291.7673828125 244.8240234375 291.75 245.15 291.75 245.2220703125 291.75 245.3 291.75 245.75 291.85 246.1 291.7 246.75 291.8 247.7 292.45 253.35 292.95 259.05
L 291.05 260.45
Q 289.65 261.55 289.1 262.25 288.196875 263.500390625 287.95 265.85 287.86953125 266.8982421875 287.9 268.15 287.9 270 288.3 270.8 288.9 272.05 291.05 273.1
L 292.7 274.05
Q 293.4 274.4 294 274.55 294.2 279.15 294.35 283.75 294.45 287.9 295.2 289.8 295.55 290.65 296.15 291.6
L 291.8 291.65
Q 291.6 291.65 291.5 291.7 291.3 291.65 291.15 291.65 286.1 291.15 285.5 291.05 284.45 290.85 280.55 289.8 278.971484375 289.412890625 277.35 289.1 276.291796875 288.9416015625 275.2 288.8 274.65 288.1 273.95 287.15 273.3853515625 286.321875 272.3 284.45 271.9578125 283.8291015625 271.55 283.1 270.05 280.45 269 279.1 267 276.85 266.25 275.55 265.6 274.35 265.15 272.65 265.05 272.2 264.45 269.55 263.25 264.45 260.85 261.05 257.9 256.95 253.45 255.75 251.15 255.2 248.8 255.7 246.4 256.2 244.75 257.75 244.4900390625 258.0099609375 244.35 258.2 244.0962890625 258.680078125 244.4 258.95 244.05 259.2 244.05 259.95 243.8 264.05 245.45 269.2 245.25 269 245.1 268.85 244.6 268.25 243.5 267.25
L 241.35 265.25
Q 239.35 263.45 238.25 262.6 236.3 261.1 233.6 259.6 230.1 257.55 227.75 257.6 225.6 257.65 222.55 259.65 220.5 260.9 219.4 262.05 219.095703125 262.354296875 218.9 262.6 218.7197265625 262.876171875 218.6 263.1 218.5771484375 263.2005859375 218.55 263.3 218.35 263.9 218.65 265.2 218.85 266.15 219.15 266.7 219.35 267.05 220.1 268.05 222.7 271 225.55 273.55 225.55 273.65 225.65 273.8 224.9 274.2 224.35 274.6 223.3 275.3 222.75 276.25 222.05 277.35 222.35 278.4 222.6 279.55 224 280.45 225.05 281.25 227.9 282.8 230.4 284.2 231.6 285.3 232.9 286.55 234.95 289.45 238.05 293.3 246 298.05 254.5 303.1 257.5 306.35 257.7 306.55 257.85 306.75 257.9 307 257.95 307.25
L 258.45 307.35
Q 259.15 308.05 259.5 308.35 260.2 308.95 262.15 309.9 264.9 311.25 266.5 311.75 266.55 311.75 266.6 311.8 267.25 313.15 268.35 314.8 269.35 316.4 270.15 317.05 270.9 317.65 272.1 318.05 272.4 318.15 274.3 318.6 278.7 319.55 288.05 323 296.85 326.25 301.85 327.15 302.3 327.25 310.6 328.3 315.85 328.95 319.1 330.2 320.55 330.75 323.45 331.9 324.4 332.2 325.3 332.3 328.85 333.9 333.65 334.5 337.1 334.9 343.45 334.9 360.85 335 370.8 335.8 396.1 338.2 418.7 350.3 426.75 354.6 434 360
L 434 358.6
Q 424.95 352 415.05 346.55 394.15 335.15 370.5 333.55 366.05 333.2 361.1 333.05 355.3 332.85 343.7 332.9 338.3 332.9 335.6 332.7 331.1 332.4 327.7 331.5 327.55 331.35 327.35 331.25 317.9 327.35 312.8 326.4 310.8 326 305.8 325.5 301.3 325 298.85 324.4 296.05 323.75 289.7 321.3 282.25 318.6 275 316.7 272.6 316.1 271.6 315.45 270.5 314.7 269.4 313.2 268.85 312.4 268.4 311.55 268.55 311.35 268.5 311 268.5 310.45 267.65 310.1 267.4 309.45 267.2 308.85 266.95 308.25 266.6 307.9 266.3 307.6 266.05 307.65 265.0875 305.46875 264.1 303.3 258.7322265625 291.605078125 252.65 280.75 250.8015625 277.4509765625 249.55 275.1 248.1619140625 272.4130859375 247.55 270.95 245.2 265.15 245.4 260.15 245.45 259.7 245.35 259.35 245.4 259.4 245.45 259.45 245.7 259.65 246.25 259.75
L 249.4 260.4 250.65 263.1
Q 251.25 264.5 251.35 265 251.6 265.85 251.6 267.7
L 251.6 270.85
Q 251.6 271.6 252.05 271.45
L 252.3 266.25
Q 252.4 264.95 252.15 264.3 251.55 263.25 251.3 262.7 250.95 261.5 250.75 260.95 250.45 259.95 249.8 259.6 249.3 259.35 248.2 259.35 246.6 259.25 245.25 258.7 245.15 258.85 245.15 259 245.05 258.9 244.95 258.85 245.1 258.75 245.25 258.7 245.733984375 258.5216796875 246.3 258.2 246.8623046875 257.9423828125 247.5 257.55 249.1 256.9 250.9 256.95 252.6 257 254.25 257.75 257.15 259.05 259.45 262.2 261.75 265.35 262.55 269 262.8 270.05 263.15 272.15 263.5 274 264 275.2 264.45 276.2 266 278.4
L 266.55 279.15 273.55 289.05
Q 273.55 289.1 273.55 289.2 273.6 289.2 273.7 289.25
L 273.9 289.55
Q 276.5 293.35 277.25 294.75 278.15 296.4 278.45 296.75 278.95 297.45 279.55 297.85 279.35 297.85 279.15 297.85 279 298 279.2 298.2 279.35 298.35 279.6 298.45 289.25 301.2 297.65 303.15 299.2 303.5 299.85 303.25 299.25 302.65 297.6 302.25
L 281.3 298.15
Q 280.55 297.95 279.95 297.9 279 296.7 278.2 294.6 277 291.55 276.55 290.8 276.4 290.55 276.05 290 276.6 290.15 277.35 290.4
L 283.5 292.15
Q 285.7 292.8 287.1 292.85 287.55 292.9 288.5 292.95
L 289.15 293.15
Q 289.4 293.2 289.95 293.2
L 294.6 293.55
Q 295.4 293.65 295.75 293.55 296.45 293.4 296.65 292.85
L 297.1 292.85
Q 297.15 292.9 297.2 293 297.25 293.05 299.8 295.8 302.55 298.75 306.6 304.6 310.7271484375 310.5615234375 312.8 313.15 313.0259765625 313.39296875 313.2 313.6 314.9 315.7 316.6 317.15 316.4 317.3 316.55 317.75 316.65 318.1 317.1 318.45
L 320.55 321.6
Q 321.55 322.5 321.85 323.1
L 322.35 324.15
Q 322.75 324.85 323.8 325.6 325.1 326.55 326.4 327.05 328.05 327.7 328.75 326.9
L 325.95 325.6
Q 324.2 324.65 323.6 323.65 323.15 322.65 322.85 322.2 322.816796875 322.1447265625 322.75 322.05 322.4505859375 321.6115234375 321.65 320.9
L 319.25 318.7 305.8 300.35
Q 302.7 296.25 301.6 295.05 299.95 293.4 299.1 292.45 298.95 292.05 298.6 291.85
L 298.55 291.8
Q 297.4 290.4 296.9 289.1 300.7 287.85 304.4 286.2 305.85 285.45 306.15 284.8 301.8 286.85 296.7 288.6 296.65 288.5 296.65 288.45 300.7 286.2 304.85 284.8 306.75 284.2 307.35 283.45 301.75 285.1 296.55 288.15 296.1 286.3 296.1 283.35 295.855859375 273.4197265625 294.85 263.6 294.660546875 261.341796875 294.4 259.1 294.4 258.85 294.35 258.6 293.6 252.5 292.6 246.45
L 292.65 246.45
Q 292.8 246.2 292.8 245.65 292.84765625 245.5783203125 293 245.4 293.2341796875 245.261328125 293.6 245
L 293.85 244.85
Q 294.35 244.85 295 244.85 296.3 244.85 296.85 245.4 297.25 245.8 297.4 246.55 297.427734375 246.7712890625 297.45 247.15 297.477734375 247.4478515625 297.5 247.85 297.55 248.55 297.85 250.05
L 298.2 252.05
Q 298.3 252.75 298.15 253.05 298 253.3 297.45 253.65 297 254.05 297.05 254.45 297.5 254.6 298 254.35 298.55 254.1 298.8 253.75 299.25 253.2 299.2 252.25 299.15 251.85 298.85 250.6 298.61796875 248.8759765625 298.4 247.7 298.3341796875 247.1380859375 298.25 246.7 298.1 245.75 297.75 245 297.5 244.5 297.1 244.3 296.85 244.2 296.25 244.2
L 294.4 244.25
Q 294.45 244.1 294.45 244 294.5 243.8 294.4 243.65 294.65 243.5 295 243.3 296.75 242.35 298.65 243.15 300.5 244 302.25 247.6 303.95 251.25 304.7 253.1 305.6060546875 255.440625 306.05 257.5 306.201953125 258.2009765625 306.3 258.85 306.4673828125 259.9453125 306.6 260.75 306.88046875 262.5564453125 306.95 262.8 307.25 263.9 308.35 266.4 309.35 268.65 309.6 270.05 309.8 271.3 309.85 273.85 309.876171875 274.1439453125 309.9 274.45 310.7390625 280.3986328125 317.55 287.4 321 290.95 322.05 292.55 322.34375 293.0271484375 322.85 294 323.0740234375 294.3380859375 323.3 294.75 323.891015625 295.8212890625 324.3 296.5 324.46953125 296.7541015625 324.6 296.95 325.45 298.25 327.35 300.75 328.9 303 329.05 304.9 329.95 303 328.7 300.6 328.3 299.85 327.55 298.75 326.9 297.85 326.6 297.35 326.9 297.45 327.25 297.45 327.357421875 297.45 327.95 297.4 328.4708984375 297.3693359375 329.35 297.3 331 297.2 333 297.8 334.15 298.1 336.5 299.1 341.201953125 300.9958984375 344.4 302.6 345.4302734375 303.116796875 346.3 303.6 346.0689453125 303.2833984375 345.8 302.95 344.428125 301.5189453125 341.9 300.4 338.3 299.05 336.6 298.2 335.5 297.65 334.9 297.35 333.95 296.9 333.2 296.7 332.15 296.4 329.4 296.5
L 326.1 296.7
Q 325.6 295.8 324.9 294.3 324.8048828125 294.0984375 324.7 293.9 323.999609375 292.410546875 323.6 291.7 322.8 290.4 320.75 288.05 321.9 288.1 323.6 288.1 326.2 288.15 327.45 288.25 327.8 288.3 331 288.75 333.2 289.05 334.6 288.95 335.3 288.9 337.9 288.3 339.6 287.8 339.9 287.7
L 341.7 286.95
Q 342.1 286.8 343.95 286.3 346.664453125 285.5185546875 349 284.25 349.5119140625 283.9927734375 350 283.7
L 349.65 283.35
Q 349.25 283.45 348.45 283.45 347.55 283.45 347.2 283.5 347 283.55 345.3 284.2 343.45 284.6 342.55 284.8 341.9 285 341 285.3
L 344.2 279.85 346.85 275.4
Q 347.4 274.4 347.3 273.9 347 273.9 346.65 274.45
L 345 276.9
Q 343.68203125 278.9525390625 342.75 280.5 341.539453125 282.5791015625 341 283.8 340.5 284.75 340.5 285.5 340.35 285.55 340.25 285.6 338.5 286.25 337.95 286.45 337.4013671875 286.6521484375 336.8 286.8 335.7203125 287.0884765625 334.5 287.15 334.2189453125 287.192578125 333.9 287.2
L 328.7 285.6
Q 324 284.2 321.75 283.8 318.95 283.25 316.55 283.35 312.693359375 278.5859375 311.85 274.3 311.8009765625 273.88046875 311.75 273.45 311.7 270.55 311.45 269.15 311.384375 268.8216796875 311.25 268.45 310.963671875 267.3615234375 310.3 265.85 309.25 263.5 308.95 262.55 308.7142578125 261.764453125 308.55 260.7 308.49296875 260.4109375 308.45 260.1 308.25 258.45 308.1 257.6 308 257.2 307.95 256.8 311.25 257.2 315.4 258.95 318.3 260.15 324.05 262.85 330.8 265.65 339.4 266.95 346 267.95 355.35 268.25 363.55 268.5 370.1 268.1 375.7 267.7 376.4 267.65 380 267.5 382.7 267.8 387.3224609375 268.2830078125 392.25 270.3 394.5052734375 271.2595703125 396.8 272.5 401.5 275.05 409.5 280.9
L 422.9 290.6
Q 429 295.05 434 298.6
L 434 296.75
Q 429.7 293.75 425.5 290.75
M 327.2 286.6
Q 326.5 286.55 325.6 286.55 320.85 286.65 319.85 286.75 319.7 286.75 319.6 286.75 319.15 286.3 318.7 285.8 317.95 285 317.3 284.25 320.35 284.5 322.55 285.1 324.25 285.55 327.2 286.6
M 245.3 270.9
Q 245.8 271.35 246.2 271.5 246.5072265625 272.306640625 246.85 273.15 247.4224609375 274.5025390625 248.1 275.95 250.2 280.5 254.95 289.05 258.836328125 296.0212890625 260.9 300.2 261.442578125 301.27578125 261.85 302.15 262.7 303.95 264.4 307.5 264.8 308.3 265.2 309.05 263.65 308.35 262.5 307.7 262.15 307.1 261.55 306.25
L 258.65 302
Q 258.25 301.4 257.9 301.35 257.7 301.3 257.55 301.35 256.6 300.45 255.7 299.85 252.15 297.55 250.4 296.35 249.2 295.5 245.6 292.7
L 236.8 285.6
Q 234.55 283.8 233.8 282.85
L 232 280.3
Q 229.9 277.15 227.4 274.55 227.5 274.5 227.6 274.35 227.65 274.25 227.7 274.2 227.9 274 227.95 273.8 227.95 273.4 227.45 273.3 227.4 273.3 227.3 273.3 227.1 273.15 226.8 272.95 225.8 272.25 224.75 270.95
L 221.45 267.25
Q 220.6 266.3 220.35 265.75 219.8267578125 264.751171875 219.9 263.75 219.9427734375 263.701171875 219.95 263.65 220.4 263.45 220.95 262.8 221.3419921875 262.3478515625 221.6 262.1 221.8111328125 261.9294921875 221.95 261.85 223.15 261.35 223.75 261.05 224.3 260.8 225.35 260.1 227.55 258.9 230 259.65 230.85 259.95 231.95 260.6 235.9 262.75 239.6 265.9
L 245.3 270.9
M 245.5 294.3
Q 247.1 295.6 248 296.15
L 250.3 297.6
Q 251.7 298.6 252.45 299.05 253.25 299.55 254.85 300.4 255.25 300.6 255.65 300.9 255.6 301.15 255.7 301.5 255.9 301.9 255.95 302.15 253.5 299.9 250.5 298.2 250.05 297.9 246.45 296 244 294.7 242.55 293.65 240.4 292.1 236.45 287.75 232.75 283.65 230.25 282 230.05 281.85 225.25 279.25 223.7 278.4 223.75 277.4 223.8 276.65 225.1 275.8
L 226.4 275
Q 228.95 278.05 231.15 281.35 232.4 283.2 232.9 283.75 233.85 284.9 235.85 286.4
L 245.5 294.3
M 293.05 260.65
Q 293.1923828125 262.373046875 293.3 264.1 293.649609375 268.4373046875 293.9 272.8 293 272.15 292.05 271.7 290.35 270.85 289.9 270.2 289.3 269.35 289.4 267.45 289.464453125 266.255859375 289.65 265.3 290.0033203125 263.2982421875 290.85 262.35 291.3 261.8 292.6 260.95 292.85 260.8 293.05 260.65
M 257 302.05
Q 257 302.1 257 302.15 256.65 301.9 256.45 301.55 256.7 301.8 257 302.05
M 225.7 265.65
Q 225 264.95 224.3 264.75 223.65 264.55 222.9 264.6 222.2220703125 264.6 221.5 264.6 220.7978515625 264.67265625 220.05 264.75 220 264.95 220.15 265.05 220.35 265.2 220.55 265.2 221.5369140625 265.3974609375 222.8 265.4
L 222.85 265.4
Q 223.8 265.4 224.25 265.6 224.5 265.7 225.2 266.4 225.646875 266.9462890625 226.1 267.6 227.112890625 268.9107421875 228.25 270.65 228.85 271.65 228.75 272.35 228.75 272.5 228.55 273.1 228.35 273.55 228.45 273.85
L 228.9 273.9
Q 229.8 272.9 229.65 271.65 229.6111328125 270.83359375 228.85 269.6 228.628125 269.2392578125 228.35 268.85 226.95 266.85 225.7 265.65 Z"/>

<path fill="#E3B39B" stroke="none" d="
M 247.5 257.55
Q 246.8623046875 257.9423828125 246.3 258.2 250.976171875 258.8244140625 254.7 264.1 256.95 267.25 259.85 272.3 263.2537109375 276.0099609375 266.55 279.15
L 266 278.4
Q 264.45 276.2 264 275.2 263.5 274 263.15 272.15 262.8 270.05 262.55 269 261.75 265.35 259.45 262.2 257.15 259.05 254.25 257.75 252.6 257 250.9 256.95 249.1 256.9 247.5 257.55
M 344.85 268.9
Q 346.15 269.25 348.75 270.3 354.7630859375 272.287890625 366.95 272.3 366.95 271.6 378 270.9 387 270.3 389.4 270.3 390.86875 270.3 392.25 270.3 387.3224609375 268.2830078125 382.7 267.8 380 267.5 376.4 267.65 375.7 267.7 370.1 268.1 363.55 268.5 355.35 268.25 346 267.95 339.4 266.95 330.8 265.65 324.05 262.85 318.3 260.15 315.4 258.95 311.25 257.2 307.95 256.8 308 257.2 308.1 257.6 308.25 258.45 308.45 260.1 308.49296875 260.4109375 308.55 260.7 308.78984375 260.7 309.05 260.7 313.65 260.7 314.9 261.05 315.65 261.25 322.95 264.2 324.4 264.8 328.7 267.1 331.9 268.8 332.95 268.8
L 340.05 268.25
Q 342.75 268.25 344.85 268.9
M 407.3 296.95
Q 406.35 295.95 405.45 295.55 404.55 295.1 402.55 295 398.55 294.95 394.65 295.75 396 296.25 398.55 296.05 393.95 296.5 387.5 298.2 380.2 300.3 376.55 301.2 375.7 301.45 375.95 301.85 380.1 302.15 389.25 301.7 397.95 301.3 402.55 301.75 405 302.05 406.35 302.6 407.1 302.95 409.35 304.6 409.85 305 411.65 306.2 412.55 306.75 413 306.45 413.35 306.25 413.45 305.7 413.45 305.6 413.45 304.75 413.5 303.6 413.4 303.05 413.2 302.25 412.4 301.55 411.85 301.05 410.7 300.1 409.5 299.2 408.95 298.65 407.85 297.5 407.3 296.95
M 289.65 265.3
Q 291.63046875 264.648046875 293.3 264.1 293.1923828125 262.373046875 293.05 260.65 292.85 260.8 292.6 260.95 291.3 261.8 290.85 262.35 290.0033203125 263.2982421875 289.65 265.3
M 246.2 271.5
Q 245.8 271.35 245.3 270.9
L 239.6 265.9
Q 235.9 262.75 231.95 260.6 230.85 259.95 230 259.65 227.55 258.9 225.35 260.1 224.3 260.8 223.75 261.05 223.15 261.35 221.95 261.85 221.8111328125 261.9294921875 221.6 262.1 222.0951171875 262.0400390625 222.6 262 225.0421875 261.760546875 225.15 261.6 224.85546875 261.60078125 224.55 261.6 224.9546875 261.59296875 225.15 261.3
L 225.15 261.6
Q 230.5171875 261.8482421875 237.1 266.3 239.8890625 268.1591796875 246.85 273.15 246.5072265625 272.306640625 246.2 271.5 Z"/>

<path fill="#FFFFFF" stroke="none" d="
M 245.25 258.7
Q 245.1 258.75 244.95 258.85 245.05 258.9 245.15 259 245.15 258.85 245.25 258.7
M 257 302.15
Q 257 302.1 257 302.05 256.7 301.8 256.45 301.55 256.65 301.9 257 302.15 Z"/>

<path fill="#DA9E8B" stroke="none" d="
M 245.45 259.45
Q 245.4 259.4 245.35 259.35 245.45 259.7 245.4 260.15 245.2 265.15 247.55 270.95 248.1619140625 272.4130859375 249.55 275.1 250.8015625 277.4509765625 252.65 280.75 258.7322265625 291.605078125 264.1 303.3 264.4078125 302.37421875 265.55 302.1 266.05 302 268.4 302 270.65 302 272.65 303.5 273.78359375 304.387109375 276.15 306.5 276.2400390625 306.369921875 276.3 306.25 276.75 305.35 277.3 305.55 277.265234375 305.9673828125 276.75 306.9 278.139453125 307.848828125 280.1 308.85 283.05 310.3 285.55 311.85 288.85 313.9 297.1 316.6 305.8 319.5 309.45 319.5 311.95 319.5 312.6 317.65 312.85 316.95 312.85 314.15 312.85 313.61796875 312.8 313.15 310.7271484375 310.5615234375 306.6 304.6 302.55 298.75 299.8 295.8 297.25 293.05 297.2 293 297.15 292.9 297.1 292.85
L 296.65 292.85
Q 296.45 293.4 295.75 293.55 295.4 293.65 294.6 293.55
L 289.95 293.2
Q 289.4 293.2 289.15 293.15
L 288.5 292.95
Q 287.55 292.9 287.1 292.85 285.7 292.8 283.5 292.15
L 277.35 290.4
Q 276.6 290.15 276.05 290 276.4 290.55 276.55 290.8 277 291.55 278.2 294.6 279 296.7 279.95 297.9 280.55 297.95 281.3 298.15
L 297.6 302.25
Q 299.25 302.65 299.85 303.25 299.2 303.5 297.65 303.15 289.25 301.2 279.6 298.45 279.35 298.35 279.2 298.2 279 298 279.15 297.85 279.35 297.85 279.55 297.85 278.95 297.45 278.45 296.75 278.15 296.4 277.25 294.75 276.5 293.35 273.9 289.55
L 273.7 289.25
Q 273.6 289.2 273.55 289.2 273.55 289.1 273.55 289.05
L 266.55 279.15
Q 263.2537109375 276.0099609375 259.85 272.3 256.95 267.25 254.7 264.1 250.976171875 258.8244140625 246.3 258.2 245.733984375 258.5216796875 245.25 258.7 246.6 259.25 248.2 259.35 249.3 259.35 249.8 259.6 250.45 259.95 250.75 260.95 250.95 261.5 251.3 262.7 251.55 263.25 252.15 264.3 252.4 264.95 252.3 266.25
L 252.05 271.45
Q 251.6 271.6 251.6 270.85
L 251.6 267.7
Q 251.6 265.85 251.35 265 251.25 264.5 250.65 263.1
L 249.4 260.4 246.25 259.75
Q 245.7 259.65 245.45 259.45
M 252.45 274.85
L 252.25 275.05
Q 252.15 274.95 252.15 274.6
L 252.15 273.65 252.35 273.65
Q 252.45 273.85 252.45 274.3
L 252.45 274.85
M 422.9 290.6
L 409.5 280.9
Q 401.5 275.05 396.8 272.5 394.5052734375 271.2595703125 392.25 270.3 390.86875 270.3 389.4 270.3 387 270.3 378 270.9 366.95 271.6 366.95 272.3 354.7630859375 272.287890625 348.75 270.3 346.15 269.25 344.85 268.9 342.75 268.25 340.05 268.25
L 332.95 268.8
Q 331.9 268.8 328.7 267.1 324.4 264.8 322.95 264.2 315.65 261.25 314.9 261.05 313.65 260.7 309.05 260.7 308.78984375 260.7 308.55 260.7 308.7142578125 261.764453125 308.95 262.55 309.25 263.5 310.3 265.85 310.963671875 267.3615234375 311.25 268.45 311.384375 268.8216796875 311.45 269.15 311.7 270.55 311.75 273.45 311.8009765625 273.88046875 311.85 274.3 312.2998046875 274.28515625 312.75 274.25 320.75 276.25 321 276.25 322.681640625 276.25 324 275.25 324.045703125 275.1427734375 324.1 275 325.35 271.65 325.8 267.95
L 325.25 267.85
Q 325.284375 267.50546875 325.4 267.2 325.6599609375 266.7123046875 326.25 266.45 326.8291015625 266.8119140625 326.8 267.75 326.7966796875 268.108203125 326.7 268.55 326.1404296875 271.32734375 325.4 274.05 325.5466796875 274.7888671875 326.2 275.5 326.74609375 274.2669921875 327.15 273 327.6 272 328.1 272 328.15 272.3 327.95 272.7 327.3302734375 274.3962890625 326.7 275.95 327.93203125 277.0453125 330.35 278.15 335.9 280.75 341.05 280.75 341.9646484375 280.75 342.75 280.5 343.68203125 278.9525390625 345 276.9
L 346.65 274.45
Q 347 273.9 347.3 273.9 347.4 274.4 346.85 275.4
L 344.2 279.85
Q 344.707421875 279.5640625 345.1 279.25 345.45 279.25 346.85 280.8 349.05 282.3 353.55 282.3 355.15 282.3 357.15 281.65 358.7388671875 281.13359375 359.35 281 357.8294921875 281.74921875 353.05 283.15 351.093359375 283.7302734375 349 284.25 346.664453125 285.5185546875 343.95 286.3 342.1 286.8 341.7 286.95
L 339.9 287.7
Q 339.6 287.8 337.9 288.3 335.3 288.9 334.6 288.95 333.2 289.05 331 288.75 327.8 288.3 327.45 288.25 326.2 288.15 323.6 288.1 321.9 288.1 320.75 288.05 322.8 290.4 323.6 291.7 323.999609375 292.410546875 324.7 293.9 328.8693359375 293.9705078125 332.95 294.4 337.7 294.9 338.25 294.9 342.3 294.9 356.5 292.3 371.6 289.5 377.55 287.35 377.55 287.6 377.3 287.6 376.7 288.85 371.2 290.8 367.05 292.25 363.9 292.9
L 364.15 292.9
Q 366.45 292.75 370.7 292.1 374.44609375 291.7033203125 378.9 291.85 386.1240234375 290.405078125 393.15 289.85 393 290.2 392.1 290.45 381.95 292.05 375.3 293.5 374.95 293.57890625 374.6 293.65 368.1462890625 295.8263671875 362.3 297.8 347.6755859375 302.6904296875 345.8 302.95 346.0689453125 303.2833984375 346.3 303.6 345.4302734375 303.116796875 344.4 302.6 341.201953125 300.9958984375 336.5 299.1 334.15 298.1 333 297.8 331 297.2 329.35 297.3 328.4708984375 297.3693359375 327.95 297.4 327.357421875 297.45 327.25 297.45 326.9 297.45 326.6 297.35 326.9 297.85 327.55 298.75 328.3 299.85 328.7 300.6 329.95 303 329.05 304.9 328.9 303 327.35 300.75 325.45 298.25 324.6 296.95 324.46953125 296.7541015625 324.3 296.5 323.891015625 295.8212890625 323.3 294.75 323.0740234375 294.3380859375 322.85 294 322.34375 293.0271484375 322.05 292.55 321 290.95 317.55 287.4 310.7390625 280.3986328125 309.9 274.45 309.876171875 274.1439453125 309.85 273.85 309.8 271.3 309.6 270.05 309.35 268.65 308.35 266.4 307.25 263.9 306.95 262.8 306.88046875 262.5564453125 306.6 260.75 306.4673828125 259.9453125 306.3 258.85 306.201953125 258.2009765625 306.05 257.5 305.6060546875 255.440625 304.7 253.1 303.95 251.25 302.25 247.6 300.5 244 298.65 243.15 296.75 242.35 295 243.3 294.65 243.5 294.4 243.65 294.5 243.8 294.45 244 294.45 244.1 294.4 244.25
L 296.25 244.2
Q 296.85 244.2 297.1 244.3 297.5 244.5 297.75 245 298.1 245.75 298.25 246.7 298.3341796875 247.1380859375 298.4 247.7 298.61796875 248.8759765625 298.85 250.6 299.15 251.85 299.2 252.25 299.25 253.2 298.8 253.75 298.55 254.1 298 254.35 297.5 254.6 297.05 254.45 297 254.05 297.45 253.65 298 253.3 298.15 253.05 298.3 252.75 298.2 252.05
L 297.85 250.05
Q 297.55 248.55 297.5 247.85 297.477734375 247.4478515625 297.45 247.15 297.427734375 246.7712890625 297.4 246.55 297.25 245.8 296.85 245.4 296.3 244.85 295 244.85 294.35 244.85 293.85 244.85
L 293.6 245
Q 293.2341796875 245.261328125 293 245.4 292.84765625 245.5783203125 292.8 245.65 292.8 246.2 292.65 246.45
L 292.6 246.45
Q 293.6 252.5 294.35 258.6 294.4 258.85 294.4 259.1 294.660546875 261.341796875 294.85 263.6 295.855859375 273.4197265625 296.1 283.35 296.1 286.3 296.55 288.15 301.75 285.1 307.35 283.45 306.75 284.2 304.85 284.8 300.7 286.2 296.65 288.45 296.65 288.5 296.7 288.6 301.8 286.85 306.15 284.8 305.85 285.45 304.4 286.2 300.7 287.85 296.9 289.1 297.4 290.4 298.55 291.8
L 298.6 291.85
Q 298.95 292.05 299.1 292.45 299.95 293.4 301.6 295.05 302.7 296.25 305.8 300.35
L 319.25 318.7 321.65 320.9
Q 322.4505859375 321.6115234375 322.75 322.05 326.810546875 324.5591796875 329.45 326.25 330.6 326.7 336.85 326.5 347.8 326.25 361.4 327.8 369.45 328.75 379.85 331.7 388.3748046875 334.065234375 393.5 334.1 393.5 334.16640625 393.5 334.2 393.921875 334.85625 398.9 333.75 403.8 332.6 409.15 330.8 409.15 331.6 409.4 332.75 409.4 333.35 408.9 335.75 408.9 336.8 416.85 340.65 424.01875 344.123828125 434 347.35
L 434 298.6
Q 429 295.05 422.9 290.6
M 405.45 295.55
Q 406.35 295.95 407.3 296.95 407.85 297.5 408.95 298.65 409.5 299.2 410.7 300.1 411.85 301.05 412.4 301.55 413.2 302.25 413.4 303.05 413.5 303.6 413.45 304.75 413.45 305.6 413.45 305.7 413.35 306.25 413 306.45 412.55 306.75 411.65 306.2 409.85 305 409.35 304.6 407.1 302.95 406.35 302.6 405 302.05 402.55 301.75 397.95 301.3 389.25 301.7 380.1 302.15 375.95 301.85 375.7 301.45 376.55 301.2 380.2 300.3 387.5 298.2 393.95 296.5 398.55 296.05 396 296.25 394.65 295.75 398.55 294.95 402.55 295 404.55 295.1 405.45 295.55
M 379.9 290.8
Q 378.6 291.1 378.05 291.05 378.2 290.75 378.95 290.55 388.75 288 399.05 286.65 401.25 286.35 402.35 286.4 402.4 286.7 401.9 286.8 390.35 288.05 379.9 290.8
M 426.05 301.15
L 426.5 301.15
Q 426.85 303.55 424.85 307 418.95 317.6 408.95 324.3 409.4 323.35 411 321.95 414.7 318.85 416.35 317.1 418.25 315.1 421.05 311.45
L 422.8 309.1
Q 423.95 307.45 424.9 305.55 426.35 302.95 426.05 301.15
M 417.9 318.35
Q 418 318.7 417.6 319.1
L 412.3 324.3
Q 411.6 325.1 410.85 325.4 414.3 321.8 417.9 318.35
M 293.3 264.1
Q 291.63046875 264.648046875 289.65 265.3 289.464453125 266.255859375 289.4 267.45 289.3 269.35 289.9 270.2 290.35 270.85 292.05 271.7 293 272.15 293.9 272.8 293.649609375 268.4373046875 293.3 264.1
M 224.25 265.6
Q 223.8 265.4 222.85 265.4
L 222.8 265.4
Q 224.4201171875 266.3939453125 226.1 267.6 225.646875 266.9462890625 225.2 266.4 224.5 265.7 224.25 265.6
M 225.15 261.3
Q 224.9546875 261.59296875 224.55 261.6 224.85546875 261.60078125 225.15 261.6
L 225.15 261.3
M 248.1 275.95
Q 247.4224609375 274.5025390625 246.85 273.15 239.8890625 268.1591796875 237.1 266.3 230.5171875 261.8482421875 225.15 261.6 225.0421875 261.760546875 222.6 262 222.0951171875 262.0400390625 221.6 262.1 221.3419921875 262.3478515625 220.95 262.8 220.4 263.45 219.95 263.65 219.9427734375 263.701171875 219.9 263.75 220.7142578125 264.1626953125 221.5 264.6 222.2220703125 264.6 222.9 264.6 223.65 264.55 224.3 264.75 225 264.95 225.7 265.65 226.95 266.85 228.35 268.85 228.628125 269.2392578125 228.85 269.6 232.6970703125 272.54453125 237.05 276.5 245.9 284.6 251 290.9 253.2 293.65 258.75 298.35 259.9787109375 299.388671875 260.9 300.2 258.836328125 296.0212890625 254.95 289.05 250.2 280.5 248.1 275.95 Z"/>

<path fill="#C1807B" stroke="none" d="
M 393.5 334.1
Q 388.3748046875 334.065234375 379.85 331.7 369.45 328.75 361.4 327.8 347.8 326.25 336.85 326.5 330.6 326.7 329.45 326.25 326.810546875 324.5591796875 322.75 322.05 322.816796875 322.1447265625 322.85 322.2 323.15 322.65 323.6 323.65 324.2 324.65 325.95 325.6
L 328.75 326.9
Q 328.05 327.7 326.4 327.05 325.1 326.55 323.8 325.6 322.75 324.85 322.35 324.15
L 321.85 323.1
Q 321.55 322.5 320.55 321.6
L 317.1 318.45
Q 316.65 318.1 316.55 317.75 316.4 317.3 316.6 317.15 314.9 315.7 313.2 313.6 313.0259765625 313.39296875 312.8 313.15 312.85 313.61796875 312.85 314.15 312.85 316.95 312.6 317.65 311.95 319.5 309.45 319.5 305.8 319.5 297.1 316.6 288.85 313.9 285.55 311.85 283.05 310.3 280.1 308.85 278.139453125 307.848828125 276.75 306.9 276.554296875 307.3326171875 276.25 307.85 275.65 308.85 274.85 310.75 274 312.85 273.55 313.65 272.85 314.95 272 315.25 273.7568359375 311.3458984375 276.15 306.5 273.78359375 304.387109375 272.65 303.5 270.65 302 268.4 302 266.05 302 265.55 302.1 264.4078125 302.37421875 264.1 303.3 265.0875 305.46875 266.05 307.65 266.3 307.6 266.6 307.9 266.95 308.25 267.2 308.85 267.4 309.45 267.65 310.1 268.5 310.45 268.5 311 268.55 311.35 268.4 311.55 268.85 312.4 269.4 313.2 270.5 314.7 271.6 315.45 272.6 316.1 275 316.7 282.25 318.6 289.7 321.3 296.05 323.75 298.85 324.4 301.3 325 305.8 325.5 310.8 326 312.8 326.4 317.9 327.35 327.35 331.25 327.55 331.35 327.7 331.5 331.1 332.4 335.6 332.7 338.3 332.9 343.7 332.9 355.3 332.85 361.1 333.05 366.05 333.2 370.5 333.55 394.15 335.15 415.05 346.55 424.95 352 434 358.6
L 434 347.35
Q 424.01875 344.123828125 416.85 340.65 408.9 336.8 408.9 335.75 409.4 333.35 409.4 332.75 409.15 331.6 409.15 330.8 403.8 332.6 398.9 333.75 393.921875 334.85625 393.5 334.2 393.5 334.16640625 393.5 334.1
M 276.35 312.45
Q 276.35 312.65 276.15 313.05
L 275.1 315.2
Q 274.75 315.9 274.45 316.25
L 274.25 316.05 275.95 312.7
Q 276.2 312.35 276.35 312.45
M 341 285.3
Q 341.9 285 342.55 284.8 343.45 284.6 345.3 284.2 347 283.55 347.2 283.5 347.55 283.45 348.45 283.45 349.25 283.45 349.65 283.35
L 350 283.7
Q 349.5119140625 283.9927734375 349 284.25 351.093359375 283.7302734375 353.05 283.15 357.8294921875 281.74921875 359.35 281 358.7388671875 281.13359375 357.15 281.65 355.15 282.3 353.55 282.3 349.05 282.3 346.85 280.8 345.45 279.25 345.1 279.25 344.707421875 279.5640625 344.2 279.85
L 341 285.3
M 324.7 293.9
Q 324.8048828125 294.0984375 324.9 294.3 325.6 295.8 326.1 296.7
L 329.4 296.5
Q 332.15 296.4 333.2 296.7 333.95 296.9 334.9 297.35 335.5 297.65 336.6 298.2 338.3 299.05 341.9 300.4 344.428125 301.5189453125 345.8 302.95 347.6755859375 302.6904296875 362.3 297.8 368.1462890625 295.8263671875 374.6 293.65 365.92109375 295.655859375 358.95 298.3 355.3 299.75 353.45 300.45 350.2 301.7 347.8 302.35 347.05 302.55 346.8 302.2 363.323828125 294.9623046875 378.9 291.85 374.44609375 291.7033203125 370.7 292.1 366.45 292.75 364.15 292.9
L 363.9 292.9
Q 367.05 292.25 371.2 290.8 376.7 288.85 377.3 287.6 377.55 287.6 377.55 287.35 371.6 289.5 356.5 292.3 342.3 294.9 338.25 294.9 337.7 294.9 332.95 294.4 328.8693359375 293.9705078125 324.7 293.9
M 341 283.8
Q 341.539453125 282.5791015625 342.75 280.5 341.9646484375 280.75 341.05 280.75 335.9 280.75 330.35 278.15 327.93203125 277.0453125 326.7 275.95 326.34765625 276.8005859375 326 277.6 325.1 279.95 323.85 280.7 323.75 280.45 324.1 279.8 325.333984375 277.6802734375 326.2 275.5 325.5466796875 274.7888671875 325.4 274.05 324.37578125 277.94453125 323 281.75 322.5 280.3 322.95 278.35 323.138671875 277.5486328125 324 275.25 322.681640625 276.25 321 276.25 320.75 276.25 312.75 274.25 312.2998046875 274.28515625 311.85 274.3 312.693359375 278.5859375 316.55 283.35 318.95 283.25 321.75 283.8 324 284.2 328.7 285.6
L 333.9 287.2
Q 334.2189453125 287.192578125 334.5 287.15 335.7203125 287.0884765625 336.8 286.8 337.4013671875 286.6521484375 337.95 286.45 338.5 286.25 340.25 285.6 340.35 285.55 340.5 285.5 340.5 284.75 341 283.8
M 340.8 283.95
Q 340.65 284.2 340.45 284.25 340.3 284.1 340.4 283.8 340.9 283.2 340.95 282.85
L 341.15 282.85
Q 341.15 283.3 341 283.5
L 340.85 283.75 340.8 283.95
M 248 296.15
Q 247.1 295.6 245.5 294.3
L 235.85 286.4
Q 233.85 284.9 232.9 283.75 232.4 283.2 231.15 281.35 228.95 278.05 226.4 275
L 225.1 275.8
Q 223.8 276.65 223.75 277.4 223.7 278.4 225.25 279.25 230.05 281.85 230.25 282 232.75 283.65 236.45 287.75 240.4 292.1 242.55 293.65 244 294.7 246.45 296 250.05 297.9 250.5 298.2 253.5 299.9 255.95 302.15 255.9 301.9 255.7 301.5 255.6 301.15 255.65 300.9 255.25 300.6 254.85 300.4 253.25 299.55 252.45 299.05 251.7 298.6 250.3 297.6
L 248 296.15
M 245.6 292.7
Q 249.2 295.5 250.4 296.35 252.15 297.55 255.7 299.85 256.6 300.45 257.55 301.35 257.7 301.3 257.9 301.35 258.25 301.4 258.65 302
L 261.55 306.25
Q 262.15 307.1 262.5 307.7 263.65 308.35 265.2 309.05 264.8 308.3 264.4 307.5 262.7 303.95 261.85 302.15 261.442578125 301.27578125 260.9 300.2 259.9787109375 299.388671875 258.75 298.35 253.2 293.65 251 290.9 245.9 284.6 237.05 276.5 232.6970703125 272.54453125 228.85 269.6 229.6111328125 270.83359375 229.65 271.65 229.8 272.9 228.9 273.9
L 228.45 273.85
Q 228.35 273.55 228.55 273.1 228.75 272.5 228.75 272.35 228.85 271.65 228.25 270.65 227.112890625 268.9107421875 226.1 267.6 224.4201171875 266.3939453125 222.8 265.4 221.5369140625 265.3974609375 220.55 265.2 220.35 265.2 220.15 265.05 220 264.95 220.05 264.75 220.7978515625 264.67265625 221.5 264.6 220.7142578125 264.1626953125 219.9 263.75 219.8267578125 264.751171875 220.35 265.75 220.6 266.3 221.45 267.25
L 224.75 270.95
Q 225.8 272.25 226.8 272.95 227.1 273.15 227.3 273.3 227.4 273.3 227.45 273.3 227.95 273.4 227.95 273.8 227.9 274 227.7 274.2 227.65 274.25 227.6 274.35 227.5 274.5 227.4 274.55 229.9 277.15 232 280.3
L 233.8 282.85
Q 234.55 283.8 236.8 285.6
L 245.6 292.7 Z"/>
</g>

<g id="Layer0_2_FILL">
<path fill="#FAC496" stroke="none" d="
M 178.1 145.95
Q 196.85 127.2 196.85 100.7 196.85 74.2 178.1 55.45 159.35 36.7 132.85 36.7 106.35 36.7 87.6 55.45 68.85 74.2 68.85 100.7 68.85 127.2 87.6 145.95 106.35 164.7 132.85 164.7 159.35 164.7 178.1 145.95 Z"/>
</g>

<g id="Layer0_3_FILL">
<path fill="#7CB8AF" fill-opacity="0.7490196078431373" stroke="none" d="
M 178.1 145.95
Q 196.85 127.2 196.85 100.7 196.85 74.2 178.1 55.45 159.35 36.7 132.85 36.7 106.35 36.7 87.6 55.45 68.85 74.2 68.85 100.7 68.85 127.2 87.6 145.95 106.35 164.7 132.85 164.7 159.35 164.7 178.1 145.95 Z"/>
</g>

<g id="Layer0_4_FILL">
<path fill="#0F5DA6" stroke="none" d="
M 570.05 174.55
Q 557.05 143.65 531.4 122.05 505.75 100.4 473.1 92.8 440.45 85.2 407.9 93.25 375.3 101.3 350 123.25 324.65 101.25 292.1 93.2 259.5 85.15 226.85 92.75 194.2 100.35 168.55 122 142.9 143.6 129.9 174.55 116.9 205.45 119.35 238.9 121.8 272.35 139.15 301.05
L 119 301.05
Q 114.65 301.05 111.6 304.15 108.5 307.2 108.5 311.55 108.5 315.9 111.6 319 114.65 322.05 119 322.05
L 154.75 322.05
Q 159 326.8 159.9 327.7
L 305.65 473.45
Q 314.45 482.25 326 487.05 337.5 491.8 350 491.8 362.45 491.8 373.95 487.05 385.5 482.25 394.3 473.45
L 540.1 327.7
Q 540.55 327.3 545.2 322.05
L 581 322.05
Q 585.35 322.05 588.45 319 591.5 315.9 591.5 311.55 591.5 307.2 588.45 304.15 585.35 301.05 581 301.05
L 581 301 560.8 301
Q 578.15 272.3 580.6 238.9 583.05 205.45 570.05 174.55
M 519.55 139.6
Q 542.4 159.65 552.8 188.2 563.2 216.75 558.55 246.85 553.95 276.9 535.45 301
L 434 301
Q 430.8 301 428.1 302.8 425.4 304.65 424.25 307.6
L 414.05 333.05 375.75 213.8
Q 374.7 210.55 371.9 208.5 369.1 206.45 365.65 206.5 362.2 206.55 359.45 208.6 356.7 210.7 355.7 214
L 317.5 341.15 286.35 255.45
Q 285.25 252.4 282.55 250.5 279.9 248.6 276.65 248.5 273.4 248.5 270.7 250.3 268 252.1 266.75 255.15
L 248.35 301.05 164.55 301.05
Q 152.55 285.6 146.25 267 139.95 248.5 140 228.9 140 205.35 149.05 183.55 158.1 161.75 174.8 145.05 191.5 128.4 213.3 119.4 235.05 110.35 258.65 110.35 282.25 110.3 304.05 119.35 325.85 128.35 342.55 145 345.65 148.1 350 148.1 354.35 148.1 357.4 145 378.9 123.5 408.05 114.95 437.25 106.45 466.95 113 496.65 119.55 519.55 139.6
M 324.9 382.9
Q 327.6 380.8 328.55 377.55
L 366.05 252.4 402.95 367.2
Q 403.95 370.4 406.6 372.4 409.25 374.4 412.6 374.5 415.95 374.8 418.8 372.95 421.65 371.15 422.75 367.95
L 441.1 322.05 516.05 322.05 379.45 458.6
Q 373.5 464.25 365.85 467.35 358.2 470.4 350 470.4 341.75 470.4 334.1 467.35 326.45 464.25 320.5 458.6
L 183.95 322.05 255.5 322.05
Q 258.7 322.05 261.35 320.25 264.05 318.4 265.25 315.45
L 276 288.45 308.6 378.1
Q 309.75 381.2 312.45 383.15 315.15 385.05 318.5 385.05
L 318.8 385.05
Q 322.2 384.95 324.9 382.9 Z"/>
</g>

<g id="Layer0_5_FILL">
<path fill="#0F5DA6" stroke="none" d="
M 115.55 67.1
Q 109 69.8 104.05 74.8 99.05 79.8 96.35 86.3 93.65 92.8 93.65 99.9 93.65 106.95 96.35 113.45 99.05 120 104.05 125 109 129.95 115.55 132.65 122.05 135.35 129.15 135.35 136.2 135.35 142.7 132.65 149.25 129.95 154.2 125 159.2 120 161.9 113.45 164.6 106.95 164.6 99.9 164.6 92.85 161.9 86.3 159.2 79.8 154.2 74.8 149.2 69.8 142.7 67.1 136.2 64.4 129.15 64.4 122.05 64.4 115.55 67.1
M 98.6 87.25
Q 101.1 81.15 105.75 76.5 110.4 71.85 116.5 69.35 122.55 66.8 129.15 66.8 135.7 66.8 141.8 69.35 147.85 71.85 152.5 76.5 157.15 81.15 159.65 87.25 162.2 93.3 162.2 99.9 162.15 106.45 159.65 112.55 157.15 118.6 152.5 123.25 147.85 127.9 141.8 130.4 135.7 132.95 129.15 132.95 122.55 132.95 116.5 130.45 110.4 127.9 105.75 123.25 101.1 118.6 98.6 112.55 96.05 106.45 96.05 99.9 96.05 93.3 98.6 87.25
M 120.3 90.1
L 120.3 92.25
Q 120.3 96.7 123.15 98.85 124.25 99.65 125.9 100.25 126.9 100.6 128.85 101.05 130.65 101.5 131.45 101.75 132.8 102.2 133.6 102.8 135.55 104.25 135.55 107.5
L 135.55 109.65
Q 135.55 111.35 134.7 112.85 133.8 114.35 132.35 115.2 130.85 116.05 129.15 116.05 127.4 116.05 125.9 115.2 124.45 114.35 123.55 112.85 122.7 111.35 122.7 109.65
L 122.7 107.5
Q 122.75 107 122.35 106.65 122 106.25 121.5 106.25 121 106.25 120.65 106.65 120.25 107 120.3 107.5
L 120.3 109.65
Q 120.3 111.25 120.85 112.75 121.4 114.25 122.45 115.45 123.5 116.65 124.95 117.45 126.35 118.2 127.9 118.4
L 127.9 124.1
Q 127.9 124.6 128.25 124.95 128.65 125.3 129.15 125.3 129.65 125.3 130 124.95 130.35 124.6 130.35 124.1
L 130.35 118.4
Q 131.95 118.2 133.35 117.45 134.75 116.65 135.8 115.45 136.85 114.25 137.4 112.75 137.95 111.25 137.95 109.65
L 137.95 107.5
Q 137.95 103.05 135.1 100.95 134 100.1 132.35 99.5 131.35 99.2 129.4 98.7 127.6 98.3 126.8 98 125.45 97.55 124.65 96.95 122.7 95.5 122.7 92.25
L 122.7 90.1
Q 122.7 88.4 123.55 86.9 124.45 85.4 125.9 84.55 127.4 83.7 129.15 83.7 130.85 83.7 132.35 84.55 133.8 85.4 134.7 86.9 135.55 88.4 135.55 90.1
L 135.55 92.25
Q 135.5 92.75 135.9 93.15 136.25 93.5 136.75 93.5 137.25 93.5 137.6 93.15 138 92.75 137.95 92.25
L 137.95 90.1
Q 137.95 88.5 137.4 87 136.85 85.5 135.8 84.3 134.75 83.1 133.35 82.35 131.9 81.6 130.35 81.35
L 130.35 75.7
Q 130.35 75.2 130 74.85 129.65 74.5 129.1 74.5 128.6 74.5 128.25 74.85 127.9 75.2 127.9 75.7
L 127.9 81.35
Q 126.35 81.6 124.9 82.35 123.5 83.1 122.45 84.3 121.4 85.5 120.85 87 120.3 88.5 120.3 90.1 Z"/>
</g>

<g id="Layer0_6_FILL">
<path fill="#FCD0C7" stroke="none" d="
M 49.75 207
Q 49.5783203125 207 49.4 207 49.7017578125 207.0072265625 49.75 207.2
L 49.75 207
M 147.1 205.3
Q 146.2642578125 205.6763671875 145.5 205.95 142.892578125 207.5408203125 139.7 209.55 143.3177734375 207.381640625 147.1 205.3
M 198.1 173.25
Q 199.523046875 173.1052734375 201.4 172.95 203.2234375 172.795703125 204.75 172.5 206.6869140625 171.5888671875 208.05 170.75 208.75 170.35 208.9 170 209.05 169.7 209.05 169.3 208.6 167.7 206.95 166.95 202.3986328125 169.71484375 198.1 173.25
M 202.35 162.2
Q 200.598828125 162.2 197.85 163 192.0052734375 167.4341796875 188.15 169.1 185.55 170.25 175.4 172.9 164.9572265625 175.6125 148.25 182.05 148.344140625 182.9466796875 148.45 183.9 148.7 186.25 148.85 188.05 148.5 189.55 148.2 190.2 147.45 191.7 145.45 193.05 143 194.75 139.2 196.2 135.1419921875 197.6134765625 132.95 198.4 132.74375 198.4794921875 132.55 198.55 130.1 199.5 128.9 199.9 126.8 200.65 125.2 200.95 124.7701171875 201.0392578125 124.25 201.1 124.0595703125 201.2541015625 123.85 201.4 119.2 204 110.9 205 109.15 205.2 105 205.25 100.25 205.3 97.85 205.45 93.65 205.75 86.2 207.8 79.2 209.7 77.85 209.7 77.4 209.8 76.95 209.7 76.05 209.55 76.05 208.7 76.05 207.5 76.45 206.85 76.9 206.05 76.95 205.9
L 76.95 205
Q 75.85 205 70.35 203.65 64.35 202.2 62.55 201.15 62.95 200.1 66.4 199.55 68.6 199.2 75.15 198.45 81.8 197.5 85.8 196.25 88.8 195.35 89.65 195.35 89.6818359375 195.35 89.8 195.35
L 90.25 194.95
Q 93.9 191.2 95.15 189.4 96.05 188.15 95.8 187.25 95.7 186.75 94.6 185.8 92.5 184 91.45 181.55 92.35 181.6 93.2 183.2 94.1 184.55 95.3 185.6 96.3 186.5 96.5 186.95 96.75 187.75 96.3 188.85 95.7 190.25 93.55 192.5 91.857421875 194.2306640625 90.4 195.55 91.0830078125 195.760546875 92.3 196.15 94.8 196.9 95.15 196.9 99.37578125 198.484765625 102.75 199.2 109.528515625 199.214453125 115.05 199.4 118.1 199.5 120.3 199.45 120.3 195.7 120.2 193.5 119.95 189.3 119.15 186 119 185.55 119.05 185.2 119.15 184.7 119.6 184.7 121.35 191.7 120.95 198.9 120.95 199.2 120.9 199.45 122.95 199.35 124.2 199.15 126.2623046875 198.8298828125 129.3 197.8 130.584765625 197.419921875 132 196.9 136.7 195.15 140.8 193.45 143.45 192.35 144.9 191.3 146.9 189.8 147.35 187.8 147.5 187.35 147.55 186.35 147.6 185.6 147.7 185.15 147.6 184.85 147.65 184.4 147.65 183.35 147.6 183.15 147.4015625 182.7529296875 147.3 182.45 147.25 182.223046875 147.25 182.05 147.3 181.55 147.2 181.3 146.869140625 180.921875 146.7 180.7
L 146.7 180.7
Q 146.55 180.45 146.55 180.05 146.15 179.7 145.85 179.2 145.15 178.05 144.15 177.35 140.9 178.3 139.25 178.9 138.4751953125 179.1421875 137.75 179.4 136.3173828125 179.956640625 135.2 180.6 133.7 181.5 133.3 182.55 133.1 183.1 133.1 184.4
L 133.15 188.7
Q 133.25 190.85 134.05 191.5 134.7 192.05 136.3 192.05
L 141.55 192.15
Q 139.6 193.15 135.45 193.05 133.85 192.95 133.35 192.6 132.05 191.85 132.05 188.9
L 132.05 184.05
Q 132.15 182 132.65 181.3 133.15 180.65 134.45 179.95 135.42265625 179.48046875 136.4 179.05 134.5056640625 178.6 134.35 178.6 131.25 178.6 120.95 180.75 110.65 182.85 107.45 182.85 101.75 182.85 97 179.55 96 178.8 88.75 172.25 83.35 167.25 77.95 164.9 70.4 161.6 59.85 161.6 52.75 161.6 48.65 165.35 47.6 166.3 45.95 167.95 44.5 169.1 42.85 169.1 41.9 169.1 39.9 167.95 37.95 166.8 37.25 166.8 8.076171875 176.6177734375 -3.3 180.05
L -3.3 221
Q -1.007421875 220.2212890625 -0.2 220.05 4.75 218.7 14.2 215.55 27.7 210.9 27.9 210.85 40.75 207.25 46.3 206.65 49.75 206.25 49.75 207 53.305078125 207.1716796875 63.1 210.5 73.6 214.05 78.75 214.2 80.3 214.25 85.55 214.65 90.95 215.1 92.9 215.35 95.44296875 215.643359375 107.95 218.05 112.822265625 218.45234375 114.3 218.5
L 121.8 218.4
Q 122.60546875 218.22109375 123.55 217.6 123.6845703125 217.5287109375 123.8 217.45 125 216.55 125.6 216.1 126.75 215.2 129.35 213.8 129.9 213.6 130.05 213.75 130.15 213.95 130.05 214.3 129.96953125 214.449609375 129.85 214.6 131.4037109375 213.7546875 133.35 212.65 134.2 212.25 135.4 210.2 136.45 208.4 138.55 207.9 143.25 206.7 144.9 206.15 145.191015625 206.055078125 145.5 205.95 146.746875 205.18125 147.85 204.5 154.4 200.45 156.05 198.7 158.75 195.8 160.5 194.85 161.910546875 194.2130859375 163.5 193.35 162.723828125 191.6103515625 161.95 190.55
L 160.3 188.3
Q 159.8 187.45 159.15 185.35 159.05 184.8 159.25 184.7 159.55 184.55 159.8 185.15 160.1 185.95 160.65 187.55 160.8 187.8 162.55 190.1 163.5837890625 191.4615234375 164.25 192.95 164.6248046875 192.76640625 165 192.55 164.5572265625 191.946484375 164 191.25 162.25 188.95 161.5 187.7 161.75 187.7 161.9 187.5 163.7046875 189.7458984375 165.4 192.3 166.4515625 191.7171875 167.55 191.05 168.65 190.35 180.85 182.4 192.3 174.9 194.3 173.75 194.5568359375 173.607421875 196.8 173.35 198.062109375 172.1232421875 199.85 170.85 203.6 168.35 205.3 166.9 206.1 166.2 206.6 166.2 206.95 166.2 207.55 166.5 208.45 167.05 209.1 167.9 209.2 167.4 209.5 167.25 209.05 166.85 208.65 166.25 206.9 163.9 206.75 163.75 205.15 162.2 202.35 162.2
M 44.15 170.45
Q 44.3 170.4 44.55 170.4
L 44.55 174.55
Q 45 176.5 45 176.55
L 44.8 176.65
Q 44.25 175.65 44.15 172.95
L 44.15 170.45
M 49.75 170.9
Q 48.9 169.95 48.5 169.4 48.4 169.3 48.35 169.2 48.5 169.15 48.6 169.1 48.65 169.15 48.65 169.25 48.7 169.35 49.7 170.2 49.95 170.45 50.8 171.8 51.65 173.2 52.7 174.4 53.05 174.9 52.85 175.1 51.95 174.05 50.95 172.65 49.95 171.1 49.75 170.9
M 51.3 166.95
Q 51.05 166.9 50.9 166.8 50.9 166.65 50.95 166.5 51.05 166.5 51.15 166.5 52.9 166.95 56.2 169 56.9 169.45 57.05 169.7 56.1 169.45 55.1 168.85 54.2 168.25 53.7 167.95 52.85 167.4 52.2 167.2 51.6 167.05 51.3 166.95
M 134.5 185.4
Q 134.25 184.45 134.35 182.45
L 134.75 182.45
Q 134.9 183.1 134.9 184.4 135 185.2 135.55 186.75 135.85 188 135.55 190.45 135.55 191.05 135.2 190.85
L 135.1 188.7
Q 135.1 187.85 134.95 187.1
L 134.5 185.4
M 121.75 188.7
Q 121.9 189.1 121.9 189.4 122.05 190 122.4 191.1
L 122.5 192.4
Q 122.5 192.55 122.8 194.05 122.95 195 122.85 195.65
L 122.7 195.65
Q 122.3 194.7 122.1 192.95 121.8 190.9 121.6 190.2 121.15 188.6 121.15 188.45 121.45 188.3 121.75 188.7
M 217.2 159.95
Q 217.0599609375 159.7146484375 216.9 159.5 214.79296875 158.65 212.4 158.65 207.0310546875 158.65 202.4 160.5 205.31640625 160.5103515625 207.2 161.7 208.6 162.6 210.65 165.6 210.95 166.15 211.1 166.6
L 215.7 164.25
Q 217.5 163.3 217.75 162.25 218 161.3 217.2 159.95 Z"/>

<path fill="#053336" stroke="none" d="
M 128.4 215.75
Q 129.40078125 215.1341796875 129.85 214.6 129.96953125 214.449609375 130.05 214.3 130.15 213.95 130.05 213.75 129.9 213.6 129.35 213.8 126.75 215.2 125.6 216.1 125 216.55 123.8 217.45 123.6845703125 217.5287109375 123.55 217.6 122.60546875 218.22109375 121.8 218.4
L 114.3 218.5
Q 112.822265625 218.45234375 107.95 218.05 107.744921875 218.0208984375 107.5 218
L 106.8 218.05
Q 106.35 218.25 106.4 218.6 106.45 218.95 107.15 219.2 111.7 220.15 119.6 220.05 121.1 220.05 121.85 219.9 123.4 219.6 125.3 218.2 127.35 216.5 128.4 215.75
M 95.3 185.6
Q 94.1 184.55 93.2 183.2 92.35 181.6 91.45 181.55 92.5 184 94.6 185.8 95.7 186.75 95.8 187.25 96.05 188.15 95.15 189.4 93.9 191.2 90.25 194.95
L 89.8 195.35 86.45 198.8
Q 88.0919921875 197.715625 90.4 195.55 91.857421875 194.2306640625 93.55 192.5 95.7 190.25 96.3 188.85 96.75 187.75 96.5 186.95 96.3 186.5 95.3 185.6
M 121.9 189.4
Q 121.9 189.1 121.75 188.7 121.45 188.3 121.15 188.45 121.15 188.6 121.6 190.2 121.8 190.9 122.1 192.95 122.3 194.7 122.7 195.65
L 122.85 195.65
Q 122.95 195 122.8 194.05 122.5 192.55 122.5 192.4
L 122.4 191.1
Q 122.05 190 121.9 189.4
M 134.35 182.45
Q 134.25 184.45 134.5 185.4
L 134.95 187.1
Q 135.1 187.85 135.1 188.7
L 135.2 190.85
Q 135.55 191.05 135.55 190.45 135.85 188 135.55 186.75 135 185.2 134.9 184.4 134.9 183.1 134.75 182.45
L 134.35 182.45
M 50.9 166.8
Q 51.05 166.9 51.3 166.95 51.6 167.05 52.2 167.2 52.85 167.4 53.7 167.95 54.2 168.25 55.1 168.85 56.1 169.45 57.05 169.7 56.9 169.45 56.2 169 52.9 166.95 51.15 166.5 51.05 166.5 50.95 166.5 50.9 166.65 50.9 166.8
M 48.5 169.4
Q 48.9 169.95 49.75 170.9 49.95 171.1 50.95 172.65 51.95 174.05 52.85 175.1 53.05 174.9 52.7 174.4 51.65 173.2 50.8 171.8 49.95 170.45 49.7 170.2 48.7 169.35 48.65 169.25 48.65 169.15 48.6 169.1 48.5 169.15 48.35 169.2 48.4 169.3 48.5 169.4
M 44.55 170.4
Q 44.3 170.4 44.15 170.45
L 44.15 172.95
Q 44.25 175.65 44.8 176.65
L 45 176.55
Q 45 176.5 44.55 174.55
L 44.55 170.4
M 202.35 155.3
L 197.95 157.7
Q 195.65 159 194.65 159.9
L 193.05 161.5
Q 192.2 162.15 190.1 163.1 186.15 164.85 182.35 166.9 171.25 171.9 165.55 173.1 164.05 173.45 161.45 173.8 158.35 174.25 157.35 174.45 151.8 175.45 146.95 177.35 146.8 177.4 146.7 177.5 146.5 177.15 146.3 176.85 145.05 174.8 142.9 174.3 138.95 173.55 134.95 174.2 131.35 174.4 127.75 175.05 122.95 176.1 118.05 177.1 116.6 177.35 115.15 177.65
L 115.65 177.25 96.85 174.25
Q 95.05 173.45 94.05 172 93.55 171.3 92.95 170.65 91.25 169 89.45 167.25 87.4 165.3 84.85 164.05 77.4 160.35 69.35 158.05 62.65 156.05 55.65 156.1 51.75 155.75 48.05 156.75 43.7 158.1 39.95 160.8 37.4 162.6 34.9 164.45
L -3.3 176.2 -3.3 177.8
Q -2.55 177.55 -1.75 177.35
L 34.5 166.8
Q 39.2 162.5 45.1 159.9 46.8 159.1 48.6 158.7 52.75 157.5 57.05 158.05 65.2 158.2 72.7 160.95 74.85 161.75 77.05 162.55 84.95 165.15 90.9 171.1 92.6 172.85 94.55 174.45 97.45 176.9 100.85 178.55 103.45 179.7 106.45 179.75 111.35 180.3 116.05 179.3 121.15 178.3 126.25 177.3 132.5 176.4 138.75 176 140.1 175.8 141.5 176.05 142.55 176.3 143.4 176.8 139.828515625 177.615234375 136.4 179.05 135.42265625 179.48046875 134.45 179.95 133.15 180.65 132.65 181.3 132.15 182 132.05 184.05
L 132.05 188.9
Q 132.05 191.85 133.35 192.6 133.85 192.95 135.45 193.05 139.6 193.15 141.55 192.15
L 136.3 192.05
Q 134.7 192.05 134.05 191.5 133.25 190.85 133.15 188.7
L 133.1 184.4
Q 133.1 183.1 133.3 182.55 133.7 181.5 135.2 180.6 136.3173828125 179.956640625 137.75 179.4 138.4751953125 179.1421875 139.25 178.9 140.9 178.3 144.15 177.35 145.15 178.05 145.85 179.2 146.15 179.7 146.55 180.05 146.55 180.45 146.7 180.7
L 146.7 180.7
Q 146.869140625 180.921875 147.2 181.3 147.3 181.55 147.25 182.05 147.25 182.223046875 147.3 182.45 147.4015625 182.7529296875 147.6 183.15 147.65 183.35 147.65 184.4 147.6 184.85 147.7 185.15 147.6 185.6 147.55 186.35 147.5 187.35 147.35 187.8 146.9 189.8 144.9 191.3 143.45 192.35 140.8 193.45 136.7 195.15 132 196.9 130.584765625 197.419921875 129.3 197.8 126.2623046875 198.8298828125 124.2 199.15 122.95 199.35 120.9 199.45 120.95 199.2 120.95 198.9 121.35 191.7 119.6 184.7 119.15 184.7 119.05 185.2 119 185.55 119.15 186 119.95 189.3 120.2 193.5 120.3 195.7 120.3 199.45 118.1 199.5 115.05 199.4 109.528515625 199.214453125 102.75 199.2 102.2330078125 199.2 101.7 199.2 96.15 199.1 92.35 199.6 90.7 199.85 87.25 200.55 83.9 201.25 82.1 201.5 77.85 202.1 73.25 201.6 71.8 201.45 71.05 201.55 69.85 201.65 69.2 202.4 76.65 204 84.1 202.95 85.5 202.75 88.9 202.1 89.55 202 90.15 201.9 89.8 202.1 89.45 202.4
L 86.1 204.95
Q 85.1 205.75 84.8 206.1 85.3 206.55 86.4 205.8
L 92.4 201.55
Q 93.1 201.4 93.7 201.35 97.45 200.9 104 201.1
L 117.1 201.4
Q 121.6658203125 201.4837890625 124.25 201.1 124.7701171875 201.0392578125 125.2 200.95 126.8 200.65 128.9 199.9 130.1 199.5 132.55 198.55 132.74375 198.4794921875 132.95 198.4 135.1419921875 197.6134765625 139.2 196.2 143 194.75 145.45 193.05 147.45 191.7 148.2 190.2 148.5 189.55 148.85 188.05 148.7 186.25 148.45 183.9 148.344140625 182.9466796875 148.25 182.05 148.166796875 180.88046875 148.1 179.85 148.1078125 179.5125 148.1 179.2 147.7 178.75 147.3 178.3
L 168.45 174.05
Q 171.45 173.5 173.35 172.85 174.35 172.5 178.75 170.45 187.8 166 197.7 163.05 197.77734375 163.026953125 197.85 163 200.598828125 162.2 202.35 162.2 205.15 162.2 206.75 163.75 206.9 163.9 208.65 166.25 209.05 166.85 209.5 167.25 209.2 167.4 209.1 167.9 208.45 167.05 207.55 166.5 206.95 166.2 206.6 166.2 206.1 166.2 205.3 166.9 203.6 168.35 199.85 170.85 198.062109375 172.1232421875 196.8 173.35 195.79140625 174.4189453125 195.15 175.45 195.75 175.3 196.65 174.5 197.3888671875 173.858203125 198.1 173.25 202.3986328125 169.71484375 206.95 166.95 208.6 167.7 209.05 169.3 209.05 169.7 208.9 170 208.75 170.35 208.05 170.75 206.6869140625 171.5888671875 204.75 172.5 203.0384765625 173.372265625 200.85 174.3 195.1 176.7 193.45 177.5
L 189.35 179.7
Q 188.8 179.95 188.75 180.3 184.45 182 180.65 184.45 178 186.15 172.05 190.95 169.15 193.3 166.85 194.95 166.75 194.45 166.25 193.6 165.834375 192.9470703125 165.4 192.3 163.7046875 189.7458984375 161.9 187.5 161.75 187.7 161.5 187.7 162.25 188.95 164 191.25 164.5572265625 191.946484375 165 192.55 166.016796875 193.8869140625 166.5 194.75 166.6 194.95 166.7 195.05 165.9 195.55 165.2 196.05 164.9025390625 194.4388671875 164.25 192.95 163.5837890625 191.4615234375 162.55 190.1 160.8 187.8 160.65 187.55 160.1 185.95 159.8 185.15 159.55 184.55 159.25 184.7 159.05 184.8 159.15 185.35 159.8 187.45 160.3 188.3
L 161.95 190.55
Q 162.723828125 191.6103515625 163.5 193.35 164.073828125 194.692578125 164.65 196.4 163.9 196.85 163.25 197.25 161.3 198.35 155.7 201 151.3021484375 203.0818359375 147.1 205.3 143.3177734375 207.381640625 139.7 209.55 139.6720703125 209.5865234375 139.65 209.6 143.3 208.5 150.2 205.2
L 155.6 202.6
Q 163.2 198.9 166.5 196.7 168.9 195.15 173.5 191.45 179.3 186.8 182.35 184.8 185.9 182.45 189.2 181 189.25 181 189.3 181 189.45 181.05 190.15 180.8
L 197.15 177.8 188.85 184.25
Q 188.7 184.4 188.65 184.55
L 184 188.15
Q 177 193.6 173.7 195.6 169 198.55 158.3 203.25 148.8 207.45 143.85 210.5 137.25 212 131.8 216.3 130.9 217.05 129.1 218.55 127.45 219.8 126.2 220.45 123.3 221.9 119.2 221.9 116.65 221.85 111.8 221.05 96.2 218.55 81.05 217.35 79.95 217.25 79.2 217.4 79.25 217.15 79.1 216.9 75.5 217.2 71.85 216.5 69.8 216.1 66.65 215.05 62.3 213.6 61.5 213.35 46.5 209.05 26.25 215.45 20.3 217.3 9.45 221.65 1.7 224.75 -3.3 226.6
L -3.3 228.2
Q 0.1 227.15 3.45 225.9 5.25 225.25 15.2 221.35 22.35 218.55 27.05 217.15 34.5 214.9 42.75 213.95 49.75 213.1 54.95 213.85 57.45 214.25 66 216.75 72.8 218.75 77.15 218.6 78.15 218.6 78.65 218.25 78.75 218.2 78.8 218.15 80.8 218.75 83.95 219.15
L 106.7 222.5
Q 115.9 223.8 119.7 224 122.5 224.1 123.9 223.8 126.4 223.25 129.3 220.9 132.55 218.1 134.25 216.85 136.35 215.35 140.8 213.3 142.3 212.6 143.55 212.05 143.7 212 143.8 211.95 145.1 211.45 146.9 210.55 148.9 209.5 149.9 209 152.85 207.45 162.3 203.3 170.05 199.85 174.45 197.15 177.85 195.1 184.35 190.1
L 188.8 186.65
Q 195.1 181.9 197.95 178.7 199.25 177.7 199.45 176.85
L 203 175.3
Q 205.95 174.05 208.7 172.45 210 171.75 210.35 171.1 210.4326171875 170.8935546875 210.45 170.65 210.55 170.290234375 210.55 169.85 210.5 169 210.5 168.55 210.5 168.1 210.45 167.85 210.7 167.95 210.95 168 211.05 167.9 211.1 167.85 211.25 167.8 211.5 167.75 214.4 166.75 216.65 165.6 218.05 164.9 218.75 164 219.7 162.75 219.45 161 219.4396484375 160.9302734375 219.4 160.85 219.195703125 159.5673828125 218.2 158.05 216 154.95 212.4 153.75 208.7 152.55 205.15 153.95 204.15 154.3 202.35 155.3
M 197.3 160.2
Q 198.4 159.4 200.8 158 203.9 156.2 205.9 155.55 208.95 154.65 211.5 155.25 214.77734375 156.186328125 216.9 159.5 217.0599609375 159.7146484375 217.2 159.95 218 161.3 217.75 162.25 217.5 163.3 215.7 164.25
L 211.1 166.6
Q 210.95 166.15 210.65 165.6 208.6 162.6 207.2 161.7 205.31640625 160.5103515625 202.4 160.5 200.9130859375 160.5279296875 199.15 160.85 197.3 161.2 195.05 161.9 196.5 160.8 197.3 160.2
M 99.75 176.3
L 99.3 176 112.25 178.05
Q 105.7 179 99.75 176.8
L 99.75 176.3 Z"/>

<path fill="#FEACA0" stroke="none" d="
M 89.65 195.35
Q 88.8 195.35 85.8 196.25 81.8 197.5 75.15 198.45 68.6 199.2 66.4 199.55 62.95 200.1 62.55 201.15 64.35 202.2 70.35 203.65 75.85 205 76.95 205
L 76.95 205.9
Q 76.9 206.05 76.45 206.85 76.05 207.5 76.05 208.7 76.05 209.55 76.95 209.7 77.4 209.8 77.85 209.7 79.2 209.7 86.2 207.8 93.65 205.75 97.85 205.45 100.25 205.3 105 205.25 109.15 205.2 110.9 205 119.2 204 123.85 201.4 124.0595703125 201.2541015625 124.25 201.1 121.6658203125 201.4837890625 117.1 201.4
L 104 201.1
Q 97.45 200.9 93.7 201.35 93.1 201.4 92.4 201.55
L 86.4 205.8
Q 85.3 206.55 84.8 206.1 85.1 205.75 86.1 204.95
L 89.45 202.4
Q 89.8 202.1 90.15 201.9 89.55 202 88.9 202.1 85.5 202.75 84.1 202.95 76.65 204 69.2 202.4 69.85 201.65 71.05 201.55 71.8 201.45 73.25 201.6 77.85 202.1 82.1 201.5 83.9 201.25 87.25 200.55 90.7 199.85 92.35 199.6 96.15 199.1 101.7 199.2 102.2330078125 199.2 102.75 199.2 99.37578125 198.484765625 95.15 196.9 94.8 196.9 92.3 196.15 91.0830078125 195.760546875 90.4 195.55 88.0919921875 197.715625 86.45 198.8
L 89.8 195.35
Q 89.6818359375 195.35 89.65 195.35
M 173.5 191.45
Q 168.9 195.15 166.5 196.7 163.2 198.9 155.6 202.6
L 150.2 205.2
Q 143.3 208.5 139.65 209.6 139.6720703125 209.5865234375 139.7 209.55 142.892578125 207.5408203125 145.5 205.95 145.191015625 206.055078125 144.9 206.15 143.25 206.7 138.55 207.9 136.45 208.4 135.4 210.2 134.2 212.25 133.35 212.65 131.4037109375 213.7546875 129.85 214.6 129.40078125 215.1341796875 128.4 215.75 127.35 216.5 125.3 218.2 123.4 219.6 121.85 219.9 121.1 220.05 119.6 220.05 111.7 220.15 107.15 219.2 106.45 218.95 106.4 218.6 106.35 218.25 106.8 218.05
L 107.5 218
Q 107.744921875 218.0208984375 107.95 218.05 95.44296875 215.643359375 92.9 215.35 90.95 215.1 85.55 214.65 80.3 214.25 78.75 214.2 73.6 214.05 63.1 210.5 53.305078125 207.1716796875 49.75 207
L 49.75 207.2
Q 49.7017578125 207.0072265625 49.4 207 49.5783203125 207 49.75 207 49.75 206.25 46.3 206.65 40.75 207.25 27.9 210.85 27.7 210.9 14.2 215.55 4.75 218.7 -0.2 220.05 -1.007421875 220.2212890625 -3.3 221
L -3.3 226.6
Q 1.7 224.75 9.45 221.65 20.3 217.3 26.25 215.45 46.5 209.05 61.5 213.35 62.3 213.6 66.65 215.05 69.8 216.1 71.85 216.5 75.5 217.2 79.1 216.9 79.25 217.15 79.2 217.4 79.95 217.25 81.05 217.35 96.2 218.55 111.8 221.05 116.65 221.85 119.2 221.9 123.3 221.9 126.2 220.45 127.45 219.8 129.1 218.55 130.9 217.05 131.8 216.3 137.25 212 143.85 210.5 148.8 207.45 158.3 203.25 169 198.55 173.7 195.6 177 193.6 184 188.15
L 188.65 184.55
Q 188.7 184.4 188.85 184.25
L 197.15 177.8 190.15 180.8
Q 189.45 181.05 189.3 181 189.25 181 189.2 181 185.9 182.45 182.35 184.8 179.3 186.8 173.5 191.45
M 164.65 196.4
Q 164.073828125 194.692578125 163.5 193.35 161.910546875 194.2130859375 160.5 194.85 158.75 195.8 156.05 198.7 154.4 200.45 147.85 204.5 146.746875 205.18125 145.5 205.95 146.2642578125 205.6763671875 147.1 205.3 151.3021484375 203.0818359375 155.7 201 161.3 198.35 163.25 197.25 163.9 196.85 164.65 196.4
M 165.4 192.3
Q 165.834375 192.9470703125 166.25 193.6 166.75 194.45 166.85 194.95 169.15 193.3 172.05 190.95 178 186.15 180.65 184.45 184.45 182 188.75 180.3 188.8 179.95 189.35 179.7
L 193.45 177.5
Q 195.1 176.7 200.85 174.3 203.0384765625 173.372265625 204.75 172.5 203.2234375 172.795703125 201.4 172.95 199.523046875 173.1052734375 198.1 173.25 197.3888671875 173.858203125 196.65 174.5 195.75 175.3 195.15 175.45 195.79140625 174.4189453125 196.8 173.35 194.5568359375 173.607421875 194.3 173.75 192.3 174.9 180.85 182.4 168.65 190.35 167.55 191.05 166.4515625 191.7171875 165.4 192.3
M 166.5 194.75
Q 166.016796875 193.8869140625 165 192.55 164.6248046875 192.76640625 164.25 192.95 164.9025390625 194.4388671875 165.2 196.05 165.9 195.55 166.7 195.05 166.6 194.95 166.5 194.75 Z"/>

<path fill="#F8EAE9" stroke="none" d="
M 37.25 166.8
Q 37.95 166.8 39.9 167.95 41.9 169.1 42.85 169.1 44.5 169.1 45.95 167.95 47.6 166.3 48.65 165.35 52.75 161.6 59.85 161.6 70.4 161.6 77.95 164.9 83.35 167.25 88.75 172.25 96 178.8 97 179.55 101.75 182.85 107.45 182.85 110.65 182.85 120.95 180.75 131.25 178.6 134.35 178.6 134.5056640625 178.6 136.4 179.05 139.828515625 177.615234375 143.4 176.8 142.55 176.3 141.5 176.05 140.1 175.8 138.75 176 132.5 176.4 126.25 177.3 121.15 178.3 116.05 179.3 111.35 180.3 106.45 179.75 103.45 179.7 100.85 178.55 97.45 176.9 94.55 174.45 92.6 172.85 90.9 171.1 84.95 165.15 77.05 162.55 74.85 161.75 72.7 160.95 65.2 158.2 57.05 158.05 52.75 157.5 48.6 158.7 46.8 159.1 45.1 159.9 39.2 162.5 34.5 166.8
L -1.75 177.35
Q -2.55 177.55 -3.3 177.8
L -3.3 180.05
Q 8.076171875 176.6177734375 37.25 166.8
M 197.85 163
Q 197.77734375 163.026953125 197.7 163.05 187.8 166 178.75 170.45 174.35 172.5 173.35 172.85 171.45 173.5 168.45 174.05
L 147.3 178.3
Q 147.7 178.75 148.1 179.2 148.1078125 179.5125 148.1 179.85 148.166796875 180.88046875 148.25 182.05 164.9572265625 175.6125 175.4 172.9 185.55 170.25 188.15 169.1 192.0052734375 167.4341796875 197.85 163
M 99.3 176
L 99.75 176.3 99.75 176.8
Q 105.7 179 112.25 178.05
L 99.3 176
M 200.8 158
Q 198.4 159.4 197.3 160.2 196.5 160.8 195.05 161.9 197.3 161.2 199.15 160.85 200.9130859375 160.5279296875 202.4 160.5 207.0310546875 158.65 212.4 158.65 214.79296875 158.65 216.9 159.5 214.77734375 156.186328125 211.5 155.25 208.95 154.65 205.9 155.55 203.9 156.2 200.8 158 Z"/>
</g>

<path id="Layer0_0_1_STROKES" stroke="#47B5C3" stroke-width="2" stroke-linejoin="round" stroke-linecap="round" fill="none" d="
M 415.3830757141113 372.0593688964844
L 415.3830757141113 19.503301239013695 17.91336441040039 19.503301239013695 17.91336441040039 372.0593688964844 415.3830757141113 372.0593688964844 Z"/>
</defs>

<g transform="matrix( 0, -1.0665740966796875, -1.2081146240234375, 0, 471.5,441.6) ">
<use xlink:href="#Layer0_0_1_STROKES" transform="matrix( 0, -0.827728271484375, -0.9375762939453125, 0, 414,390.25) "/>
</g>

<g transform="matrix( 1, 0, 0, 1, 0,0) ">
<use xlink:href="#Layer0_1_FILL"/>
</g>

<g transform="matrix( 1, 0, 0, 1, -5.25,-1.5) ">
<use xlink:href="#Layer0_2_FILL"/>
</g>

<g transform="matrix( 1, 0, 0, 1, 182.6,93.55) ">
<use xlink:href="#Layer0_3_FILL"/>
</g>

<g transform="matrix( 0.163360595703125, 0, 0, 0.163360595703125, 258.3,149.8) ">
<use xlink:href="#Layer0_4_FILL"/>
</g>

<g transform="matrix( 1.3380126953125, 0, 0, 1.3380126953125, -43.6,-33.75) ">
<use xlink:href="#Layer0_5_FILL"/>
</g>

<g transform="matrix( 1, 0, 0, 1, 0,0) ">
<use xlink:href="#Layer0_6_FILL"/>
</g>
</svg>
