<?xml version="1.0" encoding="utf-8"?>
<!-- Generator: Adobe Illustrator 24.3.0, SVG Export Plug-In . SVG Version: 6.00 Build 0)  -->
<svg version="1.1" xmlns="http://www.w3.org/2000/svg" xmlns:xlink="http://www.w3.org/1999/xlink" x="0px" y="0px"
	 viewBox="0 0 735 320" style="enable-background:new 0 0 735 320;" xml:space="preserve">
<style type="text/css">
	.st0{fill:#105DA6;}
	.st1{fill:#FFAC5A;}
	.st2{fill:#FFFFFF;}
	.st3{fill-rule:evenodd;clip-rule:evenodd;fill:#FFFFFF;}
	.st4{fill:#5CAEFF;}
	.st5{font-family:'OpenSans-Bold';}
	.st6{font-size:14px;}
</style>
<g id="Camada_1">
	<g>
		<rect x="84.5" y="218.9" class="st0" width="566" height="2.9"/>
		<rect x="129.4" y="99.7" class="st0" width="2" height="121"/>
		<rect x="244.4" y="99.7" class="st0" width="2" height="121"/>
		<rect x="359.3" y="99.7" class="st0" width="2" height="121"/>
		<rect x="474.3" y="99.7" class="st0" width="2" height="121"/>
		<rect x="589.2" y="99.7" class="st0" width="2" height="121"/>
	</g>
	<path class="st1" d="M178.3,123.4c0-12.6-4.5-23.4-13.4-32.3c-8.9-8.9-19.7-13.4-32.3-13.4c-12.6,0-23.4,4.5-32.3,13.4
		c-8.9,8.9-13.4,19.7-13.4,32.3c0,12.6,4.5,23.4,13.4,32.3c7.3,7.3,15.9,11.7,25.8,13l4.5,13.7l4.3-13.4
		c11.7-0.5,21.7-4.9,30.1-13.3C173.8,146.8,178.3,136,178.3,123.4z"/>
	<path class="st1" d="M292.6,123.4c0-12.6-4.5-23.4-13.4-32.3c-8.9-8.9-19.7-13.4-32.3-13.4c-12.6,0-23.4,4.5-32.4,13.4
		c-8.9,8.9-13.4,19.7-13.4,32.3s4.5,23.4,13.4,32.3c7.4,7.3,16,11.7,25.8,13l5,15.4l4.9-15.1c11.2-0.7,20.9-5.1,29-13.3
		C288.2,146.8,292.6,136,292.6,123.4z"/>
	<path class="st1" d="M407,123.4c0-12.6-4.5-23.4-13.4-32.3c-8.9-8.9-19.7-13.4-32.3-13.4s-23.4,4.5-32.3,13.4
		c-8.9,8.9-13.4,19.7-13.4,32.3c0,12.6,4.5,23.4,13.4,32.3c7.6,7.6,16.6,12,27,13.1l4.4,13.6l4.4-13.4c11.2-0.7,20.8-5.2,28.9-13.3
		C402.5,146.8,407,136,407,123.4z"/>
	<path class="st1" d="M521,123.4c0-12.6-4.5-23.4-13.4-32.3c-8.9-8.9-19.7-13.4-32.3-13.4c-12.6,0-23.4,4.5-32.3,13.4
		c-8.9,8.9-13.4,19.7-13.4,32.3c0,12.6,4.5,23.4,13.4,32.3c7.9,7.9,17.2,12.3,27.9,13.2l4.4,13.5l4.4-13.5
		c10.8-0.9,20.1-5.3,28-13.2C516.5,146.8,521,136,521,123.4z"/>
	<path class="st1" d="M635.4,123.4c0-12.6-4.5-23.4-13.4-32.3c-8.9-8.9-19.7-13.4-32.3-13.4c-12.6,0-23.4,4.5-32.4,13.4
		c-8.9,8.9-13.4,19.7-13.4,32.3c0,12.6,4.5,23.4,13.4,32.3c8.1,8.1,17.8,12.5,28.9,13.3l4,12.3l4-12.4c10.7-1,19.9-5.4,27.7-13.2
		C630.9,146.8,635.4,136,635.4,123.4z"/>
</g>
<g id="Camada_2">
</g>
<g id="Camada_3">
	<path class="st2" d="M586.8,146.8h28.5v-12.1c0-3.1-1.7-5.8-4.3-7.2c0.7-1.2,1.2-2.6,1.2-4.1c0-3.5-2.4-6.4-5.6-7.4
		c0.1-0.4,0.1-0.9,0.1-1.3c0-4.2-3.4-7.7-7.7-7.7c-0.5,0-1,0.1-1.4,0.1c-0.9-3.2-3.9-5.5-7.3-5.5c-3.6,0-6.5,2.4-7.4,5.7
		c-0.4-0.1-0.9-0.1-1.4-0.1c-4.2,0-7.7,3.4-7.7,7.7c0,0.4,0,0.7,0.1,1.1c-3.2,0.9-5.5,3.9-5.5,7.3c0,1.5,0.4,2.9,1.2,4.1
		c-2.6,1.4-4.3,4.1-4.3,7.2v12.1L586.8,146.8z M593.7,144.5h-6.9v-9.8c0-3.1-1.7-5.8-4.3-7.2c0.6-0.6,1.4-1.1,2.2-1.4
		c1.5,1.3,3.4,2.1,5.5,2.1s4-0.8,5.5-2.1c0.8,0.3,1.6,0.8,2.2,1.4c-2.5,1.4-4.3,4.1-4.3,7.2L593.7,144.5L593.7,144.5z M584.3,119.9
		c0-3.3,2.7-6,6-6s6,2.7,6,6s-2.7,6-6,6S584.3,123.1,584.3,119.9L584.3,119.9z M612.9,134.7v9.8l-13.3,0H596v-9.8
		c0-2.4,1.5-4.5,3.6-5.4c1.3,1.1,3,1.8,4.9,1.8c1.8,0,3.5-0.7,4.9-1.8C611.4,130.2,612.9,132.3,612.9,134.7L612.9,134.7z
		 M609.7,123.4c0,2.9-2.4,5.3-5.3,5.3c-2.9,0-5.3-2.4-5.3-5.3c0-2.9,2.4-5.3,5.3-5.3C607.4,118.1,609.7,120.4,609.7,123.4z
		 M599,109.4c2.9,0,5.3,2.4,5.3,5.3c0,0.4,0,0.7-0.1,1c-2.3,0.1-4.4,1.2-5.8,2.9c-0.4-2.6-2-4.9-4.3-6.1
		C595,110.7,596.8,109.4,599,109.4L599,109.4z M590.2,104c2.4,0,4.5,1.7,5.1,3.9c-1.5,0.8-2.7,2.2-3.4,3.8c-0.6-0.1-1.1-0.2-1.7-0.2
		c-0.6,0-1.2,0.1-1.8,0.2c-0.7-1.5-1.9-2.8-3.4-3.6C585.6,105.8,587.7,104,590.2,104L590.2,104z M581.4,109.6c2.1,0,3.9,1.2,4.8,3
		c-2.2,1.2-3.8,3.5-4.2,6.1c-1.4-1.7-3.5-2.9-5.8-2.9c0-0.3-0.1-0.5-0.1-0.8C576.1,112,578.5,109.6,581.4,109.6L581.4,109.6z
		 M576,118.1c2.9,0,5.3,2.4,5.3,5.3c0,2.9-2.4,5.3-5.3,5.3c-2.9,0-5.3-2.4-5.3-5.3C570.7,120.4,573.1,118.1,576,118.1z M567.6,134.7
		c0-2.4,1.5-4.5,3.6-5.4c1.3,1.1,3,1.8,4.9,1.8s3.5-0.7,4.9-1.8c2.1,0.9,3.6,3,3.6,5.4v9.8h-3.6l-13.3,0L567.6,134.7z"/>
	<path class="st3" d="M490.4,123.4l7-10.2l0.7,0.5c0.4,0.2,0.4,0.7,0.2,1.1c-1.8,2.6-5.6,8.2-5.6,8.2c-0.2,0.4-0.2,0.8,0.2,1.1
		c0.4,0.2,0.8,0.2,1.1-0.2c0,0,3.9-5.6,5.6-8.2c0.7-1.1,0.5-2.5-0.6-3.2l-0.7-0.5l1-1.5c0.3-0.5,0.5-1.1,0.4-1.7
		c-0.1-0.6-0.5-1.1-1-1.5l-1.7-1.2c-0.5-0.3-1.1-0.5-1.7-0.4c-0.6,0.1-1.1,0.5-1.5,1l-3.3,4.8v-9c0-0.4-0.3-0.8-0.8-0.8h-32.9
		c-0.4,0-0.8,0.3-0.8,0.8V146c0,0.4,0.3,0.8,0.8,0.8h32.9c0.4,0,0.8-0.3,0.8-0.8L490.4,123.4z M488.8,113.8v-10.5h-31.3v41.9h31.3
		v-19.5l-5.3,7.7c0,0-0.1,0.1-0.1,0.1c0,0-0.1,0.1-0.1,0.1l-4.7,3.1h4.4c0.4,0,0.8,0.3,0.8,0.8c0,0.4-0.3,0.8-0.8,0.8h-12
		c-0.4,0-0.8-0.3-0.8-0.8c0-0.4,0.3-0.8,0.8-0.8h5.3c0,0,0,0,0-0.1l1.4-6.2h-14.5c-0.4,0-0.8-0.3-0.8-0.8c0-0.4,0.3-0.8,0.8-0.8
		h15.2l3.2-4.7h-18.4c-0.4,0-0.8-0.3-0.8-0.8c0-0.4,0.3-0.8,0.8-0.8h19.4L488.8,113.8z M479.2,131.3c-0.3,1.4-0.8,3.8-0.8,3.8
		l3.2-2.1L479.2,131.3z M493.1,110.3l3,2.1l-13.4,19.5l-3-2.1L493.1,110.3z M463.3,118h19.8c0.4,0,0.8-0.3,0.8-0.8s-0.3-0.8-0.8-0.8
		h-19.8c-0.4,0-0.8,0.3-0.8,0.8S462.9,118,463.3,118z M463.3,111.8h19.8c0.4,0,0.8-0.3,0.8-0.8c0-0.4-0.3-0.8-0.8-0.8h-19.8
		c-0.4,0-0.8,0.3-0.8,0.8C462.5,111.4,462.9,111.8,463.3,111.8z M497,111.1l-3-2.1l1-1.5c0.1-0.2,0.3-0.3,0.5-0.3
		c0.2,0,0.4,0,0.6,0.1l1.7,1.2c0.2,0.1,0.3,0.3,0.3,0.5c0,0.2,0,0.4-0.1,0.6L497,111.1z"/>
	<g>
		<path class="st2" d="M361.4,146.7c-0.5,0-1.1-0.1-1.6-0.4c-0.5-0.3-0.9-0.7-1.1-1.1l-3.7-6.4c-1.7-2.9-3.8-5.6-6.2-8
			c-2.6-2.8-4.3-6.4-4.6-10.3c-0.4-3.8,0.6-7.7,2.7-10.9c2.1-3.2,5.2-5.7,8.9-7c2.6-0.9,5.4-1.1,8.2-0.7c2.7,0.4,5.4,1.5,7.6,3.1
			c2.2,1.6,4,3.7,5.2,6.1c1.2,2.4,1.9,5.1,1.9,7.8c0,0.2,0,0.5,0,0.7v0.1c0,0.1,0,0.2,0,0.3c-0.2,3.8-1.7,7.3-4.2,10.2
			c-2.7,3-5.2,6.3-7.3,9.8l-2.9,5.1c-0.3,0.5-0.7,0.9-1.1,1.1C362.4,146.6,361.9,146.7,361.4,146.7L361.4,146.7z M356.1,104.1
			c-3.3,1.2-6.1,3.4-8,6.3c-1.9,3-2.8,6.5-2.4,9.9c0.3,3.5,1.8,6.8,4.2,9.3c2.5,2.5,4.6,5.3,6.4,8.3l3.7,6.4
			c0.3,0.5,0.8,0.7,1.4,0.7c0.5,0,1.1-0.3,1.4-0.7l2.9-5.1c2.2-3.6,4.7-6.9,7.5-10c2.3-2.6,3.6-5.9,3.8-9.4v0l0-0.3
			c0-0.2,0-0.4,0-0.6c0-2.5-0.6-4.9-1.7-7.1c-1.1-2.2-2.7-4.1-4.7-5.6c-2.1-1.5-4.4-2.5-6.9-2.8
			C361.1,103.1,358.5,103.3,356.1,104.1L356.1,104.1z M361.3,130.3c-3.2,0-6.2-1.3-8.4-3.5c-2.2-2.2-3.5-5.3-3.5-8.4
			c0-3.2,1.3-6.2,3.5-8.4c2.2-2.2,5.3-3.5,8.4-3.5c3.2,0,6.2,1.3,8.4,3.5c2.2,2.2,3.5,5.3,3.5,8.4c0,3.2-1.3,6.2-3.5,8.4
			C367.5,129.1,364.5,130.3,361.3,130.3L361.3,130.3z M361.3,108c-2.8,0-5.4,1.1-7.3,3c-1.9,1.9-3,4.6-3,7.3c0,2.8,1.1,5.4,3,7.3
			c1.9,1.9,4.6,3,7.3,3c2.8,0,5.4-1.1,7.3-3c1.9-1.9,3-4.6,3-7.3c0-2.8-1.1-5.4-3-7.3C366.7,109.1,364.1,108,361.3,108L361.3,108z"
			/>
		<path class="st2" d="M361.3,126.4c-0.8,0-1.7,0-2.5,0c-0.4,0-0.7-0.3-0.7-0.7c0-1.3-0.1-2.7-0.1-4c-1.3,0-2.7-0.1-4-0.1h0
			c-0.4,0-0.7-0.3-0.7-0.7c-0.1-1.7-0.1-3.3,0-5c0-0.4,0.3-0.7,0.7-0.7c1.3,0,2.7-0.1,4-0.1c0-1.3,0.1-2.7,0.1-4
			c0-0.4,0.3-0.7,0.7-0.7c1.7-0.1,3.3-0.1,5,0h0c0.4,0,0.7,0.3,0.7,0.7c0,1.3,0.1,2.7,0.1,4c1.3,0,2.7,0.1,4,0.1
			c0.4,0,0.7,0.3,0.7,0.7c0.1,1.7,0.1,3.3,0,5c0,0.4-0.3,0.7-0.7,0.7c-1.3,0-2.7,0.1-4,0.1c0,1.3-0.1,2.7-0.1,4
			c0,0.4-0.3,0.7-0.7,0.7C363,126.4,362.1,126.4,361.3,126.4L361.3,126.4z M359.6,124.8c1.1,0,2.3,0,3.4,0c0-1.3,0.1-2.7,0.1-4
			c0-0.4,0.3-0.8,0.8-0.8c1.3,0,2.7,0,4-0.1c0-1.1,0-2.3,0-3.4c-1.3,0-2.7-0.1-4-0.1c-0.4,0-0.8-0.3-0.8-0.8c0-1.3,0-2.7-0.1-4
			c-1.1,0-2.3,0-3.4,0c0,1.3-0.1,2.7-0.1,4c0,0.4-0.3,0.8-0.8,0.8c-1.3,0-2.7,0-4,0.1c0,1.1,0,2.3,0,3.4c1.3,0,2.7,0.1,4,0.1
			c0.4,0,0.8,0.3,0.8,0.8C359.5,122.2,359.6,123.5,359.6,124.8z"/>
	</g>
	<g>
		<path class="st2" d="M248.1,113.9h-5.7c-1.6,0-2.9,1.3-2.9,2.9v3.4c0,1.6,1.3,2.9,2.9,2.9h5.7c1.6,0,2.9-1.3,2.9-2.9v-3.4
			C250.9,115.2,249.6,113.9,248.1,113.9z M248.6,120.2c0,0.3-0.3,0.6-0.6,0.6l-5.7,0c-0.3,0-0.6-0.3-0.6-0.6v-3.4
			c0-0.3,0.3-0.6,0.6-0.6h5.7c0.3,0,0.6,0.3,0.6,0.6V120.2z M236,118.5c0,0.6-0.5,1.1-1.1,1.1H232v2.9c0,0.6-0.5,1.1-1.1,1.1
			s-1.1-0.5-1.1-1.1v-2.9h-2.9c-0.6,0-1.1-0.5-1.1-1.1c0-0.6,0.5-1.1,1.1-1.1h2.9v-2.9c0-0.6,0.5-1.1,1.1-1.1s1.1,0.5,1.1,1.1v2.9
			h2.9C235.5,117.4,236,117.9,236,118.5z M272.2,123.7l-4.8-9c-1.2-2.2-3.5-3.6-6.1-3.6h-4.8c-0.4-1.3-1.4-2.3-2.7-2.7v-1.3
			c0-1.9-1.5-3.4-3.4-3.4c-1.9,0-3.4,1.5-3.4,3.4v1.1h-22.3c-2.2,0-4,1.8-4,4v23.5c0,2.2,1.8,4,4,4h3c0.5,2.9,3.1,5.2,6.2,5.2
			c3.1,0,5.7-2.2,6.2-5.2h16.8c0.5,2.9,3.1,5.2,6.2,5.2c3.1,0,5.7-2.2,6.2-5.2l2.4,0c2.2,0,4-1.8,4-4v-8
			C275.6,125.7,274.1,124,272.2,123.7L272.2,123.7z M256.6,113.4h4.7c1.7,0,3.2,0.9,4,2.4l4.2,7.9h-11.2c-0.9,0-1.7-0.8-1.7-1.7
			V113.4z M249.2,107.1c0-0.6,0.5-1.1,1.1-1.1c0.6,0,1.1,0.5,1.1,1.1v1.1h-2.3V107.1z M237.7,139c-0.2,2-1.9,3.6-4,3.6
			c-2.2,0-4-1.8-4-4c0-2.2,1.8-4,4-4c1.2,0,2.4,0.6,3.2,1.6c0.5,0.7,0.8,1.6,0.8,2.5C237.7,138.7,237.7,138.9,237.7,139L237.7,139z
			 M266.9,139c-0.2,2-1.9,3.6-4,3.6c-2.2,0-4-1.8-4-4c0-2.2,1.8-4,4-4c1.2,0,2.4,0.6,3.2,1.6c0.5,0.7,0.8,1.6,0.8,2.5
			C267,138.7,267,138.9,266.9,139L266.9,139z M273.3,135.7c0,0.9-0.8,1.7-1.7,1.7h-2.4c-0.2-1-0.6-1.9-1.2-2.7c-1.2-1.6-3-2.4-5-2.4
			c-3.1,0-5.7,2.2-6.2,5.2l-16.8,0c-0.2-1-0.6-1.9-1.2-2.7c-1.2-1.6-3-2.4-5-2.4c-3.1,0-5.7,2.2-6.2,5.2l-3,0
			c-0.9,0-1.7-0.8-1.7-1.7l0-5.7h27.5c0.6,0,1.1-0.5,1.1-1.1c0-0.6-0.5-1.1-1.1-1.1h-27.5v-15.5c0-0.9,0.8-1.7,1.7-1.7h28.1
			c0.9,0,1.7,0.8,1.7,1.7v9.7c0,2.2,1.8,4,4,4h13.1l0.1,0c0.9,0,1.7,0.8,1.7,1.7L273.3,135.7z"/>
	</g>
	<g>
		<path class="st2" d="M132.5,127.2c4.4,0,8-3.6,8-8c0-4.4-3.6-8-8-8s-8,3.6-8,8C124.5,123.7,128.1,127.2,132.5,127.2z M132.5,113.2
			c3.3,0,6,2.7,6,6c0,3.3-2.7,6-6,6s-6-2.7-6-6C126.5,115.9,129.2,113.2,132.5,113.2L132.5,113.2z M128,119.2c0-0.6,0.4-1,1-1h2.5
			v-2.5c0-0.6,0.4-1,1-1s1,0.4,1,1v2.5h2.5c0.6,0,1,0.4,1,1s-0.4,1-1,1h-2.5v2.5c0,0.6-0.4,1-1,1s-1-0.4-1-1v-2.5H129
			C128.5,120.2,128,119.8,128,119.2z M153.5,120.7H147v-12h2c1.9,0,3.5-1.6,3.5-3.5c0-1.9-1.6-3.5-3.5-3.5h-33
			c-1.9,0-3.5,1.6-3.5,3.5c0,1.9,1.6,3.5,3.5,3.5h2v12l-6.5,0c-1.7,0-3,1.3-3,3c0,1.7,1.3,3,3,3h1v19c0,0.6,0.4,1,1,1h38
			c0.6,0,1-0.4,1-1v-19h1c1.7,0,3-1.3,3-3C156.5,122.1,155.2,120.7,153.5,120.7L153.5,120.7z M118,144.7h-3.5l0-18h3.5L118,144.7z
			 M118,124.7h-6.5c-0.6,0-1-0.4-1-1s0.4-1,1-1h6.5V124.7z M116,106.7c-0.8,0-1.5-0.7-1.5-1.5c0-0.8,0.7-1.5,1.5-1.5h33
			c0.8,0,1.5,0.7,1.5,1.5c0,0.8-0.7,1.5-1.5,1.5H116z M131.5,144.7H126v-11.5c0-0.8,0.7-1.5,1.5-1.5h4V144.7z M139,144.7h-5.5v-13h4
			c0.8,0,1.5,0.7,1.5,1.5V144.7z M145,144.7h-4v-11.5c0-1.9-1.6-3.5-3.5-3.5h-10c-1.9,0-3.5,1.6-3.5,3.5v11.5h-4v-36h25V144.7z
			 M150.5,144.7H147l0-18h3.5L150.5,144.7z M153.5,124.7H147v-2h6.5c0.6,0,1,0.4,1,1C154.5,124.3,154.1,124.7,153.5,124.7z"/>
	</g>
	<circle class="st4" cx="129.7" cy="219.7" r="13.2"/>
	<circle class="st4" cx="244.4" cy="219.7" r="13.2"/>
	<circle class="st4" cx="359.3" cy="219.7" r="13.2"/>
	<circle class="st4" cx="474.3" cy="219.7" r="13.2"/>
	<circle class="st4" cx="590.2" cy="219.7" r="13.2"/>
	<text transform="matrix(1 0 0 1 125.4031 224.0243)" class="st2 st5 st6">1</text>
	<text transform="matrix(1 0 0 1 240.357 224.0243)" class="st2 st5 st6">2</text>
	<text transform="matrix(1 0 0 1 355.311 224.0243)" class="st2 st5 st6">3</text>
	<text transform="matrix(1 0 0 1 470.265 224.0243)" class="st2 st5 st6">4</text>
	<text transform="matrix(1 0 0 1 586.2189 224.0243)" class="st2 st5 st6">5</text>
</g>
</svg>
