<?xml version="1.0" encoding="utf-8"?>
<!-- Generator: Adobe Illustrator 24.3.0, SVG Export Plug-In . SVG Version: 6.00 Build 0)  -->
<svg version="1.1" id="Camada_1" xmlns="http://www.w3.org/2000/svg" xmlns:xlink="http://www.w3.org/1999/xlink" x="0px" y="0px"
	 viewBox="0 0 120 120" style="enable-background:new 0 0 120 120;" xml:space="preserve">
<style type="text/css">
	.st0{fill:#7CB8AF;}
	.st1{fill:#0F5DA6;}
</style>
<g transform="matrix( 0.9119873046875, 0, 0, 0.9119873046875, -74.5,-4.35) ">
	<g>
		<g id="Layer0_0_MEMBER_0_MEMBER_0_FILL">
			<path class="st0" d="M209.8,70.1c0-17.3-6.1-32-18.3-44.2S164.6,7.6,147.3,7.6s-32,6.1-44.2,18.3S84.8,52.8,84.8,70.1
				s6.1,32,18.3,44.2s26.9,18.3,44.2,18.3s32-6.1,44.2-18.3S209.8,87.3,209.8,70.1z"/>
		</g>
	</g>
</g>
<g>
	<path class="st1" d="M109.5,107.1l-4.2-5.3c-1.2-1.5-2.8-2.7-4.6-3.4c2.5-1.6,4-3.8,4.1-3.9c0.3-0.4,0.3-0.9,0.2-1.3
		c-0.1-0.4-0.4-0.8-0.8-1c-3.4-1.7-5.6-5.2-5.6-9V69.6c0-4.2-2.6-7.9-6.5-9.4v-15h3.2c0.9,0,1.6-0.7,1.6-1.6v-4.8h1.6
		c0.9,0,1.6-0.7,1.6-1.6v-6.5c0-0.2,0-0.4-0.1-0.6c0,0,0-0.1-0.1-0.1c-0.1-0.1-0.1-0.3-0.3-0.4c0,0,0-0.1-0.1-0.1
		c-0.1-0.1-0.2-0.2-0.4-0.3L60.6,9.9c-0.5-0.2-1-0.2-1.4,0L20.4,29.2c-0.1,0.1-0.3,0.2-0.4,0.3c0,0,0,0.1-0.1,0.1
		c-0.1,0.1-0.2,0.2-0.3,0.4c0,0,0,0.1-0.1,0.1c-0.1,0.2-0.1,0.4-0.1,0.6v6.5c0,0.9,0.7,1.6,1.6,1.6h1.6v4.8c0,0.9,0.7,1.6,1.6,1.6
		h3.2v13.7c-3.9,3.3-6.5,8.2-6.5,13.7v10.5c0,3.8-2.1,7.3-5.6,9c-0.4,0.2-0.7,0.6-0.8,1c-0.1,0.4,0,0.9,0.2,1.3
		c0.1,0.1,1.6,2.3,4.1,3.9c-1.8,0.7-3.4,1.9-4.6,3.4l-4.2,5.3c-0.4,0.5-0.5,1.1-0.2,1.7c0.3,0.6,0.8,0.9,1.5,0.9h96.8
		c0.6,0,1.2-0.4,1.5-0.9C110,108.2,109.9,107.6,109.5,107.1L109.5,107.1z M101,94c-1.2,1.2-3.2,2.8-5.6,2.8c-0.2,0-0.5,0.1-0.7,0.2
		l-7.4-1.5v-0.3c0,0,0-0.1,0-0.1c3-1.7,5.2-4.6,6.1-8.1c0.8-0.2,1.6-0.5,2.3-1C96.4,89.3,98.3,92.1,101,94L101,94z M24.4,80.7
		c0-1.2,0.7-2.2,1.6-2.8v5.6C25,82.9,24.4,81.9,24.4,80.7z M29.2,77.4c3.6-0.3,7-1.8,9.7-4.2c1,0.9,2.1,1.6,3.2,2.2v5.3
		c0,3.1,2.3,5.8,5.2,6.3c0.1,0.3,0.2,0.7,0.3,1c0,0,0,0,0,0c-1.6,3.4-5,5.5-8.7,5.5c-5.3,0-9.7-4.3-9.7-9.7L29.2,77.4z M59.9,58.1
		c8,0,14.5,6.5,14.5,14.5v2.5c-0.5-0.3-1-0.5-1.6-0.7v-1.8c0-0.9-0.7-1.6-1.6-1.6H48.6c-0.9,0-1.6,0.7-1.6,1.6v1.8
		c-0.6,0.1-1.1,0.4-1.6,0.7v-2.5C45.4,64.6,51.9,58.1,59.9,58.1z M63.1,55.2c-1-0.2-2.1-0.3-3.2-0.3c-1.1,0-2.2,0.1-3.2,0.3v-3.5
		h6.5V55.2z M80.8,73.2c2.7,2.4,6.1,3.8,9.7,4.2v6.5c0,5.3-4.3,9.7-9.7,9.7c-3.8,0-7.2-2.2-8.7-5.6c0.1-0.3,0.2-0.7,0.3-1
		c3-0.6,5.2-3.2,5.2-6.3v-5.3C78.8,74.8,79.9,74.1,80.8,73.2L80.8,73.2z M95.4,80.7c0,1.2-0.7,2.2-1.6,2.8v-5.6
		C94.7,78.5,95.4,79.5,95.4,80.7z M59.9,93.6c-5.3,0-9.7-4.3-9.7-9.7v-9.7h19.4v9.7C69.6,89.2,65.2,93.6,59.9,93.6z M45.4,80.7
		c0-1.2,0.7-2.2,1.6-2.8v5.6C46,82.9,45.4,81.9,45.4,80.7z M72.8,77.9c1,0.6,1.6,1.6,1.6,2.8s-0.7,2.2-1.6,2.8V77.9z M37.6,99.8
		c-1.1-0.5-1.9-1.7-1.9-3v-0.4c1,0.3,2.1,0.4,3.2,0.4c1.1,0,2.2-0.2,3.2-0.4v0.4c0,0.3-0.1,0.7-0.2,1C40.4,98.1,38.9,98.8,37.6,99.8
		L37.6,99.8z M45.3,95.1c1.6-0.9,3-2.2,4.1-3.7c1.1,1.5,2.5,2.8,4.1,3.7c0,0.1,0,0.3,0,0.4l-8.1,1.6c0-0.1,0-0.2,0-0.3v-1.6
		C45.4,95.2,45.3,95.1,45.3,95.1L45.3,95.1z M59.9,96.8c0.7,0,1.4-0.1,2.1-0.2l-2.1,3.5l-2.1-3.5C58.5,96.7,59.2,96.8,59.9,96.8z
		 M66.3,95.1c1.6-0.9,3-2.2,4.1-3.7c1.1,1.5,2.5,2.8,4.1,3.7c0,0,0,0.1,0,0.1v1.6c0,0.1,0,0.2,0,0.3l-8.1-1.6
		C66.3,95.4,66.3,95.2,66.3,95.1L66.3,95.1z M77.8,97.8c-0.1-0.3-0.2-0.6-0.2-1v-0.4c1,0.3,2.1,0.4,3.2,0.4c1.1,0,2.2-0.2,3.2-0.4
		v0.4c0,1.3-0.8,2.4-1.9,3C80.8,98.8,79.4,98.1,77.8,97.8L77.8,97.8z M95.4,69.6v5.5c-1-0.6-2-0.9-3.2-0.9c-3.7,0-7.2-1.5-9.9-4.1
		L82,69.9c-0.6-0.6-1.6-0.6-2.3,0l-0.3,0.3c-0.6,0.6-1.2,1.1-1.9,1.6c-0.2-4.3-2-8.2-4.7-11.2c2.4-1.6,5.2-2.4,8-2.4h0.6
		c3.1,0,6,1.5,7.7,4.1c0,0,0.1,0.1,0.1,0.1c0.1,0.1,0.1,0.1,0.2,0.2c0.1,0.1,0.2,0.1,0.3,0.2c0.1,0,0.2,0.1,0.3,0.1
		c0,0,0.1,0,0.1,0.1C93.2,63.7,95.4,66.4,95.4,69.6L95.4,69.6z M82.5,54.9c-0.3,0-0.6-0.1-1-0.1h-0.6c-1.6,0-3.3,0.2-4.8,0.7v-3.9
		h6.5V54.9z M59.9,13.1l31.9,15.9H74.4c-0.9,0-1.6,0.7-1.6,1.6c0,0.9,0.7,1.6,1.6,1.6H97v3.2H67.1c1.5-1.7,2.5-4,2.5-6.5
		c0-5.3-4.3-9.7-9.7-9.7s-9.7,4.3-9.7,9.7c0,2.5,0.9,4.7,2.5,6.5H22.8v-3.2h22.6c0.9,0,1.6-0.7,1.6-1.6s-0.7-1.6-1.6-1.6H28
		L59.9,13.1z M53.4,29.1c0-3.6,2.9-6.5,6.5-6.5s6.5,2.9,6.5,6.5s-2.9,6.5-6.5,6.5S53.4,32.6,53.4,29.1z M26,38.7h67.7V42H26V38.7z
		 M30.8,45.2h58.1v12.2c-1-0.7-2.1-1.3-3.2-1.7V50c0-0.9-0.7-1.6-1.6-1.6h-9.7c-0.9,0-1.6,0.7-1.6,1.6v6.5c0,0.1,0,0.2,0.1,0.3
		c-0.9,0.4-1.7,0.9-2.5,1.5c-1.2-0.9-2.6-1.7-4-2.2l0-6.1c0-0.9-0.7-1.6-1.6-1.6H55c-0.9,0-1.6,0.7-1.6,1.6v6.1
		c-1.4,0.6-2.8,1.3-4,2.2c-0.8-0.6-1.6-1.1-2.5-1.5c0-0.1,0.1-0.2,0.1-0.3V50c0-0.9-0.7-1.6-1.6-1.6h-9.7c-0.9,0-1.6,0.7-1.6,1.6
		v5.5c-1.1,0.3-2.2,0.7-3.2,1.3L30.8,45.2z M43.7,55.6c-1.6-0.4-3.2-0.7-4.8-0.7c-0.5,0-1.1,0-1.6,0.1v-3.3h6.5V55.6z M38.9,58.1
		c2.9,0,5.7,0.9,8,2.4c-2.8,3-4.5,6.9-4.7,11.2c-0.7-0.5-1.3-1-1.9-1.6L40,69.9c-0.6-0.6-1.6-0.6-2.3,0l-0.3,0.3
		c-2.6,2.6-6.1,4.1-9.9,4.1c-1.2,0-2.3,0.3-3.2,0.9v-2.5C24.4,64.6,30.9,58.1,38.9,58.1L38.9,58.1z M24.1,86.1
		c0.7,0.5,1.5,0.8,2.3,1c0.9,3.4,3.1,6.3,6.1,8.1c0,0,0,0.1,0,0.1v0.3L25.1,97c-0.2-0.1-0.4-0.2-0.7-0.2c-2.4,0-4.5-1.6-5.6-2.8
		C21.5,92.1,23.3,89.3,24.1,86.1L24.1,86.1z M17,103.8c1.2-1.5,2.9-2.5,4.7-2.9l11.1-2.2c0.4,1.4,1.3,2.5,2.4,3.4l-3.5,4.4H14.8
		L17,103.8z M35.8,106.5l2.2-2.7c1.2-1.5,2.9-2.5,4.7-2.9l12.4-2.5l3.4,5.7c0.3,0.5,0.8,0.8,1.4,0.8c0.6,0,1.1-0.3,1.4-0.8l3.4-5.7
		l12.4,2.5c1.9,0.4,3.5,1.4,4.7,2.9l2.2,2.7H35.8z M88.1,106.5l-3.5-4.4c1.2-0.8,2-2,2.4-3.4l11.1,2.2c1.9,0.4,3.5,1.4,4.7,2.9
		l2.2,2.7L88.1,106.5z"/>
</g>
</svg>
