<?xml version="1.0" encoding="utf-8"?>
<!-- Generator: Adobe Illustrator 24.3.0, SVG Export Plug-In . SVG Version: 6.00 Build 0)  -->
<svg version="1.1" xmlns="http://www.w3.org/2000/svg" xmlns:xlink="http://www.w3.org/1999/xlink" x="0px" y="0px"
	 viewBox="0 0 735 320" style="enable-background:new 0 0 735 320;" xml:space="preserve">
<style type="text/css">
	.st0{fill:#FFCE41;stroke:#FFFFFF;stroke-miterlimit:10;}
	.st1{fill:#FFAC5A;stroke:#FFFFFF;stroke-miterlimit:10;}
	.st2{fill:#FF9341;stroke:#FFFFFF;stroke-miterlimit:10;}
	.st3{fill:#F58B1B;stroke:#FFFFFF;stroke-miterlimit:10;}
	.st4{fill:#FFAC5A;}
	.st5{fill:#FFFFFF;}
	.st6{fill:none;}
	.st7{fill:#105DA6;}
	.st8{font-family:'OpenSans-Bold';}
	.st9{font-size:12px;}
	.st10{font-family:'OpenSans-Regular';}
	.st11{font-size:10px;}
</style>
<g id="Camada_1">
	<path class="st0" d="M211.1,172.2H27.5c-3.7,0-6.7-3-6.7-6.7v0c0-3.7,3-6.7,6.7-6.7h183.5c3.7,0,6.7,3,6.7,6.7v0
		C217.8,169.1,214.8,172.2,211.1,172.2z"/>
	<path class="st1" d="M373.7,172.2H190.2c-3.7,0-6.7-3-6.7-6.7v0c0-3.7,3-6.7,6.7-6.7h183.5c3.7,0,6.7,3,6.7,6.7v0
		C380.5,169.1,377.5,172.2,373.7,172.2z"/>
	<path class="st2" d="M536.4,172.2H352.9c-3.7,0-6.7-3-6.7-6.7v0c0-3.7,3-6.7,6.7-6.7h183.5c3.7,0,6.8,3,6.8,6.7v0
		C543.2,169.1,540.1,172.2,536.4,172.2z"/>
	<path class="st3" d="M699.1,172.2H515.5c-3.7,0-6.8-3-6.8-6.7v0c0-3.7,3-6.7,6.8-6.7h183.5c3.7,0,6.8,3,6.8,6.7v0
		C705.8,169.1,702.8,172.2,699.1,172.2z"/>
	<path class="st4" d="M60.7,228c0,12.6,4.5,23.4,13.4,32.3c8.9,8.9,19.7,13.4,32.3,13.4c12.6,0,23.4-4.5,32.3-13.4
		c8.9-8.9,13.4-19.7,13.4-32.3c0-12.6-4.5-23.4-13.4-32.3c-7.3-7.3-15.9-11.7-25.8-13l-4.5-13.7l-4.3,13.4
		c-11.7,0.5-21.7,4.9-30.1,13.3C65.2,204.6,60.7,215.4,60.7,228z"/>
	<circle class="st5" cx="106.4" cy="228.3" r="38.8"/>
	<path class="st4" d="M386,228c0,12.6,4.5,23.4,13.4,32.3c8.9,8.9,19.7,13.4,32.3,13.4c12.6,0,23.4-4.5,32.3-13.4
		c8.9-8.9,13.4-19.7,13.4-32.3c0-12.6-4.5-23.4-13.4-32.3c-7.3-7.3-15.9-11.7-25.8-13l-4.5-13.7l-4.3,13.4
		c-11.7,0.5-21.7,4.9-30.1,13.3C390.5,204.6,386,215.4,386,228z"/>
	<path class="st4" d="M320.4,102.8c0-12.6-4.5-23.4-13.4-32.3c-8.9-8.9-19.7-13.4-32.3-13.4c-12.6,0-23.4,4.5-32.3,13.4
		c-8.9,8.9-13.4,19.7-13.4,32.3c0,12.6,4.5,23.4,13.4,32.3c7.3,7.3,15.9,11.7,25.8,13l4.5,13.7l4.3-13.4
		c11.7-0.5,21.7-4.9,30.1-13.3C316,126.2,320.4,115.4,320.4,102.8z"/>
	<circle class="st5" cx="274.7" cy="102.5" r="38.8"/>
	<path class="st4" d="M653,102.8c0-12.6-4.5-23.4-13.4-32.3c-8.9-8.9-19.7-13.4-32.3-13.4c-12.6,0-23.4,4.5-32.3,13.4
		c-8.9,8.9-13.4,19.7-13.4,32.3c0,12.6,4.5,23.4,13.4,32.3c7.3,7.3,15.9,11.7,25.8,13l4.5,13.7l4.3-13.4
		c11.7-0.5,21.7-4.9,30.1-13.3C648.6,126.2,653,115.4,653,102.8z"/>
	<circle class="st5" cx="607.3" cy="102.5" r="38.8"/>
	<circle class="st5" cx="431.7" cy="228.3" r="38.8"/>
</g>
<g id="Camada_2">
	<rect x="69.5" y="223.3" class="st6" width="73.8" height="12"/>
	<text transform="matrix(1 0 0 1 72.3038 232.4363)" class="st7 st8 st9">1991 a 1995</text>
	<rect x="393.9" y="223.3" class="st6" width="75.7" height="12"/>
	<text transform="matrix(1 0 0 1 397.596 232.4363)" class="st7 st8 st9">2001 a 2010</text>
	<rect x="237.8" y="96.5" class="st6" width="73.8" height="12"/>
	<text transform="matrix(1 0 0 1 240.5686 105.5751)" class="st7 st8 st9">1996 a 2000</text>
	<rect x="570.4" y="96.5" class="st6" width="73.8" height="12"/>
	<text transform="matrix(1 0 0 1 573.1561 105.5751)" class="st7 st8 st9">2011 a 2021</text>
	<rect x="43.3" y="68" class="st6" width="126.3" height="58.8"/>
	<text transform="matrix(1 0 0 1 43.275 75.6256)"><tspan x="0" y="0" class="st10 st11">Primeira metade dos anos </tspan><tspan x="0" y="12" class="st10 st11">90 (1991 a 1995), marcado </tspan><tspan x="0" y="24" class="st10 st11">pela vigência das Normas </tspan><tspan x="0" y="36" class="st10 st11">Operacionais Básicas – </tspan><tspan x="0" y="48" class="st10 st11">NOB 91, 92 e 93</tspan></text>
	<rect x="211.5" y="214.9" class="st6" width="126.3" height="35"/>
	<text transform="matrix(1 0 0 1 211.5402 222.5471)"><tspan x="0" y="0" class="st10 st11">Segunda metade dos anos </tspan><tspan x="0" y="12" class="st10 st11">90 (1996 a 2000), marcado </tspan><tspan x="0" y="24" class="st10 st11">pela vigência da NOB 96</tspan></text>
	<rect x="368.6" y="61.7" class="st6" width="126.3" height="81.5"/>
	<text transform="matrix(1 0 0 1 368.5666 69.3147)"><tspan x="0" y="0" class="st10 st11">Primeira década dos anos </tspan><tspan x="0" y="12" class="st10 st11">2000 (2001 a 2010), </tspan><tspan x="0" y="24" class="st10 st11">marcado pela vigência da </tspan><tspan x="0" y="36" class="st10 st11">Norma Operacional da </tspan><tspan x="0" y="48" class="st10 st11">Assistência à Saúde </tspan><tspan x="0" y="60" class="st10 st11">(NOAS) 2001 e 2002 e pelo </tspan><tspan x="0" y="72" class="st10 st11">Pacto pela Saúde (2006)</tspan></text>
	<rect x="551.9" y="206.3" class="st6" width="120.7" height="46.1"/>
	<text transform="matrix(1 0 0 1 551.9363 213.8714)"><tspan x="0" y="0" class="st10 st11">Segunda década dos </tspan><tspan x="0" y="12" class="st10 st11">anos 2000 (2011 a 2021), </tspan><tspan x="0" y="24" class="st10 st11">marcado pelo Decreto N. </tspan><tspan x="0" y="36" class="st10 st11">7508 (2011)</tspan></text>
	<rect x="31.6" y="79" class="st0" width="2.5" height="56.9"/>
	<rect x="357.9" y="68" class="st0" width="2.5" height="56.9"/>
	<rect x="200.1" y="200.9" class="st0" width="2.5" height="56.9"/>
	<rect x="539.9" y="200.9" class="st0" width="2.5" height="56.9"/>
</g>
</svg>
